<svg version="1.1" id="Layer_1" xmlns="http://www.w3.org/2000/svg" xmlns:xlink="http://www.w3.org/1999/xlink" x="0px" y="0px" viewBox="0 0 40 40" style="enable-background:new 0 0 40 40;" xml:space="preserve">
<g>
	<g>
		<polygon style="fill:#8BB7F0;" points="24.5,15.5 24.5,5.207 28.194,8.901 35.388,1.707 38.293,4.612 31.099,11.806 34.793,15.5 
					"></polygon>
	</g>
	<g>
		<path style="fill:#4E7AB5;" d="M35.388,2.414l2.198,2.198l-6.487,6.487l-0.707,0.707l0.707,0.707L33.586,15H25V6.414l2.487,2.487
			l0.707,0.707l0.707-0.707L35.388,2.414 M35.388,1l-7.194,7.194L24,4v12h12l-4.194-4.194L39,4.612L35.388,1L35.388,1z"></path>
	</g>
</g>
<g>
	<g>
		<polygon style="fill:#8BB7F0;" points="5.207,15.5 8.901,11.806 1.707,4.612 4.612,1.707 11.806,8.901 15.5,5.207 15.5,15.5 		"></polygon>
	</g>
	<g>
		<path style="fill:#4E7AB5;" d="M4.612,2.414l6.487,6.487l0.707,0.707l0.707-0.707L15,6.414V15H6.414l2.487-2.487l0.707-0.707
			l-0.707-0.707L2.414,4.612L4.612,2.414 M4.612,1L1,4.612l7.194,7.194L4,16h12V4l-4.194,4.194L4.612,1L4.612,1z"></path>
	</g>
</g>
<g>
	<g>
		<polygon style="fill:#8BB7F0;" points="1.707,35.388 8.901,28.194 5.207,24.5 15.5,24.5 15.5,34.793 11.806,31.099 4.612,38.293 
					"></polygon>
	</g>
	<g>
		<path style="fill:#4E7AB5;" d="M15,25v8.586l-2.487-2.487l-0.707-0.707l-0.707,0.707l-6.487,6.487l-2.198-2.198l6.487-6.487
			l0.707-0.707l-0.707-0.707L6.414,25H15 M16,24H4l4.194,4.194L1,35.388L4.612,39l7.194-7.194L16,36V24L16,24z"></path>
	</g>
</g>
<g>
	<g>
		<polygon style="fill:#8BB7F0;" points="28.194,31.099 24.5,34.793 24.5,24.5 34.793,24.5 31.099,28.194 38.293,35.388 
			35.388,38.293 		"></polygon>
	</g>
	<g>
		<path style="fill:#4E7AB5;" d="M33.586,25l-2.487,2.487l-0.707,0.707l0.707,0.707l6.487,6.487l-2.198,2.198l-6.487-6.487
			l-0.707-0.707l-0.707,0.707L25,33.586V25H33.586 M36,24H24v12l4.194-4.194L35.388,39L39,35.388l-7.194-7.194L36,24L36,24z"></path>
	</g>
</g>
</svg>