<svg version="1.1" id="Layer_1" xmlns="http://www.w3.org/2000/svg" xmlns:xlink="http://www.w3.org/1999/xlink" x="0px" y="0px" viewBox="0 0 16 16" style="enable-background:new 0 0 16 16;" xml:space="preserve">
<g>
	<g>
		<path style="fill:#8B75A1;" d="M9,1c0.551,0,1,0.449,1,1H6c0-0.551,0.449-1,1-1H9 M9,0H7C5.895,0,5,0.895,5,2v1h6V2
			C11,0.895,10.105,0,9,0L9,0z"></path>
	</g>
</g>
<g>
	<path style="fill:#DCD5F2;" d="M4,14.5c-0.827,0-1.5-0.673-1.5-1.5V3.5h11V13c0,0.827-0.673,1.5-1.5,1.5H4z"></path>
	<path style="fill:#8B75A1;" d="M13,4v9c0,0.551-0.449,1-1,1H4c-0.551,0-1-0.449-1-1V4H13 M14,3H2v10c0,1.105,0.895,2,2,2h8
		c1.105,0,2-0.895,2-2V3L14,3z"></path>
</g>
<g>
	<path style="fill:#DCD5F2;" d="M1.5,4.5V3c0-0.276,0.224-0.5,0.5-0.5h12c0.276,0,0.5,0.224,0.5,0.5v1.5H1.5z"></path>
	<g>
		<path style="fill:#8B75A1;" d="M14,3v1H2V3H14 M14,2H2C1.448,2,1,2.448,1,3v2h14V3C15,2.448,14.552,2,14,2L14,2z"></path>
	</g>
</g>
<rect x="9" y="6" style="fill:#8B75A1;" width="1" height="7"></rect>
<rect x="11" y="6" style="fill:#8B75A1;" width="1" height="7"></rect>
<rect x="6" y="6" style="fill:#8B75A1;" width="1" height="7"></rect>
<rect x="4" y="6" style="fill:#8B75A1;" width="1" height="7"></rect>
</svg>