<svg xmlns="http://www.w3.org/2000/svg" xmlns:xlink="http://www.w3.org/1999/xlink" version="1.1" id="Layer_1" x="0px" y="0px" viewBox="0 0 16 16" style="enable-background:new 0 0 16 16;" xml:space="preserve">
<g>
	<rect x="3.5" y="0.5" style="fill:#FFFFFF;" width="9" height="5"></rect>
	<g>
		<path style="fill:#788B9C;" d="M12,1v4H4V1H12 M13,0H3v6h10V0L13,0z"></path>
	</g>
</g>
<g>
	<g>
		<path style="fill:#B0C1D4;" d="M1.1,12.6c-0.4,0-0.6-0.3-0.6-0.6V5.1c0-0.4,0.3-0.6,0.6-0.6h13.7c0.4,0,0.6,0.3,0.6,0.6V12    c0,0.4-0.3,0.6-0.6,0.6H1.1z"></path>
	</g>
	<g>
		<path style="fill:#66798F;" d="M14.9,5C14.9,5,15,5.1,15,5.1V12c0,0.1-0.1,0.1-0.1,0.1H1.1C1.1,12.1,1,12.1,1,12V5.1    C1,5.1,1.1,5,1.1,5H14.9 M14.9,4H1.1C0.5,4,0,4.5,0,5.1V12c0,0.6,0.5,1.1,1.1,1.1h13.7c0.6,0,1.1-0.5,1.1-1.1V5.1    C16,4.5,15.5,4,14.9,4L14.9,4z"></path>
	</g>
</g>
<g>
	<path style="fill:#8BB7F0;" d="M5,8.5C4.2,8.5,3.5,7.8,3.5,7V4.5h9V7c0,0.8-0.7,1.5-1.5,1.5H5z"></path>
	<g>
		<path style="fill:#4E7AB5;" d="M12,5v2c0,0.6-0.4,1-1,1H5C4.4,8,4,7.6,4,7V5H12 M13,4H3v3c0,1.1,0.9,2,2,2h6c1.1,0,2-0.9,2-2V4    L13,4z"></path>
	</g>
</g>
<g>
	<rect x="3.5" y="10.5" style="fill:#FFFFFF;" width="9" height="5"></rect>
	<g>
		<path style="fill:#788B9C;" d="M12,11v4H4v-4H12 M13,10H3v6h10V10L13,10z"></path>
	</g>
</g>
<rect x="4" y="11" style="fill:#D6E3ED;" width="8" height="1"></rect>
<rect x="5" y="13" style="fill:#788B9C;" width="6" height="1"></rect>
<path style="fill:#66798F;" d="M13,11H3c-0.3,0-0.5-0.2-0.5-0.5S2.7,10,3,10h10c0.3,0,0.5,0.2,0.5,0.5S13.3,11,13,11z"></path>
<g>
	<circle style="fill:#FFEEA3;" cx="13.5" cy="6.5" r="0.5"></circle>
</g>
</svg>