<svg xmlns="http://www.w3.org/2000/svg" viewBox="0 0 20 20"><defs><style>.cls-1{fill:none;}.cls-2{fill:#fff;}</style></defs><title>Ресурс 1227</title><g id="Слой_2" data-name="Слой 2"><g id="Слой_1-2" data-name="Слой 1"><rect id="canvas_background" data-name="canvas background" class="cls-1" width="20" height="20"/><path class="cls-2" d="M18.71,4.14a2.93,2.93,0,0,1-.21,1.09,2.76,2.76,0,0,1-.62.93L6.67,17.37,1.29,18.71l1.34-5.38L13.84,2.12a2.76,2.76,0,0,1,.93-.62,2.93,2.93,0,0,1,1.09-.21A2.79,2.79,0,0,1,17,1.52,2.88,2.88,0,0,1,18.48,3,2.79,2.79,0,0,1,18.71,4.14ZM2.79,17.21l2.8-.69a2.64,2.64,0,0,0-.28-.74,2.92,2.92,0,0,0-.46-.63,2.92,2.92,0,0,0-.63-.46,2.69,2.69,0,0,0-.73-.28Zm1.27-3.77a3.89,3.89,0,0,1,1.56.94,3.89,3.89,0,0,1,.94,1.56l9.2-9.21L13.27,4.24ZM16.53,6l.41-.4a2.64,2.64,0,0,0,.35-.4,1.64,1.64,0,0,0,.33-1,1.77,1.77,0,0,0-.14-.69,1.8,1.8,0,0,0-.94-.94,1.77,1.77,0,0,0-.69-.14,1.6,1.6,0,0,0-.56.09,1.76,1.76,0,0,0-.45.24,2.64,2.64,0,0,0-.4.35l-.4.41Z"/></g></g></svg>