<svg xmlns="http://www.w3.org/2000/svg" viewBox="0 0 20 20"><defs><style>.cls-1{fill:none;}.cls-2{fill:#fff;}</style></defs><title>Ресурс 1204</title><g id="Слой_2" data-name="Слой 2"><g id="Слой_1-2" data-name="Слой 1"><rect id="canvas_background" data-name="canvas background" class="cls-1" width="20" height="20"/><path class="cls-2" d="M1.57,7.68A8.74,8.74,0,0,1,7.68,1.57a8.71,8.71,0,0,1,6.73.88,8.74,8.74,0,0,1,4,5.23A8.89,8.89,0,0,1,18.74,10a8.6,8.6,0,0,1-.47,2.82,8.71,8.71,0,0,1-3.35,4.39,8.06,8.06,0,0,1-2.59,1.2L12,17.36a7.08,7.08,0,0,0,2.26-1.05,7.73,7.73,0,0,0,1.78-1.69,7.53,7.53,0,0,0,1.15-2.15A7.37,7.37,0,0,0,17.65,10a7.21,7.21,0,0,0-.28-2,7.55,7.55,0,0,0-.77-1.82A7.76,7.76,0,0,0,13.85,3.4a7.67,7.67,0,0,0-3.85-1,7.21,7.21,0,0,0-2,.28,7.55,7.55,0,0,0-1.82.77A7.76,7.76,0,0,0,3.4,6.15,7.55,7.55,0,0,0,2.63,8a7.21,7.21,0,0,0-.28,2,7.7,7.7,0,0,0,2.57,5.71,7.5,7.5,0,0,0,1.8,1.19V14.37h1.1v4.37H3.45V17.65H5.78a8.68,8.68,0,0,1-1.88-1.4,8.53,8.53,0,0,1-1.42-1.81,8.84,8.84,0,0,1-.9-2.12A8.55,8.55,0,0,1,1.26,10,8.89,8.89,0,0,1,1.57,7.68ZM10.85,8a2.17,2.17,0,0,1,1.33,2A2.17,2.17,0,0,1,10,12.18,2.17,2.17,0,0,1,7.82,10,2.17,2.17,0,0,1,10,7.82,2.05,2.05,0,0,1,10.85,8Zm-.42,3a1.22,1.22,0,0,0,.58-.58,1.2,1.2,0,0,0,0-.86A1.22,1.22,0,0,0,10.43,9a1.2,1.2,0,0,0-.86,0A1.22,1.22,0,0,0,9,9.57a1.2,1.2,0,0,0,0,.86,1.22,1.22,0,0,0,.58.58,1.2,1.2,0,0,0,.86,0Z"/></g></g></svg>