<svg xmlns="http://www.w3.org/2000/svg" viewBox="0 0 20 20"><defs><style>.cls-1{fill:none;}.cls-2{fill:#fff;}</style></defs><title>Ресурс 1226</title><g id="Слой_2" data-name="Слой 2"><g id="Слой_1-2" data-name="Слой 1"><rect id="canvas_background" data-name="canvas background" class="cls-1" width="20" height="20"/><path class="cls-2" d="M17.64,7.82a1.16,1.16,0,0,1,.42.08,1.16,1.16,0,0,1,.59.59,1.16,1.16,0,0,1,.08.42v7.64H14.37v2.18H5.63V16.55H1.27V8.91a1.16,1.16,0,0,1,.08-.42,1.16,1.16,0,0,1,.59-.59,1.16,1.16,0,0,1,.42-.08H5.63V1.27h8.74V7.82Zm0,1.09H2.36v6.55H5.63V12.18h8.74v3.28h3.27ZM4,10a.52.52,0,0,1,.38.16.53.53,0,0,1,.16.39.55.55,0,0,1-.54.54.53.53,0,0,1-.39-.16.52.52,0,0,1-.16-.38A.55.55,0,0,1,4,10ZM6.72,7.82h6.56V2.36H6.72Zm6.56,5.46H6.72v4.36h6.56Z"/></g></g></svg>