<svg xmlns="http://www.w3.org/2000/svg" viewBox="0 0 20 20"><defs><style>.cls-1{fill:none;}.cls-2{fill:#fff;}</style></defs><title>Ресурс 1218</title><g id="Слой_2" data-name="Слой 2"><g id="Слой_1-2" data-name="Слой 1"><rect id="canvas_background" data-name="canvas background" class="cls-1" width="20" height="20"/><path class="cls-2" d="M14.92,2.79a8.67,8.67,0,0,1,2,1.93,9.1,9.1,0,0,1,1.32,2.46A8.6,8.6,0,0,1,18.74,10a8.49,8.49,0,0,1-.32,2.32,8.54,8.54,0,0,1-2.24,3.86,8.34,8.34,0,0,1-1.77,1.36,8.41,8.41,0,0,1-2.09.88,8.57,8.57,0,0,1-4.64,0,8.41,8.41,0,0,1-2.09-.88,8.59,8.59,0,0,1-3.13-3.13,8.41,8.41,0,0,1-.88-2.09A8.44,8.44,0,0,1,1.26,10a8.55,8.55,0,0,1,.32-2.32,8.84,8.84,0,0,1,.9-2.12A8.53,8.53,0,0,1,3.9,3.75,8.7,8.7,0,0,1,5.79,2.36H3.45V1.26H7.82V5.63H6.72V3.1a7.85,7.85,0,0,0-1.8,1.2A7.6,7.6,0,0,0,3.54,5.92,7.51,7.51,0,0,0,2.36,10a7.64,7.64,0,0,0,.27,2,7.63,7.63,0,0,0,2,3.37A7.56,7.56,0,0,0,10,17.64a7.64,7.64,0,0,0,2-.27,7.63,7.63,0,0,0,3.37-2A7.56,7.56,0,0,0,17.64,10a7.4,7.4,0,0,0-.41-2.47,7.56,7.56,0,0,0-1.16-2.15A7.7,7.7,0,0,0,14.3,3.69a7.53,7.53,0,0,0-2.26-1l.29-1A8.06,8.06,0,0,1,14.92,2.79Z"/></g></g></svg>