<svg xmlns="http://www.w3.org/2000/svg" viewBox="0 0 20 20"><defs><style>.cls-1{fill:none;}.cls-2{fill:#fff;}</style></defs><title>Ресурс 1208</title><g id="Слой_2" data-name="Слой 2"><g id="Слой_1-2" data-name="Слой 1"><rect id="canvas_background" data-name="canvas background" class="cls-1" width="20" height="20"/><path class="cls-2" d="M10,4.54a10,10,0,0,1,2.42.3,9.33,9.33,0,0,1,2.27.89,8.37,8.37,0,0,1,1.94,1.46,7.3,7.3,0,0,1,1.93,3.45,6.7,6.7,0,0,1,.18,1.55H17.65a5.51,5.51,0,0,0-.31-1.89,5.91,5.91,0,0,0-.85-1.61A7,7,0,0,0,15.22,7.4a7.6,7.6,0,0,0-1.59-1,8.88,8.88,0,0,0-1.78-.6,8.66,8.66,0,0,0-3.7,0,8.88,8.88,0,0,0-1.78.6,7.6,7.6,0,0,0-1.59,1A7,7,0,0,0,3.51,8.69a5.91,5.91,0,0,0-.85,1.61,5.51,5.51,0,0,0-.31,1.89H1.26a6.7,6.7,0,0,1,.18-1.55A7.3,7.3,0,0,1,3.37,7.19,8.53,8.53,0,0,1,5.3,5.73a9.56,9.56,0,0,1,2.28-.89A10,10,0,0,1,10,4.54Zm0,4.37a3.2,3.2,0,0,1,1.27.25,3.3,3.3,0,0,1,1.05.71,3.29,3.29,0,0,1,1,2.32A3.17,3.17,0,0,1,13,13.46a3.23,3.23,0,0,1-.7,1,3.3,3.3,0,0,1-1.05.71,3.38,3.38,0,0,1-2.55,0,3.37,3.37,0,0,1-1-.71,3.23,3.23,0,0,1-.7-1,3.17,3.17,0,0,1-.26-1.27,3.29,3.29,0,0,1,1-2.32,3.37,3.37,0,0,1,1-.71A3.21,3.21,0,0,1,10,8.91Zm0,5.46A2.15,2.15,0,0,0,12,13a2.07,2.07,0,0,0,0-1.69,2.1,2.1,0,0,0-.47-.7,2.06,2.06,0,0,0-.69-.47,2.21,2.21,0,0,0-1.7,0,2.39,2.39,0,0,0-.7.47,2.24,2.24,0,0,0-.46.7A2.07,2.07,0,0,0,8,13a2.1,2.1,0,0,0,.47.7,2.06,2.06,0,0,0,.69.47A2.22,2.22,0,0,0,10,14.37Z"/></g></g></svg>