<svg xmlns="http://www.w3.org/2000/svg" viewBox="0 0 20 20"><defs><style>.cls-1{fill:none;}.cls-2{fill:#fff;}</style></defs><title>Ресурс 1223</title><g id="Слой_2" data-name="Слой 2"><g id="Слой_1-2" data-name="Слой 1"><rect id="canvas_background" data-name="canvas background" class="cls-1" width="20" height="20"/><path class="cls-2" d="M18.74,3.45v13.1H1.26V3.45ZM2.36,4.54v5.78L6.18,6.5,11.64,12l2.18-2.18,3.82,3.81v-9Zm0,10.92H13.59L6.18,8,2.36,11.87Zm15.28,0v-.32l-3.82-3.83-1.41,1.42,2.73,2.73ZM14.91,7.82a.53.53,0,0,1-.38-.17.53.53,0,0,1,0-.76.52.52,0,0,1,.77,0,.53.53,0,0,1,0,.76A.54.54,0,0,1,14.91,7.82Z"/></g></g></svg>