<svg width="24" height="24" xmlns="http://www.w3.org/2000/svg" xmlns:xlink="http://www.w3.org/1999/xlink" overflow="hidden"><defs><clipPath id="clip0"><rect x="1372" y="222" width="24" height="24"/></clipPath></defs><g clip-path="url(#clip0)" transform="translate(-1372 -222)"><path d="M1372 222 1396 222 1396 246 1372 246Z" fill="#FFFFFF" fill-opacity="0.01"/><path d="M1394 240 1390 240 1390 244 1394 244 1394 240Z" fill="#333333"/><path d="M1386 240 1382 240 1382 244 1386 244 1386 240Z" fill="#333333"/><path d="M1378 240 1374 240 1374 244 1378 244 1378 240Z" fill="#333333"/><path d="M1394 232 1390 232 1390 236 1394 236 1394 232Z" fill="#333333"/><path d="M1386 232 1382 232 1382 236 1386 236 1386 232Z" fill="#333333"/><path d="M1378 232 1374 232 1374 236 1378 236 1378 232Z" fill="#333333"/><path d="M1394 224 1390 224 1390 228 1394 228 1394 224Z" fill="#333333"/><path d="M1386 224 1382 224 1382 228 1386 228 1386 224Z" fill="#333333"/><path d="M1378 224 1374 224 1374 228 1378 228 1378 224Z" fill="#333333"/><path d="M1382 228 1378 228 1378 232 1382 232 1382 228Z" fill="#333333"/><path d="M1382 236 1378 236 1378 240 1382 240 1382 236Z" fill="#333333"/><path d="M1390 228 1386 228 1386 232 1390 232 1390 228Z" fill="#333333"/><path d="M1390 236 1386 236 1386 240 1390 240 1390 236Z" fill="#333333"/></g></svg>