<svg width="24" height="24" xmlns="http://www.w3.org/2000/svg" xmlns:xlink="http://www.w3.org/1999/xlink" overflow="hidden"><defs><clipPath id="clip0"><rect x="1927" y="222" width="24" height="24"/></clipPath></defs><g clip-path="url(#clip0)" transform="translate(-1927 -222)"><path d="M1927 222 1951 222 1951 246 1927 246Z" fill="#FFFFFF" fill-opacity="0.01"/><path d="M1939 244C1941.98 244 1940.17 239.568 1942 237.5 1943.56 235.735 1949 236.543 1949 234 1949 228.477 1944.52 224 1939 224 1933.48 224 1929 228.477 1929 234 1929 239.523 1933.48 244 1939 244Z" stroke="#333333" stroke-width="2" stroke-linejoin="round" fill="none"/><path d="M1941 230.5C1941.83 230.5 1942.5 229.828 1942.5 229 1942.5 228.172 1941.83 227.5 1941 227.5 1940.17 227.5 1939.5 228.172 1939.5 229 1939.5 229.828 1940.17 230.5 1941 230.5Z" stroke="#333333" stroke-width="2" stroke-linejoin="round" fill="none"/><path d="M1935 232.5C1935.83 232.5 1936.5 231.828 1936.5 231 1936.5 230.172 1935.83 229.5 1935 229.5 1934.17 229.5 1933.5 230.172 1933.5 231 1933.5 231.828 1934.17 232.5 1935 232.5Z" stroke="#333333" stroke-width="2" stroke-linejoin="round" fill="none"/><path d="M1935.5 239C1936.33 239 1937 238.328 1937 237.5 1937 236.672 1936.33 236 1935.5 236 1934.67 236 1934 236.672 1934 237.5 1934 238.328 1934.67 239 1935.5 239Z" stroke="#333333" stroke-width="2" stroke-linejoin="round" fill="none"/></g></svg>