<svg width="24" height="24" xmlns="http://www.w3.org/2000/svg" xmlns:xlink="http://www.w3.org/1999/xlink" overflow="hidden"><defs><clipPath id="clip0"><rect x="1856" y="222" width="24" height="24"/></clipPath></defs><g clip-path="url(#clip0)" transform="translate(-1856 -222)"><path d="M0 0 24 0 24 24 0 24Z" fill="#FFFFFF" fill-opacity="0.01" transform="matrix(-1 0 0 1 1880 222)"/><path d="M6 12 21 12 21 21 6 21 6 12Z" stroke="#333333" stroke-width="2" stroke-linejoin="round" fill="none" transform="matrix(-1 0 0 1 1880 222)"/><path d="M3 4 3 8.5 7.5 8.5" stroke="#333333" stroke-width="2" stroke-linecap="round" stroke-linejoin="round" fill="none" transform="matrix(-1 0 0 1 1880 222)"/><path d="M19.2374 6.64925C17.5978 4.43525 14.9665 3 12 3 9.0894 3 6.50145 4.38167 4.85636 6.5249L3 8.5" stroke="#333333" stroke-width="2" stroke-linecap="round" stroke-linejoin="round" fill="none" transform="matrix(-1 0 0 1 1880 222)"/></g></svg>