<svg width="24" height="24" xmlns="http://www.w3.org/2000/svg" xmlns:xlink="http://www.w3.org/1999/xlink" overflow="hidden"><defs><clipPath id="clip0"><rect x="1309" y="221" width="24" height="24"/></clipPath></defs><g clip-path="url(#clip0)" transform="translate(-1309 -221)"><path d="M1309 221 1333 221 1333 245 1309 245Z" fill="#FFFFFF" fill-opacity="0.01"/><path d="M1330 224C1330.55 224 1331 224.448 1331 225L1331 238C1331 238.552 1330.55 239 1330 239L1312 239C1311.45 239 1311 238.552 1311 238L1311 225C1311 224.448 1311.45 224 1312 224Z" stroke="#333333" stroke-width="2" stroke-linecap="round" stroke-linejoin="round" fill="none"/><path d="M1319 242 1323 242" stroke="#333333" stroke-width="2" stroke-linecap="round" stroke-linejoin="round" fill="none"/><path d="M1326 242 1327 242" stroke="#333333" stroke-width="2" stroke-linecap="round" stroke-linejoin="round" fill="none"/><path d="M1311 242 1312 242" stroke="#333333" stroke-width="2" stroke-linecap="round" stroke-linejoin="round" fill="none"/><path d="M1330 242 1331 242" stroke="#333333" stroke-width="2" stroke-linecap="round" stroke-linejoin="round" fill="none"/><path d="M1315 242 1316 242" stroke="#333333" stroke-width="2" stroke-linecap="round" stroke-linejoin="round" fill="none"/></g></svg>