<?xml version="1.0" encoding="utf-8"?>
<!-- Generator: Adobe Illustrator 25.2.1, SVG Export Plug-In . SVG Version: 6.00 Build 0)  -->
<svg version="1.1" id="图层_1" xmlns="http://www.w3.org/2000/svg" xmlns:xlink="http://www.w3.org/1999/xlink" x="0px" y="0px"
	 viewBox="0 0 256 256" style="enable-background:new 0 0 256 256;" xml:space="preserve">
<style type="text/css">
	.st0{opacity:0.5;fill:#C6C6C6;stroke:#000000;stroke-width:5;}
	.st1{fill:#FFFFFF;stroke:#000000;stroke-width:5;}
</style>
<path class="st0" d="M51.5,4h152.9C230.7,4,252,25.3,252,51.5v152.9c0,26.3-21.3,47.5-47.5,47.5H51.5C25.3,252,4,230.7,4,204.5V51.5
	C4,25.3,25.3,4,51.5,4z"/>
<path class="st1" d="M55,18.5c-9.7,0-17.5,7.6-17.5,17.1c0,9.4,7.8,17.1,17.5,17.1c9.7,0,17.5-7.6,17.5-17.1
	C72.5,26.1,64.7,18.5,55,18.5z"/>
<path class="st1" d="M65.6,177.9H46.2c-2.3,0-4.2-1.8-4.2-4.1V66.9c0-2.2,1.9-4.1,4.2-4.1h19.4c2.3,0,4.2,1.8,4.2,4.1v106.9
	C69.7,176,67.9,177.9,65.6,177.9z"/>
<path class="st1" d="M144.6,73.4V54.5c0-2.2,1.9-4.1,4.2-4.1h61c2.3,0,4.2,1.8,4.2,4.1v18.9c0,2.2-1.9,4.1-4.2,4.1h-61
	C146.5,77.5,144.6,75.7,144.6,73.4z"/>
<path class="st1" d="M144.3,77.5c17.2,0,31.2,13.7,31.2,30.5c0,16.8-14,30.4-31.2,30.4s-31.2-13.7-31.2-30.4
	C113.1,91.1,127.1,77.5,144.3,77.5z M144.3,50.4c-32.6,0-59,25.8-59,57.5c0,31.8,26.4,57.5,59,57.5c32.6,0,59-25.8,59-57.5
	C203.2,76.2,176.9,50.4,144.3,50.4z"/>
<path class="st1" d="M144.3,197.9c14.1,0,25.8,10.3,27.5,23.6c0.3,2,2,3.5,4.1,3.5h19.5c2.4,0,4.3-2,4.2-4.3
	c-2.2-27.9-26.2-49.8-55.3-49.8c-29.2,0-53.1,21.9-55.3,49.8c-0.2,2.3,1.8,4.3,4.2,4.3h19.5c2.1,0,3.8-1.5,4.1-3.5
	C118.5,208.2,130.2,197.9,144.3,197.9z"/>
</svg>
