<svg width="24" height="24" xmlns="http://www.w3.org/2000/svg" xmlns:xlink="http://www.w3.org/1999/xlink" overflow="hidden"><defs><clipPath id="clip0"><rect x="138" y="228" width="24" height="24"/></clipPath></defs><g clip-path="url(#clip0)" transform="translate(-138 -228)"><path d="M138 228 162 228 162 252 138 252Z" fill="#FFFFFF" fill-opacity="0.01"/><path d="M162 228 138 228 138 252 162 252 162 228Z" fill="#FFFFFF" fill-opacity="0.01"/><path d="M156.5 244 143.5 244 143.5 250 156.5 250 156.5 244Z" stroke="#333333" stroke-width="2" stroke-linejoin="round" fill="none"/><path d="M140 238 160 238 160 247 156.509 247 156.509 244 143.49 244 143.49 247 140 247 140 238Z" stroke="#333333" stroke-width="2" stroke-linecap="round" stroke-linejoin="round" fill="none" fill-rule="evenodd"/><path d="M157 230 143 230 143 238 157 238 157 230Z" stroke="#333333" stroke-width="2" stroke-linejoin="round" fill="none"/></g></svg>