<svg width="24" height="24" xmlns="http://www.w3.org/2000/svg" xmlns:xlink="http://www.w3.org/1999/xlink" overflow="hidden"><defs><clipPath id="clip0"><rect x="963" y="221" width="24" height="24"/></clipPath></defs><g clip-path="url(#clip0)" transform="translate(-963 -221)"><path d="M963 221 987 221 987 245 963 245Z" fill="#FFFFFF" fill-rule="evenodd" fill-opacity="0.01"/><path d="M983.75 233C983.75 228.029 979.721 224 974.75 224 973.53 224 972.366 224.243 971.305 224.683 970.757 224.91 970.237 225.19 969.75 225.516 969.259 225.844 968.802 226.22 968.386 226.636 967.97 227.052 967.594 227.509 967.266 228M965.75 233C965.75 237.971 969.779 242 974.75 242L974.75 242C975.97 242 977.134 241.757 978.195 241.317 978.743 241.09 979.263 240.81 979.75 240.484 980.241 240.156 980.698 239.78 981.114 239.364 981.53 238.948 981.906 238.491 982.234 238" stroke="#333333" stroke-width="2" stroke-linecap="round" stroke-linejoin="round" fill="none" fill-rule="evenodd"/><path d="M983.75 225 983.75 233" stroke="#333333" stroke-width="2" stroke-linecap="round" stroke-linejoin="round" fill="none" fill-rule="evenodd"/><path d="M965.75 233 965.75 241" stroke="#333333" stroke-width="2" stroke-linecap="round" stroke-linejoin="round" fill="none" fill-rule="evenodd"/></g></svg>