<svg width="24" height="24" xmlns="http://www.w3.org/2000/svg" xmlns:xlink="http://www.w3.org/1999/xlink" overflow="hidden"><defs><clipPath id="clip0"><rect x="1585" y="221" width="24" height="24"/></clipPath></defs><g clip-path="url(#clip0)" transform="translate(-1585 -221)"><path d="M1585 221 1609 221 1609 245 1585 245Z" fill="#FFFFFF" fill-opacity="0.01"/><path d="M1605.5 223 1588.5 223C1587.67 223 1587 223.672 1587 224.5L1587 241.5C1587 242.329 1587.67 243 1588.5 243L1605.5 243C1606.33 243 1607 242.329 1607 241.5L1607 224.5C1607 223.672 1606.33 223 1605.5 223Z" stroke="#333333" stroke-width="2" stroke-linejoin="round" fill="none"/><path d="M1602 223 1602 232 1592.5 232 1592.5 223 1602 223Z" stroke="#333333" stroke-width="2" stroke-linejoin="round" fill="none"/><path d="M1598.5 226.5 1598.5 228.5" stroke="#333333" stroke-width="2" stroke-linecap="round" fill="none"/><path d="M1591 223 1603.5 223" stroke="#333333" stroke-width="2" stroke-linecap="round" fill="none"/></g></svg>