<svg width="24" height="24" xmlns="http://www.w3.org/2000/svg" xmlns:xlink="http://www.w3.org/1999/xlink" overflow="hidden"><defs><clipPath id="clip0"><rect x="896" y="224" width="24" height="24"/></clipPath></defs><g clip-path="url(#clip0)" transform="translate(-896 -224)"><path d="M896 224 920 224 920 248 896 248Z" fill="#FFFFFF" fill-opacity="0.01"/><path d="M916.5 226C917.328 226 918 226.672 918 227.5L918 244.5C918 245.328 917.328 246 916.5 246L899.5 246C898.672 246 898 245.328 898 244.5L898 227.5C898 226.672 898.672 226 899.5 226Z" stroke="#333333" stroke-width="2" stroke-linecap="round" stroke-linejoin="round" fill="none"/><path d="M913.5 234.5 915 236 913.5 237.5" stroke="#333333" stroke-width="2" stroke-linecap="round" stroke-linejoin="round" fill="none"/><path d="M902.5 234.5 901 236 902.5 237.5" stroke="#333333" stroke-width="2" stroke-linecap="round" stroke-linejoin="round" fill="none"/><path d="M909.5 230.5 908 229 906.5 230.5" stroke="#333333" stroke-width="2" stroke-linecap="round" stroke-linejoin="round" fill="none"/><path d="M909.5 241.5 908 243 906.5 241.5" stroke="#333333" stroke-width="2" stroke-linecap="round" stroke-linejoin="round" fill="none"/></g></svg>