<?xml version="1.0" encoding="utf-8"?>
<!-- Generator: Adobe Illustrator 24.3.0, SVG Export Plug-In . SVG Version: 6.00 Build 0)  -->
<svg version="1.1" id="Layer_1" xmlns="http://www.w3.org/2000/svg" xmlns:xlink="http://www.w3.org/1999/xlink" x="0px" y="0px"
	 viewBox="0 0 20 20" style="enable-background:new 0 0 20 20;" xml:space="preserve">
<style type="text/css">
	.st0{fill:#3A3A38;}
	.st1{fill:#FAFAFA;}
	.st2{fill:#ED8733;}
	.st3{fill:#F8DB8F;}
</style>
<path class="st0" d="M8,2C4.7,2,2,4.7,2,8s2.7,6,6,6c1.4,0,2.8-0.5,3.9-1.4l5.3,5.3c0.2,0.2,0.5,0.2,0.7,0c0.2-0.2,0.2-0.5,0-0.7
	c0,0,0,0,0,0l-5.3-5.3C13.5,10.8,14,9.4,14,8c0-0.7-0.1-1.5-0.4-2.2c0,0,0,0,0,0l-0.8,0.6C12.9,6.9,13,7.5,13,8c0,2.8-2.2,5-5,5
	s-5-2.2-5-5s2.2-5,5-5c0,0,0,0,0.1,0l0.7-0.9C8.5,2,8.3,2,8,2z"/>
<path class="st1" d="M8,3C5.2,3,3,5.2,3,8s2.2,5,5,5s5-2.2,5-5c0-0.5-0.1-1.1-0.3-1.6l-6.2,4.4c-0.8,0.6-1.9-0.3-1.5-1.3l1.4-2.7
	C6,6.5,5.9,5.9,6.2,5.4L8,3C8,3,8,3,8,3z"/>
<path class="st2" d="M10,2h5l-3,3h2l-8,6l3-5H7L10,2z"/>
<path class="st3" d="M10.5,3L9,5c0.6,0,1,0.4,1,1c0,0.2,0,0.4-0.1,0.5L9.5,7.1l1.9-1.4c-0.4-0.4-0.5-1-0.1-1.4c0,0,0,0,0,0L12.6,3
	H10.5z"/>
</svg>
