<?xml version="1.0" encoding="utf-8"?>
<!-- Generator: Adobe Illustrator 24.3.0, SVG Export Plug-In . SVG Version: 6.00 Build 0)  -->
<svg version="1.1" id="Layer_1" xmlns="http://www.w3.org/2000/svg" xmlns:xlink="http://www.w3.org/1999/xlink" x="0px" y="0px"
	 viewBox="0 0 20 20" style="enable-background:new 0 0 20 20;" xml:space="preserve">
<style type="text/css">
	.st0{fill:#309048;fill-opacity:0.9007;}
	.st1{fill:#A1DDAA;fill-opacity:0.9007;}
	.st2{fill:#0063B1;fill-opacity:0.9007;}
	.st3{fill:#83BEEC;fill-opacity:0.9007;}
	.st4{fill:#922E9B;fill-opacity:0.9007;}
	.st5{fill:#D492D8;fill-opacity:0.9007;}
	.st6{fill:#D42314;fill-opacity:0.9007;}
	.st7{fill:#FF9198;fill-opacity:0.9007;}
	.st8{fill:#FB983B;fill-opacity:0.9007;}
	.st9{fill:#F8DB8F;fill-opacity:0.9007;}
</style>
<g>
	<path class="st0" d="M16.6,8.1c1,2.9,0.1,6.1-2.3,8.1l-4.5-5.6L16.6,8.1z"/>
	<path class="st1" d="M15.9,9.4l-4.4,1.6l2.9,3.6C15.6,13.2,16.2,11.3,15.9,9.4z"/>
	<g transform="matrix(.30901699 .95105652 -.95105652 .30901699 13.267796 -1.259027)">
		<path class="st2" d="M17.1,4.8c1,2.9,0.1,6.1-2.3,8.1l-4.5-5.6L17.1,4.8z"/>
		<path class="st3" d="M16.4,6.2L12,7.8l2.9,3.6C16.2,9.9,16.7,8.1,16.4,6.2z"/>
	</g>
	<g transform="matrix(-.80901699 .58778525 -.58778525 -.80901699 18.565176 10.970336)">
		<path class="st4" d="M14.2,3.3c1,2.9,0.1,6.1-2.3,8.1L7.4,5.8L14.2,3.3z"/>
		<path class="st5" d="M13.4,4.7L9.1,6.3L12,9.9C13.2,8.4,13.7,6.5,13.4,4.7z"/>
	</g>
	<g transform="matrix(-.80901699 -.58778525 .58778525 -.80901699 8.571341 19.787525)">
		<path class="st6" d="M11.8,5.7c1,2.9,0.1,6.1-2.3,8.1L5.1,8.2L11.8,5.7z"/>
		<path class="st7" d="M11.1,7L6.7,8.6l2.9,3.6C10.9,10.8,11.4,8.9,11.1,7z"/>
	</g>
	<g transform="matrix(.30901699 -.95105652 .95105652 .30901699 -2.902569 13.007484)">
		<path class="st8" d="M13.3,8.6c1,2.9,0.1,6.1-2.3,8.1l-4.5-5.6L13.3,8.6z"/>
		<path class="st9" d="M12.6,10l-4.4,1.6l2.9,3.6C12.4,13.8,12.9,11.9,12.6,10z"/>
	</g>
</g>
</svg>
