<?xml version="1.0" encoding="utf-8"?>
<!-- Generator: Adobe Illustrator 24.3.0, SVG Export Plug-In . SVG Version: 6.00 Build 0)  -->
<svg version="1.1" id="Layer_1" xmlns="http://www.w3.org/2000/svg" xmlns:xlink="http://www.w3.org/1999/xlink" x="0px" y="0px"
	 viewBox="0 0 20 20" style="enable-background:new 0 0 20 20;" xml:space="preserve">
<style type="text/css">
	.st0{fill:#3A3A38;}
	.st1{fill:#FAFAFA;}
	.st2{fill:#0063B1;}
	.st3{fill:#83BEEC;}
</style>
<g transform="translate(-2.002638 -1.004872)">
	<path class="st0" d="M19,4c-0.2,0-2.1,1.1-2.3,1.2C12.6,7.8,12,9,9.5,12.5c-0.2,0.3-0.3,0.6-0.2,0.9c0.1,0.4,0.1,0.6,0.7,0.9
		c0.7,0.3,1,0.4,2.3,0.4c0.2,0,0.4-0.1,0.6-0.2c3.6-3.1,3.2-2.3,5.1-5.2C19,8.2,19.5,6.9,20,5C20,4.4,19.6,4,19,4z"/>
	<path class="st1" d="M18.7,5.3c-0.1,0.1-0.2,0.1-0.4,0.2c-0.5,0.3-1.2,0.7-1.1,0.6c0,0,0,0,0,0c-4,2.5-4.4,3.5-6.9,7c0,0,0,0,0,0
		c0.1,0.2,0.1,0.3,0,0.2c-0.1-0.1-0.1-0.1,0.1,0c0.6,0.3,0.6,0.3,1.8,0.3c1.8-1.6,2.6-2.2,3.1-2.6c0.5-0.5,0.8-0.9,1.8-2.4
		c0,0,0-0.1,0.1-0.1C17.9,7.8,18.3,6.7,18.7,5.3z"/>
	<path class="st2" d="M9.2,13c-0.3,0-0.5,0-0.7,0c-2.1,0.5-1.7,1.3-3.3,3.3C4.7,17,5.2,18,6,18c2.7-0.2,3.7,0.5,5.6-1.2
		c0.1-0.1,0.1-0.2,0.2-0.2c0.2-0.4,0.3-0.7,0.3-1c0-0.6-0.2-1.1-0.4-1.5c-0.4-0.6-0.9-0.9-1.6-1C9.8,13,9.5,13,9.2,13L9.2,13z
		 M9.2,14c0.2,0,0.4,0,0.7,0.1c0.6,0.2,1,0.7,1.1,1.5c0,0.1,0,0.2,0,0.3l-3.1-1.4C8.3,14.1,8.7,14,9.2,14z M7.2,15.2l3,1.4
		C9.8,16.9,9.5,17,9,17c-0.9,0-2.4,0-3,0C6.6,16.2,6.9,15.7,7.2,15.2L7.2,15.2z"/>
	<path class="st3" d="M7.2,15.2c-0.3,0.4-0.6,1-1.2,1.8c0.6,0,2.1,0,3,0c0.4,0,0.8-0.1,1.2-0.4L7.2,15.2z"/>
	<path class="st1" d="M9.2,14c-0.5,0-0.9,0.1-1.4,0.4l3.1,1.4c0-0.1,0-0.2,0-0.3c0-0.8-0.4-1.3-1.1-1.5C9.7,14,9.5,14,9.2,14z"/>
</g>
</svg>
