<?xml version="1.0" encoding="utf-8"?>
<!-- Generator: Adobe Illustrator 24.3.0, SVG Export Plug-In . SVG Version: 6.00 Build 0)  -->
<svg version="1.1" id="Layer_1" xmlns="http://www.w3.org/2000/svg" xmlns:xlink="http://www.w3.org/1999/xlink" x="0px" y="0px"
	 viewBox="0 0 20 20" style="enable-background:new 0 0 20 20;" xml:space="preserve">
<style type="text/css">
	.st0{fill-rule:evenodd;clip-rule:evenodd;fill:#3A3A38;}
	.st1{fill-rule:evenodd;clip-rule:evenodd;fill:#FAFAFA;}
	.st2{fill-rule:evenodd;clip-rule:evenodd;fill:#0063B1;}
	.st3{fill-rule:evenodd;clip-rule:evenodd;fill:#83BEEC;}
</style>
<g transform="translate(.005286 -1)">
	<path class="st0" d="M4,16c0-0.1,0-0.3,0.1-0.4l4-11C8.5,3.6,10,3.9,10,5v11c0,0.6-0.4,1-1,1H5C4.4,17,4,16.5,4,16z"/>
	<path class="st1" d="M5,16h4V5L5,16z"/>
	<path class="st2" d="M12,4c-0.5,0-1,0.5-1,1v11c0,0.6,0.4,1,1,1h4c0.7,0,1.1-0.6,1-1.3l-4-11C12.8,4.3,12.4,4,12,4z"/>
	<path class="st3" d="M16,16h-4V5L16,16z"/>
</g>
</svg>
