<?xml version="1.0" encoding="utf-8"?>
<!-- Generator: Adobe Illustrator 24.3.0, SVG Export Plug-In . SVG Version: 6.00 Build 0)  -->
<svg version="1.1" id="Layer_1" xmlns="http://www.w3.org/2000/svg" xmlns:xlink="http://www.w3.org/1999/xlink" x="0px" y="0px"
	 viewBox="0 0 20 20" style="enable-background:new 0 0 20 20;" xml:space="preserve">
<style type="text/css">
	.st0{fill:#FAFAFA;stroke:#3A3A38;stroke-width:1.0579;stroke-linecap:round;stroke-linejoin:round;}
	.st1{fill-rule:evenodd;clip-rule:evenodd;fill:#1E8BCD;}
</style>
<g>
	<path class="st0" d="M2.5,2.6h14.9v5.9H2.5V2.6z"/>
	<path class="st1" d="M5.5,9.9c-0.1,0-0.3,0.1-0.3,0.2l-3,3c-0.3,0.2-0.3,0.6,0,0.8l0,0l3,3c0.5,0.5,1.2-0.2,0.7-0.7l-2.1-2.1h12.6
		l-2.1,2.1c-0.5,0.5,0.2,1.2,0.7,0.7l3-3c0.3-0.2,0.3-0.6,0-0.8l-3-3c-0.1-0.1-0.2-0.2-0.4-0.2c-0.4,0-0.7,0.5-0.3,0.9l2.1,2.1H3.7
		l2.1-2.1C6.2,10.5,5.9,9.9,5.5,9.9z"/>
</g>
</svg>
