<?xml version="1.0" encoding="utf-8"?>
<!-- Generator: Adobe Illustrator 24.3.0, SVG Export Plug-In . SVG Version: 6.00 Build 0)  -->
<svg version="1.1" id="Layer_1" xmlns="http://www.w3.org/2000/svg" xmlns:xlink="http://www.w3.org/1999/xlink" x="0px" y="0px"
	 viewBox="0 0 20 20" style="enable-background:new 0 0 20 20;" xml:space="preserve">
<style type="text/css">
	.st0{fill:#FAFAFA;}
	.st1{fill:#3A3A38;}
	.st2{fill:#83BEEC;}
	.st3{fill:#FB983B;}
	.st4{fill:#0063B1;}
</style>
<path class="st0" d="M3,3v9h2V4h8V3H3z"/>
<path class="st1" d="M2,2v9v1v1.5V15h3v-3H3V3h10v1h1V2h-2h-1h-1H2z"/>
<path class="st0" d="M7,6v9h10V6H7z"/>
<path class="st1" d="M6,5v9v1v1.5V18h12V5h-2h-1h-1H6z M7,6h10v9H7V6z"/>
<path class="st2" d="M14.5,11L12,14l-1.5-1.5L8,15h9v-1.5L14.5,11z"/>
<path class="st3" d="M11,8.5c0,0.8-0.7,1.5-1.5,1.5S8,9.3,8,8.5S8.7,7,9.5,7S11,7.7,11,8.5z"/>
<path class="st4" d="M14.5,10L12,13l-1.5-1.5L7,15h1l2.5-2.5L12,14l2.5-3l2.5,2.5v-1L14.5,10z"/>
</svg>
