<?xml version="1.0" encoding="utf-8"?>
<!-- Generator: Adobe Illustrator 24.3.0, SVG Export Plug-In . SVG Version: 6.00 Build 0)  -->
<svg version="1.1" id="Layer_1" xmlns="http://www.w3.org/2000/svg" xmlns:xlink="http://www.w3.org/1999/xlink" x="0px" y="0px"
	 viewBox="0 0 20 20" style="enable-background:new 0 0 20 20;" xml:space="preserve">
<style type="text/css">
	.st0{fill:#ED8733;}
	.st1{fill:#F8DB8F;}
	.st2{fill:#FAFAFA;}
</style>
<g>
	<path class="st0" d="M10,2C7.8,2,6,3.8,6,6v4H4c-0.6,0-1,0.4-1,1v6c0,0.6,0.4,1,1,1h12c0.6,0,1-0.4,1-1v-6c0-0.6-0.4-1-1-1h-2V6
		C14,3.8,12.2,2,10,2z M10,3c1.7,0,3,1.3,3,3v4H7V6C7,4.3,8.3,3,10,3z M4,11h12v6H4V11z"/>
	<path class="st1" d="M4,11h12v6H4V11z"/>
	<path class="st0" d="M10,11c-1.1,0-2,0.9-2,2v0.5V15v1.5C8,16.8,8.2,17,8.5,17h2c0.3,0,0.5-0.2,0.5-0.5V15v-0.5l1-0.5v-1
		C12,11.9,11.1,11,10,11z"/>
	<path class="st2" d="M10,12c-0.6,0-1,0.4-1,1v3h1v-1.5l1-0.5v-1C11,12.4,10.6,12,10,12z"/>
</g>
</svg>
