<?xml version="1.0" encoding="utf-8"?>
<!-- Generator: Adobe Illustrator 24.3.0, SVG Export Plug-In . SVG Version: 6.00 Build 0)  -->
<svg version="1.1" id="Layer_1" xmlns="http://www.w3.org/2000/svg" xmlns:xlink="http://www.w3.org/1999/xlink" x="0px" y="0px"
	 viewBox="0 0 20 20" style="enable-background:new 0 0 20 20;" xml:space="preserve">
<style type="text/css">
	.st0{fill:#1E8BCD;}
	.st1{fill:#FAFAFA;stroke:#3A3A38;stroke-linecap:round;stroke-linejoin:round;}
</style>
<g>
	<path class="st0" d="M13.5,2L13.5,2C13.8,2,14,2.2,14,2.5v15c0,0.3-0.2,0.5-0.5,0.5l0,0c-0.3,0-0.5-0.2-0.5-0.5v-15
		C13,2.2,13.2,2,13.5,2z"/>
	<path class="st0" d="M6.5,2L6.5,2C6.8,2,7,2.2,7,2.5v15C7,17.8,6.8,18,6.5,18l0,0C6.2,18,6,17.8,6,17.5v-15C6,2.2,6.2,2,6.5,2z"/>
	<path class="st0" d="M2.4,6h15.1C17.8,6,18,6.2,18,6.4v0.1C18,6.8,17.8,7,17.6,7H2.4C2.2,7,2,6.8,2,6.6V6.4C2,6.2,2.2,6,2.4,6z"/>
	<path class="st0" d="M2.5,13h15c0.3,0,0.5,0.2,0.5,0.5l0,0c0,0.3-0.2,0.5-0.5,0.5h-15C2.2,14,2,13.8,2,13.5l0,0
		C2,13.2,2.2,13,2.5,13z"/>
</g>
<path class="st1" d="M13.5,13.5h-7v-7h7V13.5z"/>
</svg>
