<svg xmlns="http://www.w3.org/2000/svg" xmlns:xlink="http://www.w3.org/1999/xlink" version="1.1" id="Layer_1" x="0px" y="0px" viewBox="0 0 16 16" style="enable-background:new 0 0 16 16;" xml:space="preserve">
<path style="fill:#4E7AB5;" d="M1,8.1H0c0-4.4,3.6-8,8-8c2.2,0,4.4,1,5.9,2.6l-0.7,0.7C11.9,2,10,1.1,8,1.1C4.1,1.1,1,4.3,1,8.1z"></path>
<g>
	<g>
		<path style="fill:#4E7AB5;" d="M0.2,9.7C0.1,9.2,0,8.7,0,8.1h1c0,0.5,0,0.9,0.1,1.4L0.2,9.7z"></path>
		<path style="fill:#4E7AB5;" d="M9,16.1l-0.1-1c0.9-0.1,1.7-0.4,2.5-0.8l0.5,0.9C10.9,15.7,10,16,9,16.1z M7,16.1    C6,16,5,15.6,4.2,15.2l0.5-0.9c0.8,0.4,1.6,0.7,2.5,0.8L7,16.1z M13.4,14l-0.7-0.7c0.6-0.6,1.2-1.3,1.6-2.1l0.9,0.4    C14.8,12.5,14.2,13.3,13.4,14z M2.6,14c-0.7-0.7-1.3-1.5-1.8-2.4l0.9-0.4c0.4,0.8,0.9,1.5,1.5,2.1L2.6,14z"></path>
		<path style="fill:#4E7AB5;" d="M15.8,9.7l-1-0.2C15,9.1,15,8.6,15,8.1h1C16,8.7,15.9,9.2,15.8,9.7z"></path>
	</g>
</g>
<g>
	<polygon style="fill:#4E7AB5;" points="10.2,4.3 15,5 14.4,0  "></polygon>
</g>
</svg>