<?xml version="1.0" encoding="UTF-8" standalone="no"?><!DOCTYPE svg PUBLIC "-//W3C//DTD SVG 1.1//EN" "http://www.w3.org/Graphics/SVG/1.1/DTD/svg11.dtd"><svg width="100%" height="100%" viewBox="0 0 223 223" version="1.1" xmlns="http://www.w3.org/2000/svg" xmlns:xlink="http://www.w3.org/1999/xlink" xml:space="preserve" xmlns:serif="http://www.serif.com/" style="fill-rule:evenodd;clip-rule:evenodd;stroke-linecap:round;stroke-linejoin:round;stroke-miterlimit:1.5;"><path d="M185.382,55.526c-0,-12.273 -9.95,-22.222 -22.223,-22.222c-28.056,-0 -76.04,-0 -104.096,-0c-12.273,-0 -22.222,9.949 -22.222,22.222c-0,29.581 -0,81.59 -0,111.17c-0,12.273 9.949,22.222 22.222,22.222c28.056,0 76.04,0 104.096,0c12.273,0 22.223,-9.949 22.223,-22.222c-0,-29.58 -0,-81.589 -0,-111.17Z" style="fill:none;stroke:#6b6ad3;stroke-width:25px;"/><path d="M40.967,160.33l37.724,-53.05l26.82,38.019l30.946,-61.008l48.925,74.565l-18.554,23.051l-113.492,7.011l-12.369,-28.588Z" style="fill:#6b6ad3;"/></svg>