<?xml version="1.0" encoding="UTF-8" standalone="no"?>
<!DOCTYPE svg PUBLIC "-//W3C//DTD SVG 1.1//EN" "http://www.w3.org/Graphics/SVG/1.1/DTD/svg11.dtd">
<svg width="100%" height="100%" viewBox="0 0 40 40" version="1.1" xmlns="http://www.w3.org/2000/svg" xmlns:xlink="http://www.w3.org/1999/xlink" xml:space="preserve" xmlns:serif="http://www.serif.com/" style="fill-rule:evenodd;clip-rule:evenodd;stroke-linejoin:round;stroke-miterlimit:2;">
    <path d="M6,14.75C5.361,14.75 4.834,14.549 4.417,14.146C4,13.743 3.792,13.209 3.792,12.542L3.792,8.208C3.792,6.986 4.222,5.937 5.083,5.062C5.944,4.187 6.986,3.75 8.208,3.75L12.583,3.75C13.222,3.75 13.743,3.965 14.146,4.396C14.549,4.827 14.75,5.347 14.75,5.958C14.75,6.597 14.549,7.132 14.146,7.563C13.743,7.993 13.222,8.208 12.583,8.208L8.208,8.208L8.208,12.542C8.208,13.209 7.986,13.743 7.542,14.146C7.097,14.549 6.583,14.75 6,14.75ZM8.208,36.208C6.986,36.208 5.944,35.778 5.083,34.917C4.222,34.056 3.792,33.014 3.792,31.792L3.792,27.417C3.792,26.778 4,26.257 4.417,25.854C4.834,25.451 5.347,25.25 5.958,25.25C6.597,25.25 7.132,25.451 7.562,25.854C7.993,26.257 8.208,26.778 8.208,27.417L8.208,31.792L12.583,31.792C13.222,31.792 13.743,32.014 14.146,32.458C14.549,32.903 14.75,33.417 14.75,34C14.75,34.639 14.549,35.166 14.146,35.583C13.743,36 13.222,36.208 12.583,36.208L8.208,36.208ZM27.458,36.208C26.791,36.208 26.257,36 25.854,35.583C25.451,35.166 25.25,34.653 25.25,34.042C25.25,33.403 25.451,32.868 25.854,32.438C26.257,32.007 26.791,31.792 27.458,31.792L31.792,31.792L31.792,27.417C31.792,26.778 32.014,26.257 32.458,25.854C32.903,25.451 33.431,25.25 34.042,25.25C34.681,25.25 35.208,25.451 35.625,25.854C36.042,26.257 36.25,26.778 36.25,27.417L36.25,31.792C36.25,33.014 35.813,34.056 34.938,34.917C34.063,35.778 33.014,36.208 31.792,36.208L27.458,36.208ZM34.042,14.75C33.403,14.75 32.868,14.549 32.438,14.146C32.007,13.743 31.792,13.209 31.792,12.542L31.792,8.208L27.458,8.208C26.791,8.208 26.257,7.986 25.854,7.542C25.451,7.097 25.25,6.569 25.25,5.958C25.25,5.319 25.451,4.792 25.854,4.375C26.257,3.958 26.791,3.75 27.458,3.75L31.792,3.75C33.014,3.75 34.063,4.187 34.938,5.062C35.813,5.937 36.25,6.986 36.25,8.208L36.25,12.542C36.25,13.209 36.035,13.743 35.604,14.146C35.173,14.549 34.653,14.75 34.042,14.75Z" style="fill:rgb(107,106,211);fill-rule:nonzero;"/>
</svg>
