<?xml version="1.0" encoding="UTF-8" standalone="no"?>
<!DOCTYPE svg PUBLIC "-//W3C//DTD SVG 1.1//EN" "http://www.w3.org/Graphics/SVG/1.1/DTD/svg11.dtd">
<svg width="100%" height="100%" viewBox="0 0 40 40" version="1.1" xmlns="http://www.w3.org/2000/svg" xmlns:xlink="http://www.w3.org/1999/xlink" xml:space="preserve" xmlns:serif="http://www.serif.com/" style="fill-rule:evenodd;clip-rule:evenodd;stroke-linejoin:round;stroke-miterlimit:2;">
    <path d="M22.208,20C21.569,20 21.042,19.792 20.625,19.375C20.208,18.958 20,18.431 20,17.792L20,7.792C20,7.181 20.215,6.653 20.646,6.208C21.077,5.764 21.597,5.542 22.208,5.542C22.819,5.542 23.347,5.764 23.792,6.208C24.236,6.653 24.458,7.181 24.458,7.792L24.458,12.458L33.208,3.708C33.625,3.291 34.139,3.083 34.75,3.083C35.361,3.083 35.875,3.291 36.292,3.708C36.709,4.125 36.917,4.639 36.917,5.25C36.917,5.861 36.709,6.375 36.292,6.792L27.542,15.542L32.208,15.542C32.819,15.542 33.347,15.764 33.792,16.208C34.236,16.653 34.458,17.181 34.458,17.792C34.458,18.403 34.236,18.923 33.792,19.354C33.347,19.785 32.819,20 32.208,20L22.208,20ZM3.708,36.292C3.291,35.875 3.083,35.361 3.083,34.75C3.083,34.139 3.291,33.625 3.708,33.208L12.5,24.417L7.792,24.417C7.181,24.417 6.66,24.202 6.229,23.771C5.798,23.34 5.583,22.819 5.583,22.208C5.583,21.597 5.798,21.077 6.229,20.646C6.66,20.215 7.181,20 7.792,20L17.792,20C18.431,20 18.958,20.208 19.375,20.625C19.792,21.042 20,21.569 20,22.208L20,32.208C20,32.819 19.785,33.34 19.354,33.771C18.923,34.202 18.403,34.417 17.792,34.417C17.181,34.417 16.66,34.202 16.229,33.771C15.798,33.34 15.583,32.819 15.583,32.208L15.583,27.5L6.792,36.292C6.375,36.709 5.861,36.917 5.25,36.917C4.639,36.917 4.125,36.709 3.708,36.292Z" style="fill:rgb(107,106,211);fill-rule:nonzero;"/>
</svg>
