<?xml version="1.0" encoding="UTF-8" standalone="no"?><!DOCTYPE svg PUBLIC "-//W3C//DTD SVG 1.1//EN" "http://www.w3.org/Graphics/SVG/1.1/DTD/svg11.dtd"><svg width="100%" height="100%" viewBox="0 0 223 223" version="1.1" xmlns="http://www.w3.org/2000/svg" xmlns:xlink="http://www.w3.org/1999/xlink" xml:space="preserve" xmlns:serif="http://www.serif.com/" style="fill-rule:evenodd;clip-rule:evenodd;stroke-linejoin:round;stroke-miterlimit:2;"><path d="M102.203,27.417c1.254,-3.859 4.85,-6.472 8.908,-6.472c4.058,0 7.655,2.613 8.909,6.472c5.859,18.035 13.069,40.225 16.568,50.992c1.254,3.859 4.85,6.472 8.908,6.472c11.321,0 34.653,0 53.616,0c4.058,0 7.654,2.613 8.908,6.473c1.254,3.859 -0.119,8.087 -3.402,10.472c-15.341,11.146 -34.217,24.86 -43.376,31.515c-3.283,2.385 -4.657,6.613 -3.403,10.472c3.498,10.767 10.708,32.957 16.568,50.992c1.254,3.859 -0.12,8.087 -3.403,10.472c-3.283,2.386 -7.728,2.386 -11.011,0c-15.341,-11.146 -34.217,-24.86 -43.376,-31.514c-3.283,-2.385 -7.729,-2.385 -11.012,-0c-9.159,6.654 -28.035,20.368 -43.376,31.514c-3.283,2.386 -7.728,2.386 -11.011,0c-3.283,-2.385 -4.657,-6.613 -3.403,-10.472c5.86,-18.035 13.07,-40.225 16.568,-50.992c1.254,-3.859 -0.119,-8.087 -3.402,-10.472c-9.159,-6.655 -28.035,-20.369 -43.376,-31.515c-3.283,-2.385 -4.657,-6.613 -3.403,-10.472c1.254,-3.86 4.85,-6.473 8.908,-6.473c18.963,0 42.295,0 53.616,0c4.058,0 7.655,-2.613 8.909,-6.472c3.498,-10.767 10.708,-32.957 16.568,-50.992Z" style="fill:#6b6ad3;"/></svg>