<?xml version="1.0" encoding="UTF-8" standalone="no"?><!DOCTYPE svg PUBLIC "-//W3C//DTD SVG 1.1//EN" "http://www.w3.org/Graphics/SVG/1.1/DTD/svg11.dtd"><svg width="100%" height="100%" viewBox="0 0 223 223" version="1.1" xmlns="http://www.w3.org/2000/svg" xmlns:xlink="http://www.w3.org/1999/xlink" xml:space="preserve" xmlns:serif="http://www.serif.com/" style="fill-rule:evenodd;clip-rule:evenodd;stroke-linejoin:round;stroke-miterlimit:2;"><path d="M110.65,11.572l-77.317,0c-5.893,0 -11.546,2.341 -15.713,6.509c-4.168,4.167 -6.509,9.82 -6.509,15.713l0,77.317l99.539,0l0,-99.539Z" style="fill:#6b6ad3;"/><g><path d="M110.65,110.878l-99.539,-0l0,77.316c0,5.894 2.341,11.546 6.509,15.714c4.167,4.167 9.82,6.509 15.713,6.509l77.317,-0l0,-99.539Z" style="fill:#4241ce;"/></g><path d="M210.189,110.878l-99.539,-0l0,99.539l77.317,-0c5.893,-0 11.546,-2.342 15.713,-6.509c4.168,-4.168 6.509,-9.82 6.509,-15.714l-0,-77.316Z" style="fill:#6b6ad3;"/><path d="M210.189,33.794c-0,-5.893 -2.341,-11.546 -6.509,-15.713c-4.167,-4.168 -9.82,-6.509 -15.713,-6.509l-77.317,0l0,99.539l99.539,0l-0,-77.317Z" style="fill:#4241ce;"/></svg>