<?xml version="1.0" encoding="UTF-8" standalone="no"?>
<!DOCTYPE svg PUBLIC "-//W3C//DTD SVG 1.1//EN" "http://www.w3.org/Graphics/SVG/1.1/DTD/svg11.dtd">
<svg width="100%" height="100%" viewBox="0 0 40 40" version="1.1" xmlns="http://www.w3.org/2000/svg" xmlns:xlink="http://www.w3.org/1999/xlink" xml:space="preserve" xmlns:serif="http://www.serif.com/" style="fill-rule:evenodd;clip-rule:evenodd;stroke-linejoin:round;stroke-miterlimit:2;">
    <path d="M8.208,36.208C6.986,36.208 5.944,35.778 5.083,34.917C4.222,34.056 3.792,33.014 3.792,31.792L3.792,8.208C3.792,6.986 4.222,5.937 5.083,5.062C5.944,4.187 6.986,3.75 8.208,3.75L31.792,3.75C33.014,3.75 34.063,4.187 34.938,5.062C35.813,5.937 36.25,6.986 36.25,8.208L36.25,31.792C36.25,33.014 35.813,34.056 34.938,34.917C34.063,35.778 33.014,36.208 31.792,36.208L8.208,36.208ZM8.208,31.792L31.792,31.792L31.792,8.208L8.208,8.208L8.208,31.792ZM8.208,8.208L8.208,31.792L8.208,8.208ZM11.625,18.333L18.333,18.333L18.333,11.625L11.625,11.625L11.625,18.333ZM21.667,18.333L28.375,18.333L28.375,11.625L21.667,11.625L21.667,18.333ZM11.625,28.375L18.333,28.375L18.333,21.667L11.625,21.667L11.625,28.375ZM21.667,28.375L28.375,28.375L28.375,21.667L21.667,21.667L21.667,28.375Z" style="fill:rgb(107,106,211);fill-rule:nonzero;"/>
</svg>
