<?xml version="1.0" encoding="UTF-8" standalone="no"?>
<!DOCTYPE svg PUBLIC "-//W3C//DTD SVG 1.1//EN" "http://www.w3.org/Graphics/SVG/1.1/DTD/svg11.dtd">
<svg width="100%" height="100%" viewBox="0 0 40 40" version="1.1" xmlns="http://www.w3.org/2000/svg" xmlns:xlink="http://www.w3.org/1999/xlink" xml:space="preserve" xmlns:serif="http://www.serif.com/" style="fill-rule:evenodd;clip-rule:evenodd;stroke-linejoin:round;stroke-miterlimit:2;">
    <path d="M6,36.25C5.361,36.25 4.827,36.035 4.396,35.604C3.965,35.173 3.75,34.639 3.75,34L3.75,28.042C3.75,27.792 3.806,27.535 3.917,27.271C4.028,27.007 4.194,26.75 4.417,26.5L18.708,12.208L17.708,11.167C17.208,10.694 16.972,10.111 17,9.417C17.028,8.722 17.292,8.125 17.792,7.625C18.264,7.153 18.861,6.924 19.583,6.938C20.306,6.951 20.931,7.194 21.458,7.667L23.25,9.458L28,4.583C28.611,4.028 29.264,3.757 29.958,3.771C30.653,3.785 31.292,4.084 31.875,4.667L35.333,8.167C35.916,8.722 36.222,9.361 36.25,10.083C36.278,10.806 36,11.445 35.417,12L30.542,16.792L32.375,18.667C32.847,19.167 33.083,19.757 33.083,20.438C33.083,21.118 32.847,21.708 32.375,22.208C31.875,22.708 31.278,22.958 30.583,22.958C29.889,22.958 29.306,22.708 28.833,22.208L27.792,21.25L13.5,35.583C13.25,35.806 12.993,35.972 12.729,36.083C12.465,36.194 12.208,36.25 11.958,36.25L6,36.25ZM8.167,31.833L11.083,31.833L25.167,17.75L22.25,14.833L8.167,28.917L8.167,31.833ZM27.417,14.417L31.833,10.083L30,8.25L25.583,12.583L27.417,14.417ZM27.417,14.417L25.583,12.583L27.417,14.417Z" style="fill:rgb(107,106,211);fill-rule:nonzero;"/>
</svg>
