<?xml version="1.0" encoding="UTF-8" standalone="no"?>
<!DOCTYPE svg PUBLIC "-//W3C//DTD SVG 1.1//EN" "http://www.w3.org/Graphics/SVG/1.1/DTD/svg11.dtd">
<svg width="100%" height="100%" viewBox="0 0 40 40" version="1.1" xmlns="http://www.w3.org/2000/svg" xmlns:xlink="http://www.w3.org/1999/xlink" xml:space="preserve" xmlns:serif="http://www.serif.com/" style="fill-rule:evenodd;clip-rule:evenodd;stroke-linejoin:round;stroke-miterlimit:2;">
    <path d="M27.958,25.167L27.958,12.042L14.833,12.042L14.833,7.625L27.958,7.625C29.153,7.625 30.187,8.063 31.062,8.938C31.937,9.813 32.375,10.847 32.375,12.042L32.375,25.167L27.958,25.167ZM30.167,38.667C29.528,38.667 29,38.452 28.583,38.021C28.166,37.59 27.958,37.069 27.958,36.458L27.958,32.333L12.042,32.333C10.847,32.333 9.813,31.903 8.938,31.042C8.063,30.181 7.625,29.139 7.625,27.917L7.625,12.042L3.542,12.042C2.903,12.042 2.382,11.827 1.979,11.396C1.576,10.965 1.375,10.458 1.375,9.875C1.375,9.236 1.576,8.702 1.979,8.271C2.382,7.84 2.903,7.625 3.542,7.625L7.625,7.625L7.625,3.542C7.625,2.903 7.847,2.382 8.292,1.979C8.736,1.576 9.25,1.375 9.833,1.375C10.472,1.375 11,1.576 11.417,1.979C11.834,2.382 12.042,2.903 12.042,3.542L12.042,27.917L36.458,27.917C37.097,27.917 37.625,28.139 38.042,28.583C38.459,29.028 38.667,29.542 38.667,30.125C38.667,30.764 38.459,31.291 38.042,31.708C37.625,32.125 37.097,32.333 36.458,32.333L32.375,32.333L32.375,36.458C32.375,37.069 32.153,37.59 31.708,38.021C31.264,38.452 30.75,38.667 30.167,38.667Z" style="fill:rgb(107,106,211);fill-rule:nonzero;"/>
</svg>
