<?xml version="1.0" encoding="UTF-8" standalone="no"?>
<!DOCTYPE svg PUBLIC "-//W3C//DTD SVG 1.1//EN" "http://www.w3.org/Graphics/SVG/1.1/DTD/svg11.dtd">
<svg width="100%" height="100%" viewBox="0 0 40 40" version="1.1" xmlns="http://www.w3.org/2000/svg" xmlns:xlink="http://www.w3.org/1999/xlink" xml:space="preserve" xmlns:serif="http://www.serif.com/" style="fill-rule:evenodd;clip-rule:evenodd;stroke-linejoin:round;stroke-miterlimit:2;">
    <path d="M10.75,36.208C9.555,36.208 8.514,35.778 7.625,34.917C6.736,34.056 6.292,33.014 6.292,31.792L6.292,9.5L6,9.5C5.389,9.5 4.875,9.292 4.458,8.875C4.041,8.458 3.833,7.944 3.833,7.333C3.833,6.694 4.041,6.16 4.458,5.729C4.875,5.298 5.389,5.083 6,5.083L13.917,5.083C13.917,4.472 14.125,3.952 14.542,3.521C14.959,3.09 15.486,2.875 16.125,2.875L23.875,2.875C24.514,2.875 25.048,3.09 25.479,3.521C25.91,3.952 26.125,4.472 26.125,5.083L34,5.083C34.639,5.083 35.166,5.305 35.583,5.75C36,6.195 36.208,6.709 36.208,7.292C36.208,7.931 36,8.458 35.583,8.875C35.166,9.292 34.639,9.5 34,9.5L33.667,9.5L33.667,31.792C33.667,33.014 33.236,34.056 32.375,34.917C31.514,35.778 30.472,36.208 29.25,36.208L10.75,36.208ZM10.75,9.5L10.75,31.792L29.25,31.792L29.25,9.5L10.75,9.5ZM14.542,26.917C14.542,27.389 14.722,27.799 15.083,28.146C15.444,28.493 15.861,28.667 16.333,28.667C16.806,28.667 17.229,28.493 17.604,28.146C17.979,27.799 18.167,27.389 18.167,26.917L18.167,14.417C18.167,13.944 17.979,13.521 17.604,13.146C17.229,12.771 16.806,12.583 16.333,12.583C15.861,12.583 15.444,12.771 15.083,13.146C14.722,13.521 14.542,13.944 14.542,14.417L14.542,26.917ZM21.875,26.917C21.875,27.389 22.063,27.799 22.438,28.146C22.813,28.493 23.236,28.667 23.708,28.667C24.181,28.667 24.597,28.493 24.958,28.146C25.319,27.799 25.5,27.389 25.5,26.917L25.5,14.417C25.5,13.944 25.319,13.521 24.958,13.146C24.597,12.771 24.167,12.583 23.667,12.583C23.194,12.583 22.778,12.771 22.417,13.146C22.056,13.521 21.875,13.944 21.875,14.417L21.875,26.917ZM10.75,9.5L10.75,31.792L10.75,9.5Z" style="fill:rgb(107,106,211);fill-rule:nonzero;"/>
</svg>
