<?xml version="1.0" encoding="UTF-8" standalone="no"?>
<!DOCTYPE svg PUBLIC "-//W3C//DTD SVG 1.1//EN" "http://www.w3.org/Graphics/SVG/1.1/DTD/svg11.dtd">
<svg width="100%" height="100%" viewBox="0 0 40 40" version="1.1" xmlns="http://www.w3.org/2000/svg" xmlns:xlink="http://www.w3.org/1999/xlink" xml:space="preserve" xmlns:serif="http://www.serif.com/" style="fill-rule:evenodd;clip-rule:evenodd;stroke-linejoin:round;stroke-miterlimit:2;">
    <path d="M8.083,32.292L9.542,32.292L26.25,15.5L24.792,14L8.083,30.792L8.083,32.292ZM33,13.542L26.75,7.333L27.75,6.333C28.611,5.444 29.653,4.993 30.875,4.979C32.097,4.965 33.139,5.375 34,6.208L34.833,7.083C35.556,7.778 35.882,8.576 35.812,9.479C35.743,10.382 35.389,11.139 34.75,11.75L33,13.542ZM31.042,15.458L10.875,35.625L4.667,35.625L4.667,29.417L24.833,9.292L31.042,15.458ZM25.583,14.792L24.792,14L26.25,15.5L25.583,14.792Z" style="fill:rgb(107,106,211);fill-rule:nonzero;"/>
</svg>
