<?xml version="1.0" encoding="UTF-8" standalone="no"?>
<!DOCTYPE svg PUBLIC "-//W3C//DTD SVG 1.1//EN" "http://www.w3.org/Graphics/SVG/1.1/DTD/svg11.dtd">
<svg width="100%" height="100%" viewBox="0 0 40 40" version="1.1" xmlns="http://www.w3.org/2000/svg" xmlns:xlink="http://www.w3.org/1999/xlink" xml:space="preserve" xmlns:serif="http://www.serif.com/" style="fill-rule:evenodd;clip-rule:evenodd;stroke-linejoin:round;stroke-miterlimit:2;">
    <g transform="matrix(1.21132,0,0,1.21132,-4.78182,-6.64907)">
        <path d="M17.7,12.693C18.275,11.715 19.324,11.114 20.458,11.114C21.593,11.114 22.642,11.715 23.217,12.693C26.232,17.822 31.039,25.999 34.083,31.179C34.665,32.168 34.672,33.393 34.102,34.389C33.532,35.385 32.472,36 31.325,36C25.265,36 15.652,36 9.592,36C8.445,36 7.385,35.385 6.815,34.389C6.245,33.393 6.252,32.168 6.834,31.179C9.878,25.999 14.685,17.822 17.7,12.693Z" style="fill:rgb(107,106,211);"/>
    </g>
</svg>
