<?xml version="1.0" encoding="UTF-8" standalone="no"?>
<!DOCTYPE svg PUBLIC "-//W3C//DTD SVG 1.1//EN" "http://www.w3.org/Graphics/SVG/1.1/DTD/svg11.dtd">
<svg width="100%" height="100%" viewBox="0 0 40 40" version="1.1" xmlns="http://www.w3.org/2000/svg" xmlns:xlink="http://www.w3.org/1999/xlink" xml:space="preserve" xmlns:serif="http://www.serif.com/" style="fill-rule:evenodd;clip-rule:evenodd;stroke-linejoin:round;stroke-miterlimit:2;">
    <path d="M23,30.333L23,20.958C23,20.319 23.201,19.792 23.604,19.375C24.007,18.958 24.528,18.75 25.167,18.75C25.778,18.75 26.305,18.958 26.75,19.375C27.195,19.792 27.417,20.319 27.417,20.958L27.417,30.375L29.875,27.917C30.292,27.5 30.806,27.299 31.417,27.312C32.028,27.326 32.541,27.541 32.958,27.958C33.375,28.403 33.583,28.917 33.583,29.5C33.583,30.083 33.361,30.611 32.917,31.083L26.75,37.25C26.555,37.445 26.319,37.597 26.042,37.708C25.764,37.819 25.486,37.875 25.208,37.875C24.931,37.875 24.646,37.819 24.354,37.708C24.063,37.597 23.834,37.445 23.667,37.25L17.417,31C17.028,30.583 16.833,30.076 16.833,29.479C16.833,28.882 17.041,28.361 17.458,27.917C17.875,27.528 18.389,27.333 19,27.333C19.611,27.333 20.139,27.555 20.583,28L23,30.333ZM12.583,9.583L10.167,12C9.722,12.417 9.201,12.625 8.604,12.625C8.007,12.625 7.5,12.403 7.083,11.958C6.639,11.569 6.417,11.063 6.417,10.438C6.417,9.813 6.639,9.292 7.083,8.875L13.292,2.625C13.459,2.458 13.681,2.313 13.958,2.188C14.236,2.063 14.514,2 14.792,2C15.069,2 15.347,2.063 15.625,2.188C15.903,2.313 16.153,2.458 16.375,2.625L22.583,8.875C23,9.32 23.208,9.847 23.208,10.458C23.208,11.069 22.986,11.569 22.542,11.958C22.125,12.403 21.611,12.625 21,12.625C20.389,12.625 19.861,12.417 19.417,12L17,9.542L17,19C17,19.611 16.785,20.132 16.354,20.562C15.923,20.993 15.389,21.208 14.75,21.208C14.139,21.208 13.625,20.993 13.208,20.562C12.791,20.132 12.583,19.611 12.583,19L12.583,9.583Z" style="fill:rgb(107,106,211);fill-rule:nonzero;"/>
</svg>
