<?xml version="1.0" encoding="UTF-8" standalone="no"?>
<!DOCTYPE svg PUBLIC "-//W3C//DTD SVG 1.1//EN" "http://www.w3.org/Graphics/SVG/1.1/DTD/svg11.dtd">
<svg width="100%" height="100%" viewBox="0 0 40 40" version="1.1" xmlns="http://www.w3.org/2000/svg" xmlns:xlink="http://www.w3.org/1999/xlink" xml:space="preserve" xmlns:serif="http://www.serif.com/" style="fill-rule:evenodd;clip-rule:evenodd;stroke-linejoin:round;stroke-miterlimit:2;">
    <path d="M28,22.5C27.583,22.083 27.368,21.576 27.354,20.979C27.34,20.382 27.555,19.861 28,19.417L30.417,17L21,17C20.389,17 19.875,16.792 19.458,16.375C19.041,15.958 18.833,15.431 18.833,14.792C18.833,14.153 19.041,13.625 19.458,13.208C19.875,12.791 20.389,12.583 21,12.583L30.417,12.583L28,10.167C27.555,9.722 27.34,9.201 27.354,8.604C27.368,8.007 27.583,7.5 28,7.083C28.445,6.611 28.972,6.375 29.583,6.375C30.194,6.375 30.694,6.597 31.083,7.042L37.292,13.25C37.486,13.472 37.646,13.715 37.771,13.979C37.896,14.243 37.958,14.514 37.958,14.792C37.958,15.069 37.896,15.347 37.771,15.625C37.646,15.903 37.486,16.139 37.292,16.333L31.083,22.542C30.666,22.986 30.159,23.208 29.562,23.208C28.965,23.208 28.445,22.972 28,22.5ZM8.917,32.917L2.708,26.708C2.514,26.541 2.361,26.319 2.25,26.042C2.139,25.764 2.083,25.486 2.083,25.208C2.083,24.931 2.139,24.653 2.25,24.375C2.361,24.097 2.514,23.847 2.708,23.625L8.958,17.417C9.375,17 9.875,16.792 10.458,16.792C11.041,16.792 11.555,17.014 12,17.458C12.417,17.875 12.632,18.389 12.646,19C12.66,19.611 12.445,20.125 12,20.542L9.583,22.958L19,22.958C19.611,22.958 20.139,23.173 20.583,23.604C21.028,24.035 21.25,24.556 21.25,25.167C21.25,25.834 21.028,26.368 20.583,26.771C20.139,27.174 19.611,27.375 19,27.375L9.583,27.375L12,29.875C12.445,30.292 12.66,30.799 12.646,31.396C12.632,31.993 12.417,32.5 12,32.917C11.555,33.361 11.035,33.583 10.438,33.583C9.841,33.583 9.334,33.361 8.917,32.917Z" style="fill:rgb(107,106,211);fill-rule:nonzero;"/>
</svg>
