<?xml version="1.0" encoding="UTF-8" standalone="no"?>
<!DOCTYPE svg PUBLIC "-//W3C//DTD SVG 1.1//EN" "http://www.w3.org/Graphics/SVG/1.1/DTD/svg11.dtd">
<svg width="100%" height="100%" viewBox="0 0 40 40" version="1.1" xmlns="http://www.w3.org/2000/svg" xmlns:xlink="http://www.w3.org/1999/xlink" xml:space="preserve" xmlns:serif="http://www.serif.com/" style="fill-rule:evenodd;clip-rule:evenodd;stroke-linejoin:round;stroke-miterlimit:2;">
    <path d="M6.417,35.792C5.75,35.792 5.215,35.591 4.812,35.188C4.409,34.785 4.208,34.25 4.208,33.583L4.208,23.625C4.208,23.014 4.423,22.486 4.854,22.042C5.285,21.597 5.792,21.375 6.375,21.375C6.986,21.375 7.514,21.597 7.958,22.042C8.403,22.486 8.625,23.014 8.625,23.625L8.625,28.25L28.292,8.583L23.625,8.583C23.014,8.583 22.493,8.368 22.062,7.938C21.632,7.507 21.417,6.986 21.417,6.375C21.417,5.792 21.632,5.278 22.062,4.833C22.493,4.389 23.014,4.167 23.625,4.167L33.625,4.167C34.264,4.167 34.791,4.375 35.208,4.792C35.625,5.209 35.833,5.736 35.833,6.375L35.833,16.375C35.833,16.986 35.611,17.507 35.167,17.938C34.722,18.368 34.208,18.583 33.625,18.583C33.014,18.583 32.493,18.368 32.062,17.938C31.632,17.507 31.417,16.986 31.417,16.375L31.417,11.708L11.75,31.375L16.375,31.375C16.986,31.375 17.514,31.597 17.958,32.042C18.403,32.486 18.625,33.014 18.625,33.625C18.625,34.208 18.403,34.715 17.958,35.146C17.514,35.577 16.986,35.792 16.375,35.792L6.417,35.792Z" style="fill:rgb(107,106,211);fill-rule:nonzero;"/>
</svg>
