<?xml version="1.0" encoding="UTF-8" standalone="no"?>
<!DOCTYPE svg PUBLIC "-//W3C//DTD SVG 1.1//EN" "http://www.w3.org/Graphics/SVG/1.1/DTD/svg11.dtd">
<svg width="100%" height="100%" viewBox="0 0 40 40" version="1.1" xmlns="http://www.w3.org/2000/svg" xmlns:xlink="http://www.w3.org/1999/xlink" xml:space="preserve" xmlns:serif="http://www.serif.com/" style="fill-rule:evenodd;clip-rule:evenodd;stroke-linejoin:round;stroke-miterlimit:2;">
    <path d="M30.917,32.292C30.25,32.292 29.715,32.077 29.312,31.646C28.909,31.215 28.708,30.681 28.708,30.042L28.708,9.917C28.708,9.306 28.916,8.785 29.333,8.354C29.75,7.923 30.278,7.708 30.917,7.708C31.528,7.708 32.048,7.923 32.479,8.354C32.91,8.785 33.125,9.306 33.125,9.917L33.125,30.042C33.125,30.681 32.91,31.215 32.479,31.646C32.048,32.077 31.528,32.292 30.917,32.292ZM10.375,29.917C9.597,30.417 8.819,30.459 8.042,30.042C7.264,29.625 6.875,28.972 6.875,28.083L6.875,11.917C6.875,11.028 7.278,10.375 8.083,9.958C8.889,9.541 9.653,9.569 10.375,10.042L22.208,18.167C22.847,18.584 23.167,19.195 23.167,20C23.167,20.805 22.847,21.416 22.208,21.833L10.375,29.917ZM11.292,23.917L17.042,20L11.292,16.083L11.292,23.917Z" style="fill:rgb(107,106,211);fill-rule:nonzero;"/>
</svg>
