<?xml version="1.0" encoding="UTF-8" standalone="no"?>
<!DOCTYPE svg PUBLIC "-//W3C//DTD SVG 1.1//EN" "http://www.w3.org/Graphics/SVG/1.1/DTD/svg11.dtd">
<svg width="100%" height="100%" viewBox="0 0 40 40" version="1.1" xmlns="http://www.w3.org/2000/svg" xmlns:xlink="http://www.w3.org/1999/xlink" xml:space="preserve" xmlns:serif="http://www.serif.com/" style="fill-rule:evenodd;clip-rule:evenodd;stroke-linejoin:round;stroke-miterlimit:2;">
    <path d="M6.208,32.5C5.569,32.5 5.042,32.285 4.625,31.854C4.208,31.423 4,30.903 4,30.292L4,24.625C4,22.125 4.861,20.021 6.583,18.312C8.306,16.604 10.403,15.75 12.875,15.75L27.583,15.75L23.667,11.75C23.222,11.333 23.007,10.833 23.021,10.25C23.035,9.667 23.264,9.153 23.708,8.708C24.097,8.291 24.597,8.083 25.208,8.083C25.819,8.083 26.333,8.291 26.75,8.708L34.458,16.417C34.653,16.611 34.813,16.847 34.938,17.125C35.063,17.403 35.125,17.681 35.125,17.958C35.125,18.236 35.063,18.514 34.938,18.792C34.813,19.069 34.653,19.291 34.458,19.458L26.708,27.208C26.291,27.653 25.785,27.868 25.188,27.854C24.591,27.84 24.084,27.611 23.667,27.167C23.25,26.722 23.042,26.201 23.042,25.604C23.042,25.007 23.264,24.486 23.708,24.042L27.583,20.167L12.875,20.167C11.625,20.167 10.576,20.597 9.729,21.458C8.882,22.319 8.458,23.375 8.458,24.625L8.458,30.292C8.458,30.903 8.236,31.423 7.792,31.854C7.347,32.285 6.819,32.5 6.208,32.5Z" style="fill:rgb(107,106,211);fill-rule:nonzero;"/>
</svg>
