<?xml version="1.0" encoding="UTF-8" standalone="no"?>
<!DOCTYPE svg PUBLIC "-//W3C//DTD SVG 1.1//EN" "http://www.w3.org/Graphics/SVG/1.1/DTD/svg11.dtd">
<svg width="100%" height="100%" viewBox="0 0 40 40" version="1.1" xmlns="http://www.w3.org/2000/svg" xmlns:xlink="http://www.w3.org/1999/xlink" xml:space="preserve" xmlns:serif="http://www.serif.com/" style="fill-rule:evenodd;clip-rule:evenodd;stroke-linejoin:round;stroke-miterlimit:2;">
    <path d="M9.833,37.833C8.639,37.833 7.604,37.396 6.729,36.521C5.854,35.646 5.417,34.611 5.417,33.417L5.417,16.625C5.417,15.375 5.854,14.319 6.729,13.458C7.604,12.597 8.639,12.167 9.833,12.167L11.375,12.167L11.375,9.417C11.375,6.972 12.215,4.896 13.896,3.188C15.577,1.479 17.611,0.625 20,0.625C22.389,0.625 24.423,1.479 26.104,3.188C27.785,4.896 28.625,6.972 28.625,9.417L28.625,12.167L30.167,12.167C31.361,12.167 32.403,12.597 33.292,13.458C34.181,14.319 34.625,15.375 34.625,16.625L34.625,33.417C34.625,34.611 34.181,35.646 33.292,36.521C32.403,37.396 31.361,37.833 30.167,37.833L9.833,37.833ZM15.792,12.167L24.208,12.167L24.208,9.417C24.208,8.167 23.805,7.132 23,6.313C22.195,5.493 21.195,5.083 20,5.083C18.833,5.083 17.84,5.493 17.021,6.313C16.202,7.132 15.792,8.167 15.792,9.417L15.792,12.167ZM9.833,33.417L30.167,33.417L30.167,16.625L9.833,16.625L9.833,33.417ZM20,28.333C20.917,28.333 21.687,28.014 22.312,27.375C22.937,26.736 23.25,25.972 23.25,25.083C23.25,24.222 22.937,23.452 22.312,22.771C21.687,22.09 20.917,21.75 20,21.75C19.083,21.75 18.313,22.09 17.688,22.771C17.063,23.452 16.75,24.222 16.75,25.083C16.75,25.972 17.063,26.736 17.688,27.375C18.313,28.014 19.083,28.333 20,28.333Z" style="fill:rgb(107,106,211);fill-rule:nonzero;"/>
</svg>
