<?xml version="1.0" encoding="UTF-8" standalone="no"?>
<!DOCTYPE svg PUBLIC "-//W3C//DTD SVG 1.1//EN" "http://www.w3.org/Graphics/SVG/1.1/DTD/svg11.dtd">
<svg width="100%" height="100%" viewBox="0 0 40 40" version="1.1" xmlns="http://www.w3.org/2000/svg" xmlns:xlink="http://www.w3.org/1999/xlink" xml:space="preserve" xmlns:serif="http://www.serif.com/" style="fill-rule:evenodd;clip-rule:evenodd;stroke-linejoin:round;stroke-miterlimit:2;">
    <path d="M6.375,31.333C5.764,31.333 5.243,31.125 4.812,30.708C4.382,30.291 4.167,29.764 4.167,29.125C4.167,28.514 4.382,27.993 4.812,27.562C5.243,27.132 5.764,26.917 6.375,26.917L33.667,26.917C34.25,26.917 34.757,27.132 35.188,27.562C35.618,27.993 35.833,28.514 35.833,29.125C35.833,29.764 35.618,30.291 35.188,30.708C34.757,31.125 34.25,31.333 33.667,31.333L6.375,31.333ZM6.375,22.208C5.764,22.208 5.243,21.993 4.812,21.562C4.382,21.132 4.167,20.611 4.167,20C4.167,19.361 4.382,18.834 4.812,18.417C5.243,18 5.764,17.792 6.375,17.792L33.667,17.792C34.25,17.792 34.757,18 35.188,18.417C35.618,18.834 35.833,19.361 35.833,20C35.833,20.611 35.618,21.132 35.188,21.562C34.757,21.993 34.25,22.208 33.667,22.208L6.375,22.208ZM6.375,13.083C5.764,13.083 5.243,12.861 4.812,12.417C4.382,11.972 4.167,11.458 4.167,10.875C4.167,10.236 4.382,9.702 4.812,9.271C5.243,8.84 5.764,8.625 6.375,8.625L33.667,8.625C34.25,8.625 34.757,8.84 35.188,9.271C35.618,9.702 35.833,10.222 35.833,10.833C35.833,11.472 35.618,12.007 35.188,12.438C34.757,12.868 34.25,13.083 33.667,13.083L6.375,13.083Z" style="fill:rgb(107,106,211);fill-rule:nonzero;"/>
</svg>
