<?xml version="1.0" encoding="UTF-8" standalone="no"?>
<!DOCTYPE svg PUBLIC "-//W3C//DTD SVG 1.1//EN" "http://www.w3.org/Graphics/SVG/1.1/DTD/svg11.dtd">
<svg width="100%" height="100%" viewBox="0 0 40 40" version="1.1" xmlns="http://www.w3.org/2000/svg" xmlns:xlink="http://www.w3.org/1999/xlink" xml:space="preserve" xmlns:serif="http://www.serif.com/" style="fill-rule:evenodd;clip-rule:evenodd;stroke-linejoin:round;stroke-miterlimit:2;">
    <path d="M20,25.917C19.389,25.917 18.868,25.695 18.438,25.25C18.007,24.805 17.792,24.291 17.792,23.708L17.792,11.792L14.792,14.792C14.375,15.181 13.868,15.382 13.271,15.396C12.674,15.41 12.167,15.195 11.75,14.75C11.305,14.333 11.083,13.819 11.083,13.208C11.083,12.597 11.305,12.056 11.75,11.583L18.458,4.875C18.653,4.708 18.889,4.563 19.167,4.438C19.444,4.313 19.722,4.25 20,4.25C20.278,4.25 20.556,4.313 20.833,4.438C21.111,4.563 21.347,4.708 21.542,4.875L28.292,11.667C28.736,12.084 28.951,12.597 28.938,13.208C28.924,13.819 28.709,14.333 28.292,14.75C27.875,15.167 27.368,15.375 26.771,15.375C26.174,15.375 25.653,15.153 25.208,14.708L22.208,11.792L22.208,23.708C22.208,24.291 22,24.805 21.583,25.25C21.166,25.695 20.639,25.917 20,25.917ZM8.708,35.625C7.541,35.625 6.514,35.194 5.625,34.333C4.736,33.472 4.292,32.417 4.292,31.167L4.292,25.625C4.292,25.042 4.514,24.528 4.958,24.083C5.403,23.639 5.931,23.417 6.542,23.417C7.181,23.417 7.701,23.639 8.104,24.083C8.507,24.528 8.708,25.042 8.708,25.625L8.708,31.167L31.208,31.167L31.208,25.625C31.208,25.042 31.416,24.528 31.833,24.083C32.25,23.639 32.778,23.417 33.417,23.417C34.056,23.417 34.583,23.639 35,24.083C35.417,24.528 35.625,25.042 35.625,25.625L35.625,31.167C35.625,32.417 35.181,33.472 34.292,34.333C33.403,35.194 32.375,35.625 31.208,35.625L8.708,35.625Z" style="fill:rgb(107,106,211);fill-rule:nonzero;"/>
</svg>
