<?xml version="1.0" encoding="UTF-8" standalone="no"?><!DOCTYPE svg PUBLIC "-//W3C//DTD SVG 1.1//EN" "http://www.w3.org/Graphics/SVG/1.1/DTD/svg11.dtd"><svg width="100%" height="100%" viewBox="0 0 223 223" version="1.1" xmlns="http://www.w3.org/2000/svg" xmlns:xlink="http://www.w3.org/1999/xlink" xml:space="preserve" xmlns:serif="http://www.serif.com/" style="fill-rule:evenodd;clip-rule:evenodd;stroke-linejoin:round;stroke-miterlimit:2;"><path d="M111.111,23.611c-3.394,0 -6.289,1.233 -8.678,3.706c-2.394,2.472 -3.589,5.327 -3.589,8.566l0,66.2l-16.666,-16.666c-2.317,-2.161 -5.134,-3.278 -8.45,-3.356c-3.317,-0.078 -6.134,1.117 -8.45,3.589c-2.472,2.317 -3.706,5.172 -3.706,8.567c0,3.394 1.234,6.4 3.706,9.027l37.266,37.267c1.084,0.928 2.395,1.733 3.939,2.428c1.539,0.694 3.084,1.044 4.628,1.044c1.545,0 3.089,-0.35 4.628,-1.044c1.544,-0.695 2.855,-1.5 3.939,-2.428l37.5,-37.733c2.466,-2.317 3.661,-5.167 3.589,-8.561c-0.078,-3.395 -1.273,-6.25 -3.589,-8.567c-2.317,-2.317 -5.134,-3.472 -8.45,-3.472c-3.317,-0 -6.211,1.233 -8.684,3.705l-16.666,16.2l-0,-66.2c-0,-3.239 -1.156,-6.094 -3.472,-8.566c-2.317,-2.473 -5.245,-3.706 -8.795,-3.706Zm-62.733,174.306c-6.484,-0 -12.189,-2.395 -17.128,-7.178c-4.939,-4.783 -7.406,-10.645 -7.406,-17.589l0,-30.789c0,-3.239 1.234,-6.094 3.7,-8.567c2.473,-2.466 5.406,-3.7 8.8,-3.7c3.55,0 6.439,1.234 8.678,3.7c2.239,2.473 3.356,5.328 3.356,8.567l-0,30.789l125,-0l-0,-30.789c-0,-3.239 1.155,-6.094 3.472,-8.567c2.317,-2.466 5.25,-3.7 8.8,-3.7c3.55,0 6.478,1.234 8.794,3.7c2.317,2.473 3.473,5.328 3.473,8.567l-0,30.789c-0,6.944 -2.467,12.806 -7.406,17.589c-4.939,4.783 -10.65,7.178 -17.133,7.178l-125,-0Z" style="fill:#6b6ad3;fill-rule:nonzero;"/></svg>