<?xml version="1.0" encoding="UTF-8" standalone="no"?>
<!DOCTYPE svg PUBLIC "-//W3C//DTD SVG 1.1//EN" "http://www.w3.org/Graphics/SVG/1.1/DTD/svg11.dtd">
<svg width="100%" height="100%" viewBox="0 0 40 40" version="1.1" xmlns="http://www.w3.org/2000/svg" xmlns:xlink="http://www.w3.org/1999/xlink" xml:space="preserve" xmlns:serif="http://www.serif.com/" style="fill-rule:evenodd;clip-rule:evenodd;stroke-linejoin:round;stroke-miterlimit:2;">
    <path d="M26.792,11.875L26.792,8.167L13.208,8.167L13.208,11.875L8.792,11.875L8.792,3.75L31.208,3.75L31.208,11.875L26.792,11.875ZM6.458,16.333L33.542,16.333L6.458,16.333ZM29.708,21.5C30.264,21.5 30.729,21.319 31.104,20.958C31.479,20.597 31.667,20.139 31.667,19.583C31.667,19.028 31.486,18.556 31.125,18.167C30.764,17.778 30.291,17.583 29.708,17.583C29.125,17.583 28.653,17.771 28.292,18.146C27.931,18.521 27.75,19 27.75,19.583C27.75,20.139 27.931,20.597 28.292,20.958C28.653,21.319 29.125,21.5 29.708,21.5ZM26.792,32.667L26.792,27.917L13.208,27.917L13.208,32.667L26.792,32.667ZM31.208,36.833L8.792,36.833L8.792,28.958L2.042,28.958L2.042,17.75C2.042,16.139 2.597,14.757 3.708,13.604C4.819,12.451 6.181,11.875 7.792,11.875L32.208,11.875C33.847,11.875 35.215,12.451 36.312,13.604C37.409,14.757 37.958,16.139 37.958,17.75L37.958,28.958L31.208,28.958L31.208,36.833ZM33.542,24.542L33.542,17.75C33.542,17.389 33.417,17.062 33.167,16.771C32.917,16.479 32.611,16.333 32.25,16.333L7.792,16.333C7.459,16.333 7.153,16.472 6.875,16.75C6.597,17.028 6.458,17.347 6.458,17.708L6.458,24.542L8.792,24.542L8.792,23.458L31.208,23.458L31.208,24.542L33.542,24.542Z" style="fill:rgb(107,106,211);fill-rule:nonzero;"/>
</svg>
