<?xml version="1.0" encoding="UTF-8" standalone="no"?>
<!DOCTYPE svg PUBLIC "-//W3C//DTD SVG 1.1//EN" "http://www.w3.org/Graphics/SVG/1.1/DTD/svg11.dtd">
<svg width="100%" height="100%" viewBox="0 0 40 40" version="1.1" xmlns="http://www.w3.org/2000/svg" xmlns:xlink="http://www.w3.org/1999/xlink" xml:space="preserve" xmlns:serif="http://www.serif.com/" style="fill-rule:evenodd;clip-rule:evenodd;stroke-linejoin:round;stroke-miterlimit:2;">
    <path d="M19.875,34.583C15.82,34.583 12.375,33.166 9.542,30.333C6.709,27.5 5.292,24.055 5.292,20C5.292,15.972 6.709,12.535 9.542,9.688C12.375,6.841 15.834,5.417 19.917,5.417C22.278,5.417 24.43,5.896 26.375,6.854C28.32,7.813 29.986,9.181 31.375,10.958L31.375,7.083C31.375,6.611 31.528,6.215 31.833,5.896C32.139,5.577 32.542,5.417 33.042,5.417C33.514,5.417 33.917,5.577 34.25,5.896C34.583,6.215 34.75,6.611 34.75,7.083L34.75,15.958C34.75,16.597 34.535,17.125 34.104,17.542C33.673,17.959 33.139,18.167 32.5,18.167L23.625,18.167C23.153,18.167 22.757,18.014 22.438,17.708C22.118,17.403 21.958,17.014 21.958,16.542C21.958,16.014 22.118,15.597 22.438,15.292C22.757,14.986 23.153,14.833 23.625,14.833L28.792,14.833C27.764,13.306 26.507,12.091 25.021,11.188C23.535,10.285 21.82,9.833 19.875,9.833C17.042,9.833 14.639,10.819 12.667,12.792C10.694,14.764 9.708,17.167 9.708,20C9.708,22.833 10.694,25.236 12.667,27.208C14.639,29.181 17.042,30.167 19.875,30.167C21.708,30.167 23.437,29.681 25.062,28.708C26.687,27.736 27.944,26.417 28.833,24.75C29.028,24.417 29.333,24.132 29.75,23.896C30.167,23.66 30.569,23.542 30.958,23.542C31.847,23.542 32.507,23.847 32.938,24.458C33.368,25.069 33.375,25.736 32.958,26.458C31.736,28.903 29.951,30.868 27.604,32.354C25.257,33.84 22.68,34.583 19.875,34.583Z" style="fill:rgb(107,106,211);fill-rule:nonzero;"/>
</svg>
