<?xml version="1.0" encoding="UTF-8" standalone="no"?>
<!DOCTYPE svg PUBLIC "-//W3C//DTD SVG 1.1//EN" "http://www.w3.org/Graphics/SVG/1.1/DTD/svg11.dtd">
<svg width="100%" height="100%" viewBox="0 0 40 40" version="1.1" xmlns="http://www.w3.org/2000/svg" xmlns:xlink="http://www.w3.org/1999/xlink" xml:space="preserve" xmlns:serif="http://www.serif.com/" style="fill-rule:evenodd;clip-rule:evenodd;stroke-linejoin:round;stroke-miterlimit:2;">
    <path d="M33.667,20.208C33.194,20.208 32.729,20.035 32.271,19.688C31.812,19.341 31.514,18.917 31.375,18.417C31.264,18.056 31.139,17.715 31,17.396C30.861,17.077 30.695,16.75 30.5,16.417C30.278,15.944 30.202,15.437 30.271,14.896C30.34,14.354 30.569,13.903 30.958,13.542C31.514,13.069 32.132,12.854 32.812,12.896C33.493,12.937 34,13.264 34.333,13.875C34.639,14.486 34.917,15.091 35.167,15.688C35.417,16.285 35.639,16.93 35.833,17.625C36,18.292 35.868,18.889 35.438,19.417C35.007,19.944 34.417,20.208 33.667,20.208ZM21.875,35.667C21.875,35.222 22.042,34.778 22.375,34.333C22.708,33.889 23.139,33.556 23.667,33.333C24,33.306 24.32,33.236 24.625,33.125C24.93,33.014 25.236,32.819 25.542,32.542C26.042,32.319 26.563,32.243 27.104,32.312C27.646,32.382 28.084,32.597 28.417,32.958C28.944,33.514 29.18,34.132 29.125,34.812C29.07,35.493 28.736,35.986 28.125,36.292C27.542,36.625 26.944,36.924 26.333,37.188C25.722,37.451 25.084,37.666 24.417,37.833C23.75,38 23.16,37.868 22.646,37.438C22.132,37.007 21.875,36.417 21.875,35.667ZM31,30.417C30.639,30.111 30.423,29.666 30.354,29.083C30.285,28.5 30.375,27.944 30.625,27.417C30.82,27.139 30.965,26.847 31.062,26.542C31.159,26.236 31.264,25.903 31.375,25.542C31.514,25.069 31.798,24.659 32.229,24.312C32.66,23.965 33.139,23.792 33.667,23.792C34.389,23.792 34.972,24.042 35.417,24.542C35.861,25.042 35.972,25.625 35.75,26.292C35.555,26.986 35.34,27.653 35.104,28.292C34.868,28.931 34.597,29.514 34.292,30.042C33.986,30.681 33.493,31.042 32.812,31.125C32.132,31.208 31.528,30.972 31,30.417ZM15.708,37.708C12.208,36.764 9.361,34.847 7.167,31.958C4.972,29.069 3.875,25.75 3.875,22C3.875,17.611 5.347,13.868 8.292,10.771C11.236,7.674 14.875,6.014 19.208,5.792L19.708,5.792L18.625,4.708C18.403,4.291 18.292,3.826 18.292,3.313C18.292,2.799 18.514,2.334 18.958,1.917C19.375,1.472 19.889,1.257 20.5,1.271C21.111,1.285 21.639,1.5 22.083,1.917L26.583,6.417C26.778,6.639 26.937,6.882 27.062,7.146C27.187,7.41 27.25,7.695 27.25,8C27.25,8.278 27.187,8.549 27.062,8.813C26.937,9.076 26.778,9.305 26.583,9.5L22.083,14C21.639,14.445 21.104,14.667 20.479,14.667C19.854,14.667 19.347,14.445 18.958,14C18.514,13.611 18.271,13.16 18.229,12.646C18.188,12.132 18.278,11.681 18.5,11.292L19.583,10.25L19.125,10.25C15.958,10.528 13.361,11.778 11.333,14C9.306,16.222 8.292,18.889 8.292,22C8.292,24.695 9.049,27.063 10.562,29.104C12.076,31.146 14.069,32.542 16.542,33.292C17.014,33.486 17.424,33.798 17.771,34.229C18.118,34.66 18.292,35.139 18.292,35.667C18.292,36.444 18.028,37.035 17.5,37.438C16.972,37.841 16.375,37.931 15.708,37.708Z" style="fill:rgb(107,106,211);fill-rule:nonzero;"/>
</svg>
