<?xml version="1.0" encoding="UTF-8" standalone="no"?>
<!DOCTYPE svg PUBLIC "-//W3C//DTD SVG 1.1//EN" "http://www.w3.org/Graphics/SVG/1.1/DTD/svg11.dtd">
<svg width="100%" height="100%" viewBox="0 0 40 40" version="1.1" xmlns="http://www.w3.org/2000/svg" xmlns:xlink="http://www.w3.org/1999/xlink" xml:space="preserve" xmlns:serif="http://www.serif.com/" style="fill-rule:evenodd;clip-rule:evenodd;stroke-linejoin:round;stroke-miterlimit:2;">
    <path d="M6.458,20.208C5.708,20.208 5.111,19.944 4.667,19.417C4.222,18.889 4.097,18.278 4.292,17.583C4.486,16.944 4.701,16.326 4.938,15.729C5.174,15.132 5.459,14.528 5.792,13.917C6.125,13.306 6.625,12.972 7.292,12.917C7.959,12.861 8.57,13.083 9.125,13.583C9.486,13.916 9.715,14.354 9.812,14.896C9.909,15.437 9.833,15.944 9.583,16.417C9.389,16.694 9.222,17.028 9.083,17.417C8.944,17.806 8.847,18.153 8.792,18.458C8.569,18.986 8.25,19.41 7.833,19.729C7.416,20.048 6.958,20.208 6.458,20.208ZM15.667,37.792C15,37.625 14.368,37.424 13.771,37.188C13.174,36.951 12.611,36.666 12.083,36.333C11.416,36 11.048,35.486 10.979,34.792C10.91,34.097 11.167,33.458 11.75,32.875C12.083,32.57 12.507,32.382 13.021,32.312C13.535,32.243 14.028,32.319 14.5,32.542C14.75,32.764 15.056,32.931 15.417,33.042C15.778,33.153 16.139,33.278 16.5,33.417C16.972,33.556 17.375,33.833 17.708,34.25C18.041,34.667 18.208,35.125 18.208,35.625C18.208,36.403 17.944,37 17.417,37.417C16.889,37.834 16.306,37.959 15.667,37.792ZM5.833,30.083C5.472,29.528 5.181,28.944 4.958,28.333C4.736,27.722 4.528,27.07 4.333,26.375C4.139,25.708 4.257,25.111 4.688,24.583C5.118,24.056 5.722,23.792 6.5,23.792C6.917,23.792 7.347,23.952 7.792,24.271C8.236,24.59 8.555,25 8.75,25.5C8.805,25.861 8.896,26.215 9.021,26.562C9.146,26.909 9.305,27.25 9.5,27.583C9.75,28.028 9.833,28.528 9.75,29.083C9.667,29.639 9.458,30.097 9.125,30.458C8.57,30.986 7.965,31.215 7.312,31.146C6.659,31.077 6.166,30.722 5.833,30.083ZM24.375,37.708C23.68,37.903 23.076,37.799 22.562,37.396C22.049,36.993 21.792,36.403 21.792,35.625C21.792,35.208 21.952,34.778 22.271,34.333C22.59,33.889 23.014,33.57 23.542,33.375C25.959,32.542 27.938,31.111 29.479,29.083C31.021,27.056 31.792,24.695 31.792,22C31.792,18.889 30.778,16.222 28.75,14C26.722,11.778 24.125,10.528 20.958,10.25L20.542,10.25L21.625,11.292C21.792,11.681 21.861,12.132 21.833,12.646C21.806,13.16 21.584,13.611 21.167,14C20.722,14.445 20.194,14.66 19.583,14.646C18.972,14.632 18.445,14.417 18,14L13.542,9.5C13.319,9.305 13.153,9.076 13.042,8.813C12.931,8.549 12.875,8.278 12.875,8C12.875,7.695 12.931,7.41 13.042,7.146C13.153,6.882 13.319,6.639 13.542,6.417L18,1.917C18.445,1.472 18.965,1.25 19.562,1.25C20.159,1.25 20.68,1.472 21.125,1.917C21.542,2.334 21.778,2.813 21.833,3.354C21.889,3.896 21.778,4.347 21.5,4.708L20.375,5.792L20.875,5.792C25.208,6.014 28.854,7.674 31.812,10.771C34.771,13.868 36.25,17.611 36.25,22C36.25,25.722 35.132,29.014 32.896,31.875C30.66,34.736 27.82,36.681 24.375,37.708Z" style="fill:rgb(107,106,211);fill-rule:nonzero;"/>
</svg>
