<?xml version="1.0" encoding="UTF-8" standalone="no"?>
<!DOCTYPE svg PUBLIC "-//W3C//DTD SVG 1.1//EN" "http://www.w3.org/Graphics/SVG/1.1/DTD/svg11.dtd">
<svg width="100%" height="100%" viewBox="0 0 40 40" version="1.1" xmlns="http://www.w3.org/2000/svg" xmlns:xlink="http://www.w3.org/1999/xlink" xml:space="preserve" xmlns:serif="http://www.serif.com/" style="fill-rule:evenodd;clip-rule:evenodd;stroke-linejoin:round;stroke-miterlimit:2;">
    <path d="M8.208,36.208C6.986,36.208 5.944,35.778 5.083,34.917C4.222,34.056 3.792,33.014 3.792,31.792L3.792,8.208C3.792,6.986 4.222,5.937 5.083,5.062C5.944,4.187 6.986,3.75 8.208,3.75L27.083,3.75C27.694,3.75 28.278,3.868 28.833,4.104C29.389,4.34 29.861,4.666 30.25,5.083L34.917,9.75C35.334,10.139 35.66,10.611 35.896,11.167C36.132,11.722 36.25,12.306 36.25,12.917L36.25,31.792C36.25,33.014 35.813,34.056 34.938,34.917C34.063,35.778 33.014,36.208 31.792,36.208L8.208,36.208ZM31.792,13L27,8.208L8.208,8.208L8.208,31.792L31.792,31.792L31.792,13ZM20,29.458C21.25,29.458 22.326,29.014 23.229,28.125C24.132,27.236 24.583,26.167 24.583,24.917C24.583,23.639 24.139,22.556 23.25,21.667C22.361,20.778 21.278,20.333 20,20.333C18.75,20.333 17.674,20.771 16.771,21.646C15.868,22.521 15.417,23.597 15.417,24.875C15.417,26.153 15.861,27.236 16.75,28.125C17.639,29.014 18.722,29.458 20,29.458ZM12.375,16.417L23,16.417C23.639,16.417 24.166,16.209 24.583,15.792C25,15.375 25.208,14.861 25.208,14.25L25.208,12.375C25.208,11.764 25,11.25 24.583,10.833C24.166,10.416 23.639,10.208 23,10.208L12.375,10.208C11.764,10.208 11.25,10.416 10.833,10.833C10.416,11.25 10.208,11.764 10.208,12.375L10.208,14.25C10.208,14.861 10.416,15.375 10.833,15.792C11.25,16.209 11.764,16.417 12.375,16.417ZM8.208,8.208L8.208,31.792L8.208,8.208Z" style="fill:rgb(107,106,211);fill-rule:nonzero;"/>
</svg>
