<?xml version="1.0" encoding="UTF-8" standalone="no"?>
<!DOCTYPE svg PUBLIC "-//W3C//DTD SVG 1.1//EN" "http://www.w3.org/Graphics/SVG/1.1/DTD/svg11.dtd">
<svg width="100%" height="100%" viewBox="0 0 40 40" version="1.1" xmlns="http://www.w3.org/2000/svg" xmlns:xlink="http://www.w3.org/1999/xlink" xml:space="preserve" xmlns:serif="http://www.serif.com/" style="fill-rule:evenodd;clip-rule:evenodd;stroke-linejoin:round;stroke-miterlimit:2;">
    <path d="M6.542,34.583C5.319,34.583 4.278,34.139 3.417,33.25C2.556,32.361 2.125,31.334 2.125,30.167L2.125,9.833C2.125,8.639 2.556,7.597 3.417,6.708C4.278,5.819 5.319,5.375 6.542,5.375L33.458,5.375C34.681,5.375 35.729,5.819 36.604,6.708C37.479,7.597 37.917,8.639 37.917,9.833L37.917,30.167C37.917,31.334 37.479,32.361 36.604,33.25C35.729,34.139 34.681,34.583 33.458,34.583L6.542,34.583ZM6.542,30.167L33.458,30.167L33.458,9.833L6.542,9.833L6.542,30.167ZM6.542,30.167L6.542,9.833L6.542,30.167Z" style="fill:rgb(107,106,211);fill-rule:nonzero;"/>
</svg>
