<?xml version="1.0" encoding="UTF-8" standalone="no"?>
<!DOCTYPE svg PUBLIC "-//W3C//DTD SVG 1.1//EN" "http://www.w3.org/Graphics/SVG/1.1/DTD/svg11.dtd">
<svg width="100%" height="100%" viewBox="0 0 40 40" version="1.1" xmlns="http://www.w3.org/2000/svg" xmlns:xlink="http://www.w3.org/1999/xlink" xml:space="preserve" xmlns:serif="http://www.serif.com/" style="fill-rule:evenodd;clip-rule:evenodd;stroke-linejoin:round;stroke-miterlimit:2;">
    <path d="M6,15.667C5.333,15.667 4.799,15.459 4.396,15.042C3.993,14.625 3.792,14.097 3.792,13.458L3.792,5.958C3.792,5.347 4,4.827 4.417,4.396C4.834,3.965 5.347,3.75 5.958,3.75L13.458,3.75C14.097,3.75 14.625,3.965 15.042,4.396C15.459,4.827 15.667,5.347 15.667,5.958C15.667,6.597 15.459,7.132 15.042,7.563C14.625,7.993 14.097,8.208 13.458,8.208L11.333,8.208L14.75,11.625C15.195,12.07 15.41,12.591 15.396,13.188C15.382,13.785 15.167,14.291 14.75,14.708C14.333,15.153 13.813,15.375 13.188,15.375C12.563,15.375 12.042,15.153 11.625,14.708L8.208,11.333L8.208,13.458C8.208,14.097 7.993,14.625 7.562,15.042C7.132,15.459 6.611,15.667 6,15.667ZM25.292,14.708C24.847,14.291 24.625,13.778 24.625,13.167C24.625,12.556 24.847,12.028 25.292,11.583L28.667,8.208L26.542,8.208C25.903,8.208 25.375,7.993 24.958,7.563C24.541,7.132 24.333,6.597 24.333,5.958C24.333,5.319 24.541,4.792 24.958,4.375C25.375,3.958 25.903,3.75 26.542,3.75L34.042,3.75C34.653,3.75 35.173,3.965 35.604,4.396C36.035,4.827 36.25,5.347 36.25,5.958L36.25,13.458C36.25,14.097 36.035,14.625 35.604,15.042C35.173,15.459 34.653,15.667 34.042,15.667C33.403,15.667 32.868,15.459 32.438,15.042C32.007,14.625 31.792,14.097 31.792,13.458L31.792,11.333L28.375,14.75C27.93,15.195 27.409,15.403 26.812,15.375C26.215,15.347 25.709,15.125 25.292,14.708ZM26.542,36.208C25.903,36.208 25.375,36 24.958,35.583C24.541,35.166 24.333,34.639 24.333,34C24.333,33.389 24.541,32.868 24.958,32.438C25.375,32.007 25.903,31.792 26.542,31.792L28.667,31.792L25.25,28.375C24.805,27.93 24.597,27.403 24.625,26.792C24.653,26.181 24.889,25.667 25.333,25.25C25.722,24.833 26.222,24.625 26.833,24.625C27.444,24.625 27.972,24.833 28.417,25.25L31.792,28.667L31.792,26.542C31.792,25.903 32.007,25.375 32.438,24.958C32.868,24.541 33.403,24.333 34.042,24.333C34.681,24.333 35.208,24.541 35.625,24.958C36.042,25.375 36.25,25.903 36.25,26.542L36.25,34.042C36.25,34.653 36.035,35.166 35.604,35.583C35.173,36 34.653,36.208 34.042,36.208L26.542,36.208ZM5.958,36.208C5.347,36.208 4.834,36 4.417,35.583C4,35.166 3.792,34.653 3.792,34.042L3.792,26.542C3.792,25.903 4,25.375 4.417,24.958C4.834,24.541 5.361,24.333 6,24.333C6.611,24.333 7.132,24.541 7.562,24.958C7.993,25.375 8.208,25.903 8.208,26.542L8.208,28.667L11.667,25.208C12.084,24.791 12.604,24.59 13.229,24.604C13.854,24.618 14.375,24.819 14.792,25.208C15.209,25.625 15.417,26.146 15.417,26.771C15.417,27.396 15.209,27.916 14.792,28.333L11.333,31.792L13.458,31.792C14.097,31.792 14.625,32.007 15.042,32.438C15.459,32.868 15.667,33.389 15.667,34C15.667,34.667 15.459,35.201 15.042,35.604C14.625,36.007 14.097,36.208 13.458,36.208L5.958,36.208Z" style="fill:rgb(107,106,211);fill-rule:nonzero;"/>
</svg>
