<?xml version="1.0" encoding="UTF-8" standalone="no"?>
<!DOCTYPE svg PUBLIC "-//W3C//DTD SVG 1.1//EN" "http://www.w3.org/Graphics/SVG/1.1/DTD/svg11.dtd">
<svg width="100%" height="100%" viewBox="0 0 40 40" version="1.1" xmlns="http://www.w3.org/2000/svg" xmlns:xlink="http://www.w3.org/1999/xlink" xml:space="preserve" xmlns:serif="http://www.serif.com/" style="fill-rule:evenodd;clip-rule:evenodd;stroke-linejoin:round;stroke-miterlimit:2;">
    <path d="M20,26.417C22.028,26.417 23.743,25.709 25.146,24.292C26.549,22.875 27.25,21.167 27.25,19.167C27.25,17.139 26.542,15.424 25.125,14.021C23.708,12.618 22,11.917 20,11.917C17.972,11.917 16.257,12.625 14.854,14.042C13.451,15.459 12.75,17.167 12.75,19.167C12.75,21.194 13.458,22.909 14.875,24.312C16.292,25.715 18,26.417 20,26.417ZM20,23.042C18.917,23.042 18,22.66 17.25,21.896C16.5,21.132 16.125,20.222 16.125,19.167C16.125,18.084 16.507,17.167 17.271,16.417C18.035,15.667 18.945,15.292 20,15.292C21.083,15.292 22,15.674 22.75,16.438C23.5,17.201 23.875,18.111 23.875,19.167C23.875,20.25 23.493,21.167 22.729,21.917C21.965,22.667 21.055,23.042 20,23.042ZM20,32.833C15.972,32.833 12.298,31.729 8.979,29.521C5.66,27.312 3.097,24.403 1.292,20.792C1.153,20.597 1.055,20.354 1,20.062C0.945,19.771 0.917,19.472 0.917,19.167C0.917,18.889 0.945,18.597 1,18.292C1.055,17.986 1.153,17.708 1.292,17.458C3.097,13.903 5.66,11.021 8.979,8.812C12.298,6.604 15.972,5.5 20,5.5C24.028,5.5 27.702,6.604 31.021,8.812C34.34,11.021 36.903,13.903 38.708,17.458C38.847,17.708 38.945,17.979 39,18.271C39.055,18.562 39.083,18.861 39.083,19.167C39.083,19.444 39.055,19.736 39,20.042C38.945,20.347 38.847,20.597 38.708,20.792C36.903,24.403 34.34,27.312 31.021,29.521C27.702,31.729 24.028,32.833 20,32.833ZM20,28.917C23.305,28.917 26.312,28.035 29.021,26.271C31.729,24.507 33.819,22.139 35.292,19.167C33.819,16.194 31.729,13.826 29.021,12.063C26.312,10.299 23.305,9.417 20,9.417C16.695,9.417 13.681,10.299 10.958,12.063C8.236,13.826 6.153,16.194 4.708,19.167C6.153,22.139 8.236,24.507 10.958,26.271C13.681,28.035 16.695,28.917 20,28.917Z" style="fill:rgb(107,106,211);fill-rule:nonzero;"/>
</svg>
