<?xml version="1.0" encoding="UTF-8" standalone="no"?>
<!DOCTYPE svg PUBLIC "-//W3C//DTD SVG 1.1//EN" "http://www.w3.org/Graphics/SVG/1.1/DTD/svg11.dtd">
<svg width="100%" height="100%" viewBox="0 0 40 40" version="1.1" xmlns="http://www.w3.org/2000/svg" xmlns:xlink="http://www.w3.org/1999/xlink" xml:space="preserve" xmlns:serif="http://www.serif.com/" style="fill-rule:evenodd;clip-rule:evenodd;stroke-linejoin:round;stroke-miterlimit:2;">
    <path d="M30.167,37.875L9.833,37.875C8.666,37.875 7.639,37.444 6.75,36.583C5.861,35.722 5.417,34.681 5.417,33.458L5.417,6.542C5.417,5.319 5.861,4.271 6.75,3.396C7.639,2.521 8.666,2.083 9.833,2.083L30.167,2.083C31.361,2.083 32.403,2.521 33.292,3.396C34.181,4.271 34.625,5.319 34.625,6.542L34.625,33.458C34.625,34.681 34.181,35.722 33.292,36.583C32.403,37.444 31.361,37.875 30.167,37.875ZM9.833,33.458L30.167,33.458L30.167,6.542L9.833,6.542L9.833,33.458ZM9.833,33.458L9.833,6.542L9.833,33.458Z" style="fill:rgb(107,106,211);fill-rule:nonzero;"/>
</svg>
