<?xml version="1.0" encoding="UTF-8" standalone="no"?>
<!DOCTYPE svg PUBLIC "-//W3C//DTD SVG 1.1//EN" "http://www.w3.org/Graphics/SVG/1.1/DTD/svg11.dtd">
<svg width="100%" height="100%" viewBox="0 0 40 40" version="1.1" xmlns="http://www.w3.org/2000/svg" xmlns:xlink="http://www.w3.org/1999/xlink" xml:space="preserve" xmlns:serif="http://www.serif.com/" style="fill-rule:evenodd;clip-rule:evenodd;stroke-linejoin:round;stroke-miterlimit:2;">
    <path d="M19.167,25.542L24.792,21.833C25.125,21.611 25.389,21.347 25.583,21.042C25.778,20.736 25.875,20.389 25.875,20C25.875,19.639 25.778,19.291 25.583,18.958C25.389,18.625 25.125,18.361 24.792,18.167L19.167,14.458C18.417,13.986 17.653,13.951 16.875,14.354C16.097,14.757 15.708,15.403 15.708,16.292L15.708,23.708C15.708,24.597 16.097,25.25 16.875,25.667C17.653,26.084 18.417,26.042 19.167,25.542ZM8.208,36.208C6.986,36.208 5.944,35.778 5.083,34.917C4.222,34.056 3.792,33.014 3.792,31.792L3.792,8.208C3.792,6.986 4.222,5.937 5.083,5.062C5.944,4.187 6.986,3.75 8.208,3.75L31.792,3.75C33.014,3.75 34.063,4.187 34.938,5.062C35.813,5.937 36.25,6.986 36.25,8.208L36.25,31.792C36.25,33.014 35.813,34.056 34.938,34.917C34.063,35.778 33.014,36.208 31.792,36.208L8.208,36.208ZM8.208,31.792L31.792,31.792L31.792,8.208L8.208,8.208L8.208,31.792ZM8.208,31.792L8.208,8.208L8.208,31.792Z" style="fill:rgb(107,106,211);fill-rule:nonzero;"/>
</svg>
