<?xml version="1.0" encoding="UTF-8" standalone="no"?>
<!DOCTYPE svg PUBLIC "-//W3C//DTD SVG 1.1//EN" "http://www.w3.org/Graphics/SVG/1.1/DTD/svg11.dtd">
<svg width="100%" height="100%" viewBox="0 0 40 40" version="1.1" xmlns="http://www.w3.org/2000/svg" xmlns:xlink="http://www.w3.org/1999/xlink" xml:space="preserve" xmlns:serif="http://www.serif.com/" style="fill-rule:evenodd;clip-rule:evenodd;stroke-linejoin:round;stroke-miterlimit:2;">
    <path d="M20,25.917C21.583,25.917 23.028,25.542 24.333,24.792C25.639,24.042 26.653,23 27.375,21.667C26.653,20.334 25.632,19.285 24.312,18.521C22.993,17.757 21.555,17.375 20,17.375C18.417,17.375 16.972,17.757 15.667,18.521C14.361,19.285 13.347,20.334 12.625,21.667C13.347,23 14.368,24.042 15.687,24.792C17.007,25.542 18.445,25.917 20,25.917ZM20,28.208C17.75,28.208 15.736,27.597 13.958,26.375C12.181,25.153 10.903,23.584 10.125,21.667C10.903,19.722 12.181,18.139 13.958,16.917C15.736,15.694 17.75,15.083 20,15.083C22.25,15.083 24.264,15.701 26.042,16.938C27.819,18.174 29.097,19.75 29.875,21.667C29.097,23.584 27.819,25.153 26.042,26.375C24.264,27.597 22.25,28.208 20,28.208ZM20,23.917C19.389,23.917 18.861,23.695 18.417,23.25C17.972,22.805 17.75,22.278 17.75,21.667C17.75,21.056 17.972,20.528 18.417,20.083C18.861,19.639 19.389,19.417 20,19.417C20.611,19.417 21.139,19.639 21.583,20.083C22.028,20.528 22.25,21.056 22.25,21.667C22.25,22.278 22.028,22.805 21.583,23.25C21.139,23.695 20.611,23.917 20,23.917ZM8.292,36.125C7.042,36.125 5.993,35.701 5.146,34.854C4.299,34.007 3.875,32.958 3.875,31.708L3.875,8.292C3.875,7.042 4.299,5.993 5.146,5.146C5.993,4.299 7.042,3.875 8.292,3.875L31.708,3.875C32.958,3.875 34.007,4.299 34.854,5.146C35.701,5.993 36.125,7.042 36.125,8.292L36.125,31.708C36.125,32.958 35.701,34.007 34.854,34.854C34.007,35.701 32.958,36.125 31.708,36.125L8.292,36.125ZM7.792,32.208L32.208,32.208L32.208,11.125L7.792,11.125L7.792,32.208Z" style="fill:rgb(107,106,211);fill-rule:nonzero;"/>
</svg>
