<?xml version="1.0" encoding="UTF-8" standalone="no"?>
<!DOCTYPE svg PUBLIC "-//W3C//DTD SVG 1.1//EN" "http://www.w3.org/Graphics/SVG/1.1/DTD/svg11.dtd">
<svg width="100%" height="100%" viewBox="0 0 40 40" version="1.1" xmlns="http://www.w3.org/2000/svg" xmlns:xlink="http://www.w3.org/1999/xlink" xml:space="preserve" xmlns:serif="http://www.serif.com/" style="fill-rule:evenodd;clip-rule:evenodd;stroke-linejoin:round;stroke-miterlimit:2;">
    <path d="M14.125,29.583C13.68,29.111 13.458,28.576 13.458,27.979C13.458,27.382 13.68,26.875 14.125,26.458L20.583,19.958L14.083,13.458C13.639,13.041 13.424,12.521 13.438,11.896C13.451,11.271 13.68,10.75 14.125,10.333C14.542,9.889 15.049,9.674 15.646,9.688C16.243,9.701 16.75,9.916 17.167,10.333L25.292,18.417C25.486,18.611 25.646,18.847 25.771,19.125C25.896,19.403 25.958,19.681 25.958,19.958C25.958,20.264 25.896,20.549 25.771,20.812C25.646,21.076 25.486,21.305 25.292,21.5L17.208,29.583C16.791,30 16.278,30.201 15.667,30.188C15.056,30.174 14.542,29.972 14.125,29.583Z" style="fill:rgb(107,106,211);fill-rule:nonzero;"/>
</svg>
