<?xml version="1.0" encoding="UTF-8" standalone="no"?>
<!DOCTYPE svg PUBLIC "-//W3C//DTD SVG 1.1//EN" "http://www.w3.org/Graphics/SVG/1.1/DTD/svg11.dtd">
<svg width="100%" height="100%" viewBox="0 0 40 40" version="1.1" xmlns="http://www.w3.org/2000/svg" xmlns:xlink="http://www.w3.org/1999/xlink" xml:space="preserve" xmlns:serif="http://www.serif.com/" style="fill-rule:evenodd;clip-rule:evenodd;stroke-linejoin:round;stroke-miterlimit:2;">
    <path d="M9.125,32.292C8.486,32.292 7.952,32.077 7.521,31.646C7.09,31.215 6.875,30.681 6.875,30.042L6.875,9.917C6.875,9.306 7.09,8.785 7.521,8.354C7.952,7.923 8.486,7.708 9.125,7.708C9.764,7.708 10.285,7.923 10.688,8.354C11.091,8.785 11.292,9.306 11.292,9.917L11.292,30.042C11.292,30.681 11.091,31.215 10.688,31.646C10.285,32.077 9.764,32.292 9.125,32.292ZM29.625,29.917L17.833,21.833C17.166,21.416 16.833,20.805 16.833,20C16.833,19.195 17.166,18.584 17.833,18.167L29.625,10.042C30.347,9.569 31.111,9.541 31.917,9.958C32.722,10.375 33.125,11.028 33.125,11.917L33.125,28.083C33.125,28.972 32.736,29.625 31.958,30.042C31.181,30.459 30.403,30.417 29.625,29.917ZM28.708,23.917L28.708,16.083L22.958,20L28.708,23.917Z" style="fill:rgb(107,106,211);fill-rule:nonzero;"/>
</svg>
