<?xml version="1.0" encoding="UTF-8" standalone="no"?>
<!DOCTYPE svg PUBLIC "-//W3C//DTD SVG 1.1//EN" "http://www.w3.org/Graphics/SVG/1.1/DTD/svg11.dtd">
<svg width="100%" height="100%" viewBox="0 0 40 40" version="1.1" xmlns="http://www.w3.org/2000/svg" xmlns:xlink="http://www.w3.org/1999/xlink" xml:space="preserve" xmlns:serif="http://www.serif.com/" style="fill-rule:evenodd;clip-rule:evenodd;stroke-linejoin:round;stroke-miterlimit:2;">
    <path d="M21.792,29.583L13.75,21.5C13.528,21.305 13.361,21.076 13.25,20.812C13.139,20.549 13.083,20.264 13.083,19.958C13.083,19.681 13.139,19.403 13.25,19.125C13.361,18.847 13.528,18.611 13.75,18.417L21.833,10.333C22.25,9.916 22.764,9.708 23.375,9.708C23.986,9.708 24.514,9.916 24.958,10.333C25.375,10.75 25.576,11.271 25.562,11.896C25.549,12.521 25.334,13.041 24.917,13.458L18.417,19.958L24.958,26.5C25.375,26.917 25.583,27.431 25.583,28.042C25.583,28.653 25.375,29.166 24.958,29.583C24.514,30 23.979,30.208 23.354,30.208C22.729,30.208 22.209,30 21.792,29.583Z" style="fill:rgb(107,106,211);fill-rule:nonzero;"/>
</svg>
