<?xml version="1.0" encoding="UTF-8" standalone="no"?>
<!DOCTYPE svg PUBLIC "-//W3C//DTD SVG 1.1//EN" "http://www.w3.org/Graphics/SVG/1.1/DTD/svg11.dtd">
<svg width="100%" height="100%" viewBox="0 0 40 40" version="1.1" xmlns="http://www.w3.org/2000/svg" xmlns:xlink="http://www.w3.org/1999/xlink" xml:space="preserve" xmlns:serif="http://www.serif.com/" style="fill-rule:evenodd;clip-rule:evenodd;stroke-linejoin:round;stroke-miterlimit:2;">
    <path d="M31.375,34.75L21.917,25.292C21.084,25.875 20.125,26.347 19.042,26.708C17.959,27.069 16.792,27.25 15.542,27.25C12.264,27.25 9.507,26.125 7.271,23.875C5.035,21.625 3.917,18.889 3.917,15.667C3.917,12.444 5.035,9.715 7.271,7.479C9.507,5.243 12.236,4.125 15.458,4.125C18.681,4.125 21.41,5.25 23.646,7.5C25.882,9.75 27,12.472 27,15.667C27,16.972 26.826,18.146 26.479,19.188C26.132,20.229 25.639,21.194 25,22.083L34.583,31.667C35,32.084 35.208,32.597 35.208,33.208C35.208,33.819 34.986,34.347 34.542,34.792C34.125,35.209 33.604,35.417 32.979,35.417C32.354,35.417 31.82,35.195 31.375,34.75ZM15.458,22.833C17.486,22.833 19.181,22.146 20.542,20.771C21.903,19.396 22.583,17.708 22.583,15.708C22.583,13.681 21.903,11.979 20.542,10.604C19.181,9.229 17.486,8.542 15.458,8.542C13.431,8.542 11.736,9.229 10.375,10.604C9.014,11.979 8.333,13.681 8.333,15.708C8.333,17.708 9.014,19.396 10.375,20.771C11.736,22.146 13.431,22.833 15.458,22.833ZM12.625,17.083C12.236,17.083 11.91,16.937 11.646,16.646C11.382,16.354 11.25,16.014 11.25,15.625C11.25,15.236 11.389,14.91 11.667,14.646C11.944,14.382 12.278,14.25 12.667,14.25L18.25,14.25C18.639,14.25 18.965,14.389 19.229,14.667C19.493,14.944 19.625,15.278 19.625,15.667C19.625,16.028 19.486,16.354 19.208,16.646C18.931,16.937 18.597,17.083 18.208,17.083L12.625,17.083Z" style="fill:rgb(107,106,211);fill-rule:nonzero;"/>
</svg>
