<svg xmlns="http://www.w3.org/2000/svg" xmlns:xlink="http://www.w3.org/1999/xlink" version="1.1" id="Layer_1" x="0px" y="0px" viewBox="0 0 16 16" style="enable-background:new 0 0 16 16;" xml:space="preserve">
<g>
	<polygon style="fill:#DCD5F2;" points="1.5,14.5 1.5,1.5 11.793,1.5 14.5,4.207 14.5,14.5  "></polygon>
	<g>
		<path style="fill:#8B75A1;" d="M11.586,2L14,4.414V14H2V2H11.586 M12,1H1v14h14V4L12,1L12,1z"></path>
	</g>
</g>
<g>
	<rect x="4" y="8" style="fill:#FFFFFF;" width="8" height="6"></rect>
</g>
<g>
	<path style="fill:#C6BAE6;" d="M11,2H4v3c0,0.552,0.448,1,1,1h6V2z"></path>
</g>
<g>
	<path style="fill:#E1EBF2;" d="M6,5.5C5.724,5.5,5.5,5.276,5.5,5V2c0-0.276,0.224-0.5,0.5-0.5h5c0.276,0,0.5,0.224,0.5,0.5v3   c0,0.276-0.224,0.5-0.5,0.5H6z"></path>
	<g>
		<path style="fill:#66798F;" d="M11,2v3H6V2H11 M11,1H6C5.448,1,5,1.448,5,2v3c0,0.552,0.448,1,1,1h5c0.552,0,1-0.448,1-1V2    C12,1.448,11.552,1,11,1L11,1z"></path>
	</g>
</g>
<rect x="5" y="10" style="fill:#C2E8FF;" width="6" height="1"></rect>
<rect x="5" y="12" style="fill:#C2E8FF;" width="6" height="1"></rect>
<rect x="9" y="3" style="fill:#788B9C;" width="1" height="2"></rect>
<g>
	<polygon style="fill:#F5CE85;" points="8.451,10.355 9.088,9.717 10.369,10.833 9.653,11.549 7.812,12.188  "></polygon>
	<path style="fill:#967A44;" d="M9.112,10.401l0.525,0.457l-0.256,0.256l-0.756,0.263l0.261-0.749L9.112,10.401 M9.065,9.034   l-1.049,1.049L7,12.999l2.925-1.015l1.176-1.176L9.065,9.034L9.065,9.034z"></path>
</g>
<g>
	<polygon style="fill:#36404D;" points="7.485,11.608 7.001,13 8.395,12.515  "></polygon>
</g>
<g>
	<path style="fill:#FFEEA3;" d="M10.078,11.301c-0.087-0.093-0.221-0.193-0.424-0.247c-0.111-0.374-0.406-0.588-0.696-0.682   c-0.053-0.181-0.15-0.323-0.272-0.429l4.634-4.638l1.375,1.375L10.078,11.301z"></path>
	<g>
		<path style="fill:#BA9B48;" d="M13.32,5.835l0.845,0.845l-4.122,4.126c-0.033-0.018-0.068-0.035-0.105-0.051    c-0.147-0.309-0.399-0.535-0.687-0.67c-0.018-0.04-0.039-0.079-0.061-0.116L13.32,5.835 M13.319,4.774l-5.303,5.308    c0,0,0.003,0,0.007,0c0.069,0,0.602,0.019,0.602,0.607c0,0,0.7,0.022,0.7,0.698c0.696,0,0.6,0.596,0.6,0.596l5.299-5.304    L13.319,4.774L13.319,4.774z"></path>
	</g>
</g>
<g>
	<path style="fill:#F78F8F;" d="M13.155,5.646l0.899-0.899c0.16-0.16,0.373-0.248,0.599-0.248c0.226,0,0.439,0.088,0.599,0.248   c0.33,0.33,0.33,0.868,0,1.198l-0.899,0.899L13.155,5.646z"></path>
	<g>
		<path style="fill:#C74343;" d="M14.653,4.999c0.054,0,0.157,0.013,0.246,0.102c0.135,0.135,0.135,0.356,0,0.491l-0.546,0.546    l-0.491-0.491l0.546-0.546C14.496,5.012,14.599,4.999,14.653,4.999 M14.653,3.999c-0.345,0-0.69,0.132-0.953,0.395l-1.253,1.253    l1.905,1.905l1.253-1.253c0.526-0.526,0.526-1.379,0-1.905C15.342,4.13,14.998,3.999,14.653,3.999L14.653,3.999z"></path>
	</g>
</g>
</svg>