<svg xmlns="http://www.w3.org/2000/svg" viewBox="0 0 22 22"><g id="Слой_2" data-name="Слой 2"><g id="Слой_1-2" data-name="Слой 1"><rect id="canvas_background" data-name="canvas background" width="22" height="22" style="fill:none"/><path d="M1.5,3.88V18.13h19V3.88ZM2.69,5.06H19.31V16.94H2.69Z" style="fill:#fff"/><rect x="16.94" y="6.25" width="1.19" height="1.19" style="fill:#fff"/><rect x="14.56" y="6.25" width="1.19" height="1.19" style="fill:#fff"/><rect x="12.19" y="6.25" width="1.19" height="1.19" style="fill:#fff"/><rect x="9.81" y="6.25" width="1.19" height="1.19" style="fill:#fff"/><rect x="7.44" y="6.25" width="1.19" height="1.19" style="fill:#fff"/><rect x="5.06" y="6.25" width="1.19" height="1.19" style="fill:#fff"/><rect x="3.87" y="7.44" width="1.19" height="1.19" style="fill:#fff"/><rect x="3.87" y="9.81" width="1.19" height="1.19" style="fill:#fff"/><rect x="3.87" y="12.19" width="1.19" height="1.19" style="fill:#fff"/><rect x="3.87" y="14.56" width="1.19" height="1.19" style="fill:#fff"/><rect x="6.25" y="14.56" width="1.19" height="1.19" style="fill:#fff"/><rect x="8.62" y="14.56" width="1.19" height="1.19" style="fill:#fff"/><rect x="11" y="14.56" width="1.19" height="1.19" style="fill:#fff"/><rect x="13.38" y="14.56" width="1.19" height="1.19" style="fill:#fff"/><rect x="15.75" y="14.56" width="1.19" height="1.19" style="fill:#fff"/><rect x="16.94" y="13.38" width="1.19" height="1.19" style="fill:#fff"/><rect x="16.94" y="11" width="1.19" height="1.19" style="fill:#fff"/><rect x="16.94" y="8.63" width="1.19" height="1.19" style="fill:#fff"/></g></g></svg>