<svg xmlns="http://www.w3.org/2000/svg" viewBox="0 0 22 22"><g id="Слой_2" data-name="Слой 2"><g id="Слой_1-2" data-name="Слой 1"><rect id="canvas_background" data-name="canvas background" width="22" height="22" style="fill:none"/><path d="M17.81,1.5a2.66,2.66,0,0,1,1.05.21,2.77,2.77,0,0,1,1.43,1.43,2.66,2.66,0,0,1,.21,1.05,2.78,2.78,0,0,1-.2,1,2.67,2.67,0,0,1-.59.88L17.48,8.33A2.07,2.07,0,0,1,18,9a2,2,0,0,1,.17.81,1.94,1.94,0,0,1-.17.8,2.17,2.17,0,0,1-.46.67l-1.45,1.45-1.49-1.49L7.09,18.71H6.85a2.2,2.2,0,0,0-.81.16,2.58,2.58,0,0,0-.59.33,4.9,4.9,0,0,0-.47.43,4.27,4.27,0,0,1-.44.41,2.23,2.23,0,0,1-.51.33,1.67,1.67,0,0,1-.67.12,1.72,1.72,0,0,1-.72-.15,1.76,1.76,0,0,1-.59-.4,1.76,1.76,0,0,1-.4-.59,1.72,1.72,0,0,1-.15-.72A1.59,1.59,0,0,1,1.63,18,1.91,1.91,0,0,1,2,17.45,5.51,5.51,0,0,1,2.36,17a4.9,4.9,0,0,0,.43-.47A2.38,2.38,0,0,0,3.12,16a2.12,2.12,0,0,0,.16-.81v-.24l7.47-7.47L9.27,6,10.72,4.5A2.17,2.17,0,0,1,11.39,4a1.94,1.94,0,0,1,.8-.16A2,2,0,0,1,13,4a2.07,2.07,0,0,1,.67.48L15.9,2.29a2.67,2.67,0,0,1,.88-.59A2.78,2.78,0,0,1,17.81,1.5Zm-4.09,8.91L11.59,8.28,4.46,15.42a3.46,3.46,0,0,1-.18.84A3.14,3.14,0,0,1,4,17a4,4,0,0,1-.48.61c-.18.2-.38.4-.59.62a.66.66,0,0,0,.94.94c.22-.21.42-.41.62-.59a5.34,5.34,0,0,1,.61-.48,3.14,3.14,0,0,1,.69-.33,3.46,3.46,0,0,1,.84-.18Zm5.15-5.15a1.47,1.47,0,0,0,.44-1.06,1.43,1.43,0,0,0-.12-.58,1.66,1.66,0,0,0-.32-.49,1.66,1.66,0,0,0-.49-.32,1.43,1.43,0,0,0-.58-.12,1.47,1.47,0,0,0-1.06.44L13.67,6.19l-.87-.87a.85.85,0,0,0-.61-.26.71.71,0,0,0-.37.1,1.36,1.36,0,0,0-.32.23,4.11,4.11,0,0,0-.3.29L10.94,6l5.11,5.11.63-.64a.83.83,0,0,0,.26-.61,1,1,0,0,0-.07-.34,1.31,1.31,0,0,0-.2-.28l-.86-.86Z" style="fill:#fff"/></g></g></svg>