<svg xmlns="http://www.w3.org/2000/svg" viewBox="0 0 22 22"><g id="Слой_2" data-name="Слой 2"><g id="Слой_1-2" data-name="Слой 1"><rect id="canvas_background" data-name="canvas background" width="22" height="22" style="fill:none"/><path d="M8,15.17H9.22L8,16.35H3.62L2.09,14.82V3.29a1,1,0,0,1,.1-.46,1.13,1.13,0,0,1,.63-.63,1,1,0,0,1,.46-.1H15.16a1,1,0,0,1,.46.1,1.19,1.19,0,0,1,.38.25,1.25,1.25,0,0,1,.25.38,1.14,1.14,0,0,1,.09.46V8L15.16,9.23V3.29H14V9.23H4.47V3.29H3.28v11l.85.85h.34V10.42h8.31V11.6l-1.19,1.19V11.6H5.66v3.57H6.84V12.79H8ZM5.66,8h7.12V3.29H5.66ZM18.05,9.23a1.79,1.79,0,0,1,.73.14,1.93,1.93,0,0,1,.59.38,1.69,1.69,0,0,1,.39.59,1.75,1.75,0,0,1,.15.72,1.85,1.85,0,0,1-.54,1.31L12.72,19l-3.5.88.87-3.5,6.65-6.64a1.62,1.62,0,0,1,.61-.4A1.82,1.82,0,0,1,18.05,9.23Zm.47,2.31a.66.66,0,0,0,.2-.48.59.59,0,0,0-.19-.46.68.68,0,0,0-.48-.18.69.69,0,0,0-.25,0,.46.46,0,0,0-.21.13L11.17,17l-.32,1.25L12.1,18Z" style="fill:#fff"/></g></g></svg>