<svg xmlns="http://www.w3.org/2000/svg" viewBox="0 0 22 22"><g id="Слой_2" data-name="Слой 2"><g id="Слой_1-2" data-name="Слой 1"><rect id="canvas_background" data-name="canvas background" width="22" height="22" style="fill:none"/><path d="M20.5,4.61a3.27,3.27,0,0,1-.23,1.19,3.14,3.14,0,0,1-.68,1L7.37,19,1.5,20.5,3,14.63,15.18,2.41a3.14,3.14,0,0,1,1-.68,3.27,3.27,0,0,1,1.19-.23,2.91,2.91,0,0,1,1.21.25A3,3,0,0,1,20.25,3.4,2.91,2.91,0,0,1,20.5,4.61ZM3.13,18.87l3.06-.76a3.16,3.16,0,0,0-.31-.81,3.06,3.06,0,0,0-.5-.68,3.06,3.06,0,0,0-.68-.5,3.16,3.16,0,0,0-.81-.31Zm1.39-4.12a4.17,4.17,0,0,1,2.73,2.73l10-10L14.56,4.72ZM18.13,6.59l.44-.43A3.78,3.78,0,0,0,19,5.73a2,2,0,0,0,.26-.5,1.63,1.63,0,0,0,.1-.61,1.87,1.87,0,0,0-.57-1.36,1.87,1.87,0,0,0-1.36-.57,1.63,1.63,0,0,0-.61.1,2,2,0,0,0-.5.26,3.78,3.78,0,0,0-.43.38l-.43.45Z" style="fill:#fff"/></g></g></svg>