<?xml version="1.0" encoding="utf-8"?>
<!-- Generator: Adobe Illustrator 24.1.2, SVG Export Plug-In . SVG Version: 6.00 Build 0)  -->
<svg version="1.1" id="Слой_1" xmlns="http://www.w3.org/2000/svg" xmlns:xlink="http://www.w3.org/1999/xlink" x="0px" y="0px"
	 viewBox="0 0 512 512" style="enable-background:new 0 0 512 512;" xml:space="preserve">
<style type="text/css">
	.st0{fill:none;}
	.st1{fill:#FFFFFF;}
</style>
<g>
	<rect id="canvas_background_128_" x="0" y="0" class="st0" width="512" height="512"/>
	<path class="st1" d="M512,83.8c0,11-2.1,21.7-6.3,32c-4.2,10.3-10.3,19.5-18.3,27.5L158.3,472.5L0,512l39.5-158.3L368.8,24.5
		c8-8,17.2-14.1,27.5-18.3c10.3-4.2,21-6.3,32-6.3c11.5,0,22.3,2.2,32.5,6.6c10.2,4.4,19,10.4,26.6,18c7.6,7.6,13.6,16.5,18,26.6
		C509.8,61.4,512,72.3,512,83.8z M44,468l82.3-20.5c-1.7-7.7-4.4-14.9-8.1-21.8c-3.8-6.8-8.3-12.9-13.6-18.3
		c-5.3-5.3-11.4-9.9-18.3-13.6c-6.8-3.8-14.1-6.5-21.8-8.1L44,468z M81.5,357c17.7,5.8,32.9,15.1,45.6,27.9s22,28,27.9,45.6
		L425.3,160L352,86.8L81.5,357z M448,137.3c4.2-4.2,8.2-8.1,12-11.8c3.8-3.7,7.3-7.5,10.3-11.6c3-4.1,5.4-8.5,7.1-13.3
		S480,90.3,480,84c0-7.2-1.4-13.9-4.1-20.1s-6.5-11.8-11.3-16.5s-10.3-8.5-16.5-11.3S435.2,32,428,32c-6.3,0-11.9,0.9-16.6,2.6
		s-9.2,4.1-13.3,7.1c-4.1,3-8,6.4-11.6,10.3c-3.7,3.8-7.6,7.8-11.8,12L448,137.3z"/>
</g>
</svg>
