<?xml version="1.0" encoding="utf-8"?>
<!-- Generator: Adobe Illustrator 24.1.2, SVG Export Plug-In . SVG Version: 6.00 Build 0)  -->
<svg version="1.1" id="Слой_1" xmlns="http://www.w3.org/2000/svg" xmlns:xlink="http://www.w3.org/1999/xlink" x="0px" y="0px"
	 viewBox="0 0 512 512" style="enable-background:new 0 0 512 512;" xml:space="preserve">
<style type="text/css">
	.st0{fill:none;}
	.st1{fill:#FFFFFF;}
</style>
<g>
	<rect id="canvas_background_117_" x="0" y="0" class="st0" width="512" height="512"/>
	<path class="st1" d="M448,224v288H64V224h64v-93.5c0-18,3.3-34.9,9.8-50.8s15.5-29.7,27-41.5s25-21.2,40.6-28
		C221,3.4,237.8,0,256,0c18.2,0,35,3.4,50.6,10.3c15.6,6.8,29.1,16.2,40.6,28s20.5,25.7,27,41.5s9.8,32.8,9.8,50.8V224H448z
		 M416,256H96v224h320V256z M160,224h192v-93.5c0-13.5-2.4-26.2-7.3-38.1C339.9,80.5,333.2,70,324.6,61c-8.6-9-18.8-16.1-30.5-21.3
		S269.7,32,256,32c-13.7,0-26.4,2.6-38.1,7.8S196,52,187.4,61c-8.6,9-15.3,19.5-20.1,31.4c-4.8,11.9-7.3,24.6-7.3,38.1V224z"/>
</g>
</svg>
