<svg xmlns="http://www.w3.org/2000/svg" viewBox="0 0 22 22"><g id="Слой_2" data-name="Слой 2"><g id="Слой_1-2" data-name="Слой 1"><rect id="canvas_background" data-name="canvas background" width="22" height="22" style="fill:none"/><path d="M19.31,8.63a1.18,1.18,0,0,1,.46.09,1.09,1.09,0,0,1,.38.25,1.15,1.15,0,0,1,.35.84v8.32H15.75V20.5H6.25V18.13H1.5V9.81A1.15,1.15,0,0,1,1.85,9a1.09,1.09,0,0,1,.38-.25,1.18,1.18,0,0,1,.46-.09H6.25V1.5h9.5V8.63Zm0,1.18H2.69v7.13H6.25V13.38h9.5v3.56h3.56ZM4.47,11a.58.58,0,0,1,.42.18.57.57,0,0,1,.17.41.61.61,0,0,1-.17.42.58.58,0,0,1-.84,0,.57.57,0,0,1-.17-.42.53.53,0,0,1,.17-.41A.58.58,0,0,1,4.47,11Zm3-2.37h7.12V2.69H7.44Zm7.12,5.93H7.44v4.75h7.12Z" style="fill:#fff"/></g></g></svg>