<?xml version="1.0" encoding="utf-8"?>
<!-- Generator: Adobe Illustrator 24.1.2, SVG Export Plug-In . SVG Version: 6.00 Build 0)  -->
<svg version="1.1" id="Слой_1" xmlns="http://www.w3.org/2000/svg" xmlns:xlink="http://www.w3.org/1999/xlink" x="0px" y="0px"
	 viewBox="0 0 512 512" style="enable-background:new 0 0 512 512;" xml:space="preserve">
<style type="text/css">
	.st0{fill:none;}
	.st1{fill:#FFFFFF;}
</style>
<g>
	<rect id="canvas_background_103_" x="0" y="0" class="st0" width="512" height="512"/>
	<path class="st1" d="M9.1,188c6.1-21.8,14.7-42.2,25.8-61.2s24.4-36.3,40-51.9s32.9-28.9,51.9-40S166.2,15.2,188,9.1S232.5,0,256,0
		c23.7,0,46.4,3,68.1,9.1s42.1,14.7,61.1,25.8s36.3,24.4,51.9,40s28.9,32.9,40,51.9s19.7,39.4,25.7,61.2s9.1,44.5,9.1,68h-32
		c0-20.5-2.7-40.3-8-59.4c-5.3-19.1-12.9-36.9-22.6-53.5s-21.5-31.7-35.1-45.4s-28.8-25.4-45.4-35.1S334.5,45.3,315.4,40
		c-19.1-5.3-38.9-8-59.4-8c-20.5,0-40.3,2.7-59.4,8s-36.9,12.9-53.5,22.6s-31.7,21.5-45.4,35.1s-25.4,28.8-35.1,45.4
		S45.3,177.5,40,196.6s-8,38.9-8,59.4c0,21.5,3,42.4,9,62.7c6,20.3,14.6,39.3,25.7,56.9c11.2,17.6,24.6,33.5,40.4,47.6
		c15.7,14.2,33.4,25.8,52.9,35l0-74.3l32,0l0,128l-128,0l0-32l68.5,0c-20.5-11.2-38.9-24.8-55.2-40.8S47,405.5,35.6,386.1
		S15.4,346,9.3,324C3.1,302,0,279.3,0,256C0,232.5,3,209.8,9.1,188z M280.9,197c7.8,3.3,14.5,7.9,20.4,13.8s10.4,12.6,13.8,20.4
		c3.3,7.8,5,16,5,24.9c0,8.8-1.7,17.1-5,24.9c-3.3,7.8-7.9,14.5-13.8,20.4s-12.6,10.4-20.4,13.8c-7.8,3.3-16,5-24.9,5
		c-8.8,0-17.1-1.7-24.9-5s-14.5-7.9-20.4-13.8s-10.4-12.6-13.7-20.4s-5-16-5-24.9c0-8.8,1.7-17.1,5-24.9c3.3-7.8,7.9-14.5,13.8-20.4
		s12.6-10.4,20.4-13.7s16-5,24.9-5C264.8,192,273.1,193.7,280.9,197z M268.5,285.5c3.8-1.7,7.2-4,10.1-6.9c2.9-2.9,5.2-6.3,6.9-10.1
		c1.7-3.8,2.5-8,2.5-12.5c0-4.5-0.8-8.7-2.5-12.5s-4-7.2-6.9-10.1s-6.3-5.2-10.1-6.9c-3.8-1.7-8-2.5-12.5-2.5
		c-4.5,0-8.7,0.8-12.5,2.5c-3.8,1.7-7.2,4-10.1,6.9s-5.2,6.3-6.9,10.1c-1.7,3.8-2.5,8-2.5,12.5c0,4.5,0.8,8.7,2.5,12.5
		c1.7,3.8,4,7.2,6.9,10.1c2.9,2.9,6.3,5.2,10.1,6.9c3.8,1.7,8,2.5,12.5,2.5C260.5,288,264.7,287.2,268.5,285.5z"/>
</g>
</svg>
