<?xml version="1.0" encoding="utf-8"?>
<!-- Generator: Adobe Illustrator 24.1.2, SVG Export Plug-In . SVG Version: 6.00 Build 0)  -->
<svg version="1.1" id="Слой_1" xmlns="http://www.w3.org/2000/svg" xmlns:xlink="http://www.w3.org/1999/xlink" x="0px" y="0px"
	 viewBox="0 0 512 512" style="enable-background:new 0 0 512 512;" xml:space="preserve">
<style type="text/css">
	.st0{fill:none;}
	.st1{fill:#FFFFFF;}
</style>
<g>
	<rect id="canvas_background_115_" x="0" y="0" class="st0" width="512" height="512"/>
	<path class="st1" d="M480,416v-64l32,0l0,96l-96,0v-32L480,416z M480,160V96l-64,0V64l96,0l0,96L480,160z M448,128l0,256l-384,0
		l0-256L448,128z M416,352l0-192l-320,0l0,192L416,352z M96,448l-96,0l0-96h32l0,64h64L96,448z M32,96l0,64l-32,0l0-96l96,0l0,32
		L32,96z"/>
</g>
</svg>
