<svg xmlns="http://www.w3.org/2000/svg" viewBox="0 0 22 22"><g id="Слой_2" data-name="Слой 2"><g id="Слой_1-2" data-name="Слой 1"><rect id="canvas_background" data-name="canvas background" width="22" height="22" style="fill:none"/><path d="M3.88,6.25v9.5H18.13V6.25ZM5.06,7.44H16.94v7.12H5.06Z" style="fill:#fff"/><rect x="19.31" y="3.88" width="1.19" height="1.19" style="fill:#fff"/><rect x="16.94" y="3.88" width="1.19" height="1.19" style="fill:#fff"/><rect x="14.56" y="3.88" width="1.19" height="1.19" style="fill:#fff"/><rect x="12.19" y="3.88" width="1.19" height="1.19" style="fill:#fff"/><rect x="9.81" y="3.88" width="1.19" height="1.19" style="fill:#fff"/><rect x="7.44" y="3.88" width="1.19" height="1.19" style="fill:#fff"/><rect x="5.06" y="3.88" width="1.19" height="1.19" style="fill:#fff"/><rect x="2.69" y="3.88" width="1.19" height="1.19" style="fill:#fff"/><rect x="1.5" y="5.06" width="1.19" height="1.19" style="fill:#fff"/><rect x="1.5" y="7.44" width="1.19" height="1.19" style="fill:#fff"/><rect x="1.5" y="9.81" width="1.19" height="1.19" style="fill:#fff"/><rect x="1.5" y="12.19" width="1.19" height="1.19" style="fill:#fff"/><rect x="1.5" y="14.56" width="1.19" height="1.19" style="fill:#fff"/><rect x="1.5" y="16.94" width="1.19" height="1.19" style="fill:#fff"/><rect x="3.88" y="16.94" width="1.19" height="1.19" style="fill:#fff"/><rect x="6.25" y="16.94" width="1.19" height="1.19" style="fill:#fff"/><rect x="8.63" y="16.94" width="1.19" height="1.19" style="fill:#fff"/><rect x="11" y="16.94" width="1.19" height="1.19" style="fill:#fff"/><rect x="13.38" y="16.94" width="1.19" height="1.19" style="fill:#fff"/><rect x="15.75" y="16.94" width="1.19" height="1.19" style="fill:#fff"/><rect x="18.13" y="16.94" width="1.19" height="1.19" style="fill:#fff"/><rect x="19.31" y="15.75" width="1.19" height="1.19" style="fill:#fff"/><rect x="19.31" y="13.38" width="1.19" height="1.19" style="fill:#fff"/><rect x="19.31" y="11" width="1.19" height="1.19" style="fill:#fff"/><rect x="19.31" y="8.63" width="1.19" height="1.19" style="fill:#fff"/><rect x="19.31" y="6.25" width="1.19" height="1.19" style="fill:#fff"/></g></g></svg>