<?xml version="1.0" encoding="utf-8"?>
<!-- Generator: Adobe Illustrator 24.1.2, SVG Export Plug-In . SVG Version: 6.00 Build 0)  -->
<svg version="1.1" id="Слой_1" xmlns="http://www.w3.org/2000/svg" xmlns:xlink="http://www.w3.org/1999/xlink" x="0px" y="0px"
	 viewBox="0 0 512 512" style="enable-background:new 0 0 512 512;" xml:space="preserve">
<style type="text/css">
	.st0{fill:none;}
	.st1{fill:#FFFFFF;}
</style>
<g>
	<rect id="canvas_background_116_" x="0" y="0" class="st0" width="512" height="512"/>
	<path class="st1" d="M512,448L0,448L0,64l512,0L512,448z M32,96l0,320l448,0l0-320L32,96z M416,352l0-64l32,0l0,96l-96,0l0-32
		L416,352z M352,160v-32l96,0l0,96l-32,0v-64L352,160z M96,288l0,64l64,0l0,32l-96,0l0-96L96,288z M64,224l0-96l96,0l0,32l-64,0
		l0,64L64,224z"/>
</g>
</svg>
