<svg xmlns="http://www.w3.org/2000/svg" viewBox="0 0 22 22"><g id="Слой_2" data-name="Слой 2"><g id="Слой_1-2" data-name="Слой 1"><rect id="canvas_background" data-name="canvas background" width="22" height="22" style="fill:none"/><path d="M20.5,3.88V18.13H1.5V3.88ZM2.69,5.06v6.28L6.84,7.2l5.94,5.93,2.38-2.37,4.15,4.15V5.06Zm0,11.88H14.91L6.84,8.87,2.69,13Zm16.62,0v-.35l-4.15-4.16L13.62,14l3,3Zm-3-8.31a.54.54,0,0,1-.41-.18.58.58,0,0,1,0-.84.57.57,0,0,1,.41-.17.61.61,0,0,1,.42.17.6.6,0,0,1-.42,1Z" style="fill:#fff"/></g></g></svg>