<svg xmlns="http://www.w3.org/2000/svg" viewBox="0 0 22 22"><g id="Слой_2" data-name="Слой 2"><g id="Слой_1-2" data-name="Слой 1"><rect id="canvas_background" data-name="canvas background" width="22" height="22" style="fill:none"/><path d="M18.13,9.81V20.5H3.88V9.81H6.25V6.34A4.88,4.88,0,0,1,7.61,2.92a4.74,4.74,0,0,1,6.78,0,4.88,4.88,0,0,1,1.36,3.42V9.81ZM16.94,11H5.06v8.31H16.94ZM7.44,9.81h7.12V6.34a3.69,3.69,0,0,0-.27-1.41,3.75,3.75,0,0,0-.74-1.17A3.57,3.57,0,0,0,12.42,3,3.62,3.62,0,0,0,9.58,3a3.57,3.57,0,0,0-1.13.78,3.75,3.75,0,0,0-.74,1.17,3.69,3.69,0,0,0-.27,1.41Z" style="fill:#fff"/></g></g></svg>