<svg xmlns="http://www.w3.org/2000/svg" viewBox="0 0 22 22"><g id="Слой_2" data-name="Слой 2"><g id="Слой_1-2" data-name="Слой 1"><rect id="canvas_background" data-name="canvas background" width="22" height="22" style="fill:none"/><path d="M20.5,19.85a.67.67,0,0,1-.16.45.52.52,0,0,1-.43.2.58.58,0,0,1-.42-.18l-7.28-7.27a6.73,6.73,0,0,1-2,1.12A6.41,6.41,0,0,1,8,14.56a6.18,6.18,0,0,1-1.73-.23,6,6,0,0,1-1.56-.66,6.21,6.21,0,0,1-1.32-1,6.32,6.32,0,0,1-1-1.33,6.89,6.89,0,0,1-.66-1.55A6.7,6.7,0,0,1,1.5,8,6.57,6.57,0,0,1,1.73,6.3a6.78,6.78,0,0,1,.66-1.56,6,6,0,0,1,1-1.32,6.26,6.26,0,0,1,1.32-1A6.78,6.78,0,0,1,6.3,1.73,6.57,6.57,0,0,1,8,1.5a6.7,6.7,0,0,1,1.74.23,6.89,6.89,0,0,1,1.55.66,6.32,6.32,0,0,1,1.33,1,6,6,0,0,1,1,1.32,6,6,0,0,1,.66,1.56A6.57,6.57,0,0,1,14.56,8a6.41,6.41,0,0,1-.39,2.22,6.73,6.73,0,0,1-1.12,2l.53.52.95.93,1.21,1.19,1.31,1.3,1.29,1.3,1.1,1.14c.32.34.58.62.77.85A1.29,1.29,0,0,1,20.5,19.85ZM8,13.38A5.2,5.2,0,0,0,10.11,13,5.29,5.29,0,0,0,13,10.11,5.25,5.25,0,0,0,13,6a5.29,5.29,0,0,0-2.84-2.84A5.36,5.36,0,0,0,6,3.11,5.38,5.38,0,0,0,3.11,6a5.36,5.36,0,0,0,0,4.16A5.38,5.38,0,0,0,6,13,5.2,5.2,0,0,0,8,13.38Zm-3-5.94H11V8.63H5.06Z" style="fill:#fff"/></g></g></svg>