<?xml version="1.0" encoding="UTF-8" standalone="no"?>
<svg
   fill="none"
   viewBox="0 0 16 16"
   version="1.1"
   id="svg635"
   sodipodi:docname="ActualSize.svg"
   inkscape:version="1.2.1 (9c6d41e410, 2022-07-14)"
   xml:space="preserve"
   xmlns:inkscape="http://www.inkscape.org/namespaces/inkscape"
   xmlns:sodipodi="http://sodipodi.sourceforge.net/DTD/sodipodi-0.dtd"
   xmlns="http://www.w3.org/2000/svg"
   xmlns:svg="http://www.w3.org/2000/svg"><defs
     id="defs639" /><sodipodi:namedview
     id="namedview637"
     pagecolor="#505050"
     bordercolor="#eeeeee"
     borderopacity="1"
     inkscape:showpageshadow="0"
     inkscape:pageopacity="0"
     inkscape:pagecheckerboard="0"
     inkscape:deskcolor="#505050"
     showgrid="false"
     inkscape:zoom="22.693708"
     inkscape:cx="15.907493"
     inkscape:cy="5.8826878"
     inkscape:window-width="1550"
     inkscape:window-height="1243"
     inkscape:window-x="437"
     inkscape:window-y="14"
     inkscape:window-maximized="0"
     inkscape:current-layer="svg635" /><path
     d="m 2.88,1.14286 c -0.48761,0 -0.89904,0.16761 -1.23429,0.50285 C 1.31047,1.98096 1.14286,2.39239 1.14286,2.88 v 1.09714 c 0,0.18286 -0.0533,0.32761 -0.16,0.43429 -0.10668,0.10667 -0.24382,0.16 -0.41143,0.16 -0.16761,0 -0.30476,-0.0533 -0.41143,-0.16 C 0.05333,4.30475 0,4.17525 0,4.02286 V 2.83429 C 0,2.07239 0.2819,1.40953 0.84571,0.84571 1.40953,0.2819 2.07239,0 2.83429,0 h 1.18857 c 0.15239,0 0.28189,0.0533 0.38857,0.16 0.10667,0.10667 0.16,0.24382 0.16,0.41143 0,0.16761 -0.0533,0.30475 -0.16,0.41143 -0.10668,0.10667 -0.23618,0.16 -0.38857,0.16 z m 11.97714,1.69143 c 0,-0.45715 -0.16761,-0.85333 -0.50285,-1.18858 C 14.01904,1.31047 13.60761,1.14286 13.12,1.14286 h -1.09714 c -0.18286,0 -0.32761,-0.0533 -0.43429,-0.16 -0.10667,-0.10668 -0.16,-0.24382 -0.16,-0.41143 0,-0.16761 0.0533,-0.30476 0.16,-0.41143 C 11.69525,0.05333 11.82475,0 11.97714,0 h 1.18857 c 0.7619,0 1.42476,0.2819 1.98858,0.84571 C 15.7181,1.40953 16,2.08761 16,2.88 v 1.09714 c 0,0.18286 -0.0533,0.32761 -0.16,0.43429 -0.10667,0.10667 -0.24382,0.16 -0.41143,0.16 -0.16761,0 -0.30475,-0.0533 -0.41143,-0.16 -0.10667,-0.10668 -0.16,-0.23618 -0.16,-0.38857 z m 0,10.28571 c 0,0.48761 -0.16761,0.89904 -0.50285,1.23429 -0.33525,0.33524 -0.74668,0.50285 -1.23429,0.50285 h -1.09714 c -0.18286,0 -0.32761,0.0533 -0.43429,0.16 -0.10667,0.10668 -0.16,0.24382 -0.16,0.41143 0,0.16761 0.0533,0.30476 0.16,0.41143 0.10668,0.10667 0.23618,0.16 0.38857,0.16 h 1.18857 c 0.7619,0 1.42476,-0.2819 1.98858,-0.84571 C 15.7181,14.59047 16,13.92761 16,13.16571 v -1.18857 c 0,-0.15239 -0.0533,-0.28189 -0.16,-0.38857 -0.10667,-0.10667 -0.24382,-0.16 -0.41143,-0.16 -0.16761,0 -0.30475,0.0533 -0.41143,0.16 -0.10667,0.10668 -0.16,0.23618 -0.16,0.38857 z m -13.71428,0 c 0,0.48761 0.16761,0.89904 0.50285,1.23429 0.33525,0.33524 0.74668,0.50285 1.23429,0.50285 h 1.41714 c 0.15239,0 0.2819,0.0533 0.38857,0.16 0.10668,0.10668 0.16,0.24382 0.16,0.41143 0,0.16761 -0.0533,0.30476 -0.16,0.41143 C 4.57904,15.94667 4.44953,16 4.29714,16 H 2.88 C 2.08761,16 1.40953,15.7181 0.84571,15.15429 0.2819,14.59047 0,13.92761 0,13.16571 v -1.46285 c 0,-0.15239 0.0533,-0.2819 0.16,-0.38857 0.10667,-0.10668 0.24382,-0.16 0.41143,-0.16 0.16761,0 0.30475,0.0533 0.41143,0.16 0.10667,0.10667 0.16,0.23618 0.16,0.38857 z"
     fill="#ffffff"
     fill-opacity="1"
     id="path1514"
     style="stroke-width:0.0223214;fill:#e0dfdf;fill-opacity:1"
     sodipodi:nodetypes="scsscscsscsscscssscsscscsscsscscssscsscscsscsscscssscsscscsscsscscss" /><path
     d="m 6.30857,4.57143 c -0.48761,0 -0.89904,0.16761 -1.23428,0.50286 C 4.73904,5.40953 4.57143,5.82096 4.57143,6.30857 v 3.38286 c 0,0.48761 0.16761,0.89904 0.50286,1.23428 0.33524,0.33525 0.74667,0.50286 1.23428,0.50286 h 3.42857 c 0.45715,0 0.85333,-0.16761 1.18857,-0.50286 0.33525,-0.33524 0.50286,-0.74667 0.50286,-1.23428 V 6.26286 c 0,-0.45715 -0.16761,-0.85333 -0.50286,-1.18857 C 10.59047,4.73904 10.17904,4.57143 9.69143,4.57143 Z M 5.71429,6.26286 c 0,-0.15239 0.0533,-0.2819 0.16,-0.38857 0.10667,-0.10668 0.23618,-0.16 0.38857,-0.16 h 3.47428 c 0.15239,0 0.2819,0.0533 0.38857,0.16 0.10668,0.10667 0.16,0.23618 0.16,0.38857 v 3.42857 c 0,0.18286 -0.0533,0.32761 -0.16,0.43428 -0.10667,0.10668 -0.23618,0.16 -0.38857,0.16 H 6.30857 c -0.18286,0 -0.32761,-0.0533 -0.43428,-0.16 -0.10668,-0.10667 -0.16,-0.23618 -0.16,-0.38857 z"
     style="fill:#4cc2ff;fill-opacity:1;stroke-width:0.0223214"
     id="path1632" /></svg>
