<?xml version="1.0" encoding="UTF-8" standalone="no"?>
<svg
   fill="none"
   viewBox="0 0 16 16"
   version="1.1"
   id="svg1262"
   sodipodi:docname="AdjustWindowSize.svg"
   inkscape:version="1.2.1 (9c6d41e410, 2022-07-14)"
   xml:space="preserve"
   xmlns:inkscape="http://www.inkscape.org/namespaces/inkscape"
   xmlns:sodipodi="http://sodipodi.sourceforge.net/DTD/sodipodi-0.dtd"
   xmlns="http://www.w3.org/2000/svg"
   xmlns:svg="http://www.w3.org/2000/svg"><sodipodi:namedview
     id="namedview1264"
     pagecolor="#505050"
     bordercolor="#eeeeee"
     borderopacity="1"
     inkscape:showpageshadow="0"
     inkscape:pageopacity="0"
     inkscape:pagecheckerboard="0"
     inkscape:deskcolor="#505050"
     showgrid="false"
     inkscape:zoom="45.387417"
     inkscape:cx="7.8876488"
     inkscape:cy="12.833954"
     inkscape:window-width="1550"
     inkscape:window-height="1243"
     inkscape:window-x="839"
     inkscape:window-y="49"
     inkscape:window-maximized="0"
     inkscape:current-layer="g1255" /><g
     clip-path="url(#clip0_8442_119744)"
     id="g1255"><path
       d="M 0,3.42857 C 0,2.48382 0.33525,1.67618 1.00571,1.00571 1.67618,0.33525 2.48382,0 3.42857,0 h 9.14286 c 0.94475,0 1.75239,0.33525 2.42286,1.00571 C 15.66475,1.67618 16,2.48382 16,3.42857 v 9.14286 c 0,0.94475 -0.33525,1.75239 -1.00571,2.42286 C 14.32382,15.66475 13.51618,16 12.57143,16 h -3.84 c 0.36571,-0.33525 0.68571,-0.71618 0.96,-1.14286 h 2.88 c 0.64,0 1.18096,-0.22096 1.62286,-0.66285 0.44189,-0.4419 0.66285,-0.98286 0.66285,-1.62286 V 3.42857 c 0,-0.64 -0.22096,-1.18096 -0.66285,-1.62286 C 13.75239,1.36382 13.21143,1.14286 12.57143,1.14286 H 3.42857 c -0.64,0 -1.18096,0.22096 -1.62286,0.66285 -0.44189,0.4419 -0.66285,0.98286 -0.66285,1.62286 v 2.88 C 0.71618,6.58286 0.33525,6.90286 0,7.26857 Z"
       fill="#ffffff"
       fill-opacity="1"
       id="path1381"
       style="fill:#e0dfdf;fill-opacity:0.980392;stroke-width:0.0223214"
       sodipodi:nodetypes="scsscsscsccscsscsscsccs" /><path
       d="m 3.42857,6.85714 c -0.94475,0 -1.75239,0.33525 -2.42286,1.00572 C 0.33525,8.53333 0,9.34096 0,10.28571 v 2.28572 c 0,0.94475 0.33525,1.75239 1.00571,2.42286 C 1.67618,15.66475 2.48382,16 3.42857,16 h 2.28572 c 0.94475,0 1.75238,-0.33525 2.42285,-1.00571 0.67047,-0.67047 1.00572,-1.47811 1.00572,-2.42286 V 10.28571 C 9.14286,9.34096 8.80761,8.53333 8.13714,7.86286 7.46667,7.19239 6.65904,6.85714 5.71429,6.85714 Z m -2.28571,3.42857 c 0,-0.64 0.22096,-1.18096 0.66285,-1.62285 C 2.24761,8.22096 2.78857,8 3.42857,8 h 2.28572 c 0.64,0 1.18096,0.22096 1.62285,0.66286 C 7.77904,9.10475 8,9.64571 8,10.28571 v 2.28572 c 0,0.64 -0.22096,1.18096 -0.66286,1.62286 -0.44189,0.44189 -0.98285,0.66285 -1.62285,0.66285 H 3.42857 c -0.64,0 -1.18096,-0.22096 -1.62286,-0.66285 -0.44189,-0.4419 -0.66285,-0.98286 -0.66285,-1.62286 z"
       style="fill:#4cc2ff;fill-opacity:1;stroke-width:0.0223214"
       id="path2175" /></g><defs
     id="defs1260"><clipPath
       id="clip0_8442_119744"><path
         fill="#fff"
         d="M0 0h16v16H0z"
         id="path1257" /></clipPath></defs></svg>
