<?xml version="1.0" encoding="UTF-8" standalone="no"?>
<svg
   fill="none"
   viewBox="0 0 16 16"
   version="1.1"
   id="svg635"
   sodipodi:docname="windows.autoarrange.svg"
   inkscape:version="1.2.1 (9c6d41e410, 2022-07-14)"
   xmlns:inkscape="http://www.inkscape.org/namespaces/inkscape"
   xmlns:sodipodi="http://sodipodi.sourceforge.net/DTD/sodipodi-0.dtd"
   xmlns="http://www.w3.org/2000/svg"
   xmlns:svg="http://www.w3.org/2000/svg">
  <defs
     id="defs639" />
  <sodipodi:namedview
     id="namedview637"
     pagecolor="#505050"
     bordercolor="#eeeeee"
     borderopacity="1"
     inkscape:showpageshadow="0"
     inkscape:pageopacity="0"
     inkscape:pagecheckerboard="0"
     inkscape:deskcolor="#505050"
     showgrid="false"
     inkscape:zoom="64.1875"
     inkscape:cx="7.9922103"
     inkscape:cy="8"
     inkscape:window-width="2560"
     inkscape:window-height="1351"
     inkscape:window-x="-4"
     inkscape:window-y="-4"
     inkscape:window-maximized="1"
     inkscape:current-layer="svg635" />
  <path
     d="M 1.5,0 C 1.7761424,0 2,0.22385763 2,0.5 V 1 H 14 V 0.5 c 0,-0.66666638 1,-0.66666638 1,0 V 1 h 0.5 c 0.666666,0 0.666666,1 0,1 H 15 v 12 h 0.5 c 0.666666,0 0.666666,1 0,1 H 15 v 0.5 c 0,0.666666 -1,0.666666 -1,0 V 15 H 2 v 0.5 c 0,0.666666 -1,0.666666 -1,0 V 15 H 0.5 c -0.66666638,0 -0.66666638,-1 0,-1 H 1 V 2 H 0.5 C -0.16666638,2 -0.16666638,1 0.5,1 H 1 V 0.5 C 1,0.22385763 1.2238576,0 1.5,0 Z M 2,2 V 14 H 14 V 2 Z"
     style="fill:#e0dfdf"
     id="path649" />
  <path
     d="M 6.5,10 H 4.75 C 4.3932108,10.000238 4.1509928,9.6374353 4.288,9.308 l 2.084,-5 C 6.4494639,4.1217366 6.6312709,4.000269 6.833,4 h 3.473 c 0.341489,-4.238e-4 0.582911,0.3340087 0.475,0.658 L 10,7 h 1.097 c 0.680483,4.61e-5 1.009206,0.8334111 0.512,1.298 L 6.736,12.846 C 6.372,13.186 5.789,12.842 5.91,12.359 Z"
     style="fill:#4cc2ff"
     id="path672" />
</svg>
