<?xml version="1.0" encoding="UTF-8" standalone="no"?>
<svg
   fill="none"
   viewBox="0 0 16 16"
   version="1.1"
   id="svg2220"
   sodipodi:docname="ColorPicker.svg"
   inkscape:version="1.2.1 (9c6d41e410, 2022-07-14)"
   xml:space="preserve"
   xmlns:inkscape="http://www.inkscape.org/namespaces/inkscape"
   xmlns:sodipodi="http://sodipodi.sourceforge.net/DTD/sodipodi-0.dtd"
   xmlns="http://www.w3.org/2000/svg"
   xmlns:svg="http://www.w3.org/2000/svg"><defs
     id="defs2224" /><sodipodi:namedview
     id="namedview2222"
     pagecolor="#505050"
     bordercolor="#eeeeee"
     borderopacity="1"
     inkscape:showpageshadow="0"
     inkscape:pageopacity="0"
     inkscape:pagecheckerboard="0"
     inkscape:deskcolor="#505050"
     showgrid="false"
     inkscape:zoom="32.09375"
     inkscape:cx="11.310613"
     inkscape:cy="3.7234664"
     inkscape:window-width="1550"
     inkscape:window-height="1243"
     inkscape:window-x="485"
     inkscape:window-y="52"
     inkscape:window-maximized="0"
     inkscape:current-layer="svg2220" /><path
     d="m 15.223887,0.75621875 c -0.50414,-0.50414 -1.11443,-0.75622 -1.83084,-0.75622 -0.71642,0 -1.33997,0.25208 -1.87065,0.75622 l -0.99503,1.03482995 -0.35821,-0.35821 C 9.8772775,1.1409587 9.5257175,0.99502875 9.1144275,0.99502875 c -0.41128,0 -0.76284,0.14592995 -1.05472,0.43780995 l -0.59702,0.59701 c -0.29188,0.29188 -0.43781,0.64345 -0.43781,1.05473 0,0.41128 0.14593,0.7628501 0.43781,1.05473 l 0.35821,0.31841 -6.32837,6.3283603 c -0.29188,0.29188 -0.43781,0.65009 -0.43781,1.07463 v 0.47761 l -0.95522,2.26866 c -0.10614,0.26534 -0.10614,0.52404 0,0.77612 0.10613,0.25208 0.28523,0.43121 0.53731,0.53732 0.25208,0.10611 0.51079,0.10611 0.77612,0 l 2.22886,-0.99503 h 0.47761 c 0.42454,0 0.78275,-0.14593 1.07463,-0.43781 l 6.3283695,-6.3283702 0.3184,0.3582099 c 0.29189,0.29188 0.64345,0.4378101 1.05473,0.4378101 0.41129,0 0.76285,-0.1459301 1.05473,-0.4378101 l 0.59702,-0.59701 c 0.29188,-0.29188 0.43781,-0.6434499 0.43781,-1.05473 0,-0.41128 -0.14593,-0.76285 -0.43781,-1.05473 l -0.35821,-0.31841 1.03482,-1.03482 c 0.50414,-0.53069 0.75622,-1.15423 0.75622,-1.87065 0,-0.71642 -0.25208,-1.32671 -0.75622,-1.83084995 z m -2.98508,0.71641995 c 0.31841,-0.3184099 0.70315,-0.47760995 1.15424,-0.47760995 0.45108,0 0.82919,0.15256995 1.13432,0.45770995 0.30514,0.30513 0.45772,0.68324 0.45772,1.13433 0,0.45108 -0.15921,0.83582 -0.47762,1.15423 l -1.35323,1.39303 c -0.10613,0.0796 -0.15921,0.19238 -0.15921,0.33831 0,0.14593 0.0531,0.25871 0.15921,0.33831 l 0.67662,0.71642 c 0.10613,0.10613 0.1592,0.22553 0.1592,0.35821 0,0.13268 -0.0531,0.25208 -0.1592,0.35821 l -0.557219,0.55721 c -0.106131,0.10613 -0.22553,0.15921 -0.35821,0.15921 -0.13267,0 -0.25208,-0.0531 -0.35821,-0.15921 l -4.3781105,-4.37811 c -0.10613,-0.10613 -0.15921,-0.22553 -0.15921,-0.35821 0,-0.13268 0.0531,-0.25208 0.15921,-0.35821 l 0.55721,-0.55721 c 0.10613,-0.10613 0.22554,-0.15921 0.35821,-0.15921 0.13268,0 0.25208,0.0531 0.35821,0.15921 l 0.7164205,0.67661 c 0.0796,0.10613 0.19238,0.15921 0.33831,0.15921 0.14593,0 0.25871,-0.0531 0.338309,-0.15921 z m -1.43283,6.00996 -6.3283695,6.2885603 c -0.10613,0.10613 -0.22553,0.15921 -0.35821,0.15921 h -0.55721 c -0.0796,0 -0.14593,0.0133 -0.19901,0.0398 l -2.34826,1.03482 0.99503,-2.34826 c 0.0265,-0.0531 0.0398,-0.1194 0.0398,-0.199 v -0.59702 c 0,-0.13268 0.0531,-0.25208 0.1592,-0.35821 l 6.32837,-6.3283602 2.2686595,2.26866 z"
     fill="#ffffff"
     fill-opacity="1"
     id="path1410"
     style="stroke-width:0.0194341;fill:#e0dfdf;fill-opacity:1" /><path
     d="m 15.223887,0.75621875 c -0.50414,-0.50414 -1.11443,-0.75622 -1.83084,-0.75622 -0.71642,0 -1.33997,0.25208 -1.87065,0.75622 l -0.99503,1.03482995 -0.35821,-0.35821 C 9.8772775,1.1409587 9.5257175,0.99502875 9.1144275,0.99502875 c -0.41128,0 -0.76284,0.14592995 -1.05472,0.43780995 l -0.59702,0.59701 c -0.29188,0.29188 -0.43781,0.64345 -0.43781,1.05473 0,0.41128 0.14593,0.7628501 0.43781,1.05473 l 0.35821,0.31841 3.7014995,3.7014901 0.3184,0.3582099 c 0.29189,0.29188 0.64345,0.4378101 1.05473,0.4378101 0.41129,0 0.76285,-0.1459301 1.05473,-0.4378101 l 0.59702,-0.59701 c 0.29188,-0.29188 0.43781,-0.6434499 0.43781,-1.05473 0,-0.41128 -0.14593,-0.76285 -0.43781,-1.05473 l -0.35821,-0.31841 1.03482,-1.03482 c 0.50414,-0.53069 0.75622,-1.15423 0.75622,-1.87065 0,-0.71642 -0.25208,-1.32671 -0.75622,-1.83084995 z m -2.98508,0.71641995 c 0.31841,-0.3184099 0.70315,-0.47760995 1.15424,-0.47760995 0.45108,0 0.82919,0.15256995 1.13432,0.45770995 0.30514,0.30513 0.45772,0.68324 0.45772,1.13433 0,0.45108 -0.15921,0.83582 -0.47762,1.15423 l -1.35323,1.39303 c -0.10613,0.0796 -0.15921,0.19238 -0.15921,0.33831 0,0.14593 0.0531,0.25871 0.15921,0.33831 l 0.67662,0.71642 c 0.10613,0.10613 0.1592,0.22553 0.1592,0.35821 0,0.13268 -0.0531,0.25208 -0.1592,0.35821 l -0.557219,0.55721 c -0.106131,0.10613 -0.22553,0.15921 -0.35821,0.15921 -0.13267,0 -0.25208,-0.0531 -0.35821,-0.15921 l -4.3781105,-4.37811 c -0.10613,-0.10613 -0.15921,-0.22553 -0.15921,-0.35821 0,-0.13268 0.0531,-0.25208 0.15921,-0.35821 l 0.55721,-0.55721 c 0.10613,-0.10613 0.22554,-0.15921 0.35821,-0.15921 0.13268,0 0.25208,0.0531 0.35821,0.15921 l 0.7164205,0.67661 c 0.0796,0.10613 0.19238,0.15921 0.33831,0.15921 0.14593,0 0.25871,-0.0531 0.338309,-0.15921 z m -1.43283,6.00996 -2.2686595,-2.3084599 2.2686595,2.26866 z"
     fill="#ffffff"
     fill-opacity="1"
     id="path1853"
     style="fill:#4cc2ff;fill-opacity:1;stroke-width:0.0194341"
     sodipodi:nodetypes="ssccssccsccccsccscccsscscsccsccscsscsscssccscccccc" /></svg>
