<?xml version="1.0" encoding="UTF-8" standalone="no"?>
<svg
   fill="none"
   viewBox="0 0 16 16"
   version="1.1"
   id="svg897"
   sodipodi:docname="Convert.svg"
   inkscape:version="1.2.1 (9c6d41e410, 2022-07-14)"
   xml:space="preserve"
   xmlns:inkscape="http://www.inkscape.org/namespaces/inkscape"
   xmlns:sodipodi="http://sodipodi.sourceforge.net/DTD/sodipodi-0.dtd"
   xmlns="http://www.w3.org/2000/svg"
   xmlns:svg="http://www.w3.org/2000/svg"><defs
     id="defs901" /><sodipodi:namedview
     id="namedview899"
     pagecolor="#505050"
     bordercolor="#eeeeee"
     borderopacity="1"
     inkscape:showpageshadow="0"
     inkscape:pageopacity="0"
     inkscape:pagecheckerboard="0"
     inkscape:deskcolor="#505050"
     showgrid="false"
     inkscape:zoom="32.09375"
     inkscape:cx="13.959104"
     inkscape:cy="13.071081"
     inkscape:window-width="1550"
     inkscape:window-height="1243"
     inkscape:window-x="940"
     inkscape:window-y="49"
     inkscape:window-maximized="0"
     inkscape:current-layer="svg897" /><path
     d="m -2e-7,2.2857101 c 0,-0.64 0.22096,-1.18096 0.66285999,-1.62284994 C 1.1047498,0.22096016 1.6457098,1.55e-7 2.2857098,1.55e-7 H 11.84 c 0.64,0 1.18857,0.228570005 1.64571,0.685710005 L 15.31429,2.5142901 C 15.77143,2.9714301 16,3.5200001 16,4.1600001 V 13.71429 c 0,0.64 -0.22096,1.18096 -0.66286,1.62285 C 14.89525,15.77904 14.35429,16 13.71429,16 H 2.2857098 c -0.64,0 -1.18096,-0.22096 -1.62285001,-0.66286 C 0.2209598,14.89525 -2e-7,14.35429 -2e-7,13.71429 Z m 2.28571,-1.14285 c -0.30475,0 -0.57142,0.11428 -0.8,0.34285 -0.22857,0.22858 -0.34285,0.49525 -0.34285,0.8 V 13.71429 c 0,0.30475 0.11428,0.57142 0.34285,0.8 0.22858,0.22857 0.49525,0.34285 0.8,0.34285 V 9.6914302 c 0,-0.45714 0.16762,-0.85333 0.50286,-1.18857 0.33525,-0.33525 0.74668,-0.5028601 1.23429,-0.5028601 H 12.02286 c 0.45714,0 0.85332,0.1676101 1.18857,0.5028601 0.33524,0.33524 0.50286,0.74667 0.50286,1.23428 V 14.85714 c 0.30475,0 0.57142,-0.11428 0.8,-0.34285 0.22857,-0.22858 0.34285,-0.49525 0.34285,-0.8 V 4.1600001 c 0,-0.33525 -0.10667,-0.60953 -0.32,-0.82286 l -1.87428,-1.87428 c -0.21333,-0.21333 -0.48761,-0.32 -0.82286,-0.32 h -0.41143 v 2.83428 c 0,0.48761 -0.16761,0.89904 -0.50286,1.23429 -0.33524,0.33524 -0.74667,0.50286 -1.2342802,0.50286 h -4.52572 c -0.48761,0 -0.89904,-0.16762 -1.23428,-0.50286 -0.33525,-0.33525 -0.50286,-0.74668 -0.50286,-1.23429 v -2.83428 z m 2.28572,0 v 2.83428 c 0,0.18286 0.0533,0.32761 0.16,0.43429 0.10667,0.10667 0.23618,0.16 0.38857,0.16 h 4.61714 c 0.15239,0 0.2819002,-0.0533 0.3885702,-0.16 0.10668,-0.10668 0.16,-0.23618 0.16,-0.38857 v -2.88 z M 12.57143,14.85714 V 9.6914302 c 0,-0.15239 -0.0533,-0.2819 -0.16,-0.38857 -0.10668,-0.10668 -0.23618,-0.16 -0.38857,-0.16 H 4.0228598 c -0.18286,0 -0.32761,0.0533 -0.43429,0.16 -0.10667,0.10667 -0.16,0.23618 -0.16,0.38857 V 14.85714 Z"
     fill="#ffffff"
     fill-opacity="1"
     id="path1410"
     style="fill:#e0dfdf;fill-opacity:1;stroke-width:0.0223214"
     sodipodi:nodetypes="scsssssscsscssscssccssssssccssssscsssssscscscsscscccscsscscc" /><path
     d="M 2.2857098,14.85714 V 9.6914302 c 0,-0.45714 0.16762,-0.85333 0.50286,-1.18857 0.33525,-0.33525 0.74668,-0.5028601 1.23429,-0.5028601 H 12.02286 c 0.45714,0 0.85332,0.1676101 1.18857,0.5028601 0.33524,0.33524 0.50286,0.74667 0.50286,1.23428 V 14.85714 m -1.14286,0 V 9.6914302 c 0,-0.15239 -0.0533,-0.2819 -0.16,-0.38857 -0.10668,-0.10668 -0.23618,-0.16 -0.38857,-0.16 H 4.0228598 c -0.18286,0 -0.32761,0.0533 -0.43429,0.16 -0.10667,0.10667 -0.16,0.23618 -0.16,0.38857 V 14.85714 Z"
     style="fill:#4cc2ff;fill-opacity:1;stroke-width:0.0223214"
     id="path1898" /></svg>
