<?xml version="1.0" encoding="UTF-8" standalone="no"?>
<svg
   fill="none"
   viewBox="0 0 16 16"
   version="1.1"
   id="svg15"
   sodipodi:docname="Crop.svg"
   inkscape:version="1.2.1 (9c6d41e410, 2022-07-14)"
   xml:space="preserve"
   xmlns:inkscape="http://www.inkscape.org/namespaces/inkscape"
   xmlns:sodipodi="http://sodipodi.sourceforge.net/DTD/sodipodi-0.dtd"
   xmlns="http://www.w3.org/2000/svg"
   xmlns:svg="http://www.w3.org/2000/svg"><sodipodi:namedview
     id="namedview17"
     pagecolor="#505050"
     bordercolor="#eeeeee"
     borderopacity="1"
     inkscape:showpageshadow="0"
     inkscape:pageopacity="0"
     inkscape:pagecheckerboard="0"
     inkscape:deskcolor="#505050"
     showgrid="false"
     inkscape:zoom="32.09375"
     inkscape:cx="0.18695229"
     inkscape:cy="9.8617332"
     inkscape:window-width="1550"
     inkscape:window-height="1243"
     inkscape:window-x="370"
     inkscape:window-y="68"
     inkscape:window-maximized="0"
     inkscape:current-layer="svg15" /><g
     clip-path="url(#clip0_3687_250)"
     id="g8" /><defs
     id="defs13"><clipPath
       id="clip0_3687_250"><path
         fill="#fff"
         d="M0 0h16v16H0z"
         id="path10" /></clipPath></defs><path
     d="M 4,0.48 C 4,0.34666 3.9533,0.23334 3.86,0.14 3.7667,0.0467 3.64666,0 3.5,0 3.35334,0 3.23334,0.0467 3.14,0.14 3.0467,0.2333 3,0.34666 3,0.48 V 3 H 0.52 C 0.36,3 0.23334,3.0467 0.14,3.14 0.0467,3.2333 0,3.35334 0,3.5 0,3.64666 0.0467,3.76666 0.14,3.86 0.2333,3.9533 0.36,4 0.52,4 H 3 v 6.48 c 0,0.69334 0.24666,1.28666 0.74,1.78 C 4.23334,12.75334 4.81334,13 5.48,13 H 12 v 2.48 c 0,0.16 0.0467,0.2866 0.14,0.37996 C 12.2333,15.95336 12.35334,16 12.5,16 12.64666,16 12.76666,15.9533 12.86,15.85996 12.9533,15.76656 13,15.64 13,15.48 V 13 h 2.52 c 0.13334,0 0.24666,-0.0467 0.34,-0.14 C 15.9533,12.7667 16,12.64666 16,12.5 16,12.35334 15.9533,12.23334 15.86,12.14 15.7667,12.0467 15.65334,12 15.52,12 h -10 C 5.09334,12 4.73334,11.85334 4.44,11.56 4.14666,11.26666 4,10.90666 4,10.48 Z"
     fill="#ffffff"
     fill-opacity="1"
     id="path1156"
     style="fill:#e0dfdf;fill-opacity:1;stroke-width:0.0195312"
     sodipodi:nodetypes="scscscscscscssscscscscscscsssss" /><path
     d="M 12,5.48 V 11 h 1 V 5.48 C 13,4.81334 12.75334,4.23334 12.26,3.74 11.76666,3.24666 11.17334,3 10.48,3 H 5 v 1 h 5.52 c 0.4,0 0.74666,0.14666 1.04,0.44 C 11.85334,4.73334 12,5.09334 12,5.52 Z"
     style="fill:#4cc2ff;fill-opacity:1;stroke-width:0.0195312"
     id="path2412" /></svg>
