<?xml version="1.0" encoding="UTF-8" standalone="no"?>
<svg
   fill="none"
   viewBox="0 0 16 16"
   version="1.1"
   id="svg6"
   sodipodi:docname="windows.recyclebin.empty.svg"
   inkscape:version="1.2.1 (9c6d41e410, 2022-07-14)"
   xmlns:inkscape="http://www.inkscape.org/namespaces/inkscape"
   xmlns:sodipodi="http://sodipodi.sourceforge.net/DTD/sodipodi-0.dtd"
   xmlns="http://www.w3.org/2000/svg"
   xmlns:svg="http://www.w3.org/2000/svg">
  <defs
     id="defs10" />
  <sodipodi:namedview
     id="namedview8"
     pagecolor="#505050"
     bordercolor="#eeeeee"
     borderopacity="1"
     inkscape:showpageshadow="0"
     inkscape:pageopacity="0"
     inkscape:pagecheckerboard="0"
     inkscape:deskcolor="#505050"
     showgrid="false"
     inkscape:zoom="64.1875"
     inkscape:cx="8.0701071"
     inkscape:cy="8.0077897"
     inkscape:window-width="1528"
     inkscape:window-height="1346"
     inkscape:window-x="1027"
     inkscape:window-y="0"
     inkscape:window-maximized="0"
     inkscape:current-layer="svg6" />
  <path
     d="m 15,2 c 0.666666,0 0.666666,1 0,1 H 14.446 L 13.15,14.23 C 13.033196,15.238951 12.17869,16.000137 11.163,16 H 4.837 C 3.8213102,16.000137 2.9668043,15.238951 2.85,14.23 L 1.553,3 H 1 C 0.75850769,3.0000805 0.5514686,2.8275479 0.508,2.59 L 0.5,2.5 C 0.5,2.2238576 0.72385763,2 1,2 Z M 13.438,3 H 2.561 L 3.844,14.115 C 3.90238,14.619286 4.3293459,14.999814 4.837,15 h 6.326 c 0.507654,-1.86e-4 0.93462,-0.380714 0.993,-0.885 z"
     style="fill:#e0dfdf"
     id="path225" />
  <path
     d="M 8,1 C 7.1715729,1 6.5,1.6715729 6.5,2.5 h -1 c 0,-3.33333189 5,-3.33333189 5,0 h -1 C 9.5,1.6715729 8.8284271,1 8,1 Z M 6.5,6 C 6.7761424,6 7,6.2238576 7,6.5 v 5 c 0,0.666666 -1,0.666666 -1,0 v -5 C 6,6.2238576 6.2238576,6 6.5,6 Z m 3,0 C 9.7761424,6 10,6.2238576 10,6.5 v 5 c 0,0.666666 -1,0.666666 -1,0 v -5 C 9,6.2238576 9.2238576,6 9.5,6 Z"
     style="clip-rule:evenodd;fill:#e0dfdf;fill-rule:evenodd"
     id="path263" />
  <path
     d="M 8,1 C 7.1715729,1 6.5,1.6715729 6.5,2.5 h -1 c 0,-3.33333189 5,-3.33333189 5,0 h -1 C 9.5,1.6715729 8.8284271,1 8,1 Z M 6.5,6 C 6.7761424,6 7,6.2238576 7,6.5 v 5 c 0,0.666666 -1,0.666666 -1,0 v -5 C 6,6.2238576 6.2238576,6 6.5,6 Z m 3,0 C 9.7761424,6 10,6.2238576 10,6.5 v 5 c 0,0.666666 -1,0.666666 -1,0 v -5 C 9,6.2238576 9.2238576,6 9.5,6 Z"
     style="clip-rule:evenodd;fill:#e0dfdf;fill-rule:evenodd"
     id="path278" />
</svg>
