<?xml version="1.0" encoding="UTF-8" standalone="no"?>
<svg
   fill="none"
   viewBox="0 0 16 16"
   version="1.1"
   id="svg13"
   sodipodi:docname="Edit.svg"
   inkscape:version="1.2.1 (9c6d41e410, 2022-07-14)"
   xmlns:inkscape="http://www.inkscape.org/namespaces/inkscape"
   xmlns:sodipodi="http://sodipodi.sourceforge.net/DTD/sodipodi-0.dtd"
   xmlns="http://www.w3.org/2000/svg"
   xmlns:svg="http://www.w3.org/2000/svg">
  <sodipodi:namedview
     id="namedview15"
     pagecolor="#505050"
     bordercolor="#eeeeee"
     borderopacity="1"
     inkscape:showpageshadow="0"
     inkscape:pageopacity="0"
     inkscape:pagecheckerboard="0"
     inkscape:deskcolor="#505050"
     showgrid="false"
     inkscape:zoom="22.693708"
     inkscape:cx="8.9011455"
     inkscape:cy="11.148464"
     inkscape:window-width="2560"
     inkscape:window-height="1354"
     inkscape:window-x="-4"
     inkscape:window-y="-1"
     inkscape:window-maximized="1"
     inkscape:current-layer="svg13" />
  <g
     clip-path="url(#clip0_3782_41841)"
     id="g6" />
  <defs
     id="defs11">
    <clipPath
       id="clip0_3782_41841">
      <path
         fill="#fff"
         d="M0 0h16v16H0z"
         id="path8" />
    </clipPath>
  </defs>
  <path
     fill="#e0dfdf"
     d="m 13.451125,0.46011609 c 0.568,-0.475 1.42,-0.64 2.068,-0.052 0.295,0.268 0.465,0.61100001 0.48,0.99700001 0.013,0.372 -0.12,0.732 -0.328,1.056 l -0.008,0.012 -1.324,1.939 C 12.248396,7.4749064 9.8084305,10.283787 7.0685755,12.782172 7.0231745,12.823572 6.399337,12.705152 6.3851818,12.605345 6.3710268,12.505535 6.3486548,12.085759 6.3923018,12.045961 9.0758553,9.5990824 11.465584,6.8479774 13.513125,3.8481161 l 1.32,-1.933 c 0.133,-0.208 0.17,-0.367 0.166,-0.474 -0.003,-0.094 -0.039,-0.19 -0.152,-0.293 -0.169,-0.15300001 -0.445,-0.18000001 -0.755,0.08 l -0.005,0.004 -1.534,1.257 C 9.6607052,4.8580541 7.0686248,7.5712434 4.8343313,10.56831 4.7971633,10.61817 3.6364355,10.596501 3.6218117,10.498121 3.6071877,10.399721 4.0004089,10.014413 4.0412259,9.9596874 6.3220627,6.9016304 8.9675205,4.1329601 11.919125,1.7151421 Z"
     id="path2"
     sodipodi:nodetypes="ccccccscscccccccscscc" />
  <path
     fill="#4cc2ff"
     d="m 2.9021304,10.505 a 2.96,2.96 0 0 1 1.704,-0.503999 c 0.437,0.03 1.03,0.208 1.523,0.647999 0.508,0.456 0.871,1.16 0.871,2.158 0,1.356 -0.91,2.166 -1.854,2.61 -0.94,0.442 -2.018,0.583 -2.652,0.583 -0.676,0 -1.70200007,-0.166 -2.14600007,-0.307 a 0.5,0.5 0 0 1 -0.17,-0.859 c 0.2,-0.168 0.39,-0.323 0.555,-0.457 L 1.0051303,14.154 c 0.218,-0.181 0.363,-0.314 0.471,-0.443 0.186,-0.22 0.2980001,-0.47 0.3800001,-1.092 0.01,-1.024 0.457,-1.707 1.046,-2.115 z m 0.57,0.821 c -0.33,0.228 -0.616,0.617 -0.616,1.327 a 0.502,0.502 0 0 1 -0.004,0.063 c -0.093,0.735 -0.246,1.206 -0.61,1.64 a 4.649,4.649 0 0 1 -0.6080001,0.577 c 0.3000001,0.04 0.6110001,0.068 0.8600001,0.068 0.528,0 1.453,-0.124 2.226,-0.487 0.768,-0.361 1.28,-0.898 1.28,-1.706 0,-0.734 -0.256,-1.16 -0.538,-1.413 a 1.61,1.61 0 0 0 -0.912,-0.394 1.964,1.964 0 0 0 -1.078,0.325 z"
     id="path4" />
</svg>
