<?xml version="1.0" encoding="UTF-8" standalone="no"?>
<svg
   fill="none"
   viewBox="0 0 16 16"
   version="1.1"
   id="svg3429"
   sodipodi:docname="FlipHorz.svg"
   inkscape:version="1.2.1 (9c6d41e410, 2022-07-14)"
   xml:space="preserve"
   xmlns:inkscape="http://www.inkscape.org/namespaces/inkscape"
   xmlns:sodipodi="http://sodipodi.sourceforge.net/DTD/sodipodi-0.dtd"
   xmlns="http://www.w3.org/2000/svg"
   xmlns:svg="http://www.w3.org/2000/svg"><defs
     id="defs3433" /><sodipodi:namedview
     id="namedview3431"
     pagecolor="#505050"
     bordercolor="#eeeeee"
     borderopacity="1"
     inkscape:showpageshadow="0"
     inkscape:pageopacity="0"
     inkscape:pagecheckerboard="0"
     inkscape:deskcolor="#505050"
     showgrid="false"
     inkscape:zoom="22.693708"
     inkscape:cx="3.0845554"
     inkscape:cy="17.383673"
     inkscape:window-width="1550"
     inkscape:window-height="1243"
     inkscape:window-x="545"
     inkscape:window-y="50"
     inkscape:window-maximized="0"
     inkscape:current-layer="svg3429" /><path
     d="m 15.908715,14.757019 c -0.106507,0.159778 -0.252974,0.239662 -0.439365,0.239662 H 9.5178446 c -0.1597779,0 -0.2862516,-0.04662 -0.3794561,-0.139802 -0.093213,-0.0932 -0.1398023,-0.219687 -0.1398023,-0.379456 V 1.4959523 c 0,-0.1065069 0.039969,-0.206367 0.1198268,-0.2995715 0.07985,-0.093204 0.1730891,-0.1531223 0.2796048,-0.1797447 0.1065069,-0.0265874 0.2130313,-0.013294 0.3195382,0.039969 0.106507,0.053262 0.1863916,0.1331468 0.2396625,0.2396538 L 15.948666,14.277729 c 0.07985,0.159778 0.06656,0.319547 -0.03997,0.479316 z M 9.9971608,3.7726975 V 13.998107 h 4.7132682 z"
     fill="#ffffff"
     fill-opacity="1"
     id="path1514"
     style="stroke-width:0.0195034;fill:#e0dfdf;fill-opacity:1"
     sodipodi:nodetypes="csscssccscccccccc" /><path
     d="m 0.53067289,14.996681 c -0.18639151,0 -0.33286696,-0.07985 -0.43937389,-0.239662 C -0.0152079,14.59725 -0.0285278,14.437481 0.05133,14.277703 L 6.0427783,1.2962321 C 6.0960405,1.1897252 6.1759251,1.1098406 6.282432,1.0565784 6.388939,1.0033164 6.4954721,0.9900225 6.6019791,1.0166094 6.708486,1.0431964 6.8016905,1.1031934 6.8815838,1.196354 6.9614338,1.289558 7.0014107,1.3894186 7.0014107,1.4959256 V 14.477397 c 0,0.159769 -0.046615,0.286251 -0.1398024,0.379456 -0.093204,0.0932 -0.206367,0.139802 -0.3395138,0.139802 z"
     style="fill:#4cc2ff;fill-opacity:1;stroke-width:0.0195034"
     id="path1733" /></svg>
