<?xml version="1.0" encoding="UTF-8" standalone="no"?>
<svg
   fill="none"
   viewBox="0 0 16 16"
   version="1.1"
   id="svg3429"
   sodipodi:docname="FlipVert.svg"
   inkscape:version="1.2.1 (9c6d41e410, 2022-07-14)"
   xml:space="preserve"
   xmlns:inkscape="http://www.inkscape.org/namespaces/inkscape"
   xmlns:sodipodi="http://sodipodi.sourceforge.net/DTD/sodipodi-0.dtd"
   xmlns="http://www.w3.org/2000/svg"
   xmlns:svg="http://www.w3.org/2000/svg"><defs
     id="defs3433" /><sodipodi:namedview
     id="namedview3431"
     pagecolor="#505050"
     bordercolor="#eeeeee"
     borderopacity="1"
     inkscape:showpageshadow="0"
     inkscape:pageopacity="0"
     inkscape:pagecheckerboard="0"
     inkscape:deskcolor="#505050"
     showgrid="false"
     inkscape:zoom="22.693708"
     inkscape:cx="2.2032539"
     inkscape:cy="17.427738"
     inkscape:window-width="1550"
     inkscape:window-height="1243"
     inkscape:window-x="545"
     inkscape:window-y="50"
     inkscape:window-maximized="0"
     inkscape:current-layer="svg3429" /><g
     id="g844"><path
       d="m 14.757019,0.09128497 c 0.159778,0.106507 0.239662,0.252974 0.239662,0.439365 V 6.4821554 c 0,0.1597779 -0.04662,0.2862516 -0.139802,0.3794561 -0.0932,0.093213 -0.219687,0.1398023 -0.379456,0.1398023 H 1.4959519 c -0.1065069,0 -0.206367,-0.039969 -0.2995715,-0.1198268 C 1.1031764,6.801737 1.0432581,6.7084979 1.0166357,6.6019822 0.99004834,6.4954753 1.0033417,6.3889509 1.0566047,6.282444 1.1098667,6.175937 1.1897515,6.0960524 1.2962585,6.0427815 L 14.277729,0.05133397 c 0.159778,-0.07985 0.319547,-0.06656 0.479316,0.03997 z M 3.7726971,6.0028392 H 13.998107 V 1.289571 Z"
       fill="#ffffff"
       fill-opacity="1"
       id="path1514"
       style="fill:#e0dfdf;fill-opacity:1;stroke-width:0.0195034"
       sodipodi:nodetypes="csscssccscccccccc" /><path
       d="m 14.996681,15.469327 c 0,0.186392 -0.07985,0.332867 -0.239662,0.439374 -0.159769,0.106507 -0.319538,0.119827 -0.479316,0.03997 L 1.2962317,9.9572217 C 1.1897248,9.9039595 1.1098402,9.8240749 1.056578,9.717568 1.003316,9.611061 0.99002214,9.5045279 1.016609,9.3980209 1.043196,9.291514 1.103193,9.1983095 1.1963536,9.1184162 1.2895576,9.0385662 1.3894182,8.9985893 1.4959252,8.9985893 H 14.477397 c 0.159769,0 0.286251,0.046615 0.379456,0.1398024 0.0932,0.093204 0.139802,0.206367 0.139802,0.3395138 z"
       style="fill:#4cc2ff;fill-opacity:1;stroke-width:0.0195034"
       id="path1733" /></g></svg>
