<?xml version="1.0" encoding="UTF-8" standalone="no"?>
<svg
   fill="none"
   viewBox="0 0 16 16"
   version="1.1"
   id="svg545"
   sodipodi:docname="windows.aligngrid.svg"
   inkscape:version="1.2.1 (9c6d41e410, 2022-07-14)"
   xml:space="preserve"
   xmlns:inkscape="http://www.inkscape.org/namespaces/inkscape"
   xmlns:sodipodi="http://sodipodi.sourceforge.net/DTD/sodipodi-0.dtd"
   xmlns="http://www.w3.org/2000/svg"
   xmlns:svg="http://www.w3.org/2000/svg"><defs
     id="defs549" /><sodipodi:namedview
     id="namedview547"
     pagecolor="#505050"
     bordercolor="#eeeeee"
     borderopacity="1"
     inkscape:showpageshadow="0"
     inkscape:pageopacity="0"
     inkscape:pagecheckerboard="0"
     inkscape:deskcolor="#505050"
     showgrid="false"
     inkscape:zoom="16.046875"
     inkscape:cx="11.15482"
     inkscape:cy="7.5715677"
     inkscape:window-width="1550"
     inkscape:window-height="1243"
     inkscape:window-x="703"
     inkscape:window-y="70"
     inkscape:window-maximized="0"
     inkscape:current-layer="svg545" /><path
     d="M 0,2.28571 C 0,1.64571 0.22096,1.10475 0.66286,0.66286 1.10475,0.22096 1.64571,0 2.28571,0 h 11.42858 c 0.64,0 1.18096,0.22096 1.62285,0.66286 C 15.77904,1.10475 16,1.64571 16,2.28571 v 11.42858 c 0,0.64 -0.22096,1.18096 -0.66286,1.62285 C 14.89525,15.77904 14.35429,16 13.71429,16 H 2.28571 C 1.64571,16 1.10475,15.77904 0.66286,15.33714 0.22096,14.89525 0,14.35429 0,13.71429 Z m 1.14286,0 v 11.42858 c 0,0.30475 0.11428,0.57142 0.34285,0.8 0.22858,0.22857 0.49525,0.34285 0.8,0.34285 h 11.42858 c 0.30475,0 0.57142,-0.11428 0.8,-0.34285 0.22857,-0.22858 0.34285,-0.49525 0.34285,-0.8 V 2.28571 c 0,-0.30475 -0.11428,-0.57142 -0.34285,-0.8 -0.22858,-0.22857 -0.49525,-0.34285 -0.8,-0.34285 H 2.28571 c -0.30475,0 -0.57142,0.11428 -0.8,0.34285 -0.22857,0.22858 -0.34285,0.49525 -0.34285,0.8 z"
     fill="#ffffff"
     fill-opacity="1"
     id="path2"
     sodipodi:nodetypes="ssssssssssssssssssssssssss"
     style="stroke-width:0.0223214;fill:#e0dfdf;fill-opacity:1" /><path
     d="m 3.42857,9.69143 c 0,-0.15239 -0.0533,-0.2819 -0.16,-0.38857 -0.10667,-0.10668 -0.24382,-0.16 -0.41143,-0.16 -0.16761,0 -0.30475,0.0533 -0.41143,0.16 -0.10667,0.10667 -0.16,0.23618 -0.16,0.38857 v 2.28571 c 0,0.48761 0.16762,0.89904 0.50286,1.23429 0.33525,0.33524 0.74668,0.50286 1.23429,0.50286 h 2.28571 c 0.15239,0 0.2819,-0.0533 0.38857,-0.16 0.10668,-0.10668 0.16,-0.24382 0.16,-0.41143 0,-0.16761 -0.0533,-0.30476 -0.16,-0.41143 -0.10667,-0.10668 -0.23618,-0.16 -0.38857,-0.16 H 4.02286 c -0.18286,0 -0.32761,-0.0533 -0.43429,-0.16 -0.10667,-0.10668 -0.16,-0.23618 -0.16,-0.38857 z"
     style="fill:#4cc2ff;fill-opacity:1;stroke-width:0.0223214"
     id="path1658" /><path
     d="m 9.73714,2.28571 c -0.18285,0 -0.32761,0.0533 -0.43428,0.16 -0.10668,0.10668 -0.16,0.24382 -0.16,0.41143 0,0.16761 0.0533,0.30476 0.16,0.41143 0.10667,0.10668 0.23618,0.16 0.38857,0.16 h 2.33143 c 0.15239,0 0.28189,0.0533 0.38857,0.16 0.10667,0.10668 0.16,0.23618 0.16,0.38857 v 2.28572 c 0,0.18285 0.0533,0.32761 0.16,0.43428 0.10667,0.10668 0.24382,0.16 0.41143,0.16 0.16761,0 0.30475,-0.0533 0.41143,-0.16 0.10667,-0.10667 0.16,-0.23618 0.16,-0.38857 V 3.97714 C 13.71429,3.52 13.54667,3.12382 13.21143,2.78857 12.87618,2.45333 12.46475,2.28571 11.97714,2.28571 Z"
     style="fill:#4cc2ff;fill-opacity:1;stroke-width:0.0223214"
     id="path1681" /></svg>
