<?xml version="1.0" encoding="UTF-8" standalone="no"?>
<svg
   fill="none"
   viewBox="0 0 16 16"
   version="1.1"
   id="svg1262"
   sodipodi:docname="AdjustWindowSize.svg"
   inkscape:version="1.2.1 (9c6d41e410, 2022-07-14)"
   xml:space="preserve"
   xmlns:inkscape="http://www.inkscape.org/namespaces/inkscape"
   xmlns:sodipodi="http://sodipodi.sourceforge.net/DTD/sodipodi-0.dtd"
   xmlns="http://www.w3.org/2000/svg"
   xmlns:svg="http://www.w3.org/2000/svg"><sodipodi:namedview
     id="namedview1264"
     pagecolor="#505050"
     bordercolor="#eeeeee"
     borderopacity="1"
     inkscape:showpageshadow="0"
     inkscape:pageopacity="0"
     inkscape:pagecheckerboard="0"
     inkscape:deskcolor="#505050"
     showgrid="false"
     inkscape:zoom="22.693709"
     inkscape:cx="16.392208"
     inkscape:cy="15.004159"
     inkscape:window-width="1550"
     inkscape:window-height="1243"
     inkscape:window-x="839"
     inkscape:window-y="49"
     inkscape:window-maximized="0"
     inkscape:current-layer="g1255"
     inkscape:lockguides="false"
     showguides="true"><sodipodi:guide
       position="1.1217137,9.6436223"
       orientation="1,0"
       id="guide1997"
       inkscape:locked="false" /><sodipodi:guide
       position="9.6592015,1.1372932"
       orientation="0,-1"
       id="guide1999"
       inkscape:locked="false" /></sodipodi:namedview><g
     clip-path="url(#clip0_8442_119744)"
     id="g1255"><path
       d="M 0,3.42857 C 0,2.48382 0.33525,1.67618 1.00571,1.00571 1.67618,0.33525 2.48382,0 3.42857,0 h 9.14286 c 0.94475,0 1.75239,0.33525 2.42286,1.00571 C 15.66475,1.67618 16,2.48382 16,3.42857 v 9.14286 c 0,0.94475 -0.33525,1.75239 -1.00571,2.42286 C 14.32382,15.66475 13.51618,16 12.57143,16 h -3.84 c 0.36571,-0.33525 0.68571,-0.71618 0.96,-1.14286 h 2.88 c 0.64,0 1.18096,-0.22096 1.62286,-0.66285 0.44189,-0.4419 0.66285,-0.98286 0.66285,-1.62286 V 3.42857 c 0,-0.64 -0.22096,-1.18096 -0.66285,-1.62286 C 13.75239,1.36382 13.21143,1.14286 12.57143,1.14286 H 3.42857 c -0.64,0 -1.18096,0.22096 -1.62286,0.66285 -0.44189,0.4419 -0.66285,0.98286 -0.66285,1.62286 v 2.88 C 0.71618,6.58286 0.33525,6.90286 0,7.26857 Z"
       fill="#ffffff"
       fill-opacity="1"
       id="path1381"
       style="fill:#e0dfdf;fill-opacity:0.980392;stroke-width:0.0223214"
       sodipodi:nodetypes="scsscsscsccscsscsscsccs" /><path
       d="m 5.7946543,7.0084862 c 0.35145,0.35145 0.52717,0.77818 0.52717,1.28025 v 0.94137 h 0.45185 c 0.25103,0 0.47069,0.0941 0.6589601,0.2824 0.18827,0.18828 0.2824099,0.40794 0.2824099,0.6589598 v 3.76546 c 0,0.25097 -0.0941,0.47068 -0.2824099,0.65895 -0.1882701,0.18827 -0.4079301,0.28241 -0.6589601,0.28241 H 2.0668544 c -0.25102,0 -0.4706805,-0.0941 -0.6589505,-0.28241 -0.18828,-0.18827 -0.28241,-0.40798 -0.28241,-0.65895 v -3.76546 c 0,-0.2510198 0.0941,-0.4706798 0.28241,-0.6589598 0.18827,-0.18827 0.4079305,-0.2824 0.6589505,-0.2824 h 0.4895099 v -0.94137 c 0,-0.37654 0.1067,-0.72799 0.32007,-1.05433 0.21337,-0.32633 0.50206,-0.55855 0.86605,-0.69661 0.36399,-0.13806 0.73426,-0.16317 1.11081,-0.0753 0.37655,0.0879 0.69034,0.26985 0.94136,0.54599 z m -2.29692,2.22162 h 1.88272 v -0.94137 c 0,-0.25102 -0.0941,-0.47068 -0.2824,-0.65895 -0.18828,-0.18828 -0.4142,-0.28241 -0.67779,-0.28241 -0.26358,0 -0.48951,0.0941 -0.67778,0.28241 -0.18827,0.18827 -0.28241,0.40793 -0.28241,0.65895 v 0.94137 z m 0.30123,3.1629798 c 0.12552,0.25102 0.32634,0.37654 0.60248,0.37654 0.27614,0 0.48324,-0.11923 0.6213,-0.35771 0.13806,-0.23849 0.14434,-0.47069 0.0188,-0.69661 -0.1004,-0.17572 -0.24475,-0.28868 -0.43302,-0.33889 -0.18828,-0.0502 -0.36399,-0.0314 -0.52717,0.0565 -0.16317,0.0879 -0.27614,0.22593 -0.33889,0.4142 -0.0627,0.18827 -0.0439,0.37027 0.0565,0.54599 z"
       style="fill:#4cc2ff;fill-opacity:1;stroke-width:0.018386"
       id="path1635" /></g><defs
     id="defs1260"><clipPath
       id="clip0_8442_119744"><path
         fill="#fff"
         d="M0 0h16v16H0z"
         id="path1257" /></clipPath></defs></svg>
