<?xml version="1.0" encoding="UTF-8" standalone="no"?>
<svg
   fill="none"
   viewBox="0 0 16 16"
   version="1.1"
   id="svg1409"
   sodipodi:docname="Menu.svg"
   inkscape:version="1.2.1 (9c6d41e410, 2022-07-14)"
   xml:space="preserve"
   xmlns:inkscape="http://www.inkscape.org/namespaces/inkscape"
   xmlns:sodipodi="http://sodipodi.sourceforge.net/DTD/sodipodi-0.dtd"
   xmlns="http://www.w3.org/2000/svg"
   xmlns:svg="http://www.w3.org/2000/svg"><defs
     id="defs1413" /><sodipodi:namedview
     id="namedview1411"
     pagecolor="#505050"
     bordercolor="#eeeeee"
     borderopacity="1"
     inkscape:showpageshadow="0"
     inkscape:pageopacity="0"
     inkscape:pagecheckerboard="0"
     inkscape:deskcolor="#505050"
     showgrid="false"
     inkscape:zoom="22.693709"
     inkscape:cx="15.554972"
     inkscape:cy="13.02123"
     inkscape:window-width="1550"
     inkscape:window-height="1243"
     inkscape:window-x="708"
     inkscape:window-y="100"
     inkscape:window-maximized="0"
     inkscape:current-layer="svg1409" /><path
     d="M 0,2.98 C 0,2.84666 0.0467,2.73334 0.14,2.64 0.2333,2.5467 0.34666,2.5 0.48,2.5 h 15.04 c 0.13334,0 0.24666,0.0467 0.34,0.14 C 15.9533,2.7333 16,2.85334 16,3 16,3.14666 15.9533,3.26666 15.86,3.36 15.7667,3.4533 15.65334,3.5 15.52,3.5 h -15 C 0.36,3.5 0.23334,3.4533 0.14,3.36 0.0467,3.2667 0,3.15334 0,3.02 Z m 0,5 C 0,7.84666 0.0467,7.73334 0.14,7.64 0.2333,7.5467 0.34666,7.5 0.48,7.5 h 15.04 c 0.13334,0 0.24666,0.0467 0.34,0.14 C 15.9533,7.7333 16,7.85334 16,8 16,8.14666 15.9533,8.26666 15.86,8.36 15.7667,8.4533 15.65334,8.5 15.52,8.5 h -15 C 0.36,8.5 0.23334,8.4533 0.14,8.36 0.0467,8.2667 0,8.15334 0,8.02 Z M 0.52,12.5 C 0.36,12.5 0.23334,12.5467 0.14,12.64 0.0467,12.7333 0,12.85334 0,13 c 0,0.14666 0.0467,0.26666 0.14,0.36 0.0933,0.0933 0.22,0.14 0.38,0.14 h 15 c 0.13334,0 0.24666,-0.0467 0.34,-0.14 C 15.9533,13.2667 16,13.14666 16,13 16,12.85334 15.9533,12.73334 15.86,12.64 15.7667,12.5467 15.65334,12.5 15.52,12.5 Z"
     fill="#ffffff"
     fill-opacity="1"
     id="path1151"
     style="stroke-width:0.0195312;fill:#e0dfdf;fill-opacity:1" /></svg>
