<?xml version="1.0" encoding="UTF-8" standalone="no"?>
<svg
   fill="none"
   viewBox="0 0 16 16"
   version="1.1"
   id="svg2613"
   sodipodi:docname="OpenFile.svg"
   inkscape:version="1.2.1 (9c6d41e410, 2022-07-14)"
   xml:space="preserve"
   xmlns:inkscape="http://www.inkscape.org/namespaces/inkscape"
   xmlns:sodipodi="http://sodipodi.sourceforge.net/DTD/sodipodi-0.dtd"
   xmlns="http://www.w3.org/2000/svg"
   xmlns:svg="http://www.w3.org/2000/svg"><defs
     id="defs2617" /><sodipodi:namedview
     id="namedview2615"
     pagecolor="#505050"
     bordercolor="#eeeeee"
     borderopacity="1"
     inkscape:showpageshadow="0"
     inkscape:pageopacity="0"
     inkscape:pagecheckerboard="0"
     inkscape:deskcolor="#505050"
     showgrid="false"
     inkscape:zoom="32.09375"
     inkscape:cx="14.410906"
     inkscape:cy="11.902629"
     inkscape:window-width="1681"
     inkscape:window-height="1224"
     inkscape:window-x="468"
     inkscape:window-y="46"
     inkscape:window-maximized="0"
     inkscape:current-layer="svg2613" /><path
     d="m 5.16,1 c 0.26666,0 0.52,0.0667 0.76,0.2 l 1.76,1.28 h 5.84 c 0.61334,0 1.15334,0.21334 1.62,0.64 0.46666,0.42666 0.74,0.94666 0.82,1.56 L 16,4.84 v 7.64 c 0,0.66666 -0.22666,1.24 -0.68,1.72 -0.45334,0.48 -1,0.74666 -1.64,0.8 H 2.52 C 1.85334,15 1.28,14.77334 0.8,14.32 0.32,13.86666 0.05334,13.32 0,12.68 V 3.48 C 0,2.84 0.22666,2.28 0.68,1.8 1.13334,1.32 1.68,1.05334 2.32,1 Z m 1,4.04 C 5.89334,5.30666 5.58666,5.45334 5.24,5.48 H 1 v 7 c 0,0.4 0.12666,0.74 0.38,1.02 0.25334,0.28 0.58,0.44666 0.98,0.5 h 11.16 c 0.37334,0 0.7,-0.12666 0.98,-0.38 0.28,-0.25334 0.44666,-0.58 0.5,-0.98 V 5 C 15,4.62666 14.87334,4.29334 14.62,4 14.36666,3.70666 14.04,3.54666 13.64,3.52 L 7.6,3.48 Z M 5.16,2 H 2.52 C 2.12,2 1.78,2.12666 1.5,2.38 1.22,2.63334 1.05334,2.96 1,3.36 v 1.12 h 4.08 c 0.10666,0.0267 0.2,0 0.28,-0.08 L 6.68,3 5.48,2.08 C 5.4,2.0533 5.32,2.0267 5.24,2 Z"
     fill="#ffffff"
     fill-opacity="1"
     id="path1513"
     style="stroke-width:0.0195312;fill:#e0dfdf;fill-opacity:1" /></svg>
