<?xml version="1.0" encoding="UTF-8" standalone="no"?>
<svg
   fill="none"
   viewBox="0 0 16 16"
   version="1.1"
   id="svg6"
   sodipodi:docname="Print.svg"
   xml:space="preserve"
   inkscape:version="1.2.1 (9c6d41e410, 2022-07-14)"
   xmlns:inkscape="http://www.inkscape.org/namespaces/inkscape"
   xmlns:sodipodi="http://sodipodi.sourceforge.net/DTD/sodipodi-0.dtd"
   xmlns="http://www.w3.org/2000/svg"
   xmlns:svg="http://www.w3.org/2000/svg"><defs
     id="defs10" /><sodipodi:namedview
     id="namedview8"
     pagecolor="#505050"
     bordercolor="#eeeeee"
     borderopacity="1"
     inkscape:showpageshadow="0"
     inkscape:pageopacity="0"
     inkscape:pagecheckerboard="0"
     inkscape:deskcolor="#505050"
     showgrid="false"
     inkscape:zoom="11.346854"
     inkscape:cx="20.181805"
     inkscape:cy="15.731232"
     inkscape:window-width="1550"
     inkscape:window-height="1243"
     inkscape:window-x="431"
     inkscape:window-y="62"
     inkscape:window-maximized="0"
     inkscape:current-layer="svg6" /><path
     d="m 3.0000001,2.4799994 c 0,-0.3999999 0.14666,-0.74666 0.44,-1.04 0.29334,-0.29334 0.65334,-0.43999995 1.08,-0.43999995 H 11.52 c 0.4,0 0.74666,0.14665995 1.04,0.43999995 0.29334,0.29334 0.44,0.65334 0.44,1.08 v 0.48 h 0.52 c 0.66666,0 1.24666,0.24666 1.74,0.7400001 C 15.75334,4.2333394 16,4.8266594 16,5.5199994 v 4.9600016 c 0,0.42666 -0.14666,0.78666 -0.44,1.08 -0.29334,0.29334 -0.65334,0.44 -1.08,0.44 H 13 v 1.48 c 0,0.42666 -0.14666,0.78666 -0.44,1.08 -0.29334,0.29334 -0.65334,0.44 -1.08,0.44 H 4.5200001 c -0.42666,0 -0.78666,-0.14666 -1.08,-0.44 -0.29334,-0.29334 -0.44,-0.65334 -0.44,-1.08 v -1.48 h -1.48 c -0.42666,0 -0.78665993,-0.14666 -1.07999995,-0.44 C 0.14666015,11.266661 1.5546251e-7,10.906661 1.5546251e-7,10.480001 V 5.4799994 c 0,-0.66666 0.24665999453749,-1.24666 0.74000001453749,-1.74 0.49333993,-0.49334 1.07333993,-0.74 1.73999993,-0.74 h 0.52 z m 1,0.52 H 12 v -0.52 C 12,2.3466594 11.9533,2.2333395 11.86,2.1399995 11.7667,2.0466994 11.65334,1.9999994 11.52,1.9999994 H 4.5200001 c -0.16,0 -0.28666,0.0467 -0.38,0.1400001 -0.0933,0.0933 -0.14,0.2066599 -0.14,0.3399999 z m -1,8.0000016 V 9.4799995 c 0,-0.3999997 0.14666,-0.7466597 0.44,-1.0399996 0.29334,-0.2933401 0.65334,-0.4400001 1.08,-0.4400001 H 11.52 c 0.4,0 0.74666,0.1466601 1.04,0.4400001 0.29334,0.29334 0.44,0.65334 0.44,1.0799997 v 1.4800014 h 1.52 c 0.13334,0 0.24666,-0.0467 0.34,-0.14 0.0933,-0.0933 0.14,-0.20666 0.14,-0.34 V 5.4799994 c 0,-0.4 -0.14666,-0.74666 -0.44,-1.04 -0.29334,-0.29334 -0.65334,-0.44 -1.08,-0.44 H 2.5200001 c -0.42666,0 -0.78666,0.14666 -1.08,0.44 -0.29334,0.29334 -0.44,0.65334 -0.44,1.08 v 4.9600016 c 0,0.16 0.0467,0.28666 0.14,0.38 0.0933,0.0933 0.22,0.14 0.38,0.14 z m 1.52,-2.0000012 c -0.16,0 -0.28666,0.0467 -0.38,0.14 -0.0933,0.0933 -0.14,0.20666 -0.14,0.3399997 v 4.0000015 c 0,0.16 0.0467,0.28666 0.14,0.38 0.0933,0.0933 0.20666,0.14 0.34,0.14 H 11.52 c 0.13334,0 0.24666,-0.0467 0.34,-0.14 0.0933,-0.0933 0.14,-0.22 0.14,-0.38 V 9.4799995 c 0,-0.1333397 -0.0467,-0.2466597 -0.14,-0.3399997 -0.0933,-0.0933 -0.20666,-0.14 -0.34,-0.14 z"
     fill="#ffffff"
     fill-opacity="1"
     id="path1589"
     style="stroke-width:0.0195312;fill:#e0dfdf;fill-opacity:1" /></svg>
