<?xml version="1.0" encoding="UTF-8" standalone="no"?>
<svg
   fill="none"
   viewBox="0 0 16 16"
   version="1.1"
   id="svg6"
   sodipodi:docname="windows.refresh.svg"
   inkscape:version="1.2.1 (9c6d41e410, 2022-07-14)"
   xmlns:inkscape="http://www.inkscape.org/namespaces/inkscape"
   xmlns:sodipodi="http://sodipodi.sourceforge.net/DTD/sodipodi-0.dtd"
   xmlns="http://www.w3.org/2000/svg"
   xmlns:svg="http://www.w3.org/2000/svg">
  <defs
     id="defs10" />
  <sodipodi:namedview
     id="namedview8"
     pagecolor="#505050"
     bordercolor="#eeeeee"
     borderopacity="1"
     inkscape:showpageshadow="0"
     inkscape:pageopacity="0"
     inkscape:pagecheckerboard="0"
     inkscape:deskcolor="#505050"
     showgrid="false"
     inkscape:zoom="64.1875"
     inkscape:cx="7.9922103"
     inkscape:cy="8"
     inkscape:window-width="2560"
     inkscape:window-height="1351"
     inkscape:window-x="-4"
     inkscape:window-y="-4"
     inkscape:window-maximized="1"
     inkscape:current-layer="svg6" />
  <path
     d="M 8,1 C 1.7632323,1 -1.3590222,8.5399699 3.050504,12.949496 7.4600301,17.359022 15,14.236768 15,8 15,7.3333336 16,7.3333336 16,8 15.999469,17.202859 3.0338474,19.116542 0.352216,10.334936 -2.3294154,1.5533296 9.4934332,-4.1026213 14.635,3.53 15.008333,4.0826664 14.179333,4.6426664 13.806,4.09 12.50615,2.1572349 10.329204,0.99864641 8,1 Z"
     style="fill:#e0dfdf"
     id="path235" />
  <path
     d="M 14.5,0 C 14.776142,0 15,0.22385763 15,0.5 v 4 C 15,4.7761424 14.776142,5 14.5,5 h -4 C 9.8333336,5 9.8333336,4 10.5,4 H 14 V 0.5 C 14,0.22385763 14.223858,0 14.5,0 Z"
     style="fill:#e0dfdf"
     id="path273" />
</svg>
