<?xml version="1.0" encoding="UTF-8" standalone="no"?>
<svg
   fill="none"
   viewBox="0 0 16 16"
   version="1.1"
   id="svg6"
   sodipodi:docname="windows.rotate90.svg"
   inkscape:version="1.2.1 (9c6d41e410, 2022-07-14)"
   xmlns:inkscape="http://www.inkscape.org/namespaces/inkscape"
   xmlns:sodipodi="http://sodipodi.sourceforge.net/DTD/sodipodi-0.dtd"
   xmlns="http://www.w3.org/2000/svg"
   xmlns:svg="http://www.w3.org/2000/svg">
  <defs
     id="defs10" />
  <sodipodi:namedview
     id="namedview8"
     pagecolor="#505050"
     bordercolor="#eeeeee"
     borderopacity="1"
     inkscape:showpageshadow="0"
     inkscape:pageopacity="0"
     inkscape:pagecheckerboard="0"
     inkscape:deskcolor="#505050"
     showgrid="false"
     inkscape:zoom="64.1875"
     inkscape:cx="7.9922103"
     inkscape:cy="8"
     inkscape:window-width="2560"
     inkscape:window-height="1351"
     inkscape:window-x="-4"
     inkscape:window-y="-4"
     inkscape:window-maximized="1"
     inkscape:current-layer="svg6" />
  <path
     d="m 9.146,1.146 c 0.1953639,-0.19585838 0.5126361,-0.19585838 0.708,0 l 2,2 c 0.195858,0.1953639 0.195858,0.5126361 0,0.708 l -2,2 C 9.3820002,6.3259998 8.6740002,5.6179998 9.146,5.146 L 10.293,4 H 5.5 C 4.493,4 3.6,4.307 2.972,4.779 2.342,5.25 2,5.864 2,6.5 2,7.136 2.342,7.75 2.972,8.221 3.6,8.693 4.493,9 5.5,9 6.1666664,9 6.1666664,10 5.5,10 4.298,10 3.19,9.635 2.372,9.021 1.553,8.407 1,7.521 1,6.5 1,5.479 1.553,4.593 2.372,3.979 3.19,3.365 4.298,3 5.5,3 h 4.793 L 9.146,1.854 C 8.9501416,1.6586361 8.9501416,1.3413639 9.146,1.146 Z"
     style="fill:#4cc2ff"
     id="path175" />
  <path
     d="M 14.756,7.07 C 14.907466,7.1602813 15.000179,7.3236693 15,7.5 v 7 C 15,14.776142 14.776142,15 14.5,15 H 1.5 C 0.98107666,14.999495 0.806347,14.306475 1.263,14.06 l 13,-7 c 0.154664,-0.083566 0.341852,-0.079769 0.493,0.01 z M 3.483,14 H 14 V 8.337 Z"
     style="fill:#e0dfdf"
     id="path198" />
</svg>
