<?xml version="1.0" encoding="UTF-8" standalone="no"?>
<svg
   fill="none"
   viewBox="0 0 16 16"
   version="1.1"
   id="svg1262"
   sodipodi:docname="AdjustWindowSize - Copy.svg"
   inkscape:version="1.2.1 (9c6d41e410, 2022-07-14)"
   xml:space="preserve"
   xmlns:inkscape="http://www.inkscape.org/namespaces/inkscape"
   xmlns:sodipodi="http://sodipodi.sourceforge.net/DTD/sodipodi-0.dtd"
   xmlns="http://www.w3.org/2000/svg"
   xmlns:svg="http://www.w3.org/2000/svg"><sodipodi:namedview
     id="namedview1264"
     pagecolor="#505050"
     bordercolor="#eeeeee"
     borderopacity="1"
     inkscape:showpageshadow="0"
     inkscape:pageopacity="0"
     inkscape:pagecheckerboard="0"
     inkscape:deskcolor="#505050"
     showgrid="false"
     inkscape:zoom="32.09375"
     inkscape:cx="12.556962"
     inkscape:cy="16.218111"
     inkscape:window-width="1550"
     inkscape:window-height="1243"
     inkscape:window-x="943"
     inkscape:window-y="364"
     inkscape:window-maximized="0"
     inkscape:current-layer="g1255" /><g
     clip-path="url(#clip0_8442_119744)"
     id="g1255"><path
       d="M 0,4 C 0,3.44 0.19334,2.96666 0.58,2.58 0.96666,2.19334 1.44,2 2,2 h 12 c 0.56,0 1.03334,0.19334 1.42,0.58 C 15.80666,2.96666 16,3.44 16,4 v 8 c 0,0.56 -0.19334,1.03334 -0.58,1.42 C 15.03334,13.80666 14.56,14 14,14 H 2 C 1.44,14 0.96666,13.80666 0.58,13.42 0.19334,13.03334 0,12.56 0,12 Z M 2,3 C 1.73334,3 1.5,3.1 1.3,3.3 1.1,3.5 1,3.73334 1,4 v 8 c 0,0.26666 0.1,0.5 0.3,0.7 C 1.5,12.9 1.73334,13 2,13 h 12 c 0.26666,0 0.5,-0.1 0.7,-0.3 C 14.9,12.5 15,12.26666 15,12 V 4 C 15,3.73334 14.9,3.5 14.7,3.3 14.5,3.1 14.26666,3 14,3 Z"
       fill="#ffffff"
       fill-opacity="1"
       id="path3713"
       style="stroke-width:0.0195312"
       sodipodi:nodetypes="ssssssssssssssssssssssssss" /><path
       d="M 4.88,5.92 C 4.96,6.02666 5,6.14666 5,6.28 5,6.41334 4.9467,6.53334 4.84,6.64 l -1,0.84 h 2.68 c 0.13334,0 0.24666,0.0533 0.34,0.16 C 6.9533,7.74666 7,7.86666 7,8 7,8.13334 6.9533,8.25334 6.86,8.36 6.7667,8.46666 6.65334,8.52 6.52,8.52 H 3.84 l 1,0.84 C 4.94666,9.46666 5,9.58666 5,9.72 5,9.85334 4.9533,9.97334 4.86,10.08 4.7667,10.18666 4.65334,10.24666 4.52,10.26 4.38666,10.2733 4.26666,10.2267 4.16,10.12 l -2,-1.76 C 2.05334,8.28 2,8.16 2,8 2,7.84 2.0533,7.72 2.16,7.64 l 2,-1.76 C 4.26666,5.77334 4.38666,5.72666 4.52,5.74 4.65334,5.7533 4.77334,5.8133 4.88,5.92 Z m 7.28,2.6 -1,0.84 C 11.05334,9.46666 11,9.58666 11,9.72 c 0,0.13334 0.0467,0.25334 0.14,0.36 0.0933,0.10666 0.20666,0.16666 0.34,0.18 0.13334,0.0133 0.25334,-0.0333 0.36,-0.14 l 2,-1.76 C 13.94666,8.28 14,8.16 14,8 14,7.84 13.9467,7.72 13.84,7.64 l -2,-1.76 C 11.73334,5.77334 11.61334,5.72666 11.48,5.74 11.34666,5.7533 11.23334,5.8133 11.14,5.92 11.0467,6.02666 11,6.14666 11,6.28 c 0,0.13334 0.0533,0.25334 0.16,0.36 l 1,0.84 H 9.52 C 9.36,7.48 9.23334,7.5333 9.14,7.64 9.0467,7.74666 9,7.86666 9,8 9,8.13334 9.0467,8.24666 9.14,8.34 9.2333,8.4333 9.34666,8.49334 9.48,8.52 Z"
       style="fill:#4cc2ff;fill-opacity:1;stroke-width:0.0195312"
       id="path8419" /></g><defs
     id="defs1260"><clipPath
       id="clip0_8442_119744"><path
         fill="#fff"
         d="M0 0h16v16H0z"
         id="path1257" /></clipPath><clipPath
       id="clip0_8442_119744-5"><path
         fill="#fff"
         d="M0 0h16v16H0z"
         id="path1257-2" /></clipPath></defs></svg>
