<?xml version="1.0" encoding="UTF-8" standalone="no"?>
<svg
   fill="none"
   viewBox="0 0 16 16"
   version="1.1"
   id="svg1753"
   sodipodi:docname="windows.iconsize.smallicon.svg"
   inkscape:version="1.2.1 (9c6d41e410, 2022-07-14)"
   xml:space="preserve"
   xmlns:inkscape="http://www.inkscape.org/namespaces/inkscape"
   xmlns:sodipodi="http://sodipodi.sourceforge.net/DTD/sodipodi-0.dtd"
   xmlns="http://www.w3.org/2000/svg"
   xmlns:svg="http://www.w3.org/2000/svg"><defs
     id="defs1757" /><sodipodi:namedview
     id="namedview1755"
     pagecolor="#505050"
     bordercolor="#eeeeee"
     borderopacity="1"
     inkscape:showpageshadow="0"
     inkscape:pageopacity="0"
     inkscape:pagecheckerboard="0"
     inkscape:deskcolor="#505050"
     showgrid="false"
     inkscape:zoom="22.693708"
     inkscape:cx="1.1016269"
     inkscape:cy="18.353105"
     inkscape:window-width="1550"
     inkscape:window-height="1243"
     inkscape:window-x="605"
     inkscape:window-y="203"
     inkscape:window-maximized="0"
     inkscape:current-layer="svg1753" /><path
     d="M 0,4 C 0,3.44 0.19334,2.96666 0.58,2.58 0.96666,2.19334 1.44,2 2,2 h 12 c 0.56,0 1.03334,0.19334 1.42,0.58 C 15.80666,2.96666 16,3.44 16,4 v 8 c 0,0.56 -0.19334,1.03334 -0.58,1.42 C 15.03334,13.80666 14.56,14 14,14 H 2 C 1.44,14 0.96666,13.80666 0.58,13.42 0.19334,13.03334 0,12.56 0,12 Z m 1,0 v 8 c 0,0.26666 0.1,0.5 0.3,0.7 C 1.5,12.9 1.73334,13 2,13 h 12 c 0.26666,0 0.5,-0.1 0.7,-0.3 C 14.9,12.5 15,12.26666 15,12 V 4 C 15,3.73334 14.9,3.5 14.7,3.3 14.5,3.1 14.26666,3 14,3 H 2 C 1.73334,3 1.5,3.1 1.3,3.3 1.1,3.5 1,3.73334 1,4 Z"
     fill="#ffffff"
     fill-opacity="1"
     id="path1046"
     style="fill:#e0dfdf;fill-opacity:1;stroke-width:0.0195312"
     sodipodi:nodetypes="ssssssssssssssssssssssssss" /><path
     d="M 3.52,4 C 3.09334,4 2.73334,4.14666 2.44,4.44 2.14666,4.73334 2,5.09334 2,5.52 V 6.48 C 2,6.64 2.0467,6.76666 2.14,6.86 2.2333,6.9533 2.35334,7 2.5,7 2.64666,7 2.76666,6.9533 2.86,6.86 2.9533,6.7667 3,6.65334 3,6.52 V 5.48 C 3,5.34666 3.0467,5.23334 3.14,5.14 3.2333,5.0467 3.36,5 3.52,5 h 1 C 4.65334,5 4.76666,4.9533 4.86,4.86 4.9533,4.7667 5,4.64666 5,4.5 5,4.35334 4.9533,4.23334 4.86,4.14 4.7667,4.0467 4.65334,4 4.52,4 Z m 8,0 C 11.36,4 11.23334,4.0467 11.14,4.14 11.0467,4.2333 11,4.35334 11,4.5 11,4.64666 11.0467,4.76666 11.14,4.86 11.2333,4.9533 11.34666,5 11.48,5 h 1.04 c 0.13334,0 0.24666,0.0467 0.34,0.14 C 12.9533,5.2333 13,5.34666 13,5.48 v 1 c 0,0.16 0.0467,0.28666 0.14,0.38 C 13.2333,6.9533 13.35334,7 13.5,7 13.64666,7 13.76666,6.9533 13.86,6.86 13.9533,6.7667 14,6.65334 14,6.52 V 5.48 C 14,5.08 13.85334,4.73334 13.56,4.44 13.26666,4.14666 12.90666,4 12.48,4 Z M 3,9.48 C 3,9.34666 2.9533,9.23334 2.86,9.14 2.7667,9.0467 2.64666,9 2.5,9 2.35334,9 2.23334,9.0467 2.14,9.14 2.0467,9.2333 2,9.34666 2,9.48 v 1 c 0,0.42666 0.14666,0.78666 0.44,1.08 C 2.73334,11.85334 3.09334,12 3.52,12 h 1 C 4.65334,12 4.76666,11.9533 4.86,11.86 4.9533,11.7667 5,11.64666 5,11.5 5,11.35334 4.9533,11.23334 4.86,11.14 4.7667,11.0467 4.65334,11 4.52,11 h -1 C 3.36,11 3.23334,10.9533 3.14,10.86 3.0467,10.7667 3,10.65334 3,10.52 Z m 11,0 C 14,9.34666 13.9533,9.23334 13.86,9.14 13.7667,9.0467 13.64666,9 13.5,9 13.35334,9 13.23334,9.0467 13.14,9.14 13.0467,9.2333 13,9.34666 13,9.48 v 1 c 0,0.16 -0.0467,0.28666 -0.14,0.38 C 12.7667,10.9533 12.65334,11 12.52,11 h -1 c -0.16,0 -0.28666,0.0467 -0.38,0.14 -0.0933,0.0933 -0.14,0.21334 -0.14,0.36 0,0.14666 0.0467,0.26666 0.14,0.36 0.0933,0.0933 0.20666,0.14 0.34,0.14 h 1.04 c 0.4,0 0.74666,-0.14666 1.04,-0.44 C 13.85334,11.26666 14,10.90666 14,10.48 Z M 3.52,4 C 3.09334,4 2.73334,4.14666 2.44,4.44 2.14666,4.73334 2,5.09334 2,5.52 V 6.48 C 2,6.64 2.0467,6.76666 2.14,6.86 2.2333,6.9533 2.35334,7 2.5,7 2.64666,7 2.76666,6.9533 2.86,6.86 2.9533,6.7667 3,6.65334 3,6.52 V 5.48 C 3,5.34666 3.0467,5.23334 3.14,5.14 3.2333,5.0467 3.36,5 3.52,5 h 1 C 4.65334,5 4.76666,4.9533 4.86,4.86 4.9533,4.7667 5,4.64666 5,4.5 5,4.35334 4.9533,4.23334 4.86,4.14 4.7667,4.0467 4.65334,4 4.52,4 Z M 3,9.48 C 3,9.34666 2.9533,9.23334 2.86,9.14 2.7667,9.0467 2.64666,9 2.5,9 2.35334,9 2.23334,9.0467 2.14,9.14 2.0467,9.2333 2,9.34666 2,9.48 v 1 c 0,0.42666 0.14666,0.78666 0.44,1.08 C 2.73334,11.85334 3.09334,12 3.52,12 h 1 C 4.65334,12 4.76666,11.9533 4.86,11.86 4.9533,11.7667 5,11.64666 5,11.5 5,11.35334 4.9533,11.23334 4.86,11.14 4.7667,11.0467 4.65334,11 4.52,11 h -1 C 3.36,11 3.23334,10.9533 3.14,10.86 3.0467,10.7667 3,10.65334 3,10.52 Z"
     style="fill:#4cc2ff;fill-opacity:1;stroke-width:0.0195312"
     id="path1847" /></svg>
