<?xml version="1.0" encoding="UTF-8" standalone="no"?>
<svg
   fill="none"
   viewBox="0 0 16 16"
   version="1.1"
   id="svg1262"
   sodipodi:docname="AdjustWindowSize - Copy - Copy.svg"
   inkscape:version="1.2.1 (9c6d41e410, 2022-07-14)"
   xml:space="preserve"
   xmlns:inkscape="http://www.inkscape.org/namespaces/inkscape"
   xmlns:sodipodi="http://sodipodi.sourceforge.net/DTD/sodipodi-0.dtd"
   xmlns="http://www.w3.org/2000/svg"
   xmlns:svg="http://www.w3.org/2000/svg"><sodipodi:namedview
     id="namedview1264"
     pagecolor="#505050"
     bordercolor="#eeeeee"
     borderopacity="1"
     inkscape:showpageshadow="0"
     inkscape:pageopacity="0"
     inkscape:pagecheckerboard="0"
     inkscape:deskcolor="#505050"
     showgrid="false"
     inkscape:zoom="32.09375"
     inkscape:cx="12.525803"
     inkscape:cy="6.278481"
     inkscape:window-width="1550"
     inkscape:window-height="1243"
     inkscape:window-x="943"
     inkscape:window-y="100"
     inkscape:window-maximized="0"
     inkscape:current-layer="g1255" /><g
     clip-path="url(#clip0_8442_119744)"
     id="g1255"><path
       d="M 4,16 C 3.44,16 2.96666,15.80666 2.58,15.42 2.19334,15.03334 2,14.56 2,14 V 2 C 2,1.44 2.19334,0.96666 2.58,0.58 2.96666,0.19334 3.44,0 4,0 h 8 c 0.56,0 1.03334,0.19334 1.42,0.58 C 13.80666,0.96666 14,1.44 14,2 v 12 c 0,0.56 -0.19334,1.03334 -0.58,1.42 C 13.03334,15.80666 12.56,16 12,16 Z M 3,14 c 0,0.26666 0.1,0.5 0.3,0.7 C 3.5,14.9 3.73334,15 4,15 h 8 c 0.26666,0 0.5,-0.1 0.7,-0.3 C 12.9,14.5 13,14.26666 13,14 V 2 C 13,1.73334 12.9,1.5 12.7,1.3 12.5,1.1 12.26666,1 12,1 H 4 C 3.73334,1 3.5,1.1 3.3,1.3 3.1,1.5 3,1.73334 3,2 Z"
       fill="#ffffff"
       fill-opacity="1"
       id="path3713"
       style="stroke-width:0.0195312"
       sodipodi:nodetypes="ssssssssssssssssssssssssss" /><path
       d="M 5.92,11.12 C 6.02666,11.04 6.14666,11 6.28,11 c 0.13334,0 0.25334,0.0533 0.36,0.16 l 0.84,1 V 9.48 C 7.48,9.34666 7.5333,9.23334 7.64,9.14 7.74666,9.0467 7.86666,9 8,9 8.13334,9 8.25334,9.0467 8.36,9.14 8.46666,9.2333 8.52,9.34666 8.52,9.48 v 2.68 l 0.84,-1 C 9.46666,11.05334 9.58666,11 9.72,11 c 0.13334,0 0.25334,0.0467 0.36,0.14 0.10666,0.0933 0.16666,0.20666 0.18,0.34 0.0133,0.13334 -0.0333,0.25334 -0.14,0.36 l -1.76,2 C 8.28,13.94666 8.16,14 8,14 7.84,14 7.72,13.9467 7.64,13.84 l -1.76,-2 C 5.77334,11.73334 5.72666,11.61334 5.74,11.48 5.7533,11.34666 5.8133,11.22666 5.92,11.12 Z m 2.6,-7.28 0.84,1 C 9.46666,4.94666 9.58666,5 9.72,5 9.85334,5 9.97334,4.9533 10.08,4.86 10.18666,4.7667 10.24666,4.65334 10.26,4.52 10.2733,4.38666 10.2267,4.26666 10.12,4.16 l -1.76,-2 C 8.28,2.05334 8.16,2 8,2 7.84,2 7.72,2.0533 7.64,2.16 l -1.76,2 C 5.77334,4.26666 5.72666,4.38666 5.74,4.52 5.7533,4.65334 5.8133,4.76666 5.92,4.86 6.02666,4.9533 6.14666,5 6.28,5 6.41334,5 6.53334,4.9467 6.64,4.84 l 0.84,-1 v 2.64 c 0,0.16 0.0533,0.28666 0.16,0.38 C 7.74666,6.9533 7.86666,7 8,7 8.13334,7 8.24666,6.9533 8.34,6.86 8.4333,6.7667 8.49334,6.65334 8.52,6.52 Z"
       style="fill:#4cc2ff;fill-opacity:1;stroke-width:0.0195312"
       id="path8419" /></g><defs
     id="defs1260"><clipPath
       id="clip0_8442_119744"><path
         fill="#fff"
         d="M0 0h16v16H0z"
         id="path1257" /></clipPath><clipPath
       id="clip0_8442_119744-5"><path
         fill="#fff"
         d="M0 0h16v16H0z"
         id="path1257-2" /></clipPath></defs></svg>
