<?xml version="1.0" encoding="UTF-8" standalone="no"?>
<svg
   fill="none"
   viewBox="0 0 16 16"
   version="1.1"
   id="svg1547"
   sodipodi:docname="windows.iconsize.large.svg"
   inkscape:version="1.2.1 (9c6d41e410, 2022-07-14)"
   xml:space="preserve"
   xmlns:inkscape="http://www.inkscape.org/namespaces/inkscape"
   xmlns:sodipodi="http://sodipodi.sourceforge.net/DTD/sodipodi-0.dtd"
   xmlns="http://www.w3.org/2000/svg"
   xmlns:svg="http://www.w3.org/2000/svg"><defs
     id="defs1551" /><sodipodi:namedview
     id="namedview1549"
     pagecolor="#505050"
     bordercolor="#eeeeee"
     borderopacity="1"
     inkscape:showpageshadow="0"
     inkscape:pageopacity="0"
     inkscape:pagecheckerboard="0"
     inkscape:deskcolor="#505050"
     showgrid="false"
     inkscape:zoom="32.09375"
     inkscape:cx="13.709834"
     inkscape:cy="16.280428"
     inkscape:window-width="1550"
     inkscape:window-height="1243"
     inkscape:window-x="747"
     inkscape:window-y="84"
     inkscape:window-maximized="0"
     inkscape:current-layer="svg1547" /><path
     d="m 0,4.7599999 c 0,-0.77334 0.26666,-1.42666 0.8,-1.96 0.53334,-0.53334 1.18666,-0.8 1.96,-0.8 h 10.48 c 0.77334,0 1.42666,0.26666 1.96,0.8 0.53334,0.53334 0.8,1.18666 0.8,1.96 V 11.24 c 0,0.77334 -0.26666,1.42666 -0.8,1.96 -0.53334,0.53334 -1.18666,0.8 -1.96,0.8 H 2.76 C 1.98666,14 1.33334,13.73334 0.8,13.2 0.26666,12.66666 0,12.01334 0,11.24 Z m 2.76,-1.76 c -0.48,0 -0.89334,0.17334 -1.24,0.52 -0.34666,0.34666 -0.52,0.76 -0.52,1.24 V 11.24 c 0,0.48 0.17334,0.89334 0.52,1.24 C 1.86666,12.82666 2.28,13 2.76,13 h 10.48 c 0.48,0 0.89334,-0.17334 1.24,-0.52 C 14.82666,12.13334 15,11.72 15,11.24 V 4.7599999 c 0,-0.48 -0.17334,-0.89334 -0.52,-1.24 -0.34666,-0.34666 -0.76,-0.52 -1.24,-0.52 z"
     fill="#ffffff"
     fill-opacity="1"
     id="path2602"
     style="fill:#e0dfdf;fill-opacity:1;stroke-width:0.0195312"
     sodipodi:nodetypes="ssssssssssssssssssssssssss" /><path
     d="m 9,4.4799999 c 0,-0.13334 0.0467,-0.24666 0.14,-0.34 0.0933,-0.0933 0.20666,-0.14 0.34,-0.14 h 2.04 c 0.13334,0 0.24666,0.0467 0.34,0.14 0.0933,0.0933 0.14,0.20666 0.14,0.34 v 2 c 0,0.16 -0.0467,0.28666 -0.14,0.38 -0.0933,0.0933 -0.21334,0.14 -0.36,0.14 -0.14666,0 -0.26666,-0.0467 -0.36,-0.14 -0.0933,-0.0933 -0.14,-0.20666 -0.14,-0.34 v -0.8 l -1.64,1.64 c -0.10666,0.10666 -0.22666,0.16 -0.36,0.16 -0.13334,0 -0.25334,-0.0533 -0.36,-0.16 -0.10666,-0.10666 -0.16,-0.22666 -0.16,-0.36 0,-0.13334 0.0533,-0.25334 0.16,-0.36 l 1.64,-1.64 H 9.52 c -0.16,0 -0.28666,-0.0467 -0.38,-0.14 C 9.0467,4.7666999 9,4.6533399 9,4.5199999 Z M 6.64,8.6400004 c 0.10666,-0.10666 0.22666,-0.16 0.36,-0.16 0.13334,0 0.25334,0.0533 0.36,0.16 0.10666,0.10666 0.16,0.2266601 0.16,0.36 0,0.13334 -0.0533,0.25334 -0.16,0.36 L 5.72,11 h 0.8 c 0.13334,0 0.24666,0.0467 0.34,0.14 C 6.9533,11.2333 7,11.35334 7,11.5 7,11.64666 6.9533,11.76666 6.86,11.86 6.7667,11.9533 6.65334,12 6.52,12 h -2 C 4.36,12 4.23334,11.9533 4.14,11.86 4.0467,11.7667 4,11.65334 4,11.52 V 9.48 C 4,9.3466604 4.0467,9.2333404 4.14,9.1400004 c 0.0933,-0.0933 0.21334,-0.14 0.36,-0.14 0.14666,0 0.26666,0.0467 0.36,0.14 C 4.9533,9.2333004 5,9.3466604 5,9.48 v 0.8 z"
     style="fill:#4cc2ff;fill-opacity:1;stroke-width:0.0195312"
     id="path3408" /></svg>
