<?xml version="1.0" encoding="UTF-8" standalone="no"?>
<svg
   fill="none"
   viewBox="0 0 16 16"
   version="1.1"
   id="svg1409"
   sodipodi:docname="Slideshow.svg"
   inkscape:version="1.2.1 (9c6d41e410, 2022-07-14)"
   xml:space="preserve"
   xmlns:inkscape="http://www.inkscape.org/namespaces/inkscape"
   xmlns:sodipodi="http://sodipodi.sourceforge.net/DTD/sodipodi-0.dtd"
   xmlns="http://www.w3.org/2000/svg"
   xmlns:svg="http://www.w3.org/2000/svg"><defs
     id="defs1413" /><sodipodi:namedview
     id="namedview1411"
     pagecolor="#505050"
     bordercolor="#eeeeee"
     borderopacity="1"
     inkscape:showpageshadow="0"
     inkscape:pageopacity="0"
     inkscape:pagecheckerboard="0"
     inkscape:deskcolor="#505050"
     showgrid="false"
     inkscape:zoom="45.387417"
     inkscape:cx="5.7504925"
     inkscape:cy="8.1189904"
     inkscape:window-width="1550"
     inkscape:window-height="1243"
     inkscape:window-x="708"
     inkscape:window-y="133"
     inkscape:window-maximized="0"
     inkscape:current-layer="svg1409" /><path
     d="m -0.05000015,8.0220325 c 0,-1.449 0.36225,-2.79067 1.08674995,-4.025 0.7245,-1.23433 1.70392,-2.21375 2.93825,-2.93825 1.23433,-0.72449998 2.5760003,-1.08674998 4.0250004,-1.08674998 1.449,0 2.7906698,0.36225 4.0249998,1.08674998 1.23433,0.7245 2.21375,1.70392 2.93825,2.93825 0.7245,1.23433 1.08675,2.576 1.08675,4.025 0,1.449 -0.36225,2.7906705 -1.08675,4.0250005 -0.7245,1.23433 -1.70392,2.21375 -2.93825,2.93825 -1.23433,0.7245 -2.5759998,1.08675 -4.0249998,1.08675 -1.4490001,0 -2.7906704,-0.36225 -4.0250004,-1.08675 -1.23433,-0.7245 -2.21375,-1.70392 -2.93825,-2.93825 C 0.31224985,10.812703 -0.05000015,9.4710325 -0.05000015,8.0220325 Z M 8.0000002,0.97828252 c -1.2880001,0 -2.4686703,0.31529998 -3.5420004,0.94586998 -1.0733299,0.63058 -1.9252999,1.48255 -2.5558699,2.55588 -0.6305801,1.07333 -0.94588005,2.254 -0.94588005,3.542 0,1.288 0.31529995,2.4686705 0.94588005,3.5420005 0.63057,1.07333 1.48254,1.9253 2.5558699,2.55588 1.0733301,0.63057 2.2540003,0.94587 3.5420004,0.94587 1.288,0 2.4686698,-0.3153 3.5419998,-0.94587 1.07333,-0.63058 1.9253,-1.48255 2.55588,-2.55588 0.63057,-1.07333 0.94587,-2.2540005 0.94587,-3.5420005 0,-1.288 -0.3153,-2.46867 -0.94587,-3.542 -0.63058,-1.07333 -1.48255,-1.9253 -2.55588,-2.55588 C 10.46867,1.2935825 9.2880002,0.97828252 8.0000002,0.97828252 Z"
     fill="#ffffff"
     fill-opacity="1"
     id="path1150"
     style="fill:#e0dfdf;fill-opacity:1;stroke-width:0.0196533"
     sodipodi:nodetypes="ssssssssssssssccsccsccsccs" /><path
     d="m 7.1145001,5.2045325 c -0.2415,-0.161 -0.4897,-0.1677 -0.74462,-0.0201 -0.25493,0.14757 -0.38238,0.36895 -0.38238,0.66412 v 4.3470005 c 0,0.29517 0.12745,0.51655 0.38238,0.66413 0.25492,0.14757 0.50312,0.14087 0.74462,-0.0201 L 11.26025,8.4648325 c 0.161,-0.10733 0.2415,-0.25492 0.2415,-0.44275 0,-0.18783 -0.0805,-0.33542 -0.2415,-0.44275 z"
     style="fill:#4cc2ff;fill-opacity:1;stroke-width:0.0196533"
     id="path1980" /></svg>
