<?xml version="1.0" encoding="UTF-8" standalone="no"?>
<svg
   fill="none"
   viewBox="0 0 16 16"
   version="1.1"
   id="svg2762"
   sodipodi:docname="ThumbnailBar.svg"
   inkscape:version="1.2.1 (9c6d41e410, 2022-07-14)"
   xml:space="preserve"
   xmlns:inkscape="http://www.inkscape.org/namespaces/inkscape"
   xmlns:sodipodi="http://sodipodi.sourceforge.net/DTD/sodipodi-0.dtd"
   xmlns="http://www.w3.org/2000/svg"
   xmlns:svg="http://www.w3.org/2000/svg"><defs
     id="defs2766" /><sodipodi:namedview
     id="namedview2764"
     pagecolor="#505050"
     bordercolor="#eeeeee"
     borderopacity="1"
     inkscape:showpageshadow="0"
     inkscape:pageopacity="0"
     inkscape:pagecheckerboard="0"
     inkscape:deskcolor="#505050"
     showgrid="false"
     inkscape:zoom="22.693708"
     inkscape:cx="8.6808201"
     inkscape:cy="21.746115"
     inkscape:window-width="1550"
     inkscape:window-height="1243"
     inkscape:window-x="755"
     inkscape:window-y="60"
     inkscape:window-maximized="0"
     inkscape:current-layer="svg2762" /><style
     type="text/css"
     id="style1515">
	.st0{fill:#E0DFDF;}
	.st1{fill:#4CC2FF;}
</style><style
     type="text/css"
     id="style2258">
	.st0{fill:#E0DFDF;}
	.st1{fill:#4CC2FF;}
</style><g
     id="g2264"
     transform="matrix(0.0268998,0,0,0.0268998,-0.00807046,-3.7202429)">
	<path
   class="st0"
   d="m 573.4,234.2 c -14.4,-14.4 -32,-21.6 -52.8,-21.6 h -446 c -20.8,0 -38.4,7.2 -52.8,21.6 C 7.5,248.6 0.3,266.2 0.3,287 V 510 H 595 V 287 c 0,-20.8 -7.2,-38.4 -21.6,-52.8 z M 557.8,472.9 H 37.5 V 287 c 0,-9.9 3.7,-18.6 11.1,-26 7.4,-7.4 16.1,-11.2 26,-11.2 h 446 c 9.9,0 18.6,3.7 26,11.2 7.4,7.4 11.2,16.1 11.2,26 V 472.9 Z M 595,510 H 0.3"
   id="path2260" />
	<path
   class="st1"
   d="m 0.3,472.9 v 111.5 c 0,20.8 7.2,38.4 21.6,52.8 14.4,14.4 32,21.6 52.8,21.6 h 446 c 20.8,0 38.4,-7.2 52.8,-21.6 14.4,-14.4 21.6,-32 21.6,-52.8 V 472.9 Z m 557.5,111.5 c 0,9.9 -3.7,18.6 -11.2,26 -7.4,7.4 -16.1,11.2 -26,11.2 h -446 c -9.9,0 -18.6,-3.7 -26,-11.2 -7.4,-7.4 -11.2,-16.1 -11.2,-26 V 510 h 520.4 z"
   id="path2262" />
</g></svg>
