<?xml version="1.0" encoding="UTF-8" standalone="no"?>
<svg
   fill="none"
   viewBox="0 0 16 16"
   version="1.1"
   id="svg2762"
   sodipodi:docname="windows.previewpane.svg"
   inkscape:version="1.2.1 (9c6d41e410, 2022-07-14)"
   xmlns:inkscape="http://www.inkscape.org/namespaces/inkscape"
   xmlns:sodipodi="http://sodipodi.sourceforge.net/DTD/sodipodi-0.dtd"
   xmlns="http://www.w3.org/2000/svg"
   xmlns:svg="http://www.w3.org/2000/svg">
  <defs
     id="defs2766" />
  <sodipodi:namedview
     id="namedview2764"
     pagecolor="#505050"
     bordercolor="#eeeeee"
     borderopacity="1"
     inkscape:showpageshadow="0"
     inkscape:pageopacity="0"
     inkscape:pagecheckerboard="0"
     inkscape:deskcolor="#505050"
     showgrid="false"
     inkscape:zoom="64.1875"
     inkscape:cx="7.9922103"
     inkscape:cy="8"
     inkscape:window-width="2560"
     inkscape:window-height="1351"
     inkscape:window-x="-4"
     inkscape:window-y="-4"
     inkscape:window-maximized="1"
     inkscape:current-layer="svg2762" />
  <path
     d="M 0,5 C 0,3.3431458 1.3431458,2 3,2 h 7 V 14 H 3 C 1.3431458,14 0,12.656854 0,11 Z M 3,3 C 1.8954305,3 1,3.8954305 1,5 v 6 c 0,1.104569 0.8954305,2 2,2 H 9 V 3 Z"
     style="fill:#e0dfdf"
     id="path2776" />
  <path
     d="M 9,2.5 C 9,2.2238576 9.2238576,2 9.5,2 H 13 c 1.656854,0 3,1.3431458 3,3 v 6 c 0,1.656854 -1.343146,3 -3,3 H 9.5 C 9.2238576,14 9,13.776142 9,13.5 Z M 10,3 v 10 h 3 c 1.104569,0 2,-0.895431 2,-2 V 5 C 15,3.8954305 14.104569,3 13,3 Z"
     style="fill:#4cc2ff"
     id="path2799" />
  <path
     d="M 9,2.5 C 9,2.2238576 9.2238576,2 9.5,2 H 13 c 1.656854,0 3,1.3431458 3,3 v 6 c 0,1.656854 -1.343146,3 -3,3 H 9.5 C 9.2238576,14 9,13.776142 9,13.5 Z M 10,3 v 10 h 3 c 1.104569,0 2,-0.895431 2,-2 V 5 C 15,3.8954305 14.104569,3 13,3 Z"
     style="fill:#4cc2ff"
     id="path2814" />
</svg>
