<?xml version="1.0" encoding="UTF-8" standalone="no"?>
<svg
   fill="none"
   viewBox="0 0 16 16"
   version="1.1"
   id="svg2095"
   sodipodi:docname="ViewNextImage.svg"
   inkscape:version="1.2.1 (9c6d41e410, 2022-07-14)"
   xml:space="preserve"
   xmlns:inkscape="http://www.inkscape.org/namespaces/inkscape"
   xmlns:sodipodi="http://sodipodi.sourceforge.net/DTD/sodipodi-0.dtd"
   xmlns="http://www.w3.org/2000/svg"
   xmlns:svg="http://www.w3.org/2000/svg"><defs
     id="defs2099" /><sodipodi:namedview
     id="namedview2097"
     pagecolor="#505050"
     bordercolor="#eeeeee"
     borderopacity="1"
     inkscape:showpageshadow="0"
     inkscape:pageopacity="0"
     inkscape:pagecheckerboard="0"
     inkscape:deskcolor="#505050"
     showgrid="false"
     inkscape:zoom="11.346854"
     inkscape:cx="22.73758"
     inkscape:cy="-1.718538"
     inkscape:window-width="1550"
     inkscape:window-height="1243"
     inkscape:window-x="575"
     inkscape:window-y="100"
     inkscape:window-maximized="0"
     inkscape:current-layer="svg2095" /><g
     id="g2093" /><path
     d="m 16,8 c 0,1.44 -0.36,2.77334 -1.08,4 C 14.2,13.22666 13.22666,14.2 12,14.92 10.77334,15.64 9.44,16 8,16 6.56,16 5.22666,15.64 4,14.92 2.77334,14.2 1.8,13.22666 1.08,12 0.36,10.77334 0,9.44 0,8 0,6.56 0.36,5.22666 1.08,4 1.8,2.77334 2.77334,1.8 4,1.08 5.22666,0.36 6.56,0 8,0 9.44,0 10.77334,0.36 12,1.08 13.22666,1.8 14.2,2.77334 14.92,4 15.64,5.22666 16,6.56 16,8 Z m -8,7 c 1.28,0 2.45334,-0.31334 3.52,-0.94 1.06666,-0.62666 1.91334,-1.47334 2.54,-2.54 C 14.68666,10.45334 15,9.28 15,8 15,6.72 14.68666,5.54666 14.06,4.48 13.43334,3.41334 12.58666,2.56666 11.52,1.94 10.45334,1.31334 9.28,1 8,1 6.72,1 5.54666,1.31334 4.48,1.94 3.41334,2.56666 2.56666,3.41334 1.94,4.48 1.31334,5.54666 1,6.72 1,8 c 0,1.28 0.31334,2.45334 0.94,3.52 0.62666,1.06666 1.47334,1.91334 2.54,2.54 C 5.54666,14.68666 6.72,15 8,15 Z"
     fill="#ffffff"
     fill-opacity="1"
     id="path1207"
     style="fill:#e0dfdf;fill-opacity:1;stroke-width:0.0195312"
     sodipodi:nodetypes="ssssssssssssssssssssssssss" /><path
     d="m 8.84,11.36 3,-3 C 11.94666,8.25334 12,8.13334 12,8 12,7.86666 11.9467,7.74666 11.84,7.64 l -3,-3 C 8.76,4.53334 8.64666,4.48 8.5,4.48 8.35334,4.48 8.23334,4.5333 8.14,4.64 8.0467,4.74666 8,4.86666 8,5 8,5.13334 8.0533,5.25334 8.16,5.36 l 2.12,2.12 H 4.48 C 4.34666,7.48 4.23334,7.5333 4.14,7.64 4.0467,7.74666 4,7.86666 4,8 4,8.13334 4.0467,8.24666 4.14,8.34 4.2333,8.4333 4.34666,8.49334 4.48,8.52 h 5.8 L 8.16,10.64 C 8.05334,10.74666 8,10.86666 8,11 c 0,0.13334 0.0467,0.25334 0.14,0.36 0.0933,0.10666 0.21334,0.16 0.36,0.16 0.14666,0 0.26,-0.0533 0.34,-0.16 z"
     style="fill:#4cc2ff;fill-opacity:1;stroke-width:0.0195312"
     id="path1841" /></svg>
