<?xml version="1.0" encoding="UTF-8" standalone="no"?>
<svg
   fill="none"
   viewBox="0 0 16 16"
   version="1.1"
   id="svg2095"
   sodipodi:docname="ViewPreviousImage.svg"
   inkscape:version="1.2.1 (9c6d41e410, 2022-07-14)"
   xml:space="preserve"
   xmlns:inkscape="http://www.inkscape.org/namespaces/inkscape"
   xmlns:sodipodi="http://sodipodi.sourceforge.net/DTD/sodipodi-0.dtd"
   xmlns="http://www.w3.org/2000/svg"
   xmlns:svg="http://www.w3.org/2000/svg"><defs
     id="defs2099" /><sodipodi:namedview
     id="namedview2097"
     pagecolor="#505050"
     bordercolor="#eeeeee"
     borderopacity="1"
     inkscape:showpageshadow="0"
     inkscape:pageopacity="0"
     inkscape:pagecheckerboard="0"
     inkscape:deskcolor="#505050"
     showgrid="false"
     inkscape:zoom="11.346854"
     inkscape:cx="22.82571"
     inkscape:cy="-1.718538"
     inkscape:window-width="1550"
     inkscape:window-height="1243"
     inkscape:window-x="575"
     inkscape:window-y="111"
     inkscape:window-maximized="0"
     inkscape:current-layer="svg2095" /><g
     id="g2093" /><path
     d="M 0,8 C 0,9.44 0.36,10.77334 1.08,12 1.8,13.22666 2.77334,14.2 4,14.92 5.22666,15.64 6.56,16 8,16 9.44,16 10.77334,15.64 12,14.92 13.22666,14.2 14.2,13.22666 14.92,12 15.64,10.77334 16,9.44 16,8 16,6.56 15.64,5.22666 14.92,4 14.2,2.77334 13.22666,1.8 12,1.08 10.77334,0.36 9.44,0 8,0 6.56,0 5.22666,0.36 4,1.08 2.77334,1.8 1.8,2.77334 1.08,4 0.36,5.22666 0,6.56 0,8 Z m 8,7 C 6.72,15 5.54666,14.68666 4.48,14.06 3.41334,13.43334 2.56666,12.58666 1.94,11.52 1.31334,10.45334 1,9.28 1,8 1,6.72 1.31334,5.54666 1.94,4.48 2.56666,3.41334 3.41334,2.56666 4.48,1.94 5.54666,1.31334 6.72,1 8,1 c 1.28,0 2.45334,0.31334 3.52,0.94 1.06666,0.62666 1.91334,1.47334 2.54,2.54 C 14.68666,5.54666 15,6.72 15,8 c 0,1.28 -0.31334,2.45334 -0.94,3.52 -0.62666,1.06666 -1.47334,1.91334 -2.54,2.54 C 10.45334,14.68666 9.28,15 8,15 Z"
     fill="#ffffff"
     fill-opacity="1"
     id="path1207"
     style="fill:#e0dfdf;fill-opacity:1;stroke-width:0.0195312"
     sodipodi:nodetypes="ssssssssssssssssssssssssss" /><path
     d="m 7.16,11.36 -3,-3 C 4.05334,8.25334 4,8.13334 4,8 4,7.86666 4.0533,7.74666 4.16,7.64 l 3,-3 C 7.24,4.53334 7.35334,4.48 7.5,4.48 7.64666,4.48 7.76666,4.5333 7.86,4.64 7.9533,4.74666 8,4.86666 8,5 8,5.13334 7.9467,5.25334 7.84,5.36 L 5.72,7.48 h 5.8 c 0.13334,0 0.24666,0.0533 0.34,0.16 C 11.9533,7.74666 12,7.86666 12,8 12,8.13334 11.9533,8.24666 11.86,8.34 11.7667,8.4333 11.65334,8.49334 11.52,8.52 h -5.8 l 2.12,2.12 C 7.94666,10.74666 8,10.86666 8,11 8,11.13334 7.9533,11.25334 7.86,11.36 7.7667,11.46666 7.64666,11.52 7.5,11.52 7.35334,11.52 7.24,11.4667 7.16,11.36 Z"
     style="fill:#4cc2ff;fill-opacity:1;stroke-width:0.0195312"
     id="path1841" /></svg>
