<?xml version="1.0" encoding="UTF-8" standalone="no"?>
<svg
   fill="none"
   viewBox="0 0 16 16"
   version="1.1"
   id="svg6"
   sodipodi:docname="ZoomOut.svg"
   inkscape:version="1.2.1 (9c6d41e410, 2022-07-14)"
   xmlns:inkscape="http://www.inkscape.org/namespaces/inkscape"
   xmlns:sodipodi="http://sodipodi.sourceforge.net/DTD/sodipodi-0.dtd"
   xmlns="http://www.w3.org/2000/svg"
   xmlns:svg="http://www.w3.org/2000/svg">
  <defs
     id="defs10" />
  <sodipodi:namedview
     id="namedview8"
     pagecolor="#505050"
     bordercolor="#eeeeee"
     borderopacity="1"
     inkscape:showpageshadow="0"
     inkscape:pageopacity="0"
     inkscape:pagecheckerboard="0"
     inkscape:deskcolor="#505050"
     showgrid="false"
     inkscape:zoom="45.387417"
     inkscape:cx="7.9757789"
     inkscape:cy="8.0308603"
     inkscape:window-width="2560"
     inkscape:window-height="1351"
     inkscape:window-x="-4"
     inkscape:window-y="-4"
     inkscape:window-maximized="1"
     inkscape:current-layer="svg6" />
  <path
     d="m 10.5,7 c 0.666666,0 0.666666,1 0,1 -2,0 -4,0 -6,0 -0.6666664,0 -0.6666664,-1 0,-1 z"
     style="fill:#4cc2ff"
     id="path852"
     sodipodi:nodetypes="ccccc" />
  <path
     d="M 7.5,1 C 3.9101467,1 1.0000028,3.9101492 1.0000028,7.5 1.0000028,11.089851 3.9101467,14 7.5,14 11.089853,14 13.999997,11.089851 13.999997,7.5 13.999997,3.9101492 11.089853,1 7.5,1 Z M 0,7.5 C 0,3.3578616 3.3578645,3.2558812e-6 7.5,3.2558812e-6 11.642136,3.2558812e-6 15,3.3578616 15,7.5 15,11.642138 11.642136,14.999997 7.5,14.999997 3.3578645,14.999997 0,11.642138 0,7.5 Z"
     style="fill:#e0dfdf"
     id="path875" />
  <path
     d="M 7.5,1 C 3.9101467,1 1.0000028,3.9101492 1.0000028,7.5 1.0000028,11.089851 3.9101467,14 7.5,14 11.089853,14 13.999997,11.089851 13.999997,7.5 13.999997,3.9101492 11.089853,1 7.5,1 Z M 0,7.5 C 0,3.3578616 3.3578645,3.2558812e-6 7.5,3.2558812e-6 11.642136,3.2558812e-6 15,3.3578616 15,7.5 15,11.642138 11.642136,14.999997 7.5,14.999997 3.3578645,14.999997 0,11.642138 0,7.5 Z"
     style="fill:#e0dfdf"
     id="path890" />
</svg>
