<svg height="512pt" viewBox="0 0 512 512" width="512pt" xmlns="http://www.w3.org/2000/svg" xmlns:xlink="http://www.w3.org/1999/xlink"><linearGradient id="a" gradientUnits="userSpaceOnUse" x1="256.000068333" x2="256.000068333" y1="0" y2="512.0002366383"><stop offset="0" stop-color="#2af598"/><stop offset="1" stop-color="#009efd"/></linearGradient><path d="m211.082031 155.957031h-118.964843v-118.96875h39.988281v49.660157c14.933593-20.570313 33.542969-38.351563 55.066406-52.449219 34.160156-22.375 73.890625-34.199219 114.886719-34.199219 115.761718 0 209.941406 94.179688 209.941406 209.941406h-39.988281c0-93.710937-76.242188-169.953125-169.953125-169.953125-57.320313 0-110.433594 29.125-141.625 75.980469h50.648437zm181.949219 147.957031h50.664062c-31.175781 46.878907-84.226562 75.980469-141.636718 75.980469-93.710938 0-169.953125-76.242187-169.953125-169.953125h-39.988281c0 50.699219 18.0625 97.253906 48.089843 133.574219l-140.207031 140.207031 28.277344 28.277344 140.207031-140.207031c36.320313 30.027343 82.875 48.089843 133.574219 48.089843 67.9375 0 130.925781-32.992187 169.953125-86.675781v49.6875h39.988281v-118.96875h-118.96875zm0 0" fill="url(#a)"/></svg>