<?xml version="1.0" encoding="iso-8859-1"?>
<!-- Generator: Adobe Illustrator 19.0.0, SVG Export Plug-In . SVG Version: 6.00 Build 0)  -->
<svg version="1.1" id="Capa_1" xmlns="http://www.w3.org/2000/svg" xmlns:xlink="http://www.w3.org/1999/xlink" x="0px" y="0px"
	 viewBox="0 0 512 512" style="enable-background:new 0 0 512 512;" xml:space="preserve">
<linearGradient id="SVGID_1_" gradientUnits="userSpaceOnUse" x1="256.6213" y1="513.2164" x2="256.6213" y2="1.1723" gradientTransform="matrix(0.998 0 0 -0.998 -0.0996 512.6714)">
	<stop  offset="0" style="stop-color:#2AF598"/>
	<stop  offset="1" style="stop-color:#009EFD"/>
</linearGradient>
<path style="fill:url(#SVGID_1_);" d="M227.623,511.501h-89.817v-39.919h89.817V511.501z M373.283,471.583h-89.817v39.919h89.817
	V471.583z M80.922,471.583H60.963c-11.58,0-21-9.421-21-21.001v-19.959H0.044v19.959c0,33.592,27.328,60.92,60.919,60.92h19.959
	V471.583z M511.002,450.582v-19.959h-39.919v19.959c0,11.58-9.421,21.001-21,21.001h-19.959v39.919h19.959
	C483.675,511.501,511.002,484.173,511.002,450.582z M227.623,0.498h-89.817v39.919h89.817V0.498z M373.283,0.498h-89.817v39.919
	h89.817V0.498z M39.962,61.418c0-11.58,9.421-21.001,21-21.001h19.959V0.498H60.962c-33.592,0-60.919,27.328-60.919,60.92v19.959
	h39.919V61.418z M511.002,61.418c0-33.592-27.327-60.92-60.919-60.92h-19.959v39.919h19.959c11.58,0,21,9.421,21,21.001v19.959
	h39.919L511.002,61.418L511.002,61.418z M39.919,288.911H0v89.817h39.919V288.911z M39.919,143.252H0v89.817h39.919V143.252z
	 M512,288.911h-39.919v89.817H512V288.911z M512,143.252h-39.919v89.817H512V143.252z"/>
<g>
</g>
<g>
</g>
<g>
</g>
<g>
</g>
<g>
</g>
<g>
</g>
<g>
</g>
<g>
</g>
<g>
</g>
<g>
</g>
<g>
</g>
<g>
</g>
<g>
</g>
<g>
</g>
<g>
</g>
</svg>
