<svg height="512pt" viewBox="0 0 512 512" width="512pt" xmlns="http://www.w3.org/2000/svg" xmlns:xlink="http://www.w3.org/1999/xlink"><linearGradient id="a" gradientUnits="userSpaceOnUse" x1="256" x2="256" y1="0" y2="512"><stop offset="0" stop-color="#2af598"/><stop offset="1" stop-color="#009efd"/></linearGradient><path d="m512 144h-144v-144h144zm-104-40h64v-64h-64zm104 408h-144v-144h144zm-104-40h64v-64h-64zm104-144h-144v-144h144zm-104-40h64v-64h-64zm-264-144h-144v-144h144zm-104-40h64v-64h-64zm104 408h-144v-144h144zm-104-40h64v-64h-64zm104-144h-144v-144h144zm-104-40h64v-64h-64zm288-144h-144v-144h144zm-104-40h64v-64h-64zm104 408h-144v-144h144zm-104-40h64v-64h-64zm104-144h-144v-144h144zm-104-40h64v-64h-64zm0 0" fill="url(#a)"/></svg>