<svg id="Capa_1" enable-background="new 0 0 511.972 511.972" height="512" viewBox="0 0 511.972 511.972" width="512" xmlns="http://www.w3.org/2000/svg" xmlns:xlink="http://www.w3.org/1999/xlink"><linearGradient id="SVGID_1_" gradientUnits="userSpaceOnUse" x1="255.986" x2="255.986" y1="511.972" y2="0"><stop offset="0" stop-color="#009efd"/><stop offset="1" stop-color="#2af598"/></linearGradient><g><g><path d="m494.427 17.546c-23.395-23.395-61.459-23.395-84.854 0l-42.426 42.426-14.141-14.142-28.285 28.284 14.142 14.142-148.284 148.285c-18.825 18.825-22.189 46.464-11.735 68.304l-30.691 30.691 28.284 28.284 30.691-30.691c21.831 10.45 49.472 7.098 68.303-11.735l148.284-148.284 14.142 14.142 28.285-28.284-14.142-14.143 42.427-42.427c23.393-23.394 23.393-61.458 0-84.852zm-247.28 275.563c-7.814 7.816-20.466 7.817-28.284 0-7.816-7.817-7.817-20.467 0-28.284l28.853-28.853h56.568zm97.137-97.137h-56.568l79.431-79.431 28.284 28.284zm121.858-121.858-42.426 42.426-28.284-28.284 42.426-42.426c7.797-7.798 20.486-7.798 28.283 0 7.8 7.798 7.8 20.486.001 28.284zm-286.142 397.858c-77.196 0-140-62.804-140-140s62.804-140 140-140v-40c-99.252 0-180 80.748-180 180s80.748 180 180 180 180-80.748 180-180h-40c0 77.196-62.804 140-140 140z" fill="url(#SVGID_1_)"/></g></g></svg>