<?xml version="1.0" encoding="iso-8859-1"?>
<!-- Generator: Adobe Illustrator 19.0.0, SVG Export Plug-In . SVG Version: 6.00 Build 0)  -->
<svg version="1.1" id="Capa_1" xmlns="http://www.w3.org/2000/svg" xmlns:xlink="http://www.w3.org/1999/xlink" x="0px" y="0px"
	 viewBox="0 0 512 512" style="enable-background:new 0 0 512 512;" xml:space="preserve">
<linearGradient id="SVGID_1_" gradientUnits="userSpaceOnUse" x1="256" y1="514" x2="256" y2="2" gradientTransform="matrix(1 0 0 -1 0 514)">
	<stop  offset="0" style="stop-color:#2AF598"/>
	<stop  offset="1" style="stop-color:#009EFD"/>
</linearGradient>
<path style="fill:url(#SVGID_1_);" d="M276,431.933h-40v-209h40V431.933z M356,222.933h-40v209h40V222.933z M196,222.933h-40v209h40
	V222.933z M472,183h-40v269c0,33.084-26.916,60-60,60H140c-33.084,0-60-26.916-60-60V183H40v-50.067c0-33.084,26.916-60,60-60h61V60
	c0-33.084,26.916-60,60-60h70c33.084,0,60,26.916,60,60v12.933h61c33.084,0,60,26.916,60,60V183z M201,72.933h110V60
	c0-11.028-8.972-20-20-20h-70c-11.028,0-20,8.972-20,20V72.933z M392,183H120v269c0,11.028,8.972,20,20,20h232
	c11.028,0,20-8.972,20-20V183z M432,132.933c0-11.028-8.972-20-20-20H100c-11.028,0-20,8.972-20,20V143h352V132.933z"/>
<g>
</g>
<g>
</g>
<g>
</g>
<g>
</g>
<g>
</g>
<g>
</g>
<g>
</g>
<g>
</g>
<g>
</g>
<g>
</g>
<g>
</g>
<g>
</g>
<g>
</g>
<g>
</g>
<g>
</g>
</svg>
