<?xml version="1.0" encoding="iso-8859-1"?>
<!-- Generator: Adobe Illustrator 19.0.0, SVG Export Plug-In . SVG Version: 6.00 Build 0)  -->
<svg version="1.1" id="Capa_1" xmlns="http://www.w3.org/2000/svg" xmlns:xlink="http://www.w3.org/1999/xlink" x="0px" y="0px"
	 viewBox="0 0 512 512" style="enable-background:new 0 0 512 512;" xml:space="preserve">
<linearGradient id="SVGID_1_" gradientUnits="userSpaceOnUse" x1="256.1698" y1="513.9227" x2="256.1698" y2="1.6377" gradientTransform="matrix(0.9994 0 0 -0.9994 -0.0273 513.6368)">
	<stop  offset="0" style="stop-color:#2AF598"/>
	<stop  offset="1" style="stop-color:#009EFD"/>
</linearGradient>
<path style="fill:url(#SVGID_1_);" d="M411.914,311.826l-28.268,28.269l51.829,51.828h-60.166c-26.722,0-51.912-12.743-67.594-34.14
	L250.3,256.012l57.081-101.679c15.739-21.47,40.924-34.256,67.583-34.256h60.509l-51.829,51.828l28.268,28.269l100.086-100.087
	L411.913,0l-28.268,28.269l51.829,51.828h-60.509c-39.885,0-77.536,19.377-100.718,51.831c-0.421,0.59-0.81,1.201-1.164,1.834
	l-45.762,81.516l-46.007-81.553c-0.35-0.619-0.731-1.218-1.144-1.797c-23.182-32.455-60.833-51.83-100.716-51.83H0v39.978h79.452
	c26.665,0,51.855,12.792,67.593,34.272l57.38,101.712l-57.041,101.607c-15.74,21.471-40.924,34.257-67.583,34.257H0v39.978h79.803
	c39.884,0,77.535-19.376,100.717-51.831c0.421-0.59,0.811-1.201,1.165-1.834l45.722-81.444l46.041,81.614
	c0.35,0.619,0.731,1.218,1.144,1.797c23.123,32.372,60.775,51.699,100.717,51.699h60.166l-51.829,51.827L411.914,512L512,411.913
	L411.914,311.826z"/>
<g>
</g>
<g>
</g>
<g>
</g>
<g>
</g>
<g>
</g>
<g>
</g>
<g>
</g>
<g>
</g>
<g>
</g>
<g>
</g>
<g>
</g>
<g>
</g>
<g>
</g>
<g>
</g>
<g>
</g>
</svg>
