<svg width="512" height="512" xmlns="http://www.w3.org/2000/svg" version="1.1" xml:space="preserve">
 <defs>
  <linearGradient id="SVGID_1_" x1="0.49999" y1="0.00002" x2="0.49999" y2="1">
   <stop offset="0" stop-color="#2AF598"/>
   <stop offset="1" stop-color="#009EFD"/>
  </linearGradient>
  <linearGradient y2="0" x2="0.51173" y1="1" x1="0.4883" id="svg_19">
   <stop offset="0" stop-opacity="0.99219" stop-color="#0fe7ff"/>
   <stop offset="1" stop-opacity="0.99219" stop-color="#2de5a2"/>
   <stop offset="NaN" stop-opacity="0" stop-color="0"/>
   <stop offset="NaN" stop-opacity="0" stop-color="0"/>
  </linearGradient>
 </defs>
 <g>
  <title>Layer 1</title>
  <path d="m302.058,0c-115.762,0 -209.942,94.18 -209.942,209.942c0,50.697 18.064,97.253 48.092,133.574l-140.208,140.208l28.276,28.276l140.208,-140.208c36.321,30.028 82.877,48.092 133.574,48.092c115.762,0 209.942,-94.18 209.942,-209.942s-94.179,-209.942 -209.942,-209.942zm0,379.895c-93.712,0 -169.953,-76.241 -169.953,-169.953s76.241,-169.953 169.953,-169.953s169.953,76.241 169.953,169.953s-76.241,169.953 -169.953,169.953z" fill="url(#SVGID_1_)" id="svg_1"/>
  <g id="svg_2"/>
  <g id="svg_3"/>
  <g id="svg_4"/>
  <g id="svg_5"/>
  <g id="svg_6"/>
  <g id="svg_7"/>
  <g id="svg_8"/>
  <g id="svg_9"/>
  <g id="svg_10"/>
  <g id="svg_11"/>
  <g id="svg_12"/>
  <g id="svg_13"/>
  <g id="svg_14"/>
  <g id="svg_15"/>
  <g id="svg_16"/>
  <path id="svg_17" d="m365.22026,180.12751l0,-28.87098l-0.008,0c-0.01132,-35.6328 -28.89047,-64.50379 -64.51885,-64.50379s-64.52326,28.88647 -64.52326,64.51925l0,0l0,28.85552l-23.33374,0l0,123.94021l175.71,0l0,-123.94021l-23.32614,0zm-108.66508,-28.85552c0,0 0,0 0,0c0,-24.34801 19.80168,-44.15012 44.13824,-44.15012c24.35209,0 44.15375,19.80211 44.15375,44.13466c0,0 0,0 0,0l0,28.87098l-88.29199,0l0,-28.85552z" fill="url(#svg_19)"/>
 </g>
</svg>