<?xml version="1.0" encoding="iso-8859-1"?>
<!-- Generator: Adobe Illustrator 19.0.0, SVG Export Plug-In . SVG Version: 6.00 Build 0)  -->
<svg version="1.1" id="Capa_1" xmlns="http://www.w3.org/2000/svg" xmlns:xlink="http://www.w3.org/1999/xlink" x="0px" y="0px"
	 viewBox="0 0 512 512" style="enable-background:new 0 0 512 512;" xml:space="preserve">
<linearGradient id="SVGID_1_" gradientUnits="userSpaceOnUse" x1="256" y1="514" x2="256" y2="2" gradientTransform="matrix(1 0 0 -1 0 514)">
	<stop  offset="0" style="stop-color:#2AF598"/>
	<stop  offset="1" style="stop-color:#009EFD"/>
</linearGradient>
<path style="fill:url(#SVGID_1_);" d="M400,188h-36.037v-82.23c0-58.322-48.449-105.77-108-105.77s-108,47.448-108,105.77V188H112
	c-33.084,0-60,26.916-60,60v204c0,33.084,26.916,60,60,60h288c33.084,0,60-26.916,60-60V248C460,214.916,433.084,188,400,188z
	 M187.963,105.77c0-36.266,30.505-65.77,68-65.77s68,29.504,68,65.77V188h-136L187.963,105.77L187.963,105.77z M420,452
	c0,11.028-8.972,20-20,20H112c-11.028,0-20-8.972-20-20V248c0-11.028,8.972-20,20-20h288c11.028,0,20,8.972,20,20V452z M293,323
	L293,323c0,13.08-6.793,24.565-17.037,31.145V398c0,11.045-8.955,20-20,20c-11.046,0-20-8.955-20-20v-43.902
	C225.76,347.51,219,336.048,219,323l0,0c0-20.435,16.565-37,37-37l0,0C276.435,286,293,302.565,293,323z"/>
<g>
</g>
<g>
</g>
<g>
</g>
<g>
</g>
<g>
</g>
<g>
</g>
<g>
</g>
<g>
</g>
<g>
</g>
<g>
</g>
<g>
</g>
<g>
</g>
<g>
</g>
<g>
</g>
<g>
</g>
</svg>
