<?xml version="1.0" encoding="iso-8859-1"?>
<!-- Generator: Adobe Illustrator 19.0.0, SVG Export Plug-In . SVG Version: 6.00 Build 0)  -->
<svg version="1.1" id="Capa_1" xmlns="http://www.w3.org/2000/svg" xmlns:xlink="http://www.w3.org/1999/xlink" x="0px" y="0px"
	 viewBox="0 0 512 512" style="enable-background:new 0 0 512 512;" xml:space="preserve">
<linearGradient id="SVGID_1_" gradientUnits="userSpaceOnUse" x1="256" y1="514" x2="256" y2="2" gradientTransform="matrix(1 0 0 -1 0 514)">
	<stop  offset="0" style="stop-color:#2AF598"/>
	<stop  offset="1" style="stop-color:#009EFD"/>
</linearGradient>
<path style="fill:url(#SVGID_1_);" d="M59,315c-32.533,0-59-26.467-59-59s26.467-59,59-59s59,26.467,59,59S91.533,315,59,315z
	 M59,237c-10.477,0-19,8.523-19,19c0,10.477,8.523,19,19,19s19-8.523,19-19S69.477,237,59,237z M59,512c-32.533,0-59-26.467-59-59
	s26.467-59,59-59s59,26.467,59,59S91.533,512,59,512z M59,434c-10.477,0-19,8.523-19,19s8.523,19,19,19s19-8.523,19-19
	S69.477,434,59,434z M59,118C26.467,118,0,91.533,0,59S26.467,0,59,0s59,26.467,59,59S91.533,118,59,118z M59,40
	c-10.477,0-19,8.523-19,19s8.523,19,19,19s19-8.523,19-19S69.477,40,59,40z M512,236H162v40h350V236z M512,39H162v40h350V39z
	 M512,433H162v40h350V433z"/>
<g>
</g>
<g>
</g>
<g>
</g>
<g>
</g>
<g>
</g>
<g>
</g>
<g>
</g>
<g>
</g>
<g>
</g>
<g>
</g>
<g>
</g>
<g>
</g>
<g>
</g>
<g>
</g>
<g>
</g>
</svg>
