<svg width="512" height="512" xmlns="http://www.w3.org/2000/svg" xml:space="preserve" version="1.1">
 <defs>
  <linearGradient y2="1" x2="0.49999" y1="0.00002" x1="0.49999" id="SVGID_1_">
   <stop stop-color="#2AF598" offset="0"/>
   <stop stop-color="#009EFD" offset="1"/>
  </linearGradient>
  <linearGradient y2="1" x2="0.49999" y1="0.00002" x1="0.49999" id="svg_33">
   <stop stop-color="#009EFD" offset="0"/>
   <stop offset="1" stop-opacity="0.99219" stop-color="#00e5ff"/>
   <stop stop-color="rgba(255,255,255,0)" offset="1"/>
   <stop offset="NaN" stop-opacity="0" stop-color="0"/>
  </linearGradient>
  <linearGradient y2="1" x2="0.49999" y1="0.00002" x1="0.49999" id="svg_34">
   <stop stop-color="#2AF598" offset="0"/>
   <stop stop-opacity="0.99609" stop-color="#19e8e4" offset="1"/>
  </linearGradient>
 </defs>
 <g>
  <title>Layer 1</title>
  <path id="svg_1" fill="url(#SVGID_1_)" d="m302.058,0c-115.762,0 -209.942,94.18 -209.942,209.942c0,50.697 18.064,97.253 48.092,133.574l-140.208,140.208l28.276,28.276l140.208,-140.208c36.321,30.028 82.877,48.092 133.574,48.092c115.762,0 209.942,-94.18 209.942,-209.942s-94.179,-209.942 -209.942,-209.942zm0,379.895c-93.712,0 -169.953,-76.241 -169.953,-169.953s76.241,-169.953 169.953,-169.953s169.953,76.241 169.953,169.953s-76.241,169.953 -169.953,169.953z"/>
  <g id="svg_2"/>
  <g id="svg_3"/>
  <g id="svg_4"/>
  <g id="svg_5"/>
  <g id="svg_6"/>
  <g id="svg_7"/>
  <g id="svg_8"/>
  <g id="svg_9"/>
  <g id="svg_10"/>
  <g id="svg_11"/>
  <g id="svg_12"/>
  <g id="svg_13"/>
  <g id="svg_14"/>
  <g id="svg_15"/>
  <g id="svg_16"/>
  <path id="svg_24" d="m248.91665,195.22085l51.49999,-90.12498l51.49999,90.12498l-102.99998,0z" fill="url(#svg_34)"/>
  <path transform="rotate(-180 302 282.672)" stroke="null" id="svg_25" d="m250.50002,327.73402l51.49999,-90.12498l51.49999,90.12498l-102.99998,0z" fill="url(#svg_33)"/>
 </g>
</svg>