<svg height="511.999pt" viewBox="1 1 511.999 511.999" width="511.999pt" xmlns="http://www.w3.org/2000/svg" xmlns:xlink="http://www.w3.org/1999/xlink"><linearGradient id="a" gradientUnits="userSpaceOnUse" x1="255.9998561073" x2="255.9998561073" y1="0" y2="511.9997122146"><stop offset="0" stop-color="#2af598"/><stop offset="1" stop-color="#009efd"/></linearGradient><path d="m302.058594 0c-115.761719 0-209.941406 94.179688-209.941406 209.941406 0 50.695313 18.0625 97.253906 48.089843 133.574219l-140.207031 140.207031 28.277344 28.277344 140.207031-140.210938c36.320313 30.027344 82.878906 48.09375 133.574219 48.09375 115.761718 0 209.941406-94.179687 209.941406-209.941406 0-115.761718-94.179688-209.941406-209.941406-209.941406zm0 379.894531c-93.710938 0-169.953125-76.242187-169.953125-169.953125 0-93.710937 76.242187-169.953125 169.953125-169.953125 93.710937 0 169.953125 76.242188 169.953125 169.953125 0 93.710938-76.242188 169.953125-169.953125 169.953125zm142.835937-170-58.679687 58.757813v-39.714844h-65.160156v65.167969h39.332031l-58.71875 58.796875-58.714844-58.796875h38.113281v-65.167969h-63.289062v39.914062l-58.679688-58.757812 58.679688-58.757812v37.609374h63.289062v-63.167968h-38.113281l58.714844-58.796875 58.71875 58.796875h-39.335938v63.167968h65.164063v-37.804687zm0 0" fill="url(#a)"/></svg>