<?xml version="1.0" encoding="iso-8859-1"?>
<!-- Generator: Adobe Illustrator 19.0.0, SVG Export Plug-In . SVG Version: 6.00 Build 0)  -->
<svg version="1.1" id="Capa_1" xmlns="http://www.w3.org/2000/svg" xmlns:xlink="http://www.w3.org/1999/xlink" x="0px" y="0px"
	 viewBox="0 0 512 512" style="enable-background:new 0 0 512 512;" xml:space="preserve">
<linearGradient id="SVGID_1_" gradientUnits="userSpaceOnUse" x1="256" y1="514" x2="256" y2="2" gradientTransform="matrix(1 0 0 -1 0 514)">
	<stop  offset="0" style="stop-color:#2AF598"/>
	<stop  offset="1" style="stop-color:#009EFD"/>
</linearGradient>
<path style="fill:url(#SVGID_1_);" d="M289.74,512h-67.48l-18.14-68.196c-15.397-4.252-30.188-10.407-44.19-18.39L99.356,460.29
	L51.71,412.643l34.876-60.573c-7.982-14.004-14.137-28.794-18.389-44.192L0,289.739V222.26l68.196-18.14
	c4.251-15.397,10.405-30.187,18.389-44.192L51.709,99.355l47.646-47.647l60.574,34.876c14.002-7.981,28.794-14.137,44.191-18.389
	L222.26,0h67.48l18.139,68.196c15.397,4.252,30.189,10.407,44.191,18.389l60.574-34.876l47.646,47.647l-34.876,60.574
	c7.983,14.005,14.138,28.794,18.389,44.192L512,222.261v67.479l-68.196,18.14c-4.252,15.398-10.406,30.188-18.389,44.192
	l34.876,60.573l-47.646,47.647l-60.574-34.876c-14.003,7.983-28.793,14.137-44.19,18.39L289.74,512z M253.012,472h5.977
	l16.469-61.914l12.098-2.505c18.907-3.914,36.817-11.363,53.232-22.141l10.289-6.755l54.961,31.645l4.293-4.293l-31.644-54.96
	l6.755-10.289c10.777-16.415,18.227-34.325,22.14-53.232l2.504-12.098L472,258.988v-5.977l-61.915-16.469l-2.504-12.099
	c-3.912-18.905-11.361-36.815-22.14-53.231l-6.755-10.289l31.644-54.961l-4.293-4.293l-54.962,31.645l-10.29-6.756
	c-16.413-10.776-34.322-18.225-53.229-22.139l-12.099-2.504L258.988,40h-5.977l-16.469,61.915l-12.099,2.504
	c-18.907,3.914-36.816,11.363-53.229,22.139l-10.29,6.756l-54.962-31.645l-4.293,4.293l31.644,54.961l-6.755,10.289
	c-10.778,16.417-18.228,34.326-22.14,53.231l-2.504,12.099L40,253.012v5.977l61.915,16.468l2.504,12.098
	c3.913,18.907,11.362,36.817,22.14,53.232l6.755,10.289l-31.644,54.96l4.293,4.293l54.961-31.645l10.289,6.755
	c16.415,10.777,34.325,18.227,53.232,22.141l12.098,2.505L253.012,472z M492,274.364h0.01H492z M256,372
	c-63.963,0-116-52.038-116-116s52.037-116,116-116s116,52.038,116,116S319.963,372,256,372z M256,180c-41.906,0-76,34.093-76,76
	s34.094,76,76,76s76-34.093,76-76S297.906,180,256,180z"/>
<g>
</g>
<g>
</g>
<g>
</g>
<g>
</g>
<g>
</g>
<g>
</g>
<g>
</g>
<g>
</g>
<g>
</g>
<g>
</g>
<g>
</g>
<g>
</g>
<g>
</g>
<g>
</g>
<g>
</g>
</svg>
