<svg height="512pt" viewBox="0 0 512 512" width="512pt" xmlns="http://www.w3.org/2000/svg" xmlns:xlink="http://www.w3.org/1999/xlink"><linearGradient id="a" gradientUnits="userSpaceOnUse" x1="256" x2="256" y1="0" y2="512"><stop offset="0" stop-color="#2af598"/><stop offset="1" stop-color="#009efd"/></linearGradient><path d="m452 0h-392c-33.085938 0-60 26.914062-60 60v273h512v-273c0-33.085938-26.914062-60-60-60zm20 293h-432v-233c0-11.027344 8.972656-20 20-20h392c11.027344 0 20 8.972656 20 20zm-472 159c0 33.085938 26.914062 60 60 60h82v-138h-142zm40-38h62v58h-42c-11.027344 0-20-8.972656-20-20zm330 98h82c33.085938 0 60-26.914062 60-60v-78h-142zm40-98h62v38c0 11.027344-8.972656 20-20 20h-42zm-224 98h141v-138h-141zm40-98h61v58h-61zm41.863281-280.832031-24.277343 35.246093-63.824219-77.335937-93.761719 132.78125v31.140625h146.507812l37.234376-54.046875 41.046874 53.046875h109.210938v-40h-89.585938zm-56.371093 81.832031h-70.269532l41.011719-58.078125 37.753906 45.746094zm127.507812-106c0-16.570312 13.433594-30 30-30s30 13.429688 30 30-13.433594 30-30 30-30-13.429688-30-30zm0 0" fill="url(#a)"/></svg>