<?xml version="1.0" encoding="iso-8859-1"?>
<!-- Generator: Adobe Illustrator 19.0.0, SVG Export Plug-In . SVG Version: 6.00 Build 0)  -->
<svg version="1.1" id="Capa_1" xmlns="http://www.w3.org/2000/svg" xmlns:xlink="http://www.w3.org/1999/xlink" x="0px" y="0px"
	 viewBox="0 0 511.999 511.999" style="enable-background:new 0 0 511.999 511.999;" xml:space="preserve">
<linearGradient id="SVGID_1_" gradientUnits="userSpaceOnUse" x1="256.0847" y1="513.9612" x2="256.0847" y2="1.8191" gradientTransform="matrix(0.9997 0 0 -0.9997 -0.0137 513.8176)">
	<stop  offset="0" style="stop-color:#2AF598"/>
	<stop  offset="1" style="stop-color:#009EFD"/>
</linearGradient>
<path style="fill:url(#SVGID_1_);" d="M302.059,0C186.297,0,92.117,94.18,92.117,209.941c0,50.697,18.064,97.253,48.092,133.573
	L0,483.723l28.277,28.276l140.208-140.208c36.321,30.028,82.877,48.092,133.573,48.092c115.762,0,209.941-94.18,209.941-209.941
	S417.82,0,302.059,0z M322.053,378.712v-78.796h-39.989v78.796c-77.763-9.155-139.621-71.013-148.776-148.776h78.795v-39.989
	h-78.795c9.155-77.763,71.013-139.62,148.775-148.776v78.796h39.989V41.171c77.763,9.155,139.621,71.013,148.776,148.775h-78.795
	v39.989h78.795C461.673,307.699,399.815,369.557,322.053,378.712z M322.053,209.941c0,11.043-8.952,19.994-19.994,19.994
	s-19.994-8.951-19.994-19.994s8.952-19.994,19.994-19.994S322.053,198.899,322.053,209.941z"/>
<g>
</g>
<g>
</g>
<g>
</g>
<g>
</g>
<g>
</g>
<g>
</g>
<g>
</g>
<g>
</g>
<g>
</g>
<g>
</g>
<g>
</g>
<g>
</g>
<g>
</g>
<g>
</g>
<g>
</g>
</svg>
