<?xml version="1.0" encoding="iso-8859-1"?>
<!-- Generator: Adobe Illustrator 19.0.0, SVG Export Plug-In . SVG Version: 6.00 Build 0)  -->
<svg version="1.1" id="Capa_1" xmlns="http://www.w3.org/2000/svg" xmlns:xlink="http://www.w3.org/1999/xlink" x="0px" y="0px"
	 viewBox="0 0 512 512" style="enable-background:new 0 0 512 512;" xml:space="preserve">
<linearGradient id="SVGID_1_" gradientUnits="userSpaceOnUse" x1="256.3383" y1="513.8458" x2="256.3383" y2="1.2778" gradientTransform="matrix(0.9989 0 0 -0.9989 -0.0543 513.2764)">
	<stop  offset="0" style="stop-color:#2AF598"/>
	<stop  offset="1" style="stop-color:#009EFD"/>
</linearGradient>
<path style="fill:url(#SVGID_1_);" d="M375.152,346.899L512,483.747L483.747,512L346.899,375.152v96.609h-39.956V306.943h164.817
	v39.956H375.152z M471.761,165.101h-96.609L512,28.253L483.747,0L346.899,136.848V40.239h-39.956v164.817h164.817V165.101z
	 M40.239,346.899h96.609L0,483.747L28.253,512l136.848-136.848v96.609h39.956V306.943H40.239
	C40.239,306.943,40.239,346.899,40.239,346.899z M165.101,136.848L28.253,0L0,28.253l136.848,136.848H40.239v39.956h164.817V40.239
	h-39.956V136.848z"/>
<g>
</g>
<g>
</g>
<g>
</g>
<g>
</g>
<g>
</g>
<g>
</g>
<g>
</g>
<g>
</g>
<g>
</g>
<g>
</g>
<g>
</g>
<g>
</g>
<g>
</g>
<g>
</g>
<g>
</g>
</svg>
