<?xml version="1.0" encoding="iso-8859-1"?>
<!-- Generator: Adobe Illustrator 19.0.0, SVG Export Plug-In . SVG Version: 6.00 Build 0)  -->
<svg version="1.1" id="Capa_1" xmlns="http://www.w3.org/2000/svg" xmlns:xlink="http://www.w3.org/1999/xlink" x="0px" y="0px"
	 viewBox="0 0 512 512" style="enable-background:new 0 0 512 512;" xml:space="preserve">
<linearGradient id="SVGID_1_" gradientUnits="userSpaceOnUse" x1="256.6213" y1="513.2169" x2="256.6213" y2="1.1739" gradientTransform="matrix(0.998 0 0 -0.998 -0.0996 512.6724)">
	<stop  offset="0" style="stop-color:#2AF598"/>
	<stop  offset="1" style="stop-color:#009EFD"/>
</linearGradient>
<path style="fill:url(#SVGID_1_);" d="M283.466,471.582h89.817v39.919h-89.817V471.582z M471.083,450.582c0,11.58-9.421,21-21,21
	h-19.959v39.919h19.959c33.592,0,60.919-27.328,60.919-60.919v-19.959h-39.919L471.083,450.582L471.083,450.582z M227.623,0.499
	h-89.817v39.919h89.817V0.499z M373.283,0.499h-89.817v39.919h89.817V0.499z M39.962,61.418c0-11.58,9.421-21,21-21h19.959V0.499
	H60.962c-33.592,0-60.919,27.328-60.919,60.919v19.959h39.919V61.418z M471.083,61.418v19.959h39.919V61.418
	c0-33.591-27.327-60.919-60.919-60.919h-19.959v39.919h19.959C461.664,40.418,471.083,49.838,471.083,61.418z M39.919,143.251H0
	v89.817h39.919V143.251z M472.081,378.728H512v-89.817h-39.919L472.081,378.728L472.081,378.728z M472.081,143.251v89.817H512
	v-89.817H472.081z M264.504,103.332h144.705v144.705h-39.919v-75.06L236.174,312.059c2.182,6.204,3.382,12.867,3.382,19.808v119.756
	c0,33.017-26.861,59.878-59.878,59.878H59.922c-33.017,0-59.878-26.861-59.878-59.878V331.867c0-33.017,26.861-59.878,59.878-59.878
	h119.756c11.418,0,22.096,3.215,31.185,8.783l131.624-137.521h-77.981v-39.919H264.504z M199.636,331.867
	c0-11.006-8.954-19.959-19.959-19.959H59.921c-11.006,0-19.959,8.954-19.959,19.959v119.756c0,11.006,8.954,19.959,19.959,19.959
	h119.756c11.006,0,19.959-8.954,19.959-19.959V331.867z"/>
<g>
</g>
<g>
</g>
<g>
</g>
<g>
</g>
<g>
</g>
<g>
</g>
<g>
</g>
<g>
</g>
<g>
</g>
<g>
</g>
<g>
</g>
<g>
</g>
<g>
</g>
<g>
</g>
<g>
</g>
</svg>
