<?xml version="1.0" encoding="iso-8859-1"?>
<!-- Generator: Adobe Illustrator 19.0.0, SVG Export Plug-In . SVG Version: 6.00 Build 0)  -->
<svg version="1.1" id="Capa_1" xmlns="http://www.w3.org/2000/svg" xmlns:xlink="http://www.w3.org/1999/xlink" x="0px" y="0px"
	 viewBox="0 0 512 512" style="enable-background:new 0 0 512 512;" xml:space="preserve">
<linearGradient id="SVGID_1_" gradientUnits="userSpaceOnUse" x1="256" y1="479" x2="256" y2="37" gradientTransform="matrix(1 0 0 -1 0 514)">
	<stop  offset="0" style="stop-color:#2AF598"/>
	<stop  offset="1" style="stop-color:#009EFD"/>
</linearGradient>
<path style="fill:url(#SVGID_1_);" d="M494.426,105.573c-11.332-11.33-26.396-17.569-42.416-17.569h-0.011L258.297,88
	c-0.014,0-0.026,0-0.04,0c-5.41,0-10.375-2.605-13.288-6.973L214.259,35H60C26.916,35,0,61.879,0,94.963v322.074
	C0,450.121,26.916,477,60,477h392c33.084,0,60-26.879,60-59.963V148C512,131.973,505.759,116.905,494.426,105.573z M40,94.963
	c0-11.028,8.972-20,20-20h132.853l18.835,28.253c1.146,1.719,2.379,3.361,3.689,4.922c-1.283,1.525-2.489,3.127-3.608,4.794
	l-19.291,28.069l-132.467,0.006h-0.012c-6.919,0-13.661,1.164-19.999,3.398L40,94.963L40,94.963z M472,417.037
	c0,11.028-8.972,20-20,20H60c-11.028,0-20-8.972-20-20V205v-3.993c0-5.343,2.081-10.365,5.859-14.144
	c3.777-3.776,8.799-5.863,14.145-5.863h0.004h153.515l31.285-45.52l0.158-0.233C247.811,130.98,253.171,128,258,128
	c0.115,0,0.231-0.001,0.346,0h193.657c5.341-0.001,10.362,2.082,14.14,5.859C469.92,137.636,472,142.658,472,148V417.037z"/>
<g>
</g>
<g>
</g>
<g>
</g>
<g>
</g>
<g>
</g>
<g>
</g>
<g>
</g>
<g>
</g>
<g>
</g>
<g>
</g>
<g>
</g>
<g>
</g>
<g>
</g>
<g>
</g>
<g>
</g>
</svg>
