<?xml version="1.0" encoding="iso-8859-1"?>
<!-- Generator: Adobe Illustrator 19.0.0, SVG Export Plug-In . SVG Version: 6.00 Build 0)  -->
<svg version="1.1" id="Capa_1" xmlns="http://www.w3.org/2000/svg" xmlns:xlink="http://www.w3.org/1999/xlink" x="0px" y="0px"
	 viewBox="0 0 512 512" style="enable-background:new 0 0 512 512;" xml:space="preserve">
<linearGradient id="SVGID_1_" gradientUnits="userSpaceOnUse" x1="256" y1="514" x2="256" y2="2" gradientTransform="matrix(1 0 0 -1 0 514)">
	<stop  offset="0" style="stop-color:#2AF598"/>
	<stop  offset="1" style="stop-color:#009EFD"/>
</linearGradient>
<path style="fill:url(#SVGID_1_);" d="M452,159h-51V0H111v159H60c-33.084,0-60,26.916-60,60v162c0,33.084,26.916,60,60,60h51v71h290
	v-71h51c33.084,0,60-26.916,60-60V219C512,185.916,485.084,159,452,159z M151,40h210v119H151V40z M60,199h392
	c11.028,0,20,8.972,20,20v80H40v-80C40,207.972,48.972,199,60,199z M60,401c-11.028,0-20-8.972-20-20v-42h71v62H60z M151,472V339
	h210v133H151z M452,401h-51v-62h71v42C472,392.028,463.028,401,452,401z M401,249c0-11.046,8.954-20,20-20s20,8.954,20,20
	c0,11.046-8.954,20-20,20S401,260.046,401,249z"/>
<g>
</g>
<g>
</g>
<g>
</g>
<g>
</g>
<g>
</g>
<g>
</g>
<g>
</g>
<g>
</g>
<g>
</g>
<g>
</g>
<g>
</g>
<g>
</g>
<g>
</g>
<g>
</g>
<g>
</g>
</svg>
