<?xml version="1.0" encoding="iso-8859-1"?>
<!-- Generator: Adobe Illustrator 19.0.0, SVG Export Plug-In . SVG Version: 6.00 Build 0)  -->
<svg version="1.1" id="Capa_1" xmlns="http://www.w3.org/2000/svg" xmlns:xlink="http://www.w3.org/1999/xlink" x="0px" y="0px"
	 viewBox="0 0 512 512" style="enable-background:new 0 0 512 512;" xml:space="preserve">
<linearGradient id="SVGID_1_" gradientUnits="userSpaceOnUse" x1="256" y1="513.8665" x2="256" y2="2.1315" gradientTransform="matrix(1 0 0 -1 0 513.999)">
	<stop  offset="0" style="stop-color:#2AF598"/>
	<stop  offset="1" style="stop-color:#009EFD"/>
</linearGradient>
<path style="fill:url(#SVGID_1_);" d="M492,256.132l20,0.002c-0.001,7.837-0.359,15.741-1.065,23.495l-39.836-3.628
	c0.598-6.554,0.9-13.239,0.901-19.87c0-119.103-96.898-215.999-216-215.999c-55.927,0-109.451,21.925-149.338,60H180v40H40v-140h40
	v70.17c17.191-16.274,36.586-30.209,57.515-41.155C173.811,10.165,214.782,0.132,256,0.132c68.38,0,132.667,26.628,181.02,74.98
	c48.352,48.352,74.98,112.64,74.98,181.02H492z M87.724,391.566l-31.145,25.101c9.048,11.226,19.114,21.762,29.92,31.315
	l26.494-29.967C103.867,409.946,95.365,401.048,87.724,391.566z M121.248,473.834c12.271,7.611,25.265,14.215,38.618,19.629
	l15.029-37.069c-11.258-4.564-22.215-10.134-32.565-16.553L121.248,473.834z M40,256.132H0c0,14.47,1.22,28.986,3.624,43.145
	l39.436-6.698C41.029,280.626,40,268.364,40,256.132z M52.219,327.942l-37.727,13.296c4.794,13.601,10.796,26.896,17.842,39.517
	l34.926-19.497C61.319,350.616,56.259,339.407,52.219,327.942z M282.614,470.51l4.873,39.702c14.343-1.761,28.612-4.76,42.412-8.914
	l-11.529-38.303C306.738,466.498,294.708,469.025,282.614,470.51z M452.322,346.346l36.335,16.727
	c6.037-13.115,10.985-26.835,14.706-40.777l-38.646-10.315C461.58,323.729,457.41,335.292,452.322,346.346z M411.13,406.434
	l28.725,27.837c10.041-10.361,19.265-21.642,27.415-33.527l-32.988-22.621C427.399,388.158,419.61,397.683,411.13,406.434z
	 M352.341,449.514l17.867,35.788c12.896-6.438,25.342-14.033,36.994-22.574l-23.648-32.261
	C373.721,437.675,363.219,444.083,352.341,449.514z M201.28,506.267c14.054,3.062,28.505,4.946,42.953,5.6l1.809-39.959
	c-12.198-0.552-24.394-2.142-36.248-4.724L201.28,506.267z"/>
<g>
</g>
<g>
</g>
<g>
</g>
<g>
</g>
<g>
</g>
<g>
</g>
<g>
</g>
<g>
</g>
<g>
</g>
<g>
</g>
<g>
</g>
<g>
</g>
<g>
</g>
<g>
</g>
<g>
</g>
</svg>
