<?xml version="1.0" encoding="iso-8859-1"?>
<!-- Generator: Adobe Illustrator 19.0.0, SVG Export Plug-In . SVG Version: 6.00 Build 0)  -->
<svg version="1.1" id="Capa_1" xmlns="http://www.w3.org/2000/svg" xmlns:xlink="http://www.w3.org/1999/xlink" x="0px" y="0px"
	 viewBox="0 0 512 512" style="enable-background:new 0 0 512 512;" xml:space="preserve">
<linearGradient id="SVGID_1_" gradientUnits="userSpaceOnUse" x1="255.3173" y1="474.8841" x2="255.3173" y2="42.8841" gradientTransform="matrix(1.0022 0 0 -1.0022 0.1099 515.4648)">
	<stop  offset="0" style="stop-color:#2AF598"/>
	<stop  offset="1" style="stop-color:#009EFD"/>
</linearGradient>
<path style="fill:url(#SVGID_1_);" d="M95.638,384.497l-27.471,29.198c-16.15-15.196-29.824-32.684-40.64-51.979l34.971-19.603
	C71.314,357.842,82.464,372.103,95.638,384.497z M103.164,440.489c18.903,11.633,39.381,20.244,60.865,25.592l9.684-38.901
	c-17.48-4.353-34.146-11.361-49.538-20.833L103.164,440.489z M217.002,432.395c-0.005,0-0.012,0-0.012,0h-0.505
	c-2.397,0-4.822-0.049-7.207-0.145l-1.609,40.059c2.92,0.116,5.886,0.176,8.821,0.176h0.497c0.008,0,0.015,0,0.022,0
	c10.298,0,20.654-0.732,30.779-2.176l-5.659-39.689C233.87,431.797,225.42,432.395,217.002,432.395z M276.965,421.942l13.63,37.701
	c10.342-3.738,20.489-8.318,30.159-13.606l-19.24-35.171C293.64,415.173,285.381,418.9,276.965,421.942z M331.117,390.502
	l25.954,30.554c8.389-7.126,16.299-14.955,23.51-23.269l-30.285-26.268C344.415,378.302,337.961,384.688,331.117,390.502z
	 M483.649,237.302l-50.679,50.687V256c0-57.824-22.518-112.189-63.407-153.078s-95.253-63.407-153.078-63.407
	S104.295,62.034,63.407,102.921S0,198.175,0,256c0,22.248,3.366,44.193,10.004,65.225l38.231-12.068
	C42.83,292.034,40.09,274.149,40.09,256c0-97.265,79.13-176.395,176.395-176.395S392.879,158.735,392.879,256v31.662l-50.989-50.864
	l-28.313,28.382l99.576,99.331L512,265.646L483.649,237.302z"/>
<g>
</g>
<g>
</g>
<g>
</g>
<g>
</g>
<g>
</g>
<g>
</g>
<g>
</g>
<g>
</g>
<g>
</g>
<g>
</g>
<g>
</g>
<g>
</g>
<g>
</g>
<g>
</g>
<g>
</g>
</svg>
