<?xml version="1.0" encoding="UTF-8" standalone="no"?>
<!-- Created with Inkscape (http://www.inkscape.org/) -->

<svg
   width="200"
   height="200"
   viewBox="0 0 256.56551 256.56551"
   version="1.1"
   id="svg5"
   inkscape:version="1.2 (dc2aedaf03, 2022-05-15)"
   sodipodi:docname="Crop.svg"
   xmlns:inkscape="http://www.inkscape.org/namespaces/inkscape"
   xmlns:sodipodi="http://sodipodi.sourceforge.net/DTD/sodipodi-0.dtd"
   xmlns="http://www.w3.org/2000/svg"
   xmlns:svg="http://www.w3.org/2000/svg">
  <sodipodi:namedview
     id="namedview7"
     pagecolor="#505050"
     bordercolor="#eeeeee"
     borderopacity="1"
     inkscape:showpageshadow="0"
     inkscape:pageopacity="0"
     inkscape:pagecheckerboard="0"
     inkscape:deskcolor="#505050"
     inkscape:document-units="mm"
     showgrid="true"
     inkscape:zoom="3.1251122"
     inkscape:cx="121.27565"
     inkscape:cy="83.197013"
     inkscape:window-width="1920"
     inkscape:window-height="1057"
     inkscape:window-x="-8"
     inkscape:window-y="-8"
     inkscape:window-maximized="1"
     inkscape:current-layer="layer1">
    <inkscape:grid
       type="xygrid"
       id="grid3790"
       originx="-47.939802"
       originy="-24.473193" />
  </sodipodi:namedview>
  <defs
     id="defs2" />
  <g
     inkscape:label="Layer 1"
     inkscape:groupmode="layer"
     id="layer1">
    <g
       aria-label="&lt;"
       transform="scale(0.66367054,1.5067717)"
       id="text380"
       style="font-size:239.191px;line-height:1.6;stroke-width:1.24579">
      <path
         d="M 224.37352,157.34037 89.595,97.425827 V 82.94356 L 224.37352,23.029019 V 44.051665 L 118.09236,90.184694 224.37352,136.31772 Z"
         id="path1060"
         style="display:none" />
    </g>
    <path
       id="rect1116"
       style="fill:#96928d;fill-opacity:1;stroke-width:0.290887"
       d="m -188.38736,16.697898 c -2.36901,2.559408 -3.83294,5.956435 -3.83788,9.592903 L -192.432,177.13226 c -0.005,3.73121 1.534,6.95856 4.00624,9.14913 2.16192,2.49732 5.37131,4.07349 9.10233,4.11143 l 150.835601,1.53373 c 7.27257,0.0739 13.65326,-5.69905 14.30845,-12.94308 l 0.25732,-2.84033 c 0.6552,-7.24404 -4.67228,-13.13561 -11.94486,-13.20955 l -137.527361,-1.39679 0.18853,-137.534323 c 0.01,-7.272941 -5.81988,-12.667978 -13.07099,-12.096325 l -2.84311,0.224562 c -3.62555,0.285826 -6.89852,2.007777 -9.26751,4.567184 z" />
    <path
       id="rect10118"
       style="fill:#96928d;stroke-width:14.4989"
       d="m 59.722206,7.5974991 c -6.343258,0 -11.449942,5.2360379 -11.449942,11.7399799 V 198.37212 c 0,3.90071 1.859693,7.31903 4.698501,9.45161 2.065721,3.03585 5.486172,5.02617 9.385828,5.02617 H 234.33391 c 6.34327,0 11.44995,-5.23603 11.44995,-11.73997 v -3.88657 c 0,-6.50395 -5.10668,-11.73999 -11.44995,-11.73999 H 74.60714 V 19.337479 c 0,-6.503942 -5.106676,-11.7399799 -11.449943,-11.7399799 z" />
    <path
       id="path10123"
       style="fill:#96928d;stroke-width:15.0615"
       d="m 209.18213,252.7402 c 6.7986,0 12.27185,-5.27189 12.27185,-11.82037 V 60.659239 c 0,-3.927425 -1.99319,-7.369153 -5.03577,-9.516326 -2.21401,-3.056645 -5.87998,-5.060591 -10.05957,-5.060591 H 22.036373 c -6.798603,0 -12.2718571,5.271893 -12.2718571,11.820364 v 3.913187 c 0,6.548479 5.4732541,11.820372 12.2718571,11.820372 H 193.22872 V 240.91983 c 0,6.54848 5.47325,11.82037 12.27184,11.82037 z" />
    <path
       id="rect10145"
       style="fill:#96928d;stroke-width:19.3651"
       d="M 161.13664 173.71588 C 158.81794 171.39719 155.60914 169.96686 152.05571 169.96686 L 59.517131 169.9676 L 58.415683 202.03805 L 152.05752 202.03744 C 159.16438 202.03744 164.8851 196.31675 164.8851 189.20989 L 164.88511 182.79612 C 164.88511 179.24269 163.45535 176.03459 161.13664 173.71588 z M 33.846005 169.96656 L -4.4912165 169.96661 L -5.5926649 202.03706 L 32.744557 202.03702 L 33.846005 169.96656 z M -30.164027 169.96743 L -78.850935 169.96706 C -85.957787 169.96706 -91.680193 175.68961 -91.680193 182.79646 L -91.680202 189.21024 C -91.680202 196.31709 -85.959513 202.03781 -78.852662 202.03781 L -31.261936 202.03771 L -30.164027 169.96743 z "
       transform="rotate(-42.245158)" />
  </g>
</svg>
