<?xml version="1.0" encoding="UTF-8" standalone="no"?>
<!-- Created with Inkscape (http://www.inkscape.org/) -->

<svg
   width="200"
   height="200"
   viewBox="0 0 256.56551 256.56551"
   version="1.1"
   id="svg5"
   inkscape:version="1.2 (dc2aedaf03, 2022-05-15)"
   sodipodi:docname="Delete.svg"
   xmlns:inkscape="http://www.inkscape.org/namespaces/inkscape"
   xmlns:sodipodi="http://sodipodi.sourceforge.net/DTD/sodipodi-0.dtd"
   xmlns="http://www.w3.org/2000/svg"
   xmlns:svg="http://www.w3.org/2000/svg">
  <sodipodi:namedview
     id="namedview7"
     pagecolor="#505050"
     bordercolor="#eeeeee"
     borderopacity="1"
     inkscape:showpageshadow="0"
     inkscape:pageopacity="0"
     inkscape:pagecheckerboard="0"
     inkscape:deskcolor="#505050"
     inkscape:document-units="mm"
     showgrid="true"
     inkscape:zoom="1.104894"
     inkscape:cx="14.028495"
     inkscape:cy="133.9495"
     inkscape:window-width="1920"
     inkscape:window-height="1057"
     inkscape:window-x="-8"
     inkscape:window-y="-8"
     inkscape:window-maximized="1"
     inkscape:current-layer="layer1">
    <inkscape:grid
       type="xygrid"
       id="grid3790"
       originx="-47.939802"
       originy="-24.473193" />
  </sodipodi:namedview>
  <defs
     id="defs2" />
  <g
     inkscape:label="Layer 1"
     inkscape:groupmode="layer"
     id="layer1">
    <g
       aria-label="&lt;"
       transform="scale(0.66367054,1.5067717)"
       id="text380"
       style="font-size:239.191px;line-height:1.6;stroke-width:1.24579">
      <path
         d="M 224.37352,157.34037 89.595,97.425827 V 82.94356 L 224.37352,23.029019 V 44.051665 L 118.09236,90.184694 224.37352,136.31772 Z"
         id="path1060"
         style="display:none" />
    </g>
    <rect
       style="fill:#96928d;fill-opacity:1;stroke-width:0.292791"
       id="rect2328"
       width="178.84595"
       height="29.110445"
       x="61.571777"
       y="19.364969"
       ry="14.555107"
       rx="13.70979"
       transform="matrix(0.10653772,0.99430866,0.99960685,-0.02803846,0,0)" />
    <rect
       style="fill:#96928d;fill-opacity:1;stroke:none;stroke-width:30.1041;stroke-linecap:round;stroke-linejoin:round"
       id="rect14231"
       width="237.32309"
       height="57.727238"
       x="9.7874374"
       y="20.42577"
       rx="13.128078"
       ry="12.828276" />
    <path
       id="rect15696"
       style="fill:#96928d;fill-opacity:1;stroke-width:0.292896"
       d="m 214.80349,60.230256 c -7.37159,-0.201925 -13.9452,5.457235 -14.73854,12.687966 l -15.35327,139.930948 -123.61114,1e-5 c -7.373757,0 -13.310913,5.72141 -13.310914,12.82827 0,7.10685 5.937157,12.82824 13.310914,12.82828 l 137.26255,7.5e-4 c 10.26262,-1.28283 12.82827,-7.69697 14.75115,-14.81591 l 16.4532,-149.965569 c 0.79335,-7.230732 -4.50155,-13.212644 -11.87314,-13.414568 z"
       sodipodi:nodetypes="cccsssccccc" />
    <rect
       style="fill:#96928d;fill-opacity:1;stroke:none;stroke-width:10.4388;stroke-linecap:round;stroke-linejoin:round;stroke-dasharray:none"
       id="rect15721"
       width="85.588654"
       height="19.242411"
       x="88.366112"
       y="128.75092"
       rx="13.128079"
       ry="12.828276"
       transform="rotate(81.522199)" />
    <rect
       style="fill:#96928d;fill-opacity:1;stroke:none;stroke-width:10.4377;stroke-linecap:round;stroke-linejoin:round"
       id="rect15723"
       width="85.588654"
       height="19.242413"
       x="105.91422"
       y="63.108631"
       rx="13.128079"
       ry="12.828276"
       transform="rotate(90)" />
    <rect
       style="fill:#96928d;fill-opacity:1;stroke:none;stroke-width:10.4377;stroke-linecap:round;stroke-linejoin:round"
       id="rect15725"
       width="85.588654"
       height="19.24242"
       x="110.47341"
       y="-1.1049862"
       rx="13.128079"
       ry="12.828277"
       transform="rotate(98.772582)" />
    <rect
       style="fill:#96928d;fill-opacity:1;stroke-width:0.166444"
       id="rect17263"
       width="101.66938"
       height="16.54855"
       x="100.43213"
       y="60.537361"
       ry="14.555107"
       rx="13.70979"
       transform="matrix(0.10653772,0.99430866,0.99960685,-0.02803846,0,0)" />
    <rect
       style="fill:#96928d;fill-opacity:1;stroke-width:0.166444"
       id="rect17265"
       width="101.66938"
       height="16.54855"
       x="93.206741"
       y="-195.69157"
       ry="14.555107"
       rx="13.70979"
       transform="matrix(-0.10653772,0.99430866,-0.99960685,-0.02803846,0,0)" />
    <rect
       style="fill:#96928d;fill-opacity:1;stroke-width:0.166444"
       id="rect17267"
       width="101.66938"
       height="16.54855"
       x="107.93233"
       y="-138.43277"
       ry="14.555107"
       rx="13.70979"
       transform="matrix(4.4558387e-4,0.9999999,-0.99686977,0.07906114,0,0)" />
  </g>
</svg>
