<?xml version="1.0" encoding="UTF-8" standalone="no"?>
<!-- Created with Inkscape (http://www.inkscape.org/) -->

<svg
   width="200"
   height="200"
   viewBox="0 0 256.56551 256.56551"
   version="1.1"
   id="svg5"
   inkscape:version="1.2 (dc2aedaf03, 2022-05-15)"
   sodipodi:docname="Convert.svg"
   xmlns:inkscape="http://www.inkscape.org/namespaces/inkscape"
   xmlns:sodipodi="http://sodipodi.sourceforge.net/DTD/sodipodi-0.dtd"
   xmlns="http://www.w3.org/2000/svg"
   xmlns:svg="http://www.w3.org/2000/svg">
  <sodipodi:namedview
     id="namedview7"
     pagecolor="#505050"
     bordercolor="#eeeeee"
     borderopacity="1"
     inkscape:showpageshadow="0"
     inkscape:pageopacity="0"
     inkscape:pagecheckerboard="0"
     inkscape:deskcolor="#505050"
     inkscape:document-units="mm"
     showgrid="true"
     inkscape:zoom="3.1251122"
     inkscape:cx="24.319127"
     inkscape:cy="119.6757"
     inkscape:window-width="1920"
     inkscape:window-height="1057"
     inkscape:window-x="-8"
     inkscape:window-y="-8"
     inkscape:window-maximized="1"
     inkscape:current-layer="layer1">
    <inkscape:grid
       type="xygrid"
       id="grid3790"
       originx="-47.939802"
       originy="-24.473193" />
  </sodipodi:namedview>
  <defs
     id="defs2" />
  <g
     inkscape:label="Layer 1"
     inkscape:groupmode="layer"
     id="layer1">
    <g
       aria-label="&lt;"
       transform="scale(0.66367054,1.5067717)"
       id="text380"
       style="font-size:239.191px;line-height:1.6;display:inline;stroke-width:1.24579">
      <path
         d="M 224.37352,157.34037 89.595,97.425827 V 82.94356 L 224.37352,23.029019 V 44.051665 L 118.09236,90.184694 224.37352,136.31772 Z"
         id="path1060"
         style="display:none" />
    </g>
    <rect
       style="display:none;fill:#3b3937;fill-opacity:1;stroke-width:5.27141;stroke-linecap:round;stroke-linejoin:round;stroke-dasharray:none"
       id="rect41935"
       width="163.56052"
       height="163.56052"
       x="0.16623311"
       y="92.584816"
       rx="62.217148"
       ry="62.217148" />
    <rect
       style="fill:#96928d;fill-opacity:1;stroke:#96928d;stroke-width:6.95549;stroke-linecap:round;stroke-linejoin:round;stroke-dasharray:none"
       id="rect49690"
       width="121.02061"
       height="121.02061"
       x="19.832651"
       y="20.425772"
       rx="25.656553"
       ry="25.656553" />
    <rect
       style="fill:#3b3937;fill-opacity:1;stroke:#96928d;stroke-width:6.95549;stroke-linecap:round;stroke-linejoin:round;stroke-dasharray:none"
       id="rect54465"
       width="121.02061"
       height="121.02061"
       x="116.04472"
       y="117.48585"
       rx="25.656553"
       ry="25.656553" />
    <path
       id="rect1116"
       style="fill:#96928d;fill-opacity:1;stroke-width:0.0733309"
       d="m 157.32913,22.26443 c -0.59348,0.64865 -0.95759,1.50714 -0.95355,2.42385 l 0.16704,38.02584 c 0.004,0.9406 0.39681,1.75194 1.02322,2.30058 0.54862,0.626396 1.35997,1.019066 2.30058,1.023206 l 38.02627,0.16748 c 1.83344,0.008 3.43356,-1.456496 3.58819,-3.283586 l 0.0608,-0.7164 c 0.15464,-1.8271 -1.19691,-3.30456 -3.03037,-3.31263 l -34.67121,-0.1523 -0.15229,-34.67121 c -0.008,-1.83345 -1.48554,-3.18501 -3.31264,-3.03037 l -0.71639,0.0607 c -0.91355,0.0773 -1.73612,0.51616 -2.3296,1.1648 z" />
    <path
       style="font-variation-settings:normal;fill:none;fill-opacity:1;fill-rule:evenodd;stroke:#96928d;stroke-width:7.31859;stroke-linecap:round;stroke-linejoin:round;stroke-miterlimit:4;stroke-dasharray:none;stroke-dashoffset:0;stroke-opacity:1;stop-color:#000000"
       id="path11445"
       sodipodi:type="arc"
       sodipodi:cx="92.239105"
       sodipodi:cy="193.71222"
       sodipodi:rx="36.302864"
       sodipodi:ry="36.302872"
       sodipodi:start="4.7769662"
       sodipodi:end="1.4740952"
       sodipodi:arc-type="arc"
       d="m 94.581814,157.48502 a 36.302864,36.302872 0 0 1 33.955476,35.64413 36.302864,36.302872 0 0 1 -32.793126,36.71634"
       transform="rotate(-45)"
       sodipodi:open="true" />
    <path
       id="path55023"
       style="fill:#96928d;fill-opacity:1;stroke-width:0.0733309"
       d="m 101.25199,241.47887 c 0.59349,-0.64865 0.95759,-1.50714 0.95355,-2.42385 l -0.16703,-38.02584 c -0.004,-0.9406 -0.39682,-1.75194 -1.02323,-2.30058 -0.54862,-0.6264 -1.359972,-1.01907 -2.300572,-1.02321 l -38.026283,-0.16748 c -1.83344,-0.008 -3.43356,1.4565 -3.58819,3.28359 l -0.0608,0.7164 c -0.15464,1.8271 1.19692,3.30456 3.03037,3.31263 l 34.67121,0.1523 0.1523,34.67121 c 0.008,1.83345 1.485533,3.18501 3.312633,3.03037 l 0.71639,-0.0607 c 0.91355,-0.0773 1.736132,-0.51616 2.329612,-1.1648 z" />
    <path
       style="font-variation-settings:normal;fill:none;fill-opacity:1;fill-rule:evenodd;stroke:#96928d;stroke-width:7.31859;stroke-linecap:round;stroke-linejoin:round;stroke-miterlimit:4;stroke-dasharray:none;stroke-dashoffset:0;stroke-opacity:1;stop-color:#000000"
       id="path55025"
       sodipodi:type="arc"
       sodipodi:cx="95.889336"
       sodipodi:cy="-175.62694"
       sodipodi:rx="36.302864"
       sodipodi:ry="36.302872"
       sodipodi:start="4.7769662"
       sodipodi:end="1.4740952"
       sodipodi:arc-type="arc"
       d="m 98.232045,-211.85414 a 36.302864,36.302872 0 0 1 33.955475,35.64413 36.302864,36.302872 0 0 1 -32.793125,36.71634"
       transform="rotate(135)"
       sodipodi:open="true" />
  </g>
</svg>
