<?xml version="1.0" encoding="UTF-8" standalone="no"?>
<!-- Created with Inkscape (http://www.inkscape.org/) -->

<svg
   width="200"
   height="200"
   viewBox="0 0 256.56551 256.56551"
   version="1.1"
   id="svg5"
   inkscape:version="1.2 (dc2aedaf03, 2022-05-15)"
   sodipodi:docname="FlipHorz.svg"
   xmlns:inkscape="http://www.inkscape.org/namespaces/inkscape"
   xmlns:sodipodi="http://sodipodi.sourceforge.net/DTD/sodipodi-0.dtd"
   xmlns="http://www.w3.org/2000/svg"
   xmlns:svg="http://www.w3.org/2000/svg">
  <sodipodi:namedview
     id="namedview7"
     pagecolor="#505050"
     bordercolor="#eeeeee"
     borderopacity="1"
     inkscape:showpageshadow="0"
     inkscape:pageopacity="0"
     inkscape:pagecheckerboard="0"
     inkscape:deskcolor="#505050"
     inkscape:document-units="mm"
     showgrid="true"
     inkscape:zoom="3.1251122"
     inkscape:cx="125.75548"
     inkscape:cy="90.23676"
     inkscape:window-width="1920"
     inkscape:window-height="1057"
     inkscape:window-x="-8"
     inkscape:window-y="-8"
     inkscape:window-maximized="1"
     inkscape:current-layer="layer1">
    <inkscape:grid
       type="xygrid"
       id="grid3790"
       originx="-47.939802"
       originy="-24.473193" />
  </sodipodi:namedview>
  <defs
     id="defs2" />
  <g
     inkscape:label="Layer 1"
     inkscape:groupmode="layer"
     id="layer1">
    <g
       aria-label="&lt;"
       transform="scale(0.66367054,1.5067717)"
       id="text380"
       style="font-size:239.191px;line-height:1.6;stroke-width:1.24579">
      <path
         d="M 224.37352,157.34037 89.595,97.425827 V 82.94356 L 224.37352,23.029019 V 44.051665 L 118.09236,90.184694 224.37352,136.31772 Z"
         id="path1060"
         style="display:none" />
    </g>
    <path
       id="rect1116"
       style="fill:#96928d;fill-opacity:1;stroke-width:0.290887"
       d="m -46.426464,-3.4831738 c -3.484082,0.1547167 -6.913358,1.5414128 -9.473385,4.1240846 L -158.16275,103.8058 l 40.85004,0.008 83.659399,-84.398525 c 5.120049,-5.16534 4.766903,-13.100589 -0.791748,-17.7917134 l -2.179806,-1.83906033 C -39.404183,-2.5615345 -42.942398,-3.6379035 -46.426464,-3.4831738 Z M -155.73991,132.82226 -55.899848,233.54677 c 5.120048,5.16534 13.716336,5.54551 19.274983,0.85438 l 2.179811,-1.83905 c 5.558648,-4.69112 5.911801,-12.62636 0.791739,-17.79172 l -81.224025,-81.9406 z" />
    <path
       id="path9636"
       style="fill:#96928d;stroke-width:23.7704"
       inkscape:transform-center-x="2.0551329e-06"
       inkscape:transform-center-y="-33.009653"
       d="M 244.94842,202.41052 C 244.14223,176.11901 212.35777,118.44065 203.21874,102.6114 195.75179,89.678282 171.66682,49.789211 150.89847,28.037133 V 230.89509 c 32.55391,-1.15963 84.22353,-5.292 92.34101,-19.3519 1.30558,-2.26132 1.82411,-5.37674 1.70894,-9.13267 z M 106.88562,28.033702 C 86.116508,49.78497 62.032704,89.677581 54.565344,102.6114 c -10.4446,18.09058 -50.4687798,90.8412 -40.02418,108.93179 8.11755,14.06002 59.790604,18.19231 92.344456,19.3519 z" />
  </g>
</svg>
