<?xml version="1.0" encoding="UTF-8" standalone="no"?>
<!-- Created with Inkscape (http://www.inkscape.org/) -->

<svg
   width="200"
   height="200"
   viewBox="0 0 256.56551 256.56551"
   version="1.1"
   id="svg5"
   inkscape:version="1.2 (dc2aedaf03, 2022-05-15)"
   sodipodi:docname="FlipVert.svg"
   xmlns:inkscape="http://www.inkscape.org/namespaces/inkscape"
   xmlns:sodipodi="http://sodipodi.sourceforge.net/DTD/sodipodi-0.dtd"
   xmlns="http://www.w3.org/2000/svg"
   xmlns:svg="http://www.w3.org/2000/svg">
  <sodipodi:namedview
     id="namedview7"
     pagecolor="#505050"
     bordercolor="#eeeeee"
     borderopacity="1"
     inkscape:showpageshadow="0"
     inkscape:pageopacity="0"
     inkscape:pagecheckerboard="0"
     inkscape:deskcolor="#505050"
     inkscape:document-units="mm"
     showgrid="true"
     inkscape:zoom="3.1251122"
     inkscape:cx="125.75548"
     inkscape:cy="89.916772"
     inkscape:window-width="1920"
     inkscape:window-height="1057"
     inkscape:window-x="-8"
     inkscape:window-y="-8"
     inkscape:window-maximized="1"
     inkscape:current-layer="layer1">
    <inkscape:grid
       type="xygrid"
       id="grid3790"
       originx="-47.939802"
       originy="-24.473193" />
  </sodipodi:namedview>
  <defs
     id="defs2" />
  <g
     inkscape:label="Layer 1"
     inkscape:groupmode="layer"
     id="layer1">
    <g
       aria-label="&lt;"
       transform="scale(0.66367054,1.5067717)"
       id="text380"
       style="font-size:239.191px;line-height:1.6;stroke-width:1.24579">
      <path
         d="M 224.37352,157.34037 89.595,97.425827 V 82.94356 L 224.37352,23.029019 V 44.051665 L 118.09236,90.184694 224.37352,136.31772 Z"
         id="path1060"
         style="display:none" />
    </g>
    <path
       id="rect1116"
       style="fill:#96928d;fill-opacity:1;stroke-width:0.290887"
       d="m -46.426464,-3.4831738 c -3.484082,0.1547167 -6.913358,1.5414128 -9.473385,4.1240846 L -158.16275,103.8058 l 40.85004,0.008 83.659399,-84.398525 c 5.120049,-5.16534 4.766903,-13.100589 -0.791748,-17.7917134 l -2.179806,-1.83906033 C -39.404183,-2.5615345 -42.942398,-3.6379035 -46.426464,-3.4831738 Z M -155.73991,132.82226 -55.899848,233.54677 c 5.120048,5.16534 13.716336,5.54551 19.274983,0.85438 l 2.179811,-1.83905 c 5.558648,-4.69112 5.911801,-12.62636 0.791739,-17.79172 l -81.224025,-81.9406 z" />
    <path
       id="path9636"
       style="fill:#96928d;stroke-width:23.7704"
       inkscape:transform-center-x="33.009653"
       inkscape:transform-center-y="3.6938628e-06"
       d="M 203.22789,14.027219 C 176.93638,14.83341 119.25802,46.617869 103.42877,55.7569 90.495648,63.223844 50.606577,87.308815 28.8545,108.07717 h 202.85796 c -1.15963,-32.553917 -5.292,-84.22353 -19.3519,-92.341016 -2.26132,-1.305576 -5.37674,-1.824107 -9.13267,-1.708935 z M 28.851069,152.09002 c 21.751267,20.76911 61.643878,44.85291 74.577701,52.32027 18.09058,10.4446 90.8412,50.46878 108.93179,40.02418 14.06002,-8.11755 18.19231,-59.7906 19.3519,-92.34445 z" />
  </g>
</svg>
