<?xml version="1.0" encoding="UTF-8" standalone="no"?>
<!-- Created with Inkscape (http://www.inkscape.org/) -->

<svg
   width="200"
   height="200"
   viewBox="0 0 256.56551 256.56551"
   version="1.1"
   id="svg5"
   inkscape:version="1.2 (dc2aedaf03, 2022-05-15)"
   sodipodi:docname="GoToFile.svg"
   xmlns:inkscape="http://www.inkscape.org/namespaces/inkscape"
   xmlns:sodipodi="http://sodipodi.sourceforge.net/DTD/sodipodi-0.dtd"
   xmlns="http://www.w3.org/2000/svg"
   xmlns:svg="http://www.w3.org/2000/svg">
  <sodipodi:namedview
     id="namedview7"
     pagecolor="#505050"
     bordercolor="#eeeeee"
     borderopacity="1"
     inkscape:showpageshadow="0"
     inkscape:pageopacity="0"
     inkscape:pagecheckerboard="0"
     inkscape:deskcolor="#505050"
     inkscape:document-units="mm"
     showgrid="true"
     inkscape:zoom="3.1251122"
     inkscape:cx="66.397616"
     inkscape:cy="102.07634"
     inkscape:window-width="1920"
     inkscape:window-height="1057"
     inkscape:window-x="-8"
     inkscape:window-y="-8"
     inkscape:window-maximized="1"
     inkscape:current-layer="layer1">
    <inkscape:grid
       type="xygrid"
       id="grid3790"
       originx="-47.939802"
       originy="-24.473193" />
  </sodipodi:namedview>
  <defs
     id="defs2" />
  <g
     inkscape:label="Layer 1"
     inkscape:groupmode="layer"
     id="layer1">
    <g
       aria-label="&lt;"
       transform="scale(0.66367054,1.5067717)"
       id="text380"
       style="font-size:239.191px;line-height:1.6;stroke-width:1.24579">
      <path
         d="M 224.37352,157.34037 89.595,97.425827 V 82.94356 L 224.37352,23.029019 V 44.051665 L 118.09236,90.184694 224.37352,136.31772 Z"
         id="path1060"
         style="display:none" />
    </g>
    <path
       id="rect1116"
       style="fill:#96928d;fill-opacity:1;stroke-width:0.121212;stroke-dasharray:none"
       d="m 205.66328,163.48549 c -0.16252,1.43999 -0.83422,2.82247 -1.97716,3.81082 l -47.40941,40.99759 c -1.17284,1.01397 -2.60593,1.40557 -3.96611,1.22206 -1.37249,-0.003 -2.73937,-0.58481 -3.76377,-1.74856 L 107.1333,160.71992 c -1.99675,-2.26841 -1.91164,-5.84279 0.19007,-8.01469 l 0.82393,-0.85175 c 2.10171,-2.17192 5.40128,-2.09427 7.39805,0.17415 l 37.7591,42.89692 43.22697,-37.3808 c 2.28591,-1.97672 5.56555,-1.60625 7.35334,0.83059 l 0.70084,0.95558 c 0.8939,1.21841 1.2402,2.7156 1.07768,4.15557 z" />
    <path
       style="font-variation-settings:normal;fill:none;fill-opacity:1;fill-rule:evenodd;stroke:#96928d;stroke-width:11.9045;stroke-linecap:round;stroke-linejoin:round;stroke-miterlimit:4;stroke-dasharray:none;stroke-dashoffset:0;stroke-opacity:1;stop-color:#000000"
       id="path11445"
       sodipodi:type="arc"
       sodipodi:cx="-144.14967"
       sodipodi:cy="-101.35602"
       sodipodi:rx="122.68404"
       sodipodi:ry="57.74728"
       sodipodi:start="4.7769662"
       sodipodi:end="1.1690877"
       sodipodi:arc-type="arc"
       d="m -136.23258,-158.98293 a 122.68404,57.74728 0 0 1 113.02807,47.93873 122.68404,57.74728 0 0 1 -72.976745,62.838448"
       transform="matrix(0.03172308,-0.9994967,-0.98948571,-0.1446307,0,0)"
       sodipodi:open="true" />
    <rect
       style="fill:#96928d;stroke:#96928d;stroke-width:11.8662;stroke-linejoin:round;stroke-dasharray:none"
       id="rect3635"
       width="121.50507"
       height="0.82098019"
       x="91.128807"
       y="224.12759" />
  </g>
</svg>
