<?xml version="1.0" encoding="UTF-8" standalone="no"?>
<svg
   viewBox="0 0 256 256"
   fill="none"
   version="1.1"
   id="svg22263"
   sodipodi:docname="logo.svg"
   inkscape:version="1.2 (dc2aedaf03, 2022-05-15)"
   xmlns:inkscape="http://www.inkscape.org/namespaces/inkscape"
   xmlns:sodipodi="http://sodipodi.sourceforge.net/DTD/sodipodi-0.dtd"
   xmlns="http://www.w3.org/2000/svg"
   xmlns:svg="http://www.w3.org/2000/svg">
  <sodipodi:namedview
     id="namedview22265"
     pagecolor="#505050"
     bordercolor="#eeeeee"
     borderopacity="1"
     inkscape:showpageshadow="0"
     inkscape:pageopacity="0"
     inkscape:pagecheckerboard="0"
     inkscape:deskcolor="#505050"
     showgrid="false"
     inkscape:zoom="1.7128906"
     inkscape:cx="100.70696"
     inkscape:cy="115.01026"
     inkscape:window-width="1414"
     inkscape:window-height="1041"
     inkscape:window-x="490"
     inkscape:window-y="12"
     inkscape:window-maximized="1"
     inkscape:current-layer="g22232" />
  <rect
     x="1.5"
     y="1.5"
     width="253"
     height="253"
     rx="48.5"
     fill="url(#paint0_linear)"
     stroke="url(#paint1_linear)"
     stroke-width="3"
     id="rect22220"
     style="display:inline;stroke-width:11.7;stroke-dasharray:none" />
  <g
     filter="url(#filter0_d)"
     id="g22232"
     style="display:inline">
    <path
       d="m 81.5142,60.7461 c -4.8799,0 -8.8355,3.9561 -8.8355,8.8354 0,4.8794 3.9561,8.8355 8.8355,8.8355 4.8793,0 8.8354,-3.9561 8.8354,-8.8355 0,-4.8793 -3.955,-8.8354 -8.8354,-8.8354 z"
       fill="white"
       id="path22222"
       style="display:inline;fill:#ba8eff;fill-opacity:1" />
    <path
       d="M 87.6954,157.933 H 75.3266 c -1.464,0 -2.6511,-1.187 -2.6511,-2.652 V 85.483 c 0,-1.4639 1.1865,-2.651 2.6511,-2.651 h 12.3699 c 1.464,0 2.651,1.1865 2.651,2.651 v 69.799 c -0.0011,1.464 -1.1876,2.651 -2.6521,2.651 z"
       fill="white"
       id="path22224"
       style="display:inline;fill:#cc99cc;fill-opacity:1" />
    <path
       d="M 138.059,96.9233 V 84.5534 c 0,-1.464 1.186,-2.6511 2.651,-2.6511 h 38.875 c 1.464,0 2.651,1.1866 2.651,2.6511 v 12.3699 c 0,1.464 -1.186,2.651 -2.651,2.651 H 140.71 c -1.464,-0.0011 -2.651,-1.1876 -2.651,-2.651 z"
       fill="white"
       id="path22226"
       style="display:inline;fill:#cc99cc;fill-opacity:1" />
    <path
       d="m 137.835,99.5727 c 10.962,0 19.879,8.9183 19.879,19.8793 0,10.961 -8.918,19.879 -19.879,19.879 -10.961,0 -19.879,-8.918 -19.879,-19.879 0,-10.961 8.918,-19.8793 19.879,-19.8793 z m 0,-17.6704 c -20.738,0 -37.55,16.8119 -37.55,37.5507 0,20.738 16.812,37.55 37.55,37.55 20.739,0 37.551,-16.812 37.551,-37.55 0,-20.7388 -16.811,-37.5507 -37.551,-37.5507 z"
       fill="white"
       id="path22228"
       style="display:inline;fill:#ba8eff;fill-opacity:1" />
    <path
       d="m 137.836,178.213 c 8.975,0 16.409,6.726 17.526,15.402 0.168,1.305 1.302,2.27 2.618,2.27 h 12.441 c 1.527,0 2.767,-1.29 2.647,-2.812 -1.432,-18.205 -16.659,-32.53 -35.231,-32.53 -18.572,0 -33.798,14.325 -35.232,32.53 -0.119,1.522 1.12,2.812 2.648,2.812 h 12.44 c 1.317,0 2.451,-0.965 2.619,-2.27 1.117,-8.676 8.55,-15.402 17.524,-15.402 z"
       fill="white"
       id="path22230"
       style="display:inline;fill:#cc99cc;fill-opacity:1" />
  </g>
  <defs
     id="defs22261">
    <filter
       id="filter0_d"
       x="67.6755"
       y="56.7461"
       width="119.561"
       height="145.139"
       filterUnits="userSpaceOnUse"
       color-interpolation-filters="sRGB">
      <feFlood
         flood-opacity="0"
         result="BackgroundImageFix"
         id="feFlood22234" />
      <feColorMatrix
         in="SourceAlpha"
         type="matrix"
         values="0 0 0 0 0 0 0 0 0 0 0 0 0 0 0 0 0 0 127 0"
         id="feColorMatrix22236" />
      <feOffset
         dy="1"
         id="feOffset22238" />
      <feGaussianBlur
         stdDeviation="2.5"
         id="feGaussianBlur22240" />
      <feColorMatrix
         type="matrix"
         values="0 0 0 0 0 0 0 0 0 0 0 0 0 0 0 0 0 0 0.4 0"
         id="feColorMatrix22242" />
      <feBlend
         mode="normal"
         in2="BackgroundImageFix"
         result="effect1_dropShadow"
         id="feBlend22244" />
      <feBlend
         mode="normal"
         in="SourceGraphic"
         in2="effect1_dropShadow"
         result="shape"
         id="feBlend22246" />
    </filter>
    <linearGradient
       id="paint0_linear"
       x1="10.8474"
       y1="21.1525"
       x2="246.78"
       y2="257.085"
       gradientUnits="userSpaceOnUse">
      <stop
         stop-color="#695ABA"
         id="stop22249"
         offset="0"
         style="stop-color:#2f2d2a;stop-opacity:0.73333335;" />
      <stop
         offset="0.383463"
         stop-color="#50429D"
         id="stop22251"
         style="stop-color:#3b393a;stop-opacity:1;" />
      <stop
         offset="1"
         stop-color="#50429D"
         id="stop22253"
         style="stop-color:#3b3937;stop-opacity:1;" />
    </linearGradient>
    <linearGradient
       id="paint1_linear"
       x1="0"
       y1="0"
       x2="256"
       y2="256"
       gradientUnits="userSpaceOnUse">
      <stop
         stop-color="#50429D"
         id="stop22256"
         offset="0"
         style="stop-color:#ffcc66;stop-opacity:1;" />
      <stop
         offset="1"
         stop-color="#50429D"
         id="stop22258"
         style="stop-color:#ff2277;stop-opacity:1;" />
    </linearGradient>
  </defs>
</svg>
