<?xml version="1.0" encoding="UTF-8" standalone="no"?>
<!-- Created with Inkscape (http://www.inkscape.org/) -->

<svg
   width="200"
   height="200"
   viewBox="0 0 256.56551 256.56551"
   version="1.1"
   id="svg5"
   inkscape:version="1.2 (dc2aedaf03, 2022-05-15)"
   sodipodi:docname="Refresh.svg"
   xmlns:inkscape="http://www.inkscape.org/namespaces/inkscape"
   xmlns:sodipodi="http://sodipodi.sourceforge.net/DTD/sodipodi-0.dtd"
   xmlns="http://www.w3.org/2000/svg"
   xmlns:svg="http://www.w3.org/2000/svg">
  <sodipodi:namedview
     id="namedview7"
     pagecolor="#505050"
     bordercolor="#eeeeee"
     borderopacity="1"
     inkscape:showpageshadow="0"
     inkscape:pageopacity="0"
     inkscape:pagecheckerboard="0"
     inkscape:deskcolor="#505050"
     inkscape:document-units="mm"
     showgrid="true"
     inkscape:zoom="3.1251122"
     inkscape:cx="24.639115"
     inkscape:cy="95.356576"
     inkscape:window-width="1920"
     inkscape:window-height="1057"
     inkscape:window-x="-8"
     inkscape:window-y="-8"
     inkscape:window-maximized="1"
     inkscape:current-layer="layer1">
    <inkscape:grid
       type="xygrid"
       id="grid3790"
       originx="-47.939802"
       originy="-24.473193" />
  </sodipodi:namedview>
  <defs
     id="defs2" />
  <g
     inkscape:label="Layer 1"
     inkscape:groupmode="layer"
     id="layer1">
    <g
       aria-label="&lt;"
       transform="scale(0.66367054,1.5067717)"
       id="text380"
       style="font-size:239.191px;line-height:1.6;stroke-width:1.24579">
      <path
         d="M 224.37352,157.34037 89.595,97.425827 V 82.94356 L 224.37352,23.029019 V 44.051665 L 118.09236,90.184694 224.37352,136.31772 Z"
         id="path1060"
         style="display:none" />
    </g>
    <path
       style="font-variation-settings:normal;opacity:1;fill:none;fill-opacity:1;fill-rule:evenodd;stroke:#96928d;stroke-width:15.4975;stroke-linecap:round;stroke-linejoin:round;stroke-miterlimit:4;stroke-dasharray:none;stroke-dashoffset:0;stroke-opacity:1;stop-color:#000000;stop-opacity:1"
       id="path30826"
       sodipodi:type="arc"
       sodipodi:cx="140.19238"
       sodipodi:cy="152.6236"
       sodipodi:rx="79.997032"
       sodipodi:ry="79.998886"
       sodipodi:start="5.8974675"
       sodipodi:end="2.5918139"
       sodipodi:open="true"
       sodipodi:arc-type="arc"
       d="M 214.31192,122.52607 A 79.997032,79.998886 0 0 1 176.26125,224.02947 79.997032,79.998886 0 0 1 71.983702,194.4229"
       transform="rotate(3.6386874)" />
    <path
       style="font-variation-settings:normal;opacity:1;fill:none;fill-opacity:1;fill-rule:evenodd;stroke:#96928d;stroke-width:15.4975;stroke-linecap:round;stroke-linejoin:round;stroke-miterlimit:4;stroke-dasharray:none;stroke-dashoffset:0;stroke-opacity:1;stop-color:#000000;stop-opacity:1"
       id="path33279"
       sodipodi:type="arc"
       sodipodi:cx="-130.50363"
       sodipodi:cy="-87.588966"
       sodipodi:rx="79.997032"
       sodipodi:ry="79.998886"
       sodipodi:start="5.8974675"
       sodipodi:end="2.5918139"
       sodipodi:open="true"
       sodipodi:arc-type="arc"
       d="M -56.384092,-117.68649 A 79.997032,79.998886 0 0 1 -94.434764,-16.183097 79.997032,79.998886 0 0 1 -198.71231,-45.789661"
       transform="rotate(-176.18469)" />
    <path
       id="path33281"
       style="fill:#96928d;fill-opacity:1;stroke-width:0.115679"
       d="m 4.74334,134.69682 c 0.5993557,1.2507 1.6409452,2.28944 2.9847264,2.82382 l 55.7401176,22.16664 c 1.378792,0.54829 2.797424,0.45189 3.969392,-0.14136 1.239932,-0.43361 2.292695,-1.38939 2.853116,-2.7633 L 92.94709,101.239 c 1.092378,-2.678054 -0.107629,-5.882604 -2.690006,-7.185704 l -1.012463,-0.5111 c -2.582378,-1.3031 -5.540855,-0.19619 -6.633235,2.48187 L 61.954565,146.6673 11.13181,126.45619 c -2.6875664,-1.06876 -5.5360129,0.2966 -6.3865564,3.06125 l -0.3333364,1.08408 c -0.4252738,1.38231 -0.2679328,2.8446 0.3314228,4.0953 z" />
    <path
       id="path33283"
       style="fill:#96928d;fill-opacity:1;stroke-width:0.115679"
       d="m 254.02007,122.69912 c -0.59936,-1.2507 -1.64095,-2.28944 -2.98473,-2.82382 L 195.29522,97.708664 c -1.37879,-0.54829 -2.79742,-0.45189 -3.96939,0.14136 -1.23993,0.43361 -2.29269,1.38939 -2.85311,2.763296 l -22.6564,55.54362 c -1.09238,2.67805 0.10763,5.8826 2.69,7.1857 l 1.01247,0.5111 c 2.58238,1.3031 5.54085,0.19619 6.63323,-2.48187 l 20.65682,-50.64323 50.82276,20.21111 c 2.68756,1.06876 5.53601,-0.2966 6.38655,-3.06125 l 0.33334,-1.08408 c 0.42527,-1.38231 0.26793,-2.8446 -0.33142,-4.0953 z" />
  </g>
</svg>
