<?xml version="1.0" encoding="utf-8"?>
<!-- Generator: Adobe Illustrator 24.3.0, SVG Export Plug-In . SVG Version: 6.00 Build 0)  -->
<svg version="1.1" id="Layer_1" xmlns="http://www.w3.org/2000/svg" xmlns:xlink="http://www.w3.org/1999/xlink" x="0px" y="0px"
	 viewBox="0 0 20 20" style="enable-background:new 0 0 20 20;" xml:space="preserve">
<style type="text/css">
	.st0{fill:#3A3A38;}
	.st1{fill:#FAFAFA;}
	.st2{fill:#1E8BCD;}
</style>
<g>
	<path class="st0" d="M3,4h14.9v12.9H3V4z"/>
	<path class="st1" d="M4,5h12.8v10.7H4V5z"/>
	<path class="st2" d="M5.1,6.1v8.6h10.6V6.1H5.1z M6.1,7.2h8.5v6.4H6.1V7.2z"/>
	<path class="st2" d="M3.5,2.9c-0.9,0-1.6,0.7-1.6,1.6s0.7,1.6,1.6,1.6s1.6-0.7,1.6-1.6S4.4,2.9,3.5,2.9z M17.3,2.9
		c-0.9,0-1.6,0.7-1.6,1.6s0.7,1.6,1.6,1.6c0.9,0,1.6-0.7,1.6-1.6S18.2,2.9,17.3,2.9z M1.9,9.3v2.1H4V9.3H1.9z M16.8,9.3v2.1h2.1V9.3
		H16.8z M3.5,14.7c-0.9,0-1.6,0.7-1.6,1.6c0,0.9,0.7,1.6,1.6,1.6s1.6-0.7,1.6-1.6C5.1,15.4,4.4,14.7,3.5,14.7z M17.3,14.7
		c-0.9,0-1.6,0.7-1.6,1.6c0,0.9,0.7,1.6,1.6,1.6c0.9,0,1.6-0.7,1.6-1.6C18.9,15.4,18.2,14.7,17.3,14.7z"/>
	<g>
		<rect x="9.3" y="2.9" class="st2" width="2.1" height="2.1"/>
		<rect x="9.3" y="15.8" class="st2" width="2.1" height="2.1"/>
	</g>
</g>
</svg>
