<?xml version="1.0" encoding="utf-8"?>
<!-- Generator: Adobe Illustrator 24.3.0, SVG Export Plug-In . SVG Version: 6.00 Build 0)  -->
<svg version="1.1" id="Layer_1" xmlns="http://www.w3.org/2000/svg" xmlns:xlink="http://www.w3.org/1999/xlink" x="0px" y="0px"
	 viewBox="0 0 20 20" style="enable-background:new 0 0 20 20;" xml:space="preserve">
<style type="text/css">
	.st0{fill:#922E98;}
	.st1{fill:#D492D8;}
	.st2{fill:#FAFAFA;}
</style>
<rect x="2" y="2" class="st0" width="16" height="16"/>
<path class="st1" d="M3,3h14v14H3V3z"/>
<path class="st0" d="M4,2C3.4,2,3,2.4,3,3v6c0,0.6,0.4,1,1,1h12c0.6,0,1-0.4,1-1V3c0-0.6-0.4-1-1-1H4z M5,11c-0.6,0-1,0.4-1,1v4.5
	c0,0.6,0.4,1,1,1h9c0.6,0,1-0.4,1-1V12c0-0.6-0.4-1-1-1H5z"/>
<path class="st2" d="M5,3C4.4,3,4,3.4,4,4v4c0,0.6,0.4,1,1,1h10c0.6,0,1-0.4,1-1V4c0-0.6-0.4-1-1-1H5z M6,12c-0.6,0-1,0.4-1,1v3
	c0,0.6,0.4,1,1,1h1v-4h2v4h4c0.6,0,1-0.4,1-1v-3c0-0.6-0.4-1-1-1H6z"/>
</svg>
