<?xml version="1.0" encoding="utf-8"?>
<!-- Generator: Adobe Illustrator 24.3.0, SVG Export Plug-In . SVG Version: 6.00 Build 0)  -->
<svg version="1.1" id="Layer_1" xmlns="http://www.w3.org/2000/svg" xmlns:xlink="http://www.w3.org/1999/xlink" x="0px" y="0px"
	 viewBox="0 0 20 20" style="enable-background:new 0 0 20 20;" xml:space="preserve">
<style type="text/css">
	.st0{fill:#1E8BCD;}
	.st1{fill:#0063B1;}
</style>
<g transform="translate(-1)">
	<rect x="7" y="6" class="st0" width="12" height="1"/>
	<path class="st0" d="M8,6.5v11.1C8,17.8,7.8,18,7.5,18H7.5C7.2,18,7,17.8,7,17.5V6.5C7,6.2,7.2,6,7.5,6h0.1C7.8,6,8,6.2,8,6.5z"/>
</g>
<g transform="matrix(-1 0 0 -1 18 17)">
	<rect x="3" y="2" class="st0" width="12" height="1"/>
	<path class="st0" d="M4,2.5v11.1C4,13.8,3.8,14,3.5,14H3.5C3.2,14,3,13.8,3,13.5V2.5C3,2.2,3.2,2,3.5,2h0.1C3.8,2,4,2.2,4,2.5z"/>
</g>
<path class="st1" d="M2.1,2.1C2.3,2,2.7,2,2.9,2.1l12,12c0.2,0.2,0.2,0.5,0,0.7c-0.2,0.2-0.5,0.2-0.7,0l-12-12C2,2.7,2,2.3,2.1,2.1z
	"/>
</svg>
