<?xml version="1.0" encoding="utf-8"?>
<!-- Generator: Adobe Illustrator 24.3.0, SVG Export Plug-In . SVG Version: 6.00 Build 0)  -->
<svg version="1.1" id="Layer_1" xmlns="http://www.w3.org/2000/svg" xmlns:xlink="http://www.w3.org/1999/xlink" x="0px" y="0px"
	 viewBox="0 0 20 20" style="enable-background:new 0 0 20 20;" xml:space="preserve">
<style type="text/css">
	.st0{fill:#FFC0C0;}
	.st1{fill:#ED3D3B;}
	.st2{fill:none;stroke:#ED3D3B;stroke-linejoin:round;}
	.st3{fill:none;stroke:#ED3D3B;stroke-linecap:square;stroke-linejoin:round;}
</style>
<g>
	<path class="st0" d="M7,17.5c-0.9,0-1.6-0.7-1.7-1.6L4.5,5.5h10.9l-0.8,10.4c-0.1,0.9-0.8,1.6-1.7,1.6H7z"/>
	<path class="st1" d="M14.9,6l-0.8,9.9c0,0.6-0.6,1.1-1.2,1.1H7c-0.6,0-1.1-0.5-1.2-1.1L5.1,6H14.9 M16,5L16,5L16,5z M16,5H4l0.8,11
		c0.1,1.1,1,2,2.2,2H13c1.1,0,2.1-0.9,2.2-2L16,5L16,5z"/>
</g>
<g>
	<line class="st2" x1="3" y1="5.5" x2="17" y2="5.5"/>
</g>
<g>
	<line class="st3" x1="8.4" y1="14.5" x2="8.4" y2="8.5"/>
</g>
<g>
	<line class="st3" x1="11.4" y1="14.5" x2="11.4" y2="8.5"/>
</g>
<g>
	<path class="st1" d="M10,3.6c1.1,0,2,0.9,2,2c0,0,0,0,0,0.1v0.1H8V5.7c0,0,0,0,0-0.1C8,4.5,8.9,3.6,10,3.6 M10,2.6
		c-1.6,0-3,1.3-3,3h0v1.2h6V5.6h0C13,3.9,11.6,2.6,10,2.6L10,2.6z"/>
</g>
<g>
	<rect x="5.5" y="6" class="st0" width="9" height="2"/>
</g>
</svg>
