<?xml version="1.0" encoding="utf-8"?>
<!-- Generator: Adobe Illustrator 24.3.0, SVG Export Plug-In . SVG Version: 6.00 Build 0)  -->
<svg version="1.1" id="Layer_1" xmlns="http://www.w3.org/2000/svg" xmlns:xlink="http://www.w3.org/1999/xlink" x="0px" y="0px"
	 viewBox="0 0 20 20" style="enable-background:new 0 0 20 20;" xml:space="preserve">
<style type="text/css">
	.st0{fill-rule:evenodd;clip-rule:evenodd;fill:#3A3A38;}
	.st1{fill-rule:evenodd;clip-rule:evenodd;fill:#FAFAFA;}
	.st2{fill-rule:evenodd;clip-rule:evenodd;fill:#0063B1;}
	.st3{fill-rule:evenodd;clip-rule:evenodd;fill:#83BEEC;}
	.st4{fill:none;stroke:#1E8BCD;stroke-linecap:round;stroke-linejoin:round;}
	.st5{fill-rule:evenodd;clip-rule:evenodd;fill:#1E8BCD;}
</style>
<g transform="matrix(-1 0 0 1 16 -1)">
	<g>
		<path class="st0" d="M7,13c-0.1,0-0.3,0-0.4,0.1l-8,3C-2.4,16.5-2.1,18-1,18h8c0.6,0,1-0.4,1-1v-3C8,13.4,7.5,13,7,13z"/>
		<path class="st1" d="M7,14v3h-8L7,14z"/>
		<path class="st2" d="M10,5C9.4,5,9,5.5,9,6v11c0,0.6,0.4,1,1,1h3c0.7,0,1.1-0.6,1-1.3l-3-11C10.8,5.3,10.4,5,10,5z"/>
		<path class="st3" d="M13,17h-3V6L13,17z"/>
	</g>
	<g transform="translate(-3.01495 3.000008)">
		<path class="st4" d="M7.5,2.5l2,2l-2,2"/>
		<path class="st5" d="M1,9.5C1,9.8,1.2,10,1.5,10S2,9.8,2,9.5v-2C2,6.1,3.1,5,4.5,5v0h0.4H9V4H4.9H4.4C2.3,4,1.1,5.9,1,7.5L1,9.5z"
			/>
	</g>
</g>
</svg>
