<?xml version="1.0" encoding="utf-8"?>
<!-- Generator: Adobe Illustrator 24.3.0, SVG Export Plug-In . SVG Version: 6.00 Build 0)  -->
<svg version="1.1" id="Layer_1" xmlns="http://www.w3.org/2000/svg" xmlns:xlink="http://www.w3.org/1999/xlink" x="0px" y="0px"
	 viewBox="0 0 20 20" style="enable-background:new 0 0 20 20;" xml:space="preserve">
<style type="text/css">
	.st0{fill-rule:evenodd;clip-rule:evenodd;fill:#FAFAFA;}
	.st1{fill:#3A3A38;}
	.st2{fill:#797774;}
	.st3{fill:#FAFAFA;}
</style>
<g>
	<path class="st0" d="M7,13v4h6v-4H7z"/>
	<path class="st1" d="M3,7C2.4,7,2,7.4,2,8v5c0,0.6,0.4,1,1,1h3v3.1C6,17.6,6.4,18,6.9,18h6.3c0.5,0,0.8-0.4,0.9-0.9V14h3
		c0.6,0,1-0.4,1-1V8c0-0.6-0.4-1-1-1h-1v2h-1H5H4V7H3z M7,13h6v4H7V13z"/>
	<path class="st0" d="M6,3v4h8V3H6z"/>
	<path class="st2" d="M3,8v5h4h6h4V8h-1v1h-1H5H4V8H3z"/>
	<path class="st3" d="M15,12h2v1h-2V12z"/>
	<path class="st1" d="M5.9,2C5.4,2,5,2.4,5,2.9V8h1h8h1V2.9C15,2.4,14.6,2,14.1,2H5.9z M6,3h8v4H6V3z"/>
</g>
</svg>
