<?xml version="1.0" encoding="utf-8"?>
<!-- Generator: Adobe Illustrator 24.3.0, SVG Export Plug-In . SVG Version: 6.00 Build 0)  -->
<svg version="1.1" id="Layer_1" xmlns="http://www.w3.org/2000/svg" xmlns:xlink="http://www.w3.org/1999/xlink" x="0px" y="0px"
	 viewBox="0 0 20 20" style="enable-background:new 0 0 20 20;" xml:space="preserve">
<style type="text/css">
	.st0{fill-rule:evenodd;clip-rule:evenodd;fill:#3A3A38;}
	.st1{fill-rule:evenodd;clip-rule:evenodd;fill:#FAFAFA;}
	.st2{fill-rule:evenodd;clip-rule:evenodd;fill:#0063B1;}
	.st3{fill-rule:evenodd;clip-rule:evenodd;fill:#83BEEC;}
	.st4{fill:none;stroke:#1E8BCD;stroke-linecap:round;stroke-linejoin:round;}
	.st5{fill-rule:evenodd;clip-rule:evenodd;fill:#1E8BCD;}
</style>
<g>
	<g transform="translate(.005286 -1)">
		<path class="st0" d="M11,13c-0.1,0-0.3,0-0.4,0.1l-8,3C1.6,16.5,1.9,18,3,18h8c0.6,0,1-0.4,1-1v-3C12,13.4,11.5,13,11,13z"/>
		<path class="st1" d="M11,14v3H3L11,14z"/>
		<path class="st2" d="M14,5c-0.5,0-1,0.5-1,1v11c0,0.6,0.4,1,1,1h3c0.7,0,1.1-0.6,1-1.3l-3-11C14.8,5.3,14.4,5,14,5z"/>
		<path class="st3" d="M17,17h-3V6L17,17z"/>
	</g>
	<g transform="translate(-3.009664 2.000008)">
		<path class="st4" d="M11.5,2.5l2,2l-2,2"/>
		<path class="st5" d="M5,9.5C5,9.8,5.2,10,5.5,10S6,9.8,6,9.5v-2C6,6.1,7.1,5,8.5,5l0,0h0.4H13V4H8.9H8.4C6.3,4,5.1,5.9,5,7.5V9.5z
			"/>
	</g>
</g>
</svg>
