<?xml version="1.0" encoding="utf-8"?>
<!-- Generator: Adobe Illustrator 24.3.0, SVG Export Plug-In . SVG Version: 6.00 Build 0)  -->
<svg version="1.1" id="Layer_1" xmlns="http://www.w3.org/2000/svg" xmlns:xlink="http://www.w3.org/1999/xlink" x="0px" y="0px"
	 viewBox="0 0 20 20" style="enable-background:new 0 0 20 20;" xml:space="preserve">
<style type="text/css">
	.st0{fill:#FAFAFA;}
	.st1{fill:#3A3A38;}
	.st2{fill-rule:evenodd;clip-rule:evenodd;fill:#1E8BCD;}
</style>
<path class="st0" d="M4,3v4.6l1.5-1.3c0,0,0,0,0,0C5.7,6.2,6,6.2,6.2,6.1C6,5.6,6,5,6.3,4.5L7.6,3H4z M12.4,3l1.3,1.5c0,0,0,0,0,0
	c0.2,0.3,0.3,0.6,0.3,1v0c0,0.2-0.2,0.4-0.2,0.6c0.2,0,0.5,0.1,0.7,0.3c0,0,0,0,0,0L16,7.6V3H12.4z M10,3.3L8.6,5h2.9L10,3.3z
	 M7.8,7C7.9,7.2,8,7.3,8,7.5v5v0c0,0.2-0.1,0.3-0.2,0.5h4.3c-0.1-0.2-0.2-0.3-0.2-0.5v0v-5c0-0.2,0.1-0.3,0.2-0.5H7.8z M6,8.6
	L4.3,10L6,11.4V8.6z M14,8.6v2.9l1.7-1.4L14,8.6z M4,12.4V17h3.6l-1.3-1.5C6,15,6,14.4,6.2,13.9c-0.2,0-0.4-0.1-0.6-0.3L4,12.4z
	 M16,12.4l-1.5,1.3c-0.2,0.2-0.4,0.2-0.7,0.3c0.1,0.2,0.2,0.3,0.2,0.6c0,0.4-0.1,0.7-0.3,1c0,0,0,0,0,0L12.4,17H16V12.4z M8.6,15
	l1.4,1.7l1.4-1.7H8.6z"/>
<path class="st1" d="M4,2C3.4,2,3,2.4,3,3v5.5l1-0.8V3h3.6l0.8-1H4z M11.5,2l0.8,1H16v4.6l1,0.8V3c0-0.6-0.4-1-1-1H11.5z M3,11.5V17
	c0,0.6,0.4,1,1,1h4.4l-0.8-1H4v-4.6L3,11.5z M17,11.5l-1,0.8V17h-3.6l-0.8,1H16c0.6,0,1-0.4,1-1V11.5z"/>
<g>
	<path class="st2" d="M13,5.5c0-0.1,0-0.2-0.1-0.3l-2.5-3c-0.2-0.2-0.6-0.2-0.8,0l-2.5,3C6.8,5.5,7.1,6,7.5,6h5
		C12.8,6,13,5.8,13,5.5z M13,14.5c0-0.3-0.2-0.5-0.5-0.5h-5c-0.4,0-0.7,0.5-0.4,0.8l2.5,3c0.2,0.2,0.6,0.2,0.8,0l2.5-3
		C13,14.7,13,14.6,13,14.5z"/>
	<path class="st2" d="M6.5,7C6.4,7,6.3,7,6.2,7.1l-3,2.5c-0.2,0.2-0.2,0.6,0,0.8l3,2.5c0.3,0.3,0.8,0,0.8-0.4v-5C7,7.2,6.8,7,6.5,7z
		 M13.5,7C13.2,7,13,7.2,13,7.5v5c0,0.4,0.5,0.7,0.8,0.4l3-2.5c0.2-0.2,0.2-0.6,0-0.8l-3-2.5C13.7,7,13.6,7,13.5,7z"/>
</g>
</svg>
