<?xml version="1.0" encoding="utf-8"?>
<!-- Generator: Adobe Illustrator 24.3.0, SVG Export Plug-In . SVG Version: 6.00 Build 0)  -->
<svg version="1.1" id="Layer_1" xmlns="http://www.w3.org/2000/svg" xmlns:xlink="http://www.w3.org/1999/xlink" x="0px" y="0px"
	 viewBox="0 0 20 20" style="enable-background:new 0 0 20 20;" xml:space="preserve">
<style type="text/css">
	.st0{fill:#FAFAFA;stroke:#3A3A38;stroke-width:1.0579;stroke-linecap:round;stroke-linejoin:round;}
	.st1{fill-rule:evenodd;clip-rule:evenodd;fill:#1E8BCD;}
</style>
<g>
	<path class="st0" d="M2.6,17.5v-15h5.9v14.9H2.6V17.5z"/>
	<path class="st1" d="M9.9,14.5c0,0.1,0.1,0.3,0.2,0.3l3,3c0.2,0.3,0.6,0.3,0.8,0l0,0l3-3c0.5-0.5-0.2-1.2-0.7-0.7l-2.1,2.1V3.7
		l2.1,2.1c0.5,0.5,1.2-0.2,0.7-0.7l-3-3c-0.2-0.3-0.6-0.3-0.8,0l-3,3C10,5.2,9.9,5.3,9.9,5.5c0,0.4,0.5,0.7,0.9,0.3l2.1-2.1v12.6
		l-2.1-2.1C10.5,13.8,9.9,14.1,9.9,14.5z"/>
</g>
</svg>
