<?xml version="1.0" encoding="utf-8"?>
<!-- Generator: Adobe Illustrator 24.3.0, SVG Export Plug-In . SVG Version: 6.00 Build 0)  -->
<svg version="1.1" id="Layer_1" xmlns="http://www.w3.org/2000/svg" xmlns:xlink="http://www.w3.org/1999/xlink" x="0px" y="0px"
	 viewBox="0 0 20 20" style="enable-background:new 0 0 20 20;" xml:space="preserve">
<style type="text/css">
	.st0{fill:#3A3A38;}
	.st1{fill:#FAFAFA;}
	.st2{fill:#1E8BCD;}
</style>
<g>
	<path class="st0" d="M8,2C4.7,2,2,4.7,2,8s2.7,6,6,6c1.4,0,2.8-0.5,3.9-1.4l5.3,5.3c0.2,0.2,0.5,0.2,0.7,0c0.2-0.2,0.2-0.5,0-0.7
		c0,0,0,0,0,0l-5.3-5.3C13.5,10.8,14,9.4,14,8C14,4.7,11.3,2,8,2z M8,3c2.8,0,5,2.2,5,5s-2.2,5-5,5s-5-2.2-5-5S5.2,3,8,3z"/>
	<path class="st1" d="M8,3C5.2,3,3,5.2,3,8s2.2,5,5,5s5-2.2,5-5S10.8,3,8,3z"/>
	<path class="st2" d="M5,7C4.4,7,4,7.4,4,8s0.4,1,1,1h6c0.6,0,1-0.4,1-1s-0.4-1-1-1H5z"/>
</g>
</svg>
