<?xml version="1.0" encoding="utf-8"?>
<!-- Generator: Adobe Illustrator 24.1.2, SVG Export Plug-In . SVG Version: 6.00 Build 0)  -->
<svg version="1.1" id="Слой_1" xmlns="http://www.w3.org/2000/svg" xmlns:xlink="http://www.w3.org/1999/xlink" x="0px" y="0px"
	 viewBox="0 0 512 512" style="enable-background:new 0 0 512 512;" xml:space="preserve">
<style type="text/css">
	.st0{fill:none;}
	.st1{fill:#FFFFFF;}
</style>
<g>
	<rect id="canvas_background_132_" x="0" y="0" class="st0" width="512" height="512"/>
	<path class="st1" d="M496,16v480H16V16H496z M464,48H48v416h416V48z M176,231c-4.8,2.8-10,5-15.4,6.6c-5.4,1.6-11,2.4-16.6,2.4v-32
		c4.5,0,8.7-0.8,12.5-2.5c3.8-1.7,7.2-4,10.1-6.9c2.9-2.9,5.2-6.3,6.9-10.1c1.7-3.8,2.5-8,2.5-12.5h32v160h-32V231z M256,240
		c-4.3,0-8.1-1.6-11.3-4.8c-3.2-3.2-4.8-6.9-4.8-11.3c0-4.3,1.6-8.1,4.8-11.3c3.2-3.2,6.9-4.8,11.3-4.8c4.3,0,8.1,1.6,11.3,4.8
		c3.2,3.2,4.8,6.9,4.8,11.3c0,4.3-1.6,8.1-4.8,11.3C264.1,238.4,260.3,240,256,240z M256,304c-4.3,0-8.1-1.6-11.3-4.8
		c-3.2-3.2-4.8-6.9-4.8-11.3c0-4.3,1.6-8.1,4.8-11.3c3.2-3.2,6.9-4.8,11.3-4.8c4.3,0,8.1,1.6,11.3,4.8c3.2,3.2,4.8,6.9,4.8,11.3
		c0,4.3-1.6,8.1-4.8,11.3C264.1,302.4,260.3,304,256,304z M336,231c-4.8,2.8-10,5-15.4,6.6c-5.4,1.6-11,2.4-16.6,2.4v-32
		c4.5,0,8.7-0.8,12.5-2.5c3.8-1.7,7.2-4,10.1-6.9c2.9-2.9,5.2-6.3,6.9-10.1c1.7-3.8,2.5-8,2.5-12.5h32v160h-32V231z"/>
</g>
</svg>
