<?xml version="1.0" encoding="utf-8"?>
<!-- Generator: Adobe Illustrator 24.1.2, SVG Export Plug-In . SVG Version: 6.00 Build 0)  -->
<svg version="1.1" id="Слой_1" xmlns="http://www.w3.org/2000/svg" xmlns:xlink="http://www.w3.org/1999/xlink" x="0px" y="0px"
	 viewBox="0 0 512 512" style="enable-background:new 0 0 512 512;" xml:space="preserve">
<style type="text/css">
	.st0{fill:none;}
	.st1{fill:#FFFFFF;}
</style>
<g>
	<rect id="canvas_background_108_" x="0" y="0" class="st0" width="512" height="512"/>
	<path class="st1" d="M439.5,0c10,0,19.4,1.9,28.2,5.8c8.8,3.8,16.5,9,23,15.5s11.7,14.2,15.5,23c3.8,8.8,5.7,18.2,5.7,28.2
		c0,9.7-1.8,19-5.5,27.9s-8.9,16.8-15.8,23.6l-60,60c5.5,5.3,9.8,11.4,12.7,18.1c3,6.8,4.5,14,4.5,21.9c0,7.7-1.5,14.8-4.4,21.5
		c-2.9,6.7-7,12.7-12.4,18L392,302.8l-40-40.3L150.7,463.7l-6.5,0.3c-8.5,0.3-15.8,1.8-21.9,4.3s-11.4,5.5-16,9.1
		c-4.6,3.6-8.8,7.4-12.5,11.4c-3.8,4-7.7,7.7-11.9,11.2s-8.8,6.4-13.8,8.6S57.2,512,50,512c-6.8,0-13.3-1.3-19.4-4
		c-6.1-2.7-11.4-6.3-15.9-10.8S6.7,487.5,4,481.4c-2.7-6.1-4-12.5-4-19.4c0-7.2,1.1-13.3,3.4-18.4s5.1-9.7,8.6-13.8
		c3.5-4.1,7.3-8,11.3-11.7c4-3.8,7.8-7.9,11.4-12.5c3.6-4.6,6.6-9.9,9.1-15.9s3.9-13.3,4.3-22l0.3-6.5L249.5,160l-40.2-40l39.3-39.2
		c5.3-5.3,11.3-9.5,18-12.4S280.3,64,288,64c7.8,0,15.1,1.5,21.9,4.5c6.7,3,12.8,7.3,18.1,12.8l60-60c6.8-6.8,14.7-12.1,23.6-15.7
		S429.8,0,439.5,0z M329.2,240L272,182.8L79.8,375c-0.8,8.5-2.4,16.1-4.8,22.7c-2.3,6.7-5.3,12.9-9,18.6c-3.7,5.8-8,11.3-12.9,16.5
		s-10.2,10.8-15.9,16.6c-3.5,3.5-5.3,7.8-5.3,12.8c0,4.8,1.7,9,5.2,12.5s7.7,5.3,12.5,5.3c5,0,9.3-1.8,12.8-5.3
		c5.8-5.7,11.4-11,16.8-15.9c5.3-4.9,10.8-9.2,16.5-12.9c5.7-3.7,11.8-6.7,18.5-9c6.7-2.3,14.3-3.9,22.8-4.7L329.2,240z M468,101.3
		c8-8,12-17.5,12-28.5c0-5.5-1.1-10.7-3.3-15.7s-5.1-9.3-8.8-13c-3.7-3.7-8-6.6-13-8.8S444.8,32,439.3,32c-11,0-20.5,4-28.5,12
		L328,126.5L304.5,103c-4.7-4.7-10.2-7-16.5-7c-3.5,0-6.8,0.8-9.9,2.5c-3.1,1.7-6,3.8-8.8,6.2c-2.8,2.5-5.4,5.1-7.9,7.9
		s-4.8,5.2-7,7.4L392,257.5l17-17c4.7-4.7,7-10.2,7-16.5c0-3.3-0.6-6.4-1.9-9.1c-1.3-2.8-3-5.3-5.4-7.6L385.5,184L468,101.3z"/>
</g>
</svg>
