<svg xmlns="http://www.w3.org/2000/svg" viewBox="0 0 22 22"><g id="Слой_2" data-name="Слой 2"><g id="Слой_1-2" data-name="Слой 1"><rect id="canvas_background" data-name="canvas background" width="22" height="22" style="fill:none"/><path d="M18.72,5.06H17.53V18.72A1.8,1.8,0,0,1,17,20a1.79,1.79,0,0,1-.56.38,1.82,1.82,0,0,1-.7.14H6.25a1.82,1.82,0,0,1-.7-.14A1.79,1.79,0,0,1,5,20a1.8,1.8,0,0,1-.52-1.26V5.06H3.28V3.88H8V2.69a1.23,1.23,0,0,1,.09-.47,1.37,1.37,0,0,1,.26-.37,1.18,1.18,0,0,1,.37-.26,1.23,1.23,0,0,1,.47-.09h3.56a1.23,1.23,0,0,1,.47.09,1.18,1.18,0,0,1,.37.26,1.37,1.37,0,0,1,.26.37,1.23,1.23,0,0,1,.09.47V3.88h4.75Zm-2.38,0H5.66V18.72a.57.57,0,0,0,.17.42.61.61,0,0,0,.42.17h9.5a.58.58,0,0,0,.59-.59ZM9.22,16.94H8V7.44H9.22Zm0-13.06h3.56V2.69H9.22Zm2.37,13.06H10.41V7.44h1.18Zm2.38,0H12.78V7.44H14Z" style="fill:#fff"/></g></g></svg>