<svg xmlns="http://www.w3.org/2000/svg" viewBox="0 0 22 22"><g id="Слой_2" data-name="Слой 2"><g id="Слой_1-2" data-name="Слой 1"><rect id="canvas_background" data-name="canvas background" width="22" height="22" style="fill:none"/><path d="M16.35,3.16A9.45,9.45,0,0,1,20,7.93,9.33,9.33,0,0,1,20.5,11a9.18,9.18,0,0,1-.34,2.52,9.55,9.55,0,0,1-.95,2.28,9.71,9.71,0,0,1-3.41,3.41,9.55,9.55,0,0,1-2.28.95,9.51,9.51,0,0,1-5,0,9.55,9.55,0,0,1-2.28-.95A9.71,9.71,0,0,1,2.79,15.8a9.65,9.65,0,0,1-.95-2.27,9.55,9.55,0,0,1,0-5,9.85,9.85,0,0,1,1-2.31,9.48,9.48,0,0,1,1.55-2A9.37,9.37,0,0,1,6.42,2.69H3.88V1.5H8.63V6.25H7.44V3.49a8.29,8.29,0,0,0-2,1.31A8.33,8.33,0,0,0,3,8.67,8.3,8.3,0,0,0,2.69,11,8.4,8.4,0,0,0,3,13.2a8.5,8.5,0,0,0,3.83,5,8.67,8.67,0,0,0,2,.84,8.3,8.3,0,0,0,6.4-.84,8.67,8.67,0,0,0,3-3,8.67,8.67,0,0,0,.84-2A8.48,8.48,0,0,0,19.31,11a8.06,8.06,0,0,0-.45-2.68A8.69,8.69,0,0,0,17.61,6a8.62,8.62,0,0,0-1.93-1.83A8,8,0,0,0,13.22,3l.31-1.14A9.09,9.09,0,0,1,16.35,3.16Z" style="fill:#fff"/></g></g></svg>