<svg xmlns="http://www.w3.org/2000/svg" viewBox="0 0 22 22"><g id="Слой_2" data-name="Слой 2"><g id="Слой_1-2" data-name="Слой 1"><rect id="canvas_background" data-name="canvas background" width="22" height="22" style="fill:none"/><path d="M20.5,11a9.18,9.18,0,0,1-.34,2.52,9.85,9.85,0,0,1-1,2.31,9.48,9.48,0,0,1-1.55,2,9.06,9.06,0,0,1-2,1.51h2.55V20.5H13.38V15.75h1.18v2.76a8,8,0,0,0,2-1.3A8.39,8.39,0,0,0,18,15.44a8.06,8.06,0,0,0,1-2.11A8.3,8.3,0,0,0,19.31,11,8.4,8.4,0,0,0,19,8.8a8.5,8.5,0,0,0-3.83-5,8.56,8.56,0,0,0-2-.84A8.49,8.49,0,0,0,8.8,3a8.5,8.5,0,0,0-5,3.83A8.56,8.56,0,0,0,3,8.8,8.4,8.4,0,0,0,2.69,11H1.5a9.18,9.18,0,0,1,.34-2.52,9.55,9.55,0,0,1,1-2.28A9.71,9.71,0,0,1,6.2,2.79a9.65,9.65,0,0,1,2.27-.95,9.55,9.55,0,0,1,5,0,9.55,9.55,0,0,1,2.28,1A9.71,9.71,0,0,1,19.21,6.2a9.55,9.55,0,0,1,.95,2.28A9.18,9.18,0,0,1,20.5,11ZM11,8.63a2.34,2.34,0,1,1-.92.18A2.32,2.32,0,0,1,11,8.63Zm0,3.56a1,1,0,0,0,.46-.1,1.13,1.13,0,0,0,.63-.63,1.11,1.11,0,0,0,0-.92,1.13,1.13,0,0,0-.63-.63,1.11,1.11,0,0,0-.92,0,1.13,1.13,0,0,0-.63.63,1.11,1.11,0,0,0,0,.92,1.13,1.13,0,0,0,.63.63A1,1,0,0,0,11,12.19Z" style="fill:#fff"/></g></g></svg>