<svg xmlns="http://www.w3.org/2000/svg" viewBox="0 0 22 22"><g id="Слой_2" data-name="Слой 2"><g id="Слой_1-2" data-name="Слой 1"><rect id="canvas_background" data-name="canvas background" width="22" height="22" style="fill:none"/><path d="M5.66,20.5H4.47V19.31H5.66ZM8,20.5H6.84V19.31H8Zm2.38,0H9.22V19.31h1.19Zm2.37,0H11.59V19.31h1.19Zm2.38,0H14V19.31h1.19Zm2.37,0H16.34V19.31h1.19ZM5.66,18.13H4.47V16.94H5.66Zm11.87,0H16.34V16.94h1.19Zm0-2.38H4.47V6.25H17.53ZM5.66,14.56H16.34V7.44H5.66Zm0-9.5H4.47V3.88H5.66Zm11.87,0H16.34V3.88h1.19ZM4.47,2.69V1.5H5.66V2.69ZM8,2.69H6.84V1.5H8Zm2.38,0H9.22V1.5h1.19Zm2.37,0H11.59V1.5h1.19Zm2.38,0H14V1.5h1.19Zm2.37,0H16.34V1.5h1.19Z" style="fill:#fff"/></g></g></svg>