<svg xmlns="http://www.w3.org/2000/svg" viewBox="0 0 22 22"><g id="Слой_2" data-name="Слой 2"><g id="Слой_1-2" data-name="Слой 1"><rect id="canvas_background" data-name="canvas background" width="22" height="22" style="fill:none"/><path d="M11,5.06a10.71,10.71,0,0,1,2.63.33,10,10,0,0,1,2.47,1,9.33,9.33,0,0,1,2.1,1.58,8,8,0,0,1,1.54,2.17,7.54,7.54,0,0,1,.57,1.59,7.27,7.27,0,0,1,.19,1.68H19.31A6.31,6.31,0,0,0,19,11.32a6.59,6.59,0,0,0-.92-1.74,7.73,7.73,0,0,0-1.39-1.41,9.42,9.42,0,0,0-1.72-1A9.83,9.83,0,0,0,13,6.47a9.29,9.29,0,0,0-4,0,9.83,9.83,0,0,0-1.94.65,9.42,9.42,0,0,0-1.72,1A7.73,7.73,0,0,0,3.94,9.58,6.59,6.59,0,0,0,3,11.32a6.31,6.31,0,0,0-.33,2.06H1.5a7.27,7.27,0,0,1,.19-1.68,7.54,7.54,0,0,1,.57-1.59A8,8,0,0,1,3.8,7.94,9.33,9.33,0,0,1,5.9,6.36a10,10,0,0,1,2.47-1A10.71,10.71,0,0,1,11,5.06Zm0,4.75a3.54,3.54,0,0,1,1.38.28,3.7,3.7,0,0,1,1.14.77A3.51,3.51,0,0,1,14.28,12a3.45,3.45,0,0,1,.28,1.39,3.37,3.37,0,0,1-.28,1.38,3.51,3.51,0,0,1-.76,1.13,3.7,3.7,0,0,1-1.14.77,3.57,3.57,0,0,1-2.77,0,3.66,3.66,0,0,1-1.13-.77,3.51,3.51,0,0,1-.76-1.13,3.37,3.37,0,0,1-.28-1.38A3.45,3.45,0,0,1,7.72,12a3.51,3.51,0,0,1,.76-1.13,3.66,3.66,0,0,1,1.13-.77A3.56,3.56,0,0,1,11,9.81Zm0,5.94a2.17,2.17,0,0,0,.92-.19,2.31,2.31,0,0,0,.76-.51,2.17,2.17,0,0,0,.51-.75,2.35,2.35,0,0,0,0-1.85,2.17,2.17,0,0,0-.51-.75,2.31,2.31,0,0,0-.76-.51,2.32,2.32,0,0,0-1.84,0,2.31,2.31,0,0,0-.76.51,2.17,2.17,0,0,0-.51.75,2.47,2.47,0,0,0,0,1.85,2.17,2.17,0,0,0,.51.75,2.31,2.31,0,0,0,.76.51A2.17,2.17,0,0,0,11,15.75Z" style="fill:#fff"/></g></g></svg>