<svg xmlns="http://www.w3.org/2000/svg" viewBox="0 0 22 22"><g id="Слой_2" data-name="Слой 2"><g id="Слой_1-2" data-name="Слой 1"><rect id="canvas_background" data-name="canvas background" width="22" height="22" style="fill:none"/><path d="M1.5,5.66V4.47H2.69V5.66ZM1.5,8V6.84H2.69V8Zm0,2.38V9.22H2.69v1.19Zm0,2.37V11.59H2.69v1.19Zm0,2.38V14H2.69v1.19Zm0,2.37V16.34H2.69v1.19ZM3.88,5.66V4.47H5.06V5.66Zm0,11.87V16.34H5.06v1.19Zm2.37,0V4.47h9.5V17.53ZM7.44,5.66V16.34h7.12V5.66Zm9.5,0V4.47h1.19V5.66Zm0,11.87V16.34h1.19v1.19ZM19.31,4.47H20.5V5.66H19.31Zm0,3.56V6.84H20.5V8Zm0,2.38V9.22H20.5v1.19Zm0,2.37V11.59H20.5v1.19Zm0,2.38V14H20.5v1.19Zm0,2.37V16.34H20.5v1.19Z" style="fill:#fff"/></g></g></svg>