<?xml version="1.0" encoding="utf-8"?>
<!-- Generator: Adobe Illustrator 24.1.2, SVG Export Plug-In . SVG Version: 6.00 Build 0)  -->
<svg version="1.1" id="Слой_1" xmlns="http://www.w3.org/2000/svg" xmlns:xlink="http://www.w3.org/1999/xlink" x="0px" y="0px"
	 viewBox="0 0 512 512" style="enable-background:new 0 0 512 512;" xml:space="preserve">
<style type="text/css">
	.st0{fill:none;}
	.st1{fill:#FFFFFF;}
</style>
<g>
	<rect id="canvas_background_59_" x="0" y="0" class="st0" width="512" height="512"/>
	<path class="st1" d="M507.2,484.8c3.2,3.2,4.7,6.9,4.7,11.3c0,4.3-1.6,8.1-4.8,11.3c-3.2,3.2-6.9,4.8-11.3,4.8
		c-4.3,0-8.1-1.6-11.2-4.8l-196.2-196c-16,13.2-33.5,23.2-52.6,30.2S196.8,352,176,352c-16.2,0-31.8-2.1-46.7-6.3
		c-15-4.2-29-10.1-42-17.8c-13-7.7-24.9-16.9-35.6-27.6s-20-22.6-27.6-35.6c-7.7-13-13.6-27-17.7-42S0,192.2,0,176
		c0-16.2,2.1-31.7,6.3-46.7s10.1-29,17.8-42s16.9-24.9,27.6-35.6s22.6-20,35.6-27.6s27-13.6,42-17.7C144.3,2.1,159.8,0,176,0
		c16.2,0,31.7,2.1,46.7,6.3c15,4.2,29,10.1,42,17.8c13,7.7,24.9,16.9,35.6,27.6s20,22.6,27.6,35.6s13.6,27,17.7,42
		c4.2,15,6.3,30.6,6.3,46.7c0,20.8-3.5,40.8-10.5,59.9s-17.1,36.6-30.3,52.6L507.2,484.8z M176,320c19.8,0,38.5-3.8,56-11.4
		c17.5-7.6,32.8-17.9,45.8-30.9s23.3-28.2,30.9-45.7c7.6-17.5,11.4-36.2,11.4-56s-3.8-38.5-11.4-56s-17.9-32.8-30.9-45.8
		S249.5,51,232,43.4S195.8,32,176,32s-38.5,3.8-56,11.4S87.3,61.3,74.3,74.3S51,102.5,43.4,120S32,156.2,32,176
		c0,19.8,3.8,38.5,11.4,56s17.9,32.8,30.9,45.8s28.2,23.3,45.7,30.9S156.2,320,176,320z M192,160l64,0v32l-64,0l0,64l-32,0l0-64
		l-64,0l0-32l64,0l0-64l32,0L192,160z"/>
</g>
</svg>
