<svg version="1.1" id="Layer_1" xmlns="http://www.w3.org/2000/svg" xmlns:xlink="http://www.w3.org/1999/xlink" x="0px" y="0px" viewBox="0 0 16 16" style="enable-background:new 0 0 16 16;" xml:space="preserve">
<g>
	<rect x="1.5" y="1.5" style="fill:#C2E8FF;" width="3" height="3"></rect>
	<g>
		<path style="fill:#7496C4;" d="M4,2v2H2V2H4 M5,1H1v4h4V1L5,1z"></path>
	</g>
</g>
<g>
	<rect x="6.5" y="1.5" style="fill:#C2E8FF;" width="3" height="3"></rect>
	<g>
		<path style="fill:#7496C4;" d="M9,2v2H7V2H9 M10,1H6v4h4V1L10,1z"></path>
	</g>
</g>
<g>
	<rect x="11.5" y="1.5" style="fill:#C2E8FF;" width="3" height="3"></rect>
	<g>
		<path style="fill:#7496C4;" d="M14,2v2h-2V2H14 M15,1h-4v4h4V1L15,1z"></path>
	</g>
</g>
<g>
	<rect x="1.5" y="6.5" style="fill:#C2E8FF;" width="3" height="3"></rect>
	<g>
		<path style="fill:#7496C4;" d="M4,7v2H2V7H4 M5,6H1v4h4V6L5,6z"></path>
	</g>
</g>
<g>
	<rect x="6.5" y="6.5" style="fill:#C2E8FF;" width="3" height="3"></rect>
	<g>
		<path style="fill:#7496C4;" d="M9,7v2H7V7H9 M10,6H6v4h4V6L10,6z"></path>
	</g>
</g>
<g>
	<rect x="11.5" y="6.5" style="fill:#C2E8FF;" width="3" height="3"></rect>
	<g>
		<path style="fill:#7496C4;" d="M14,7v2h-2V7H14 M15,6h-4v4h4V6L15,6z"></path>
	</g>
</g>
<g>
	<rect x="1.5" y="11.5" style="fill:#C2E8FF;" width="3" height="3"></rect>
	<g>
		<path style="fill:#7496C4;" d="M4,12v2H2v-2H4 M5,11H1v4h4V11L5,11z"></path>
	</g>
</g>
<g>
	<rect x="6.5" y="11.5" style="fill:#C2E8FF;" width="3" height="3"></rect>
	<g>
		<path style="fill:#7496C4;" d="M9,12v2H7v-2H9 M10,11H6v4h4V11L10,11z"></path>
	</g>
</g>
<g>
	<rect x="11.5" y="11.5" style="fill:#C2E8FF;" width="3" height="3"></rect>
	<g>
		<path style="fill:#7496C4;" d="M14,12v2h-2v-2H14 M15,11h-4v4h4V11L15,11z"></path>
	</g>
</g>
</svg>