<svg xmlns="http://www.w3.org/2000/svg" xmlns:xlink="http://www.w3.org/1999/xlink" version="1.1" id="Layer_1" x="0px" y="0px" viewBox="0 0 16 16" style="enable-background:new 0 0 16 16;" xml:space="preserve">
<g>
	<path style="fill:#B0C1D4;" d="M9.5,4.5V2c0-0.8,0.7-1.5,1.5-1.5s1.5,0.7,1.5,1.5v2.5H9.5z"></path>
	<path style="fill:#66798F;" d="M11,1c0.6,0,1,0.4,1,1v2h-2V2C10,1.4,10.4,1,11,1 M11,0C9.9,0,9,0.9,9,2v3h4V2C13,0.9,12.1,0,11,0   L11,0z"></path>
</g>
<g>
	<path style="fill:#B0C1D4;" d="M9.5,12V3.7c0-0.6,0.2-1.5,1.9-1.5c1.2,0,1.8,0.7,1.9,0.9c0.7,2.4,1.9,7,2.1,8.9H9.5z"></path>
	<path style="fill:#66798F;" d="M11.4,2.7c0.8,0,1.3,0.5,1.5,0.7c0.7,2.5,1.7,6.2,2,8.2H10V3.7C10,3.3,10.1,2.7,11.4,2.7 M11.4,1.7   C9.5,1.7,9,2.8,9,3.7c0,0.5,0,5.2,0,8.8h7c0-2-2.2-9.6-2.2-9.6S13,1.7,11.4,1.7L11.4,1.7z"></path>
</g>
<g>
	<path style="fill:#B0C1D4;" d="M9.5,8.8C9.1,8.7,8.6,8.6,8,8.6S6.9,8.7,6.5,8.8V4.7c0.4-0.1,1-0.2,1.5-0.2s1.1,0.1,1.5,0.2V8.8z"></path>
	<path style="fill:#66798F;" d="M8,5c0.3,0,0.7,0,1,0.1v3.1c-0.3,0-0.7-0.1-1-0.1s-0.7,0-1,0.1V5.1C7.3,5,7.7,5,8,5 M8,4   C7,4,6,4.3,6,4.3s0,4.3,0,5.1c0,0,1-0.3,2-0.3s2,0.3,2,0.3c0-0.8,0-5.1,0-5.1S9,4,8,4L8,4z"></path>
</g>
<g>
	<circle style="fill:#DCD5F2;" cx="12.5" cy="12.5" r="3"></circle>
	<g>
		<path style="fill:#8B75A1;" d="M12.5,10c1.4,0,2.5,1.1,2.5,2.5S13.9,15,12.5,15S10,13.9,10,12.5S11.1,10,12.5,10 M12.5,9    C10.6,9,9,10.6,9,12.5s1.6,3.5,3.5,3.5s3.5-1.6,3.5-3.5S14.4,9,12.5,9L12.5,9z"></path>
	</g>
</g>
<g>
	<path style="fill:#B0C1D4;" d="M3.5,4.5V2c0-0.8,0.7-1.5,1.5-1.5S6.5,1.2,6.5,2v2.5H3.5z"></path>
	<path style="fill:#66798F;" d="M5,1c0.6,0,1,0.4,1,1v2H4V2C4,1.4,4.4,1,5,1 M5,0C3.9,0,3,0.9,3,2v3h4V2C7,0.9,6.1,0,5,0L5,0z"></path>
</g>
<g>
	<path style="fill:#B0C1D4;" d="M0.5,12c0.3-2.3,1.9-8.1,2.1-8.9c0.2-0.2,0.8-0.9,1.9-0.9c1.6,0,1.9,0.9,1.9,1.5V12H0.5z"></path>
	<path style="fill:#66798F;" d="M4.6,2.7c1.2,0,1.4,0.6,1.4,1v7.8H1.1c0.3-2,1.3-5.7,2-8.2C3.3,3.1,3.8,2.7,4.6,2.7 M4.6,1.7   C3,1.7,2.2,2.9,2.2,2.9S0,10.5,0,12.5h7c0-3.6,0-8.3,0-8.8C7,2.8,6.5,1.7,4.6,1.7L4.6,1.7z"></path>
</g>
<path style="fill:#FFFFFF;" d="M12,12.5h-1c0-0.8,0.7-1.5,1.5-1.5v1C12.2,12,12,12.2,12,12.5z"></path>
<g>
	<circle style="fill:#DCD5F2;" cx="3.5" cy="12.5" r="3"></circle>
	<g>
		<path style="fill:#8B75A1;" d="M3.5,10C4.9,10,6,11.1,6,12.5S4.9,15,3.5,15S1,13.9,1,12.5S2.1,10,3.5,10 M3.5,9    C1.6,9,0,10.6,0,12.5S1.6,16,3.5,16S7,14.4,7,12.5S5.4,9,3.5,9L3.5,9z"></path>
	</g>
</g>
<path style="fill:#FFFFFF;" d="M3,12.5H2C2,11.7,2.7,11,3.5,11v1C3.2,12,3,12.2,3,12.5z"></path>
</svg>