<svg version="1.1" xmlns="http://www.w3.org/2000/svg" xmlns:xlink="http://www.w3.org/1999/xlink" x="0px" y="0px" viewBox="0 0 16 16" style="enable-background:new 0 0 16 16;" xml:space="preserve">
<g id="Layer_1">
	<g>
		<g>
			<path style="fill:#8BB7F0;" d="M11.181,6.5l1.456-1.456l-0.263-0.348C11.319,3.301,9.725,2.5,8,2.5c-2.466,0-4.629,1.659-5.292,4
				H0.657c0.701-3.458,3.764-6,7.343-6c2.209,0,4.297,0.978,5.729,2.683l0.351,0.417l1.42-1.42V6.5H11.181z"></path>
		</g>
		<g>
			<path style="fill:#4E7AB5;" d="M8,1c2.061,0,4.009,0.913,5.347,2.504l0.702,0.835l0.771-0.771L15,3.388V6h-2.612l0.295-0.295
				l0.616-0.616l-0.525-0.695C11.622,2.873,9.882,2,8,2C5.439,2,3.178,3.64,2.343,6H1.297C2.164,3.083,4.87,1,8,1 M8,0
				C3.921,0,0.562,3.055,0.069,7h3.032C3.564,4.718,5.581,3,8,3c1.63,0,3.063,0.791,3.976,1.998L9.974,7H16V0.974l-1.887,1.887
				C12.646,1.116,10.458,0,8,0L8,0z"></path>
		</g>
	</g>
	<g>
		<g>
			<path style="fill:#8BB7F0;" d="M8,15.5c-2.209,0-4.297-0.978-5.729-2.683L1.92,12.399l-1.42,1.42V9.5h4.319l-1.456,1.456
				l0.263,0.348C4.681,12.699,6.275,13.5,8,13.5c2.466,0,4.629-1.659,5.292-4h2.051C14.642,12.958,11.579,15.5,8,15.5z"></path>
		</g>
		<g>
			<path style="fill:#4E7AB5;" d="M14.703,10C13.836,12.917,11.13,15,8,15c-2.061,0-4.009-0.913-5.347-2.504l-0.702-0.835
				L1.18,12.432L1,12.612V10h2.612l-0.295,0.295l-0.616,0.616l0.525,0.695C4.378,13.127,6.118,14,8,14c2.561,0,4.822-1.64,5.657-4
				H14.703 M15.931,9h-3.032c-0.463,2.282-2.48,4-4.899,4c-1.63,0-3.063-0.791-3.976-1.998L6.026,9H0v6.026l1.887-1.887
				C3.354,14.884,5.542,16,8,16C12.079,16,15.438,12.945,15.931,9L15.931,9z"></path>
		</g>
	</g>
</g>
<g id="Layer_2">
</g>
</svg>