<svg xmlns="http://www.w3.org/2000/svg" xmlns:xlink="http://www.w3.org/1999/xlink" version="1.1" id="Layer_1" x="0px" y="0px" viewBox="0 0 16 16" style="enable-background:new 0 0 16 16;" xml:space="preserve">
<rect x="10.2" y="9.9" transform="matrix(0.8742 -0.4856 0.4856 0.8742 -4.7768 6.7657)" style="fill:#788B9C;" width="1" height="5.5"></rect>
<path style="fill:#36404D;" d="M12,14C12.1,14,11.9,14,12,14c0.6,0,1,0.4,1,1s-0.4,1-1,1c-0.1,0,0.1,0,0,0c-0.6,0-1-0.4-1-1  S11.4,14,12,14z"></path>
<rect x="2.6" y="12.1" transform="matrix(0.4862 -0.8738 0.8738 0.4862 -8.2702 11.1342)" style="fill:#788B9C;" width="5.5" height="1"></rect>
<path style="fill:#36404D;" d="M4,14C3.9,14,4.1,14,4,14c-0.6,0-1,0.4-1,1s0.4,1,1,1c0.1,0-0.1,0,0,0c0.6,0,1-0.4,1-1S4.6,14,4,14z"></path>
<rect x="7" style="fill:#66798F;" width="2" height="14"></rect>
<g>
	<rect x="1.5" y="1.5" style="fill:#C2E8FF;" width="13" height="10"></rect>
	<g>
		<path style="fill:#7496C4;" d="M14,2v9H2V2H14 M15,1H1v11h14V1L15,1z"></path>
	</g>
</g>
<polygon style="fill:#C74343;" points="3.9,10.2 3.1,9.6 5.3,6.6 6.7,7.6 8.1,5.2 9.6,6.3 10.4,5.1 11.3,5.3 12.1,3.8 13,4.3   11.8,6.5 10.8,6.2 9.8,7.7 8.4,6.7 7,9.1 5.5,8 "></polygon>
<g>
	<rect y="1" style="fill:#E1EBF2;" width="16" height="1"></rect>
	<polygon style="fill:#788B9C;" points="16,1 0,1 0,2 16,2  "></polygon>
</g>
</svg>