<svg version="1.1" id="Layer_1" xmlns="http://www.w3.org/2000/svg" xmlns:xlink="http://www.w3.org/1999/xlink" x="0px" y="0px" viewBox="0 0 16 16" style="enable-background:new 0 0 16 16;" xml:space="preserve">
<g>
	<path style="fill:#66798F;" d="M8,1c1.654,0,3,1.346,3,3v3.49H5V4C5,2.346,6.346,1,8,1 M8,0C5.791,0,4,1.791,4,4
		c0,0.163,0,4.49,0,4.49h8c0,0,0-4.326,0-4.49C12,1.791,10.209,0,8,0L8,0z"></path>
</g>
<g>
	<path style="fill:#F5CE85;" d="M1.5,14.5V8c0-0.827,0.673-1.5,1.5-1.5h10c0.827,0,1.5,0.673,1.5,1.5v6.5H1.5z"></path>
	<path style="fill:#967A44;" d="M13,7c0.551,0,1,0.449,1,1v6H2V8c0-0.551,0.449-1,1-1H13 M13,6H3C1.895,6,1,6.895,1,8v7h14V8
		C15,6.895,14.105,6,13,6L13,6z"></path>
</g>
<rect x="2" y="12" style="fill:#FFEEA3;" width="12" height="1"></rect>
<rect x="2" y="10" style="fill:#FFEEA3;" width="12" height="1"></rect>
<rect x="2" y="8" style="fill:#FFEEA3;" width="12" height="1"></rect>
</svg>