<svg xmlns="http://www.w3.org/2000/svg" width="7.76111mm" height="7.76111mm" viewBox="0 0 22 22">
  <defs>
    <style>
      .a {
        fill: none;
      }

      .b {
        fill: #2b73b9;
      }
    </style>
  </defs>
  <g>
    <rect class="a" width="22" height="22"/>
    <path class="b" d="M17.80957,1.5a2.60868,2.60868,0,0,1,1.04834.21338,2.69129,2.69129,0,0,1,1.42871,1.42871A2.60868,2.60868,0,0,1,20.5,4.19043a2.69734,2.69734,0,0,1-.2041,1.03418,2.6602,2.6602,0,0,1-.58447.87695L17.48486,8.32813A2.14294,2.14294,0,0,1,17.958,9.001a2.04993,2.04993,0,0,1,.00488,1.60937,2.17023,2.17023,0,0,1-.45947.668l-1.45654,1.45654L14.5625,11.24121,7.09424,18.70947l-.24121.00928a2.39258,2.39258,0,0,0-.812.15771,2.51619,2.51619,0,0,0-.59375.33838,4.15916,4.15916,0,0,0-.46387.42237,5.07536,5.07536,0,0,1-.44043.41748,2.201,2.201,0,0,1-.51026.32031,1.65425,1.65425,0,0,1-.67724.125,1.7657,1.7657,0,0,1-.71875-.14844,1.88058,1.88058,0,0,1-.98828-.98828A1.7657,1.7657,0,0,1,1.5,18.64453a1.686,1.686,0,0,1,.125-.68164,2.07818,2.07818,0,0,1,.32031-.51074,5.47618,5.47618,0,0,1,.41748-.43555,4.15916,4.15916,0,0,0,.42237-.46387,2.54427,2.54427,0,0,0,.33838-.58935,2.37126,2.37126,0,0,0,.15771-.81641l.00928-.24121L10.75879,7.4375,9.26514,5.95313l1.45654-1.45655a2.17023,2.17023,0,0,1,.668-.45947A2.04993,2.04993,0,0,1,12.999,4.042a2.14309,2.14309,0,0,1,.67286.47315l2.22656-2.22657a2.6602,2.6602,0,0,1,.877-.58447A2.69734,2.69734,0,0,1,17.80957,1.5Zm-4.09131,8.90625L11.59375,8.28174,4.45947,15.416a3.651,3.651,0,0,1-.17627.84423,3.335,3.335,0,0,1-.334.69092,4.1779,4.1779,0,0,1-.47754.61231q-.27393.293-.58936.61718a.64419.64419,0,0,0-.19482.47315.66527.66527,0,0,0,.65869.65869.64419.64419,0,0,0,.47315-.19482q.32445-.315.62158-.58936a4.57426,4.57426,0,0,1,.6123-.47754,3.22976,3.22976,0,0,1,.68653-.334,3.651,3.651,0,0,1,.84423-.17627Zm5.14893-5.14893a1.44484,1.44484,0,0,0,.44531-1.05761,1.46011,1.46011,0,0,0-.12061-.58448,1.51607,1.51607,0,0,0-.80712-.80712,1.46011,1.46011,0,0,0-.58448-.12061,1.44484,1.44484,0,0,0-1.05761.44531l-3.0708,3.06153-.87208-.87207a.83935.83935,0,0,0-.6123-.25977.7614.7614,0,0,0-.36621.09277,1.66078,1.66078,0,0,0-.3252.23194q-.15234.13916-.292.29248c-.09277.10156-.17969.19336-.25976.27344l5.10254,5.10253.63085-.63086a.83776.83776,0,0,0,.25977-.6123.81968.81968,0,0,0-.06934-.33887.987.987,0,0,0-.1997-.28271l-.8628-.86279Z"/>
  </g>
</svg>
