<svg xmlns="http://www.w3.org/2000/svg" width="7.76111mm" height="7.76111mm" viewBox="0 0 22 22">
  <defs>
    <style>
      .a {
        fill: none;
      }

      .b {
        fill: #2b73b9;
      }
    </style>
  </defs>
  <g>
    <rect class="a" width="22" height="22"/>
    <path class="b" d="M8.03125,15.16553h1.1875L8.03125,16.353H3.62451L2.09375,14.82227V3.29053a1.14914,1.14914,0,0,1,.09277-.46387,1.20483,1.20483,0,0,1,.63086-.63086A1.15573,1.15573,0,0,1,3.28125,2.103h11.875a1.15743,1.15743,0,0,1,.46387.09277,1.20483,1.20483,0,0,1,.63086.63086,1.15743,1.15743,0,0,1,.09277.46387v4.75L15.15625,9.228V3.29053h-1.1875V9.228h-9.5V3.29053H3.28125V14.32129l.84424.84424h.34326v-4.75h8.3125V11.603l-1.1875,1.1875V11.603H5.65625v3.5625h1.1875v-2.375h1.1875Zm-2.375-7.125h7.125v-4.75h-7.125ZM18.05078,9.228a1.89942,1.89942,0,0,1,.72852.13916,1.81632,1.81632,0,0,1,.58886.38525,1.7903,1.7903,0,0,1,.39454.584A1.88806,1.88806,0,0,1,19.76709,11.77a1.80058,1.80058,0,0,1-.39893.603L12.71631,19.0249,9.21875,19.897l.87207-3.49756,6.65186-6.64257a1.74483,1.74483,0,0,1,.603-.39893A1.93076,1.93076,0,0,1,18.05078,9.228Zm.47315,2.31006a.64419.64419,0,0,0,.19482-.47315.61892.61892,0,0,0-.19043-.46875.667.667,0,0,0-.47754-.18066.74538.74538,0,0,0-.25049.042.54956.54956,0,0,0-.21338.13428L11.167,17.01172l-.31543,1.25244,1.25244-.31543Z"/>
  </g>
</svg>
