<svg xmlns="http://www.w3.org/2000/svg" width="7.76111mm" height="7.76111mm" viewBox="0 0 22 22">
  <defs>
    <style>
      .a {
        fill: none;
      }

      .b {
        fill: #2b73b9;
      }
    </style>
  </defs>
  <g>
    <rect class="a" width="22" height="22"/>
    <path class="b" d="M18.71875,5.0625h-1.1875V18.71875a1.74643,1.74643,0,0,1-.13916.6958,1.77185,1.77185,0,0,1-.94629.94629A1.74987,1.74987,0,0,1,15.75,20.5H6.25a1.74643,1.74643,0,0,1-.6958-.13916,1.77185,1.77185,0,0,1-.94629-.94629,1.74643,1.74643,0,0,1-.13916-.6958V5.0625H3.28125V3.875h4.75V2.6875A1.14914,1.14914,0,0,1,8.124,2.22363a1.20492,1.20492,0,0,1,.63086-.63086A1.15573,1.15573,0,0,1,9.21875,1.5h3.5625a1.15743,1.15743,0,0,1,.46387.09277,1.20492,1.20492,0,0,1,.63086.63086,1.15743,1.15743,0,0,1,.09277.46387V3.875h4.75Zm-2.375,0H5.65625V18.71875A.602.602,0,0,0,6.25,19.3125h9.5a.602.602,0,0,0,.59375-.59375Zm-7.125,11.875H8.03125v-9.5h1.1875Zm0-13.0625h3.5625V2.6875H9.21875Zm2.375,13.0625h-1.1875v-9.5h1.1875Zm2.375,0h-1.1875v-9.5h1.1875Z"/>
  </g>
</svg>
