<?xml version="1.0" encoding="utf-8"?>
<!-- Generator: Adobe Illustrator 24.1.2, SVG Export Plug-In . SVG Version: 6.00 Build 0)  -->
<svg version="1.1" id="Слой_1" xmlns="http://www.w3.org/2000/svg" xmlns:xlink="http://www.w3.org/1999/xlink" x="0px" y="0px"
	 viewBox="0 0 512 512" style="enable-background:new 0 0 512 512;" xml:space="preserve">
<style type="text/css">
	.st0{fill:none;}
	.st1{fill:#0078D7;}
</style>
<g>
	<rect id="canvas_background_129_" class="st0" width="512" height="512"/>
	<path class="st1" d="M464,96h-32v368c0,6.7-1.3,12.9-3.8,18.8s-5.9,10.9-10.3,15.3c-4.3,4.3-9.4,7.8-15.3,10.3
		c-5.8,2.5-12.1,3.8-18.8,3.8H128c-6.7,0-12.9-1.3-18.8-3.8c-5.8-2.5-10.9-5.9-15.3-10.3c-4.3-4.3-7.8-9.4-10.3-15.3
		S80,470.7,80,464V96H48V64h128V32c0-4.5,0.8-8.7,2.5-12.5s4-7.2,6.9-10.1s6.3-5.2,10.1-6.9S203.5,0,208,0h96
		c4.5,0,8.7,0.8,12.5,2.5s7.2,4,10.1,6.9s5.2,6.3,6.9,10.1c1.7,3.8,2.5,8,2.5,12.5v32h128V96z M400,96H112v368
		c0,4.3,1.6,8.1,4.8,11.3c3.2,3.2,6.9,4.8,11.3,4.8h256c4.3,0,8.1-1.6,11.3-4.8c3.2-3.2,4.8-6.9,4.8-11.3V96H400z M208,416h-32V160
		h32V416z M208,64h96V32h-96V64z M272,416h-32V160h32V416z M336,416h-32V160h32V416z"/>
</g>
</svg>
