<svg xmlns="http://www.w3.org/2000/svg" width="7.76111mm" height="7.76111mm" viewBox="0 0 22 22">
  <defs>
    <style>
      .a {
        fill: none;
      }

      .b {
        fill: #2b73b9;
      }
    </style>
  </defs>
  <g>
    <rect class="a" width="22" height="22"/>
    <path class="b" d="M20.5,4.60791a3.15331,3.15331,0,0,1-.23193,1.1875,3.03532,3.03532,0,0,1-.67725,1.02051L7.37256,19.03418,1.5,20.5l1.46582-5.87256L15.18408,2.40918a3.03532,3.03532,0,0,1,1.02051-.67725A3.15331,3.15331,0,0,1,17.39209,1.5a2.992,2.992,0,0,1,1.20605.24609,3.14373,3.14373,0,0,1,1.65577,1.65577A2.992,2.992,0,0,1,20.5,4.60791ZM3.13281,18.86719l3.05225-.76074a2.99,2.99,0,0,0-2.29151-2.29151Zm1.3916-4.11914A4.22324,4.22324,0,0,1,7.252,17.47559L17.28076,7.4375,14.5625,4.71924ZM18.125,6.59326q.23145-.23145.44531-.436a3.277,3.277,0,0,0,.38037-.43164,1.97187,1.97187,0,0,0,.26416-.49121,1.77216,1.77216,0,0,0,.09766-.61719,1.82966,1.82966,0,0,0-.15332-.74707,1.98681,1.98681,0,0,0-1.0293-1.0293,1.82966,1.82966,0,0,0-.74707-.15332,1.77207,1.77207,0,0,0-.61718.09766,1.97176,1.97176,0,0,0-.49122.26416,3.277,3.277,0,0,0-.43164.38037q-.20434.21387-.436.44531Z"/>
  </g>
</svg>
