<svg xmlns="http://www.w3.org/2000/svg" width="7.76111mm" height="7.76111mm" viewBox="0 0 22 22">
  <defs>
    <style>
      .a {
        fill: none;
      }

      .b {
        fill: #2b73b9;
      }
    </style>
  </defs>
  <g>
    <rect class="a" width="22" height="22"/>
    <path class="b" d="M1.83887,8.47656A9.60831,9.60831,0,0,1,2.794,6.20361,9.47807,9.47807,0,0,1,6.20361,2.794a9.60831,9.60831,0,0,1,2.27295-.95508,9.58317,9.58317,0,0,1,5.05176,0,9.63258,9.63258,0,0,1,2.26807.95508,9.47807,9.47807,0,0,1,3.40966,3.40966,9.60831,9.60831,0,0,1,.95508,2.27295A9.34655,9.34655,0,0,1,20.5,11H19.3125a8.132,8.132,0,0,0-.29687-2.20312,8.34982,8.34982,0,0,0-5.8125-5.8125,8.32306,8.32306,0,0,0-4.40625,0,8.34977,8.34977,0,0,0-5.8125,5.8125,8.30335,8.30335,0,0,0,.0371,4.53173,8.3081,8.3081,0,0,0,.95557,2.11084,8.47692,8.47692,0,0,0,1.49854,1.76709A7.99011,7.99011,0,0,0,7.4375,18.50537V15.75H8.625V20.5H3.875V19.3125H6.417A9.20364,9.20364,0,0,1,4.3667,17.80029,9.46768,9.46768,0,0,1,2.82227,15.8291a9.69094,9.69094,0,0,1-.979-2.30566,9.50564,9.50564,0,0,1-.00439-5.04688Zm10.084.334a2.39175,2.39175,0,0,1,1.2666,1.2666,2.38771,2.38771,0,0,1,0,1.8457,2.39175,2.39175,0,0,1-1.2666,1.2666,2.38771,2.38771,0,0,1-1.8457,0,2.39175,2.39175,0,0,1-1.2666-1.2666,2.38771,2.38771,0,0,1,0-1.8457,2.39175,2.39175,0,0,1,1.2666-1.2666,2.38771,2.38771,0,0,1,1.8457,0Zm-.459,3.28418a1.20492,1.20492,0,0,0,.63086-.63086,1.20611,1.20611,0,0,0,0-.92774,1.20492,1.20492,0,0,0-.63086-.63086,1.20611,1.20611,0,0,0-.92774,0,1.20492,1.20492,0,0,0-.63086.63086,1.20611,1.20611,0,0,0,0,.92774,1.20492,1.20492,0,0,0,.63086.63086,1.20611,1.20611,0,0,0,.92774,0Z"/>
  </g>
</svg>
