<svg xmlns="http://www.w3.org/2000/svg" width="7.76111mm" height="7.76111mm" viewBox="0 0 22 22">
  <defs>
    <style>
      .a {
        fill: none;
      }

      .b {
        fill: #2b73b9;
      }
    </style>
  </defs>
  <g>
    <rect class="a" width="22" height="22"/>
    <path class="b" d="M19.3125,8.625a1.16478,1.16478,0,0,1,.459.09277,1.17892,1.17892,0,0,1,.63575.63575,1.16478,1.16478,0,0,1,.09277.459V18.125H15.75V20.5H6.25V18.125H1.5V9.8125a1.1562,1.1562,0,0,1,.09277-.459,1.17892,1.17892,0,0,1,.63575-.63575,1.163,1.163,0,0,1,.459-.09277H6.25V1.5h9.5V8.625Zm0,1.1875H2.6875v7.125H6.25V13.375h9.5v3.5625h3.5625ZM4.46875,11a.602.602,0,1,1-.41748.17627A.5724.5724,0,0,1,4.46875,11ZM7.4375,8.625h7.125V2.6875H7.4375Zm7.125,5.9375H7.4375v4.75h7.125Z"/>
  </g>
</svg>
