<?xml version="1.0" encoding="utf-8"?>
<!-- Generator: Adobe Illustrator 24.1.2, SVG Export Plug-In . SVG Version: 6.00 Build 0)  -->
<svg version="1.1" id="Слой_1" xmlns="http://www.w3.org/2000/svg" xmlns:xlink="http://www.w3.org/1999/xlink" x="0px" y="0px"
	 viewBox="0 0 512 512" style="enable-background:new 0 0 512 512;" xml:space="preserve">
<style type="text/css">
	.st0{fill:none;}
	.st1{fill:#0078D7;}
</style>
<g>
	<rect id="canvas_background_127_" class="st0" width="512" height="512"/>
	<path class="st1" d="M480,192c4.3,0,8.5,0.8,12.4,2.5s7.3,4,10.3,6.9c2.9,2.9,5.2,6.3,6.9,10.3c1.7,3.9,2.5,8,2.5,12.4v224H384v64
		H128v-64H0V224c0-4.3,0.8-8.5,2.5-12.4s4-7.3,6.9-10.3c2.9-2.9,6.3-5.2,10.3-6.9c3.9-1.7,8-2.5,12.4-2.5h96V0h256v192H480z
		 M480,224H32v192h96v-96h256v96h96V224z M80,256c4.3,0,8.1,1.6,11.3,4.8c3.2,3.2,4.8,6.9,4.8,11.3s-1.6,8.1-4.8,11.3
		c-3.2,3.2-6.9,4.8-11.3,4.8c-4.3,0-8.1-1.6-11.3-4.8c-3.2-3.2-4.8-6.9-4.8-11.3s1.6-8.1,4.8-11.3C71.9,257.6,75.7,256,80,256z
		 M160,192h192V32H160V192z M352,352H160v128h192V352z"/>
</g>
</svg>
