<?xml version="1.0" encoding="utf-8"?>
<!-- Generator: Adobe Illustrator 24.1.2, SVG Export Plug-In . SVG Version: 6.00 Build 0)  -->
<svg version="1.1" id="Слой_1" xmlns="http://www.w3.org/2000/svg" xmlns:xlink="http://www.w3.org/1999/xlink" x="0px" y="0px"
	 viewBox="0 0 512 512" style="enable-background:new 0 0 512 512;" xml:space="preserve">
<style type="text/css">
	.st0{fill:none;}
	.st1{fill:#0078D7;}
</style>
<g>
	<rect id="canvas_background_119_" class="st0" width="512" height="512"/>
	<path class="st1" d="M400.3,44.6c23,15.9,42.8,34.7,59.4,56.5s29.5,45.8,38.6,72.3c9.2,26.4,13.8,54,13.8,82.6
		c0,23.5-3,46.2-9.1,68s-14.7,42.3-25.8,61.3c-11.1,19-24.4,36.3-40,51.9s-32.9,28.9-51.9,40S345.9,496.9,324,503
		c-21.8,6.1-44.5,9.1-68,9.1s-46.2-3-68-9.1s-42.3-14.7-61.3-25.8s-36.3-24.4-51.9-40s-28.9-32.9-40-51.9S15.1,345.9,9,324.2
		c-6-21.8-9-44.5-9-68.2c0-23.3,3.1-46,9.3-68s15-42.7,26.4-62.1s25.3-37.1,41.6-53S112,43.3,132.5,32H64V0h128v128h-32V53.8
		c-19.5,9.3-37.1,21-52.9,35.1s-29.2,29.9-40.4,47.5C55.6,154,47,172.9,41,193.3c-6,20.3-9,41.3-9,62.8c0,20.5,2.7,40.3,8,59.4
		s12.9,36.9,22.6,53.5s21.5,31.7,35.1,45.4c13.7,13.7,28.8,25.4,45.4,35.1c16.6,9.8,34.4,17.3,53.4,22.6c19,5.3,38.8,8,59.5,8
		c20.5,0,40.3-2.7,59.4-8s36.9-12.9,53.5-22.6c16.6-9.8,31.7-21.5,45.4-35.1c13.7-13.7,25.4-28.8,35.1-45.4s17.3-34.4,22.6-53.4
		c5.3-19,8-38.8,8-59.5c0-25-4-49.1-12.1-72.3s-19.4-44.3-33.9-63.3S402.2,85,382.1,71.1s-42.2-24.2-66.4-30.9l8.5-30.8
		C351.9,17,377.3,28.7,400.3,44.6z"/>
</g>
</svg>
