<svg xmlns="http://www.w3.org/2000/svg" width="7.76111mm" height="7.76111mm" viewBox="0 0 22 22">
  <defs>
    <style>
      .a {
        fill: none;
      }

      .b {
        fill: #2b73b9;
      }
    </style>
  </defs>
  <g>
    <rect class="a" width="22" height="22"/>
    <path class="b" d="M16.353,3.15625a9.56337,9.56337,0,0,1,3.63672,4.77734,9.51194,9.51194,0,0,1,.17138,5.58985,9.59993,9.59993,0,0,1-.95508,2.27295,9.47807,9.47807,0,0,1-3.40966,3.40966,9.60831,9.60831,0,0,1-2.27295.95508,9.565,9.565,0,0,1-5.04688,0,9.59993,9.59993,0,0,1-2.27295-.95508A9.47807,9.47807,0,0,1,2.794,15.79639a9.63258,9.63258,0,0,1-.95508-2.26807,9.52364,9.52364,0,0,1,.00439-5.05176,9.671,9.671,0,0,1,.979-2.30566A9.3506,9.3506,0,0,1,4.3667,4.2041,9.53993,9.53993,0,0,1,6.417,2.6875H3.875V1.5h4.75V6.25H7.4375V3.49463a8.33092,8.33092,0,0,0-4.416,5.17676,8.30339,8.30339,0,0,0-.0371,4.53174A8.35943,8.35943,0,0,0,8.792,19.01563a8.34147,8.34147,0,0,0,4.41114,0,8.35946,8.35946,0,0,0,5.8125-5.80762,8.2759,8.2759,0,0,0-.15333-4.88916,8.38741,8.38741,0,0,0-3.18164-4.1792,8.057,8.057,0,0,0-2.46337-1.146l.31542-1.14111A9.1009,9.1009,0,0,1,16.353,3.15625Z"/>
  </g>
</svg>
