<svg xmlns="http://www.w3.org/2000/svg" width="7.76111mm" height="7.76111mm" viewBox="0 0 22 22">
  <defs>
    <style>
      .a {
        fill: none;
      }

      .b {
        fill: #2b73b9;
      }
    </style>
  </defs>
  <g>
    <rect class="a" width="22" height="22"/>
    <path class="b" d="M20.5,11a9.31635,9.31635,0,0,1-.34326,2.52344,9.69094,9.69094,0,0,1-.979,2.30566,9.46768,9.46768,0,0,1-1.54443,1.97119A9.20364,9.20364,0,0,1,15.583,19.3125h2.542V20.5h-4.75V15.75h1.1875v2.75537a7.99011,7.99011,0,0,0,1.96191-1.29883A8.47661,8.47661,0,0,0,18.023,15.43945a8.3081,8.3081,0,0,0,.95557-2.11084,8.30348,8.30348,0,0,0,.03711-4.53173,8.34982,8.34982,0,0,0-5.8125-5.8125,8.32306,8.32306,0,0,0-4.40625,0,8.34977,8.34977,0,0,0-5.8125,5.8125A8.13166,8.13166,0,0,0,2.6875,11H1.5a9.34655,9.34655,0,0,1,.33887-2.52344A9.60831,9.60831,0,0,1,2.794,6.20361,9.47807,9.47807,0,0,1,6.20361,2.794a9.63258,9.63258,0,0,1,2.26807-.95508,9.58317,9.58317,0,0,1,5.05176,0,9.60831,9.60831,0,0,1,2.27295.95508,9.47807,9.47807,0,0,1,3.40966,3.40966,9.60831,9.60831,0,0,1,.95508,2.27295A9.34655,9.34655,0,0,1,20.5,11ZM11,8.625a2.31162,2.31162,0,0,1,.92285.18555,2.39175,2.39175,0,0,1,1.2666,1.2666,2.38771,2.38771,0,0,1,0,1.8457,2.39175,2.39175,0,0,1-1.2666,1.2666,2.38771,2.38771,0,0,1-1.8457,0,2.39175,2.39175,0,0,1-1.2666-1.2666,2.38771,2.38771,0,0,1,0-1.8457,2.39175,2.39175,0,0,1,1.2666-1.2666A2.30994,2.30994,0,0,1,11,8.625Zm0,3.5625a1.14914,1.14914,0,0,0,.46387-.09277,1.20492,1.20492,0,0,0,.63086-.63086,1.20611,1.20611,0,0,0,0-.92774,1.20492,1.20492,0,0,0-.63086-.63086,1.20611,1.20611,0,0,0-.92774,0,1.20492,1.20492,0,0,0-.63086.63086,1.20611,1.20611,0,0,0,0,.92774,1.20492,1.20492,0,0,0,.63086.63086A1.14746,1.14746,0,0,0,11,12.1875Z"/>
  </g>
</svg>
