<?xml version="1.0" encoding="utf-8"?>
<!-- Generator: Adobe Illustrator 24.1.2, SVG Export Plug-In . SVG Version: 6.00 Build 0)  -->
<svg version="1.1" id="Слой_1" xmlns="http://www.w3.org/2000/svg" xmlns:xlink="http://www.w3.org/1999/xlink" x="0px" y="0px"
	 viewBox="0 0 512 512" style="enable-background:new 0 0 512 512;" xml:space="preserve">
<style type="text/css">
	.st0{fill:none;}
	.st1{fill:#0078D7;}
</style>
<g>
	<rect id="canvas_background_103_" class="st0" width="512" height="512"/>
	<path class="st1" d="M502.9,188c-6.1-21.8-14.7-42.2-25.8-61.2s-24.4-36.3-40-51.9s-32.9-28.9-51.9-40S345.8,15.2,324,9.1
		S279.5,0,256,0c-23.7,0-46.4,3-68.1,9.1s-42.1,14.7-61.1,25.8s-36.3,24.4-51.9,40s-28.9,32.9-40,51.9S15.2,166.2,9.1,188
		S0,232.5,0,256h32c0-20.5,2.7-40.3,8-59.4s12.9-36.9,22.6-53.5s21.5-31.7,35.1-45.4s28.8-25.4,45.4-35.1s34.4-17.3,53.5-22.6
		s38.9-8,59.4-8s40.3,2.7,59.4,8s36.9,12.9,53.5,22.6s31.7,21.5,45.4,35.1c13.7,13.7,25.4,28.8,35.1,45.4
		c9.8,16.6,17.3,34.4,22.6,53.5s8,38.9,8,59.4c0,21.5-3,42.4-9,62.7c-6,20.3-14.6,39.3-25.7,56.9c-11.2,17.6-24.6,33.5-40.4,47.6
		c-15.7,14.2-33.4,25.8-52.9,35v-74.3h-32v128h128v-32h-68.5c20.5-11.2,38.9-24.8,55.2-40.8s30.2-33.7,41.6-53.1
		s20.2-40.1,26.4-62.1c6.2-22,9.2-44.7,9.2-68C512,232.5,509,209.8,502.9,188z M231.1,197c-7.8,3.3-14.5,7.9-20.4,13.8
		s-10.4,12.6-13.7,20.4s-5,16-5,24.9c0,8.8,1.7,17.1,5,24.9s7.9,14.5,13.8,20.4s12.6,10.4,20.4,13.8c7.8,3.3,16,5,24.9,5
		c8.8,0,17.1-1.7,24.9-5s14.5-7.9,20.4-13.8s10.4-12.6,13.8-20.4c3.3-7.8,5-16,5-24.9c0-8.8-1.7-17.1-5-24.9s-7.9-14.5-13.8-20.4
		s-12.6-10.4-20.4-13.7s-16-5-24.9-5C247.2,192,238.9,193.7,231.1,197z M243.5,285.5c-3.8-1.7-7.2-4-10.1-6.9s-5.2-6.3-6.9-10.1
		c-1.7-3.8-2.5-8-2.5-12.5s0.8-8.7,2.5-12.5s4-7.2,6.9-10.1s6.3-5.2,10.1-6.9s8-2.5,12.5-2.5s8.7,0.8,12.5,2.5s7.2,4,10.1,6.9
		s5.2,6.3,6.9,10.1c1.7,3.8,2.5,8,2.5,12.5s-0.8,8.7-2.5,12.5s-4,7.2-6.9,10.1s-6.3,5.2-10.1,6.9c-3.8,1.7-8,2.5-12.5,2.5
		S247.3,287.2,243.5,285.5z"/>
</g>
</svg>
