<?xml version="1.0" encoding="utf-8"?>
<!-- Generator: Adobe Illustrator 24.1.2, SVG Export Plug-In . SVG Version: 6.00 Build 0)  -->
<svg version="1.1" id="Слой_1" xmlns="http://www.w3.org/2000/svg" xmlns:xlink="http://www.w3.org/1999/xlink" x="0px" y="0px"
	 viewBox="0 0 512 512" style="enable-background:new 0 0 512 512;" xml:space="preserve">
<style type="text/css">
	.st0{fill:none;}
	.st1{fill:#0078D7;}
</style>
<rect id="canvas_background_126_" class="st0" width="512" height="512"/>
<path class="st1" d="M192,384.5h32l-32,32H73.3L32,375.2V64.5c0-4.5,0.8-8.7,2.5-12.5s4-7.2,6.9-10.1c2.9-2.9,6.3-5.2,10.1-6.9
	s8-2.5,12.5-2.5h320c4.5,0,8.7,0.8,12.5,2.5s7.2,4,10.1,6.9s5.2,6.3,6.9,10.1c1.7,3.8,2.5,8,2.5,12.5v128l-32,32v-160h-32v160H96
	v-160H64v297.3l22.8,22.8H96v-128h224v32l-32,32v-32H128v96h32v-64h32V384.5z M128,192.5h192v-128H128V192.5z M462,224.5
	c7,0,13.5,1.3,19.6,3.8s11.4,6,15.9,10.4s8,9.7,10.6,15.8s3.9,12.6,3.9,19.6c0,6.5-1.3,12.8-3.8,19s-6.1,11.6-10.8,16.3L318.3,488.5
	L224,512l23.5-94.3l179.3-179c4.8-4.8,10.3-8.4,16.3-10.8S455.3,224.5,462,224.5z M474.8,286.7c3.5-3.5,5.3-7.8,5.3-12.8
	c0-5.2-1.7-9.4-5.1-12.6c-3.4-3.3-7.7-4.9-12.9-4.9c-2.3,0-4.6,0.4-6.8,1.1c-2.2,0.8-4.1,2-5.8,3.6l-173,173l-8.5,33.8l33.8-8.5
	L474.8,286.7z"/>
</svg>
