<svg xmlns="http://www.w3.org/2000/svg" width="7.76111mm" height="7.76111mm" viewBox="0 0 22 22">
  <defs>
    <style>
      .a {
        fill: none;
      }

      .b {
        fill: #2b73b9;
      }
    </style>
  </defs>
  <g>
    <rect class="a" width="22" height="22"/>
    <path class="b" d="M1.5,5.65625V4.46875H2.6875v1.1875Zm0,2.375V6.84375H2.6875v1.1875Zm0,2.375V9.21875H2.6875v1.1875Zm0,2.375v-1.1875H2.6875v1.1875Zm0,2.375v-1.1875H2.6875v1.1875Zm0,2.375v-1.1875H2.6875v1.1875Zm2.375-11.875V4.46875H5.0625v1.1875Zm0,11.875v-1.1875H5.0625v1.1875Zm2.375,0V4.46875h9.5v13.0625Zm1.1875-11.875v10.6875h7.125V5.65625Zm9.5,0V4.46875H18.125v1.1875Zm0,11.875v-1.1875H18.125v1.1875Zm2.375-13.0625H20.5v1.1875H19.3125Zm0,3.5625V6.84375H20.5v1.1875Zm0,2.375V9.21875H20.5v1.1875Zm0,2.375v-1.1875H20.5v1.1875Zm0,2.375v-1.1875H20.5v1.1875Zm0,2.375v-1.1875H20.5v1.1875Z"/>
  </g>
</svg>
