<svg xmlns="http://www.w3.org/2000/svg" width="7.76111mm" height="7.76111mm" viewBox="0 0 22 22">
  <defs>
    <style>
      .a {
        fill: none;
      }

      .b {
        fill: #2b73b9;
      }
    </style>
  </defs>
  <g>
    <rect class="a" width="22" height="22"/>
    <path class="b" d="M5.65625,20.5H4.46875V19.3125h1.1875Zm2.375,0H6.84375V19.3125h1.1875Zm2.375,0H9.21875V19.3125h1.1875Zm2.375,0h-1.1875V19.3125h1.1875Zm2.375,0h-1.1875V19.3125h1.1875Zm2.375,0h-1.1875V19.3125h1.1875Zm-11.875-2.375H4.46875V16.9375h1.1875Zm11.875,0h-1.1875V16.9375h1.1875Zm0-2.375H4.46875V6.25h13.0625Zm-11.875-1.1875h10.6875V7.4375H5.65625Zm0-9.5H4.46875V3.875h1.1875Zm11.875,0h-1.1875V3.875h1.1875ZM4.46875,2.6875V1.5h1.1875V2.6875Zm3.5625,0H6.84375V1.5h1.1875Zm2.375,0H9.21875V1.5h1.1875Zm2.375,0h-1.1875V1.5h1.1875Zm2.375,0h-1.1875V1.5h1.1875Zm2.375,0h-1.1875V1.5h1.1875Z"/>
  </g>
</svg>
