<svg xmlns="http://www.w3.org/2000/svg" width="7.76111mm" height="7.76111mm" viewBox="0 0 22 22">
  <defs>
    <style>
      .a {
        fill: none;
      }

      .b {
        fill: #2b73b9;
      }
    </style>
  </defs>
  <g>
    <rect class="a" width="22" height="22"/>
    <path class="b" d="M11,5.0625a10.76888,10.76888,0,0,1,2.63477.3291,10.28674,10.28674,0,0,1,2.46777.96973,9.349,9.349,0,0,1,2.10156,1.582,7.93721,7.93721,0,0,1,1.53516,2.166,7.84216,7.84216,0,0,1,.56592,1.59082A7.23444,7.23444,0,0,1,20.5,13.375H19.3125a6.17313,6.17313,0,0,0-.334-2.05029,6.46186,6.46186,0,0,0-.92286-1.74414,7.41863,7.41863,0,0,0-1.3872-1.41016,8.82364,8.82364,0,0,0-1.72119-1.04834,9.44436,9.44436,0,0,0-1.93409-.64941,9.21241,9.21241,0,0,0-4.02636,0,9.43441,9.43441,0,0,0-1.93409.64941A8.80914,8.80914,0,0,0,5.33154,8.17041a7.4044,7.4044,0,0,0-1.3872,1.41016,6.46186,6.46186,0,0,0-.92286,1.74414,6.17313,6.17313,0,0,0-.334,2.05029H1.5a7.23444,7.23444,0,0,1,.19482-1.6748,7.81265,7.81265,0,0,1,.56592-1.59082,7.92674,7.92674,0,0,1,1.53516-2.166,9.338,9.338,0,0,1,2.10156-1.582A10.27874,10.27874,0,0,1,8.36523,5.3916,10.76593,10.76593,0,0,1,11,5.0625Zm0,4.75a3.47355,3.47355,0,0,1,1.38232.27832,3.58172,3.58172,0,0,1,1.90186,1.90186,3.58284,3.58284,0,0,1,0,2.769,3.59355,3.59355,0,0,1-1.90186,1.89746,3.58284,3.58284,0,0,1-2.769,0,3.60549,3.60549,0,0,1-1.89746-1.89746,3.58284,3.58284,0,0,1,0-2.769,3.59355,3.59355,0,0,1,1.89746-1.90186A3.45894,3.45894,0,0,1,11,9.8125ZM11,15.75a2.30323,2.30323,0,0,0,.92285-.18555,2.39175,2.39175,0,0,0,1.2666-1.2666,2.38771,2.38771,0,0,0,0-1.8457,2.39175,2.39175,0,0,0-1.2666-1.2666,2.38771,2.38771,0,0,0-1.8457,0,2.39175,2.39175,0,0,0-1.2666,1.2666,2.38771,2.38771,0,0,0,0,1.8457,2.39175,2.39175,0,0,0,1.2666,1.2666A2.30157,2.30157,0,0,0,11,15.75Z"/>
  </g>
</svg>
