<svg xmlns="http://www.w3.org/2000/svg" width="7.76111mm" height="7.76111mm" viewBox="0 0 22 22">
  <defs>
    <style>
      .a {
        fill: none;
      }

      .b {
        fill: #2b73b9;
      }
    </style>
  </defs>
  <g>
    <rect class="a" width="22" height="22"/>
    <path class="b" d="M18.125,9.8125V20.5H3.875V9.8125H6.25V6.34277a4.91143,4.91143,0,0,1,.36182-1.8833,4.80751,4.80751,0,0,1,1.00195-1.54A4.73339,4.73339,0,0,1,9.12109,1.88037a4.8308,4.8308,0,0,1,3.75782,0,4.73339,4.73339,0,0,1,1.50732,1.03906,4.80751,4.80751,0,0,1,1.002,1.54A4.91143,4.91143,0,0,1,15.75,6.34277V9.8125ZM16.9375,11H5.0625v8.3125h11.875Zm-9.5-1.1875h7.125V6.34277a3.733,3.733,0,0,0-.269-1.415,3.67589,3.67589,0,0,0-.74658-1.16406,3.53328,3.53328,0,0,0-5.09375,0,3.66726,3.66726,0,0,0-.74659,1.16406,3.72377,3.72377,0,0,0-.269,1.415Z"/>
  </g>
</svg>
