<svg xmlns="http://www.w3.org/2000/svg" width="7.76111mm" height="7.76111mm" viewBox="0 0 22 22">
  <defs>
    <style>
      .a {
        fill: none;
      }

      .b {
        fill: #2b73b9;
      }
    </style>
  </defs>
  <g>
    <rect class="a" width="22" height="22"/>
    <path class="b" d="M20.5,19.85059a.70124.70124,0,0,1-.15771.4541.531.531,0,0,1-.436.19531.56753.56753,0,0,1-.41748-.17676L12.20605,13.0498a6.65315,6.65315,0,0,1-1.95312,1.12305,6.5104,6.5104,0,0,1-5.51514-.501,6.67286,6.67286,0,0,1-2.34716-2.34766,6.51358,6.51358,0,0,1,0-6.58692A6.68067,6.68067,0,0,1,4.73779,2.39063a6.50964,6.50964,0,0,1,6.58692,0A6.68081,6.68081,0,0,1,13.67188,4.7373a6.46681,6.46681,0,0,1,.89062,3.294,6.39752,6.39752,0,0,1-.38965,2.22168,6.67976,6.67976,0,0,1-1.12256,1.95312q.13917.13917.53369.52833.394.38964.94629.92773.55152.53905,1.20606,1.18359.65333.64453,1.31738,1.30762.66285.66357,1.28467,1.29395.62109.63134,1.104,1.1416.48194.50976.77.84863A1.292,1.292,0,0,1,20.5,19.85059ZM8.03125,13.375a5.1731,5.1731,0,0,0,2.07813-.42187,5.38148,5.38148,0,0,0,2.84375-2.84375,5.32934,5.32934,0,0,0,0-4.15625,5.37254,5.37254,0,0,0-2.84375-2.84375,5.32922,5.32922,0,0,0-4.15625,0A5.37244,5.37244,0,0,0,3.10938,5.95313a5.32922,5.32922,0,0,0,0,4.15625,5.38139,5.38139,0,0,0,2.84375,2.84375A5.17131,5.17131,0,0,0,8.03125,13.375ZM5.0625,7.4375H11V8.625H5.0625Z"/>
  </g>
</svg>
