<svg xmlns="http://www.w3.org/2000/svg" width="7.76111mm" height="7.76111mm" viewBox="0 0 22 22">
  <defs>
    <style>
      .a {
        fill: none;
      }

      .b {
        fill: #2b73b9;
      }
    </style>
  </defs>
  <g>
    <rect class="a" width="22" height="22"/>
    <path class="b" d="M20.32373,19.48877a.59042.59042,0,1,1-.835.835l-7.28272-7.27344a6.66254,6.66254,0,0,1-1.95312,1.12256,6.505,6.505,0,0,1-5.51514-.501,6.67683,6.67683,0,0,1-2.34716-2.34717,6.51358,6.51358,0,0,1,0-6.58692A6.67669,6.67669,0,0,1,4.73779,2.39063a6.51358,6.51358,0,0,1,6.58692,0,6.67683,6.67683,0,0,1,2.34717,2.34716,6.46679,6.46679,0,0,1,.89062,3.29346,6.39752,6.39752,0,0,1-.38965,2.22168,6.67348,6.67348,0,0,1-1.12256,1.95312ZM8.03125,13.375a5.1731,5.1731,0,0,0,2.07813-.42187,5.37705,5.37705,0,0,0,2.84375-2.84375,5.32934,5.32934,0,0,0,0-4.15625,5.377,5.377,0,0,0-2.84375-2.84375,5.32922,5.32922,0,0,0-4.15625,0A5.37687,5.37687,0,0,0,3.10938,5.95313a5.32922,5.32922,0,0,0,0,4.15625,5.377,5.377,0,0,0,2.84375,2.84375A5.17131,5.17131,0,0,0,8.03125,13.375ZM8.625,7.4375H11V8.625H8.625V11H7.4375V8.625H5.0625V7.4375h2.375V5.0625H8.625Z"/>
  </g>
</svg>
