<?xml version="1.0" encoding="utf-8"?>
<!-- Generator: Adobe Illustrator 24.3.0, SVG Export Plug-In . SVG Version: 6.00 Build 0)  -->
<svg version="1.1" id="Layer_1" xmlns="http://www.w3.org/2000/svg" xmlns:xlink="http://www.w3.org/1999/xlink" x="0px" y="0px"
	 viewBox="0 0 24 24" style="enable-background:new 0 0 24 24;" xml:space="preserve">
<style type="text/css">
	.st0{fill:#FFC0C0;}
	.st1{fill:#ED3D3B;}
	.st2{fill:none;stroke:#ED3D3B;stroke-linejoin:round;}
	.st3{fill:none;stroke:#ED3D3B;stroke-linecap:square;stroke-linejoin:round;}
</style>
<g>
	<path class="st0" d="M8,20.5c-0.9,0-1.6-0.7-1.7-1.6L4.5,5.5h14.9l-1.8,13.4c-0.1,0.9-0.8,1.6-1.7,1.6H8z"/>
	<path class="st1" d="M18.9,6l-1.8,12.9c0,0.6-0.6,1.1-1.2,1.1H8c-0.6,0-1.1-0.5-1.2-1.1L5.1,6H18.9 M20,5L20,5L20,5z M20,5H4
		l1.8,14c0.1,1.1,1,2,2.2,2h8c1.1,0,2.1-0.9,2.2-2L20,5L20,5z"/>
</g>
<g>
	<line class="st2" x1="3" y1="5.5" x2="21" y2="5.5"/>
</g>
<g>
	<line class="st3" x1="10.4" y1="16.5" x2="10.4" y2="8.5"/>
</g>
<g>
	<line class="st3" x1="13.4" y1="16.5" x2="13.4" y2="8.5"/>
</g>
<g>
	<path class="st1" d="M12,2.8c1.1,0,3,0.7,3,1.8c0,0,0,0,0,0.1v0.7H9V4.7c0,0,0,0,0-0.1C9,3.5,10.9,2.8,12,2.8 M12,1.8
		c-1.6,0-4,1.1-4,2.8l0,0v2.2h8V4.6l0,0C16,2.9,13.6,1.8,12,1.8L12,1.8z"/>
</g>
<g>
	<polygon class="st0" points="5.5,6 18.5,6 17.5,8.8 6.5,8.8 	"/>
</g>
</svg>
