<svg height="511pt" viewBox="0 -21 511.98744 511" width="511pt" xmlns="http://www.w3.org/2000/svg"><path d="m133.320312 373.828125c-34.152343 0-64.53125-21.867187-75.5625-54.421875l-.746093-2.453125c-2.601563-8.621094-3.691407-15.871094-3.691407-23.125v-145.453125l-51.753906 172.757812c-6.65625 25.410157 8.511719 51.753907 33.960938 58.773438l329.878906 88.34375c4.117188 1.066406 8.234375 1.578125 12.289062 1.578125 21.246094 0 40.660157-14.101563 46.101563-34.882813l19.21875-61.117187zm0 0" fill="#eceff1"/><path d="m511.988281 48.492188v245.335937c0 26.453125-21.546875 48-48 48h-330.667969c-2.132812 0-4.265624-.214844-6.1875-.429687-22.398437-2.769532-39.890624-21.117188-41.597656-43.730469-.214844-1.28125-.214844-2.5625-.214844-3.839844v-245.335937c0-26.453126 21.546876-48 48-48h330.667969c26.453125 0 48 21.546874 48 48zm0 0" fill="#eceff1"/><path d="m234.652344 107.160156c0 23.5625-19.101563 42.667969-42.664063 42.667969-23.566406 0-42.667969-19.105469-42.667969-42.667969s19.101563-42.667968 42.667969-42.667968c23.5625 0 42.664063 19.105468 42.664063 42.667968zm0 0" fill="#ffc107"/><path d="m511.988281 233.878906v59.949219c0 26.453125-21.546875 48-48 48h-330.667969c-2.132812 0-4.265624-.214844-6.1875-.429687l219.734376-219.730469c14.507812-14.507813 38.398437-14.507813 52.90625 0zm0 0" fill="#388e3c"/><path d="m385.265625 341.828125h-251.945313c-2.132812 0-4.265624-.214844-6.1875-.429687-22.398437-2.769532-39.890624-21.117188-41.597656-43.730469l101.332032-101.335938c14.507812-14.503906 38.398437-14.503906 52.90625 0zm0 0" fill="#4caf50"/></svg>