<svg xmlns="http://www.w3.org/2000/svg" viewBox="0 0 20 20"><defs><style>.cls-1{fill:none;}.cls-2{fill:#fff;}</style></defs><title>Ресурс 1230</title><g id="Слой_2" data-name="Слой 2"><g id="Слой_1-2" data-name="Слой 1"><rect id="canvas_background" data-name="canvas background" class="cls-1" width="20" height="20"/><path class="cls-2" d="M14.83,2.82a2.38,2.38,0,0,0-1.67.68L11.65,5l-.55-.54-.76.77.54.54L5.71,11a6.35,6.35,0,0,0-1.09,1.34,2.67,2.67,0,0,0-.3.92,1.58,1.58,0,0,1-.19.58,5.53,5.53,0,0,1-.94,1.12l-.37.39.37.39L4.28,16.8l.39.38.4-.38a5.44,5.44,0,0,1,1.08-.9,1.79,1.79,0,0,1,.58-.19,2.61,2.61,0,0,0,.92-.3A7,7,0,0,0,9,14.29L14.2,9.12l.54.54.77-.77L15,8.35l1.53-1.51a2.35,2.35,0,0,0-1.66-4Zm0,1.09a1.27,1.27,0,0,1,.88,2.16L14.2,7.59,12.41,5.8l1.52-1.51A1.27,1.27,0,0,1,14.83,3.91ZM11.65,6.56l1.78,1.79L8.26,13.52a5.54,5.54,0,0,1-1.14.94,1.39,1.39,0,0,1-.57.18,2.8,2.8,0,0,0-.91.29,6.46,6.46,0,0,0-.91.75l-.41-.41a7.11,7.11,0,0,0,.76-.93,2.88,2.88,0,0,0,.31-.94,1.43,1.43,0,0,1,.19-.56,4.93,4.93,0,0,1,.9-1.11Z"/></g></g></svg>