<svg xmlns="http://www.w3.org/2000/svg" viewBox="0 0 20 20"><defs><style>.cls-1{fill:none;}.cls-2{fill:#fff;}</style></defs><title>Ресурс 1225</title><g id="Слой_2" data-name="Слой 2"><g id="Слой_1-2" data-name="Слой 1"><rect id="canvas_background" data-name="canvas background" class="cls-1" width="20" height="20"/><path class="cls-2" d="M16.55,2.36a1.22,1.22,0,0,1,.43.08,1.22,1.22,0,0,1,.58.58,1.22,1.22,0,0,1,.08.43V17.64H4.31l-1.95-2V3.45A1.22,1.22,0,0,1,2.44,3,1.22,1.22,0,0,1,3,2.44a1.22,1.22,0,0,1,.43-.08Zm0,1.09H15.46V10H4.54V3.45H3.45V15.23l1.31,1.32h.87V12.18h7.64v4.37h3.28ZM5.63,8.91h8.74V3.45H5.63Zm6.55,4.36H6.73v3.28H7.82V14.37H8.91v2.18h3.27Z"/></g></g></svg>