<svg xmlns="http://www.w3.org/2000/svg" viewBox="0 0 20 20"><defs><style>.cls-1{fill:none;}.cls-2{fill:#fff;}</style></defs><title>Ресурс 1228</title><g id="Слой_2" data-name="Слой 2"><g id="Слой_1-2" data-name="Слой 1"><rect id="canvas_background" data-name="canvas background" class="cls-1" width="20" height="20"/><path class="cls-2" d="M17.1,4.54H16V17.1a1.53,1.53,0,0,1-.13.64,1.45,1.45,0,0,1-.35.52,1.64,1.64,0,0,1-1.16.48H5.63a1.64,1.64,0,0,1-1.16-.48A1.64,1.64,0,0,1,4,17.1V4.54H2.9V3.44H7.27V2.35a1.26,1.26,0,0,1,.08-.43,1.22,1.22,0,0,1,.58-.58,1.26,1.26,0,0,1,.43-.08h3.28a1.26,1.26,0,0,1,.43.08,1.22,1.22,0,0,1,.58.58,1.26,1.26,0,0,1,.08.43V3.44H17.1Zm-2.18,0H5.08V17.1a.54.54,0,0,0,.17.39.53.53,0,0,0,.38.16h8.74a.53.53,0,0,0,.38-.16.54.54,0,0,0,.17-.39ZM8.36,15.46H7.27V6.72H8.36Zm0-12h3.28V2.35H8.36Zm2.19,12H9.45V6.72h1.1Zm2.18,0H11.64V6.72h1.09Z"/></g></g></svg>