<svg xmlns="http://www.w3.org/2000/svg" viewBox="0 0 20 20"><defs><style>.cls-1{fill:none;}.cls-2{fill:#fff;}</style></defs><title>Ресурс 1221</title><g id="Слой_2" data-name="Слой 2"><g id="Слой_1-2" data-name="Слой 1"><rect id="canvas_background" data-name="canvas background" class="cls-1" width="20" height="20"/><polygon class="cls-2" points="17.6 7.83 17.6 2.4 12.17 2.4 12.17 3.49 15.74 3.49 10 9.23 4.26 3.49 7.83 3.49 7.83 2.4 2.4 2.4 2.4 7.83 3.49 7.83 3.49 4.26 9.23 10 3.49 15.74 3.49 12.17 2.4 12.17 2.4 17.6 7.83 17.6 7.83 16.51 4.26 16.51 10 10.77 15.74 16.51 12.17 16.51 12.17 17.6 17.6 17.6 17.6 12.17 16.51 12.17 16.51 15.74 10.77 10 16.51 4.26 16.51 7.83 17.6 7.83"/></g></g></svg>