<svg xmlns="http://www.w3.org/2000/svg" viewBox="0 0 20 20"><defs><style>.cls-1{fill:none;}.cls-2{fill:#fff;}</style></defs><title>Ресурс 1205</title><g id="Слой_2" data-name="Слой 2"><g id="Слой_1-2" data-name="Слой 1"><rect id="canvas_background" data-name="canvas background" class="cls-1" width="20" height="20"/><path class="cls-2" d="M18.74,10a8.55,8.55,0,0,1-.32,2.32,8.84,8.84,0,0,1-.9,2.12,8.53,8.53,0,0,1-1.42,1.81,8.68,8.68,0,0,1-1.88,1.4h2.33v1.09H12.18V14.37h1.1V16.9a7.5,7.5,0,0,0,1.8-1.19,7.65,7.65,0,0,0,1.38-1.63A7.64,7.64,0,0,0,17.65,10a7.21,7.21,0,0,0-.28-2,7.55,7.55,0,0,0-.77-1.82A7.76,7.76,0,0,0,13.85,3.4,7.55,7.55,0,0,0,12,2.63a7.21,7.21,0,0,0-2-.28,7.67,7.67,0,0,0-3.85,1A7.76,7.76,0,0,0,3.4,6.15,7.55,7.55,0,0,0,2.63,8a7.21,7.21,0,0,0-.28,2,7.37,7.37,0,0,0,.42,2.47,7.53,7.53,0,0,0,1.15,2.15A7.73,7.73,0,0,0,5.7,16.31,7.08,7.08,0,0,0,8,17.36l-.29,1.05a8.06,8.06,0,0,1-2.59-1.2,8.71,8.71,0,0,1-3.35-4.39A8.6,8.6,0,0,1,1.26,10a8.89,8.89,0,0,1,.31-2.32,8.8,8.8,0,0,1,4-5.23,8.79,8.79,0,0,1,6.73-.88,8.74,8.74,0,0,1,6.11,6.11A8.89,8.89,0,0,1,18.74,10ZM10,7.82A2.17,2.17,0,0,1,12.18,10,2.17,2.17,0,0,1,10,12.18,2.17,2.17,0,0,1,7.82,10,2.17,2.17,0,0,1,10,7.82Zm0,3.27a1.22,1.22,0,0,0,.43-.08,1.22,1.22,0,0,0,.58-.58,1.2,1.2,0,0,0,0-.86A1.22,1.22,0,0,0,10.43,9a1.2,1.2,0,0,0-.86,0A1.22,1.22,0,0,0,9,9.57a1.2,1.2,0,0,0,0,.86,1.22,1.22,0,0,0,.58.58A1.22,1.22,0,0,0,10,11.09Z"/></g></g></svg>