<svg xmlns="http://www.w3.org/2000/svg" viewBox="0 0 20 20"><defs><style>.cls-1{fill:#fff;}.cls-2{fill:none;}</style></defs><title>Ресурс 1210</title><g id="Слой_2" data-name="Слой 2"><g id="Слой_1-2" data-name="Слой 1"><path class="cls-1" d="M18.58,17.81a.51.51,0,0,1,.16.38.55.55,0,0,1-.55.55.51.51,0,0,1-.38-.16l-6.7-6.69a6.22,6.22,0,0,1-1.8,1,5.84,5.84,0,0,1-2,.36,5.72,5.72,0,0,1-1.6-.22,5.85,5.85,0,0,1-1.43-.6A6.51,6.51,0,0,1,3,11.52a6.51,6.51,0,0,1-.94-1.22,6.29,6.29,0,0,1-.61-1.43,6.2,6.2,0,0,1,0-3.2,6.29,6.29,0,0,1,.61-1.43A6.51,6.51,0,0,1,3,3a6.51,6.51,0,0,1,1.22-.94,6.29,6.29,0,0,1,1.43-.61,6.05,6.05,0,0,1,1.6-.21,6,6,0,0,1,1.59.21,6.36,6.36,0,0,1,1.44.61,6.2,6.2,0,0,1,2.16,2.16,5.85,5.85,0,0,1,.6,1.43,5.67,5.67,0,0,1,.22,1.6,5.84,5.84,0,0,1-.36,2,6.22,6.22,0,0,1-1,1.8ZM7.27,12.18a4.72,4.72,0,0,0,1.91-.38A5,5,0,0,0,11.8,9.18a4.87,4.87,0,0,0,0-3.82A4.94,4.94,0,0,0,9.18,2.74a4.87,4.87,0,0,0-3.82,0A4.94,4.94,0,0,0,2.74,5.36a4.87,4.87,0,0,0,0,3.82A5,5,0,0,0,5.36,11.8,4.69,4.69,0,0,0,7.27,12.18ZM10,7.82H4.54V6.72H10"/><rect id="canvas_background" data-name="canvas background" class="cls-2" width="20" height="20"/></g></g></svg>