<svg xmlns="http://www.w3.org/2000/svg" viewBox="0 0 20 20"><defs><style>.cls-1{fill:none;}.cls-2{fill:#fff;}</style></defs><title>Ресурс 1216</title><g id="Слой_2" data-name="Слой 2"><g id="Слой_1-2" data-name="Слой 1"><rect id="canvas_background" data-name="canvas background" class="cls-1" width="20" height="20"/><path class="cls-2" d="M16.55,8.91v9.83H3.45V8.91H5.63V5.72A4.6,4.6,0,0,1,6,4a4.38,4.38,0,0,1,.93-1.41,4.32,4.32,0,0,1,6.22,0A4.38,4.38,0,0,1,14,4a4.6,4.6,0,0,1,.33,1.74V8.91ZM15.46,10H4.54v7.65H15.46ZM6.72,8.91h6.56V5.72A3.5,3.5,0,0,0,13,4.42a3.56,3.56,0,0,0-.69-1.08,3.34,3.34,0,0,0-1-.72,3.26,3.26,0,0,0-2.6,0,3.34,3.34,0,0,0-1,.72A3.38,3.38,0,0,0,7,4.42a3.5,3.5,0,0,0-.25,1.3V8.91Z"/></g></g></svg>